<?xml version="1.0" encoding="utf-8" standalone="no"?>
<!DOCTYPE svg PUBLIC "-//W3C//DTD SVG 1.1//EN"
  "http://www.w3.org/Graphics/SVG/1.1/DTD/svg11.dtd">
<!-- Created with matplotlib (https://matplotlib.org/) -->
<svg height="345.6pt" version="1.1" viewBox="0 0 460.8 345.6" width="460.8pt" xmlns="http://www.w3.org/2000/svg" xmlns:xlink="http://www.w3.org/1999/xlink">
 <defs>
  <style type="text/css">
*{stroke-linecap:butt;stroke-linejoin:round;}
  </style>
 </defs>
 <g id="figure_1">
  <g id="patch_1">
   <path d="M 0 345.6 
L 460.8 345.6 
L 460.8 0 
L 0 0 
z
" style="fill:#ffffff;"/>
  </g>
  <g id="axes_1">
   <g id="patch_2">
    <path d="M 57.6 307.584 
L 414.72 307.584 
L 414.72 41.472 
L 57.6 41.472 
z
" style="fill:#ffffff;"/>
   </g>
   <g id="matplotlib.axis_1">
    <g id="xtick_1">
     <g id="line2d_1">
      <path clip-path="url(#p6c0e54a2d4)" d="M 73.832727 307.584 
L 73.832727 41.472 
" style="fill:none;stroke:#b0b0b0;stroke-linecap:square;stroke-width:0.8;"/>
     </g>
     <g id="line2d_2">
      <defs>
       <path d="M 0 0 
L 0 3.5 
" id="mc8c4dc950e" style="stroke:#000000;stroke-width:0.8;"/>
      </defs>
      <g>
       <use style="stroke:#000000;stroke-width:0.8;" x="73.832727" xlink:href="#mc8c4dc950e" y="307.584"/>
      </g>
     </g>
     <g id="text_1">
      <!-- 0 -->
      <defs>
       <path d="M 31.78125 66.40625 
Q 24.171875 66.40625 20.328125 58.90625 
Q 16.5 51.421875 16.5 36.375 
Q 16.5 21.390625 20.328125 13.890625 
Q 24.171875 6.390625 31.78125 6.390625 
Q 39.453125 6.390625 43.28125 13.890625 
Q 47.125 21.390625 47.125 36.375 
Q 47.125 51.421875 43.28125 58.90625 
Q 39.453125 66.40625 31.78125 66.40625 
z
M 31.78125 74.21875 
Q 44.046875 74.21875 50.515625 64.515625 
Q 56.984375 54.828125 56.984375 36.375 
Q 56.984375 17.96875 50.515625 8.265625 
Q 44.046875 -1.421875 31.78125 -1.421875 
Q 19.53125 -1.421875 13.0625 8.265625 
Q 6.59375 17.96875 6.59375 36.375 
Q 6.59375 54.828125 13.0625 64.515625 
Q 19.53125 74.21875 31.78125 74.21875 
z
" id="DejaVuSans-48"/>
      </defs>
      <g transform="translate(70.651477 322.182437)scale(0.1 -0.1)">
       <use xlink:href="#DejaVuSans-48"/>
      </g>
     </g>
    </g>
    <g id="xtick_2">
     <g id="line2d_3">
      <path clip-path="url(#p6c0e54a2d4)" d="M 121.716879 307.584 
L 121.716879 41.472 
" style="fill:none;stroke:#b0b0b0;stroke-linecap:square;stroke-width:0.8;"/>
     </g>
     <g id="line2d_4">
      <g>
       <use style="stroke:#000000;stroke-width:0.8;" x="121.716879" xlink:href="#mc8c4dc950e" y="307.584"/>
      </g>
     </g>
     <g id="text_2">
      <!-- 50 -->
      <defs>
       <path d="M 10.796875 72.90625 
L 49.515625 72.90625 
L 49.515625 64.59375 
L 19.828125 64.59375 
L 19.828125 46.734375 
Q 21.96875 47.46875 24.109375 47.828125 
Q 26.265625 48.1875 28.421875 48.1875 
Q 40.625 48.1875 47.75 41.5 
Q 54.890625 34.8125 54.890625 23.390625 
Q 54.890625 11.625 47.5625 5.09375 
Q 40.234375 -1.421875 26.90625 -1.421875 
Q 22.3125 -1.421875 17.546875 -0.640625 
Q 12.796875 0.140625 7.71875 1.703125 
L 7.71875 11.625 
Q 12.109375 9.234375 16.796875 8.0625 
Q 21.484375 6.890625 26.703125 6.890625 
Q 35.15625 6.890625 40.078125 11.328125 
Q 45.015625 15.765625 45.015625 23.390625 
Q 45.015625 31 40.078125 35.4375 
Q 35.15625 39.890625 26.703125 39.890625 
Q 22.75 39.890625 18.8125 39.015625 
Q 14.890625 38.140625 10.796875 36.28125 
z
" id="DejaVuSans-53"/>
      </defs>
      <g transform="translate(115.354379 322.182437)scale(0.1 -0.1)">
       <use xlink:href="#DejaVuSans-53"/>
       <use x="63.623047" xlink:href="#DejaVuSans-48"/>
      </g>
     </g>
    </g>
    <g id="xtick_3">
     <g id="line2d_5">
      <path clip-path="url(#p6c0e54a2d4)" d="M 169.60103 307.584 
L 169.60103 41.472 
" style="fill:none;stroke:#b0b0b0;stroke-linecap:square;stroke-width:0.8;"/>
     </g>
     <g id="line2d_6">
      <g>
       <use style="stroke:#000000;stroke-width:0.8;" x="169.60103" xlink:href="#mc8c4dc950e" y="307.584"/>
      </g>
     </g>
     <g id="text_3">
      <!-- 100 -->
      <defs>
       <path d="M 12.40625 8.296875 
L 28.515625 8.296875 
L 28.515625 63.921875 
L 10.984375 60.40625 
L 10.984375 69.390625 
L 28.421875 72.90625 
L 38.28125 72.90625 
L 38.28125 8.296875 
L 54.390625 8.296875 
L 54.390625 0 
L 12.40625 0 
z
" id="DejaVuSans-49"/>
      </defs>
      <g transform="translate(160.05728 322.182437)scale(0.1 -0.1)">
       <use xlink:href="#DejaVuSans-49"/>
       <use x="63.623047" xlink:href="#DejaVuSans-48"/>
       <use x="127.246094" xlink:href="#DejaVuSans-48"/>
      </g>
     </g>
    </g>
    <g id="xtick_4">
     <g id="line2d_7">
      <path clip-path="url(#p6c0e54a2d4)" d="M 217.485181 307.584 
L 217.485181 41.472 
" style="fill:none;stroke:#b0b0b0;stroke-linecap:square;stroke-width:0.8;"/>
     </g>
     <g id="line2d_8">
      <g>
       <use style="stroke:#000000;stroke-width:0.8;" x="217.485181" xlink:href="#mc8c4dc950e" y="307.584"/>
      </g>
     </g>
     <g id="text_4">
      <!-- 150 -->
      <g transform="translate(207.941431 322.182437)scale(0.1 -0.1)">
       <use xlink:href="#DejaVuSans-49"/>
       <use x="63.623047" xlink:href="#DejaVuSans-53"/>
       <use x="127.246094" xlink:href="#DejaVuSans-48"/>
      </g>
     </g>
    </g>
    <g id="xtick_5">
     <g id="line2d_9">
      <path clip-path="url(#p6c0e54a2d4)" d="M 265.369332 307.584 
L 265.369332 41.472 
" style="fill:none;stroke:#b0b0b0;stroke-linecap:square;stroke-width:0.8;"/>
     </g>
     <g id="line2d_10">
      <g>
       <use style="stroke:#000000;stroke-width:0.8;" x="265.369332" xlink:href="#mc8c4dc950e" y="307.584"/>
      </g>
     </g>
     <g id="text_5">
      <!-- 200 -->
      <defs>
       <path d="M 19.1875 8.296875 
L 53.609375 8.296875 
L 53.609375 0 
L 7.328125 0 
L 7.328125 8.296875 
Q 12.9375 14.109375 22.625 23.890625 
Q 32.328125 33.6875 34.8125 36.53125 
Q 39.546875 41.84375 41.421875 45.53125 
Q 43.3125 49.21875 43.3125 52.78125 
Q 43.3125 58.59375 39.234375 62.25 
Q 35.15625 65.921875 28.609375 65.921875 
Q 23.96875 65.921875 18.8125 64.3125 
Q 13.671875 62.703125 7.8125 59.421875 
L 7.8125 69.390625 
Q 13.765625 71.78125 18.9375 73 
Q 24.125 74.21875 28.421875 74.21875 
Q 39.75 74.21875 46.484375 68.546875 
Q 53.21875 62.890625 53.21875 53.421875 
Q 53.21875 48.921875 51.53125 44.890625 
Q 49.859375 40.875 45.40625 35.40625 
Q 44.1875 33.984375 37.640625 27.21875 
Q 31.109375 20.453125 19.1875 8.296875 
z
" id="DejaVuSans-50"/>
      </defs>
      <g transform="translate(255.825582 322.182437)scale(0.1 -0.1)">
       <use xlink:href="#DejaVuSans-50"/>
       <use x="63.623047" xlink:href="#DejaVuSans-48"/>
       <use x="127.246094" xlink:href="#DejaVuSans-48"/>
      </g>
     </g>
    </g>
    <g id="xtick_6">
     <g id="line2d_11">
      <path clip-path="url(#p6c0e54a2d4)" d="M 313.253484 307.584 
L 313.253484 41.472 
" style="fill:none;stroke:#b0b0b0;stroke-linecap:square;stroke-width:0.8;"/>
     </g>
     <g id="line2d_12">
      <g>
       <use style="stroke:#000000;stroke-width:0.8;" x="313.253484" xlink:href="#mc8c4dc950e" y="307.584"/>
      </g>
     </g>
     <g id="text_6">
      <!-- 250 -->
      <g transform="translate(303.709734 322.182437)scale(0.1 -0.1)">
       <use xlink:href="#DejaVuSans-50"/>
       <use x="63.623047" xlink:href="#DejaVuSans-53"/>
       <use x="127.246094" xlink:href="#DejaVuSans-48"/>
      </g>
     </g>
    </g>
    <g id="xtick_7">
     <g id="line2d_13">
      <path clip-path="url(#p6c0e54a2d4)" d="M 361.137635 307.584 
L 361.137635 41.472 
" style="fill:none;stroke:#b0b0b0;stroke-linecap:square;stroke-width:0.8;"/>
     </g>
     <g id="line2d_14">
      <g>
       <use style="stroke:#000000;stroke-width:0.8;" x="361.137635" xlink:href="#mc8c4dc950e" y="307.584"/>
      </g>
     </g>
     <g id="text_7">
      <!-- 300 -->
      <defs>
       <path d="M 40.578125 39.3125 
Q 47.65625 37.796875 51.625 33 
Q 55.609375 28.21875 55.609375 21.1875 
Q 55.609375 10.40625 48.1875 4.484375 
Q 40.765625 -1.421875 27.09375 -1.421875 
Q 22.515625 -1.421875 17.65625 -0.515625 
Q 12.796875 0.390625 7.625 2.203125 
L 7.625 11.71875 
Q 11.71875 9.328125 16.59375 8.109375 
Q 21.484375 6.890625 26.8125 6.890625 
Q 36.078125 6.890625 40.9375 10.546875 
Q 45.796875 14.203125 45.796875 21.1875 
Q 45.796875 27.640625 41.28125 31.265625 
Q 36.765625 34.90625 28.71875 34.90625 
L 20.21875 34.90625 
L 20.21875 43.015625 
L 29.109375 43.015625 
Q 36.375 43.015625 40.234375 45.921875 
Q 44.09375 48.828125 44.09375 54.296875 
Q 44.09375 59.90625 40.109375 62.90625 
Q 36.140625 65.921875 28.71875 65.921875 
Q 24.65625 65.921875 20.015625 65.03125 
Q 15.375 64.15625 9.8125 62.3125 
L 9.8125 71.09375 
Q 15.4375 72.65625 20.34375 73.4375 
Q 25.25 74.21875 29.59375 74.21875 
Q 40.828125 74.21875 47.359375 69.109375 
Q 53.90625 64.015625 53.90625 55.328125 
Q 53.90625 49.265625 50.4375 45.09375 
Q 46.96875 40.921875 40.578125 39.3125 
z
" id="DejaVuSans-51"/>
      </defs>
      <g transform="translate(351.593885 322.182437)scale(0.1 -0.1)">
       <use xlink:href="#DejaVuSans-51"/>
       <use x="63.623047" xlink:href="#DejaVuSans-48"/>
       <use x="127.246094" xlink:href="#DejaVuSans-48"/>
      </g>
     </g>
    </g>
    <g id="xtick_8">
     <g id="line2d_15">
      <path clip-path="url(#p6c0e54a2d4)" d="M 409.021786 307.584 
L 409.021786 41.472 
" style="fill:none;stroke:#b0b0b0;stroke-linecap:square;stroke-width:0.8;"/>
     </g>
     <g id="line2d_16">
      <g>
       <use style="stroke:#000000;stroke-width:0.8;" x="409.021786" xlink:href="#mc8c4dc950e" y="307.584"/>
      </g>
     </g>
     <g id="text_8">
      <!-- 350 -->
      <g transform="translate(399.478036 322.182437)scale(0.1 -0.1)">
       <use xlink:href="#DejaVuSans-51"/>
       <use x="63.623047" xlink:href="#DejaVuSans-53"/>
       <use x="127.246094" xlink:href="#DejaVuSans-48"/>
      </g>
     </g>
    </g>
    <g id="text_9">
     <!-- Generations -->
     <defs>
      <path d="M 59.515625 10.40625 
L 59.515625 29.984375 
L 43.40625 29.984375 
L 43.40625 38.09375 
L 69.28125 38.09375 
L 69.28125 6.78125 
Q 63.578125 2.734375 56.6875 0.65625 
Q 49.8125 -1.421875 42 -1.421875 
Q 24.90625 -1.421875 15.25 8.5625 
Q 5.609375 18.5625 5.609375 36.375 
Q 5.609375 54.25 15.25 64.234375 
Q 24.90625 74.21875 42 74.21875 
Q 49.125 74.21875 55.546875 72.453125 
Q 61.96875 70.703125 67.390625 67.28125 
L 67.390625 56.78125 
Q 61.921875 61.421875 55.765625 63.765625 
Q 49.609375 66.109375 42.828125 66.109375 
Q 29.4375 66.109375 22.71875 58.640625 
Q 16.015625 51.171875 16.015625 36.375 
Q 16.015625 21.625 22.71875 14.15625 
Q 29.4375 6.6875 42.828125 6.6875 
Q 48.046875 6.6875 52.140625 7.59375 
Q 56.25 8.5 59.515625 10.40625 
z
" id="DejaVuSans-71"/>
      <path d="M 56.203125 29.59375 
L 56.203125 25.203125 
L 14.890625 25.203125 
Q 15.484375 15.921875 20.484375 11.0625 
Q 25.484375 6.203125 34.421875 6.203125 
Q 39.59375 6.203125 44.453125 7.46875 
Q 49.3125 8.734375 54.109375 11.28125 
L 54.109375 2.78125 
Q 49.265625 0.734375 44.1875 -0.34375 
Q 39.109375 -1.421875 33.890625 -1.421875 
Q 20.796875 -1.421875 13.15625 6.1875 
Q 5.515625 13.8125 5.515625 26.8125 
Q 5.515625 40.234375 12.765625 48.109375 
Q 20.015625 56 32.328125 56 
Q 43.359375 56 49.78125 48.890625 
Q 56.203125 41.796875 56.203125 29.59375 
z
M 47.21875 32.234375 
Q 47.125 39.59375 43.09375 43.984375 
Q 39.0625 48.390625 32.421875 48.390625 
Q 24.90625 48.390625 20.390625 44.140625 
Q 15.875 39.890625 15.1875 32.171875 
z
" id="DejaVuSans-101"/>
      <path d="M 54.890625 33.015625 
L 54.890625 0 
L 45.90625 0 
L 45.90625 32.71875 
Q 45.90625 40.484375 42.875 44.328125 
Q 39.84375 48.1875 33.796875 48.1875 
Q 26.515625 48.1875 22.3125 43.546875 
Q 18.109375 38.921875 18.109375 30.90625 
L 18.109375 0 
L 9.078125 0 
L 9.078125 54.6875 
L 18.109375 54.6875 
L 18.109375 46.1875 
Q 21.34375 51.125 25.703125 53.5625 
Q 30.078125 56 35.796875 56 
Q 45.21875 56 50.046875 50.171875 
Q 54.890625 44.34375 54.890625 33.015625 
z
" id="DejaVuSans-110"/>
      <path d="M 41.109375 46.296875 
Q 39.59375 47.171875 37.8125 47.578125 
Q 36.03125 48 33.890625 48 
Q 26.265625 48 22.1875 43.046875 
Q 18.109375 38.09375 18.109375 28.8125 
L 18.109375 0 
L 9.078125 0 
L 9.078125 54.6875 
L 18.109375 54.6875 
L 18.109375 46.1875 
Q 20.953125 51.171875 25.484375 53.578125 
Q 30.03125 56 36.53125 56 
Q 37.453125 56 38.578125 55.875 
Q 39.703125 55.765625 41.0625 55.515625 
z
" id="DejaVuSans-114"/>
      <path d="M 34.28125 27.484375 
Q 23.390625 27.484375 19.1875 25 
Q 14.984375 22.515625 14.984375 16.5 
Q 14.984375 11.71875 18.140625 8.90625 
Q 21.296875 6.109375 26.703125 6.109375 
Q 34.1875 6.109375 38.703125 11.40625 
Q 43.21875 16.703125 43.21875 25.484375 
L 43.21875 27.484375 
z
M 52.203125 31.203125 
L 52.203125 0 
L 43.21875 0 
L 43.21875 8.296875 
Q 40.140625 3.328125 35.546875 0.953125 
Q 30.953125 -1.421875 24.3125 -1.421875 
Q 15.921875 -1.421875 10.953125 3.296875 
Q 6 8.015625 6 15.921875 
Q 6 25.140625 12.171875 29.828125 
Q 18.359375 34.515625 30.609375 34.515625 
L 43.21875 34.515625 
L 43.21875 35.40625 
Q 43.21875 41.609375 39.140625 45 
Q 35.0625 48.390625 27.6875 48.390625 
Q 23 48.390625 18.546875 47.265625 
Q 14.109375 46.140625 10.015625 43.890625 
L 10.015625 52.203125 
Q 14.9375 54.109375 19.578125 55.046875 
Q 24.21875 56 28.609375 56 
Q 40.484375 56 46.34375 49.84375 
Q 52.203125 43.703125 52.203125 31.203125 
z
" id="DejaVuSans-97"/>
      <path d="M 18.3125 70.21875 
L 18.3125 54.6875 
L 36.8125 54.6875 
L 36.8125 47.703125 
L 18.3125 47.703125 
L 18.3125 18.015625 
Q 18.3125 11.328125 20.140625 9.421875 
Q 21.96875 7.515625 27.59375 7.515625 
L 36.8125 7.515625 
L 36.8125 0 
L 27.59375 0 
Q 17.1875 0 13.234375 3.875 
Q 9.28125 7.765625 9.28125 18.015625 
L 9.28125 47.703125 
L 2.6875 47.703125 
L 2.6875 54.6875 
L 9.28125 54.6875 
L 9.28125 70.21875 
z
" id="DejaVuSans-116"/>
      <path d="M 9.421875 54.6875 
L 18.40625 54.6875 
L 18.40625 0 
L 9.421875 0 
z
M 9.421875 75.984375 
L 18.40625 75.984375 
L 18.40625 64.59375 
L 9.421875 64.59375 
z
" id="DejaVuSans-105"/>
      <path d="M 30.609375 48.390625 
Q 23.390625 48.390625 19.1875 42.75 
Q 14.984375 37.109375 14.984375 27.296875 
Q 14.984375 17.484375 19.15625 11.84375 
Q 23.34375 6.203125 30.609375 6.203125 
Q 37.796875 6.203125 41.984375 11.859375 
Q 46.1875 17.53125 46.1875 27.296875 
Q 46.1875 37.015625 41.984375 42.703125 
Q 37.796875 48.390625 30.609375 48.390625 
z
M 30.609375 56 
Q 42.328125 56 49.015625 48.375 
Q 55.71875 40.765625 55.71875 27.296875 
Q 55.71875 13.875 49.015625 6.21875 
Q 42.328125 -1.421875 30.609375 -1.421875 
Q 18.84375 -1.421875 12.171875 6.21875 
Q 5.515625 13.875 5.515625 27.296875 
Q 5.515625 40.765625 12.171875 48.375 
Q 18.84375 56 30.609375 56 
z
" id="DejaVuSans-111"/>
      <path d="M 44.28125 53.078125 
L 44.28125 44.578125 
Q 40.484375 46.53125 36.375 47.5 
Q 32.28125 48.484375 27.875 48.484375 
Q 21.1875 48.484375 17.84375 46.4375 
Q 14.5 44.390625 14.5 40.28125 
Q 14.5 37.15625 16.890625 35.375 
Q 19.28125 33.59375 26.515625 31.984375 
L 29.59375 31.296875 
Q 39.15625 29.25 43.1875 25.515625 
Q 47.21875 21.78125 47.21875 15.09375 
Q 47.21875 7.46875 41.1875 3.015625 
Q 35.15625 -1.421875 24.609375 -1.421875 
Q 20.21875 -1.421875 15.453125 -0.5625 
Q 10.6875 0.296875 5.421875 2 
L 5.421875 11.28125 
Q 10.40625 8.6875 15.234375 7.390625 
Q 20.0625 6.109375 24.8125 6.109375 
Q 31.15625 6.109375 34.5625 8.28125 
Q 37.984375 10.453125 37.984375 14.40625 
Q 37.984375 18.0625 35.515625 20.015625 
Q 33.0625 21.96875 24.703125 23.78125 
L 21.578125 24.515625 
Q 13.234375 26.265625 9.515625 29.90625 
Q 5.8125 33.546875 5.8125 39.890625 
Q 5.8125 47.609375 11.28125 51.796875 
Q 16.75 56 26.8125 56 
Q 31.78125 56 36.171875 55.265625 
Q 40.578125 54.546875 44.28125 53.078125 
z
" id="DejaVuSans-115"/>
     </defs>
     <g transform="translate(205.662344 335.860562)scale(0.1 -0.1)">
      <use xlink:href="#DejaVuSans-71"/>
      <use x="77.490234" xlink:href="#DejaVuSans-101"/>
      <use x="139.013672" xlink:href="#DejaVuSans-110"/>
      <use x="202.392578" xlink:href="#DejaVuSans-101"/>
      <use x="263.916016" xlink:href="#DejaVuSans-114"/>
      <use x="305.029297" xlink:href="#DejaVuSans-97"/>
      <use x="366.308594" xlink:href="#DejaVuSans-116"/>
      <use x="405.517578" xlink:href="#DejaVuSans-105"/>
      <use x="433.300781" xlink:href="#DejaVuSans-111"/>
      <use x="494.482422" xlink:href="#DejaVuSans-110"/>
      <use x="557.861328" xlink:href="#DejaVuSans-115"/>
     </g>
    </g>
   </g>
   <g id="matplotlib.axis_2">
    <g id="ytick_1">
     <g id="line2d_17">
      <path clip-path="url(#p6c0e54a2d4)" d="M 57.6 300.499002 
L 414.72 300.499002 
" style="fill:none;stroke:#b0b0b0;stroke-linecap:square;stroke-width:0.8;"/>
     </g>
     <g id="line2d_18">
      <defs>
       <path d="M 0 0 
L -3.5 0 
" id="md61b2822d6" style="stroke:#000000;stroke-width:0.8;"/>
      </defs>
      <g>
       <use style="stroke:#000000;stroke-width:0.8;" x="57.6" xlink:href="#md61b2822d6" y="300.499002"/>
      </g>
     </g>
     <g id="text_10">
      <!-- −70 -->
      <defs>
       <path d="M 10.59375 35.5 
L 73.1875 35.5 
L 73.1875 27.203125 
L 10.59375 27.203125 
z
" id="DejaVuSans-8722"/>
       <path d="M 8.203125 72.90625 
L 55.078125 72.90625 
L 55.078125 68.703125 
L 28.609375 0 
L 18.3125 0 
L 43.21875 64.59375 
L 8.203125 64.59375 
z
" id="DejaVuSans-55"/>
      </defs>
      <g transform="translate(29.495313 304.298221)scale(0.1 -0.1)">
       <use xlink:href="#DejaVuSans-8722"/>
       <use x="83.789062" xlink:href="#DejaVuSans-55"/>
       <use x="147.412109" xlink:href="#DejaVuSans-48"/>
      </g>
     </g>
    </g>
    <g id="ytick_2">
     <g id="line2d_19">
      <path clip-path="url(#p6c0e54a2d4)" d="M 57.6 270.100371 
L 414.72 270.100371 
" style="fill:none;stroke:#b0b0b0;stroke-linecap:square;stroke-width:0.8;"/>
     </g>
     <g id="line2d_20">
      <g>
       <use style="stroke:#000000;stroke-width:0.8;" x="57.6" xlink:href="#md61b2822d6" y="270.100371"/>
      </g>
     </g>
     <g id="text_11">
      <!-- −60 -->
      <defs>
       <path d="M 33.015625 40.375 
Q 26.375 40.375 22.484375 35.828125 
Q 18.609375 31.296875 18.609375 23.390625 
Q 18.609375 15.53125 22.484375 10.953125 
Q 26.375 6.390625 33.015625 6.390625 
Q 39.65625 6.390625 43.53125 10.953125 
Q 47.40625 15.53125 47.40625 23.390625 
Q 47.40625 31.296875 43.53125 35.828125 
Q 39.65625 40.375 33.015625 40.375 
z
M 52.59375 71.296875 
L 52.59375 62.3125 
Q 48.875 64.0625 45.09375 64.984375 
Q 41.3125 65.921875 37.59375 65.921875 
Q 27.828125 65.921875 22.671875 59.328125 
Q 17.53125 52.734375 16.796875 39.40625 
Q 19.671875 43.65625 24.015625 45.921875 
Q 28.375 48.1875 33.59375 48.1875 
Q 44.578125 48.1875 50.953125 41.515625 
Q 57.328125 34.859375 57.328125 23.390625 
Q 57.328125 12.15625 50.6875 5.359375 
Q 44.046875 -1.421875 33.015625 -1.421875 
Q 20.359375 -1.421875 13.671875 8.265625 
Q 6.984375 17.96875 6.984375 36.375 
Q 6.984375 53.65625 15.1875 63.9375 
Q 23.390625 74.21875 37.203125 74.21875 
Q 40.921875 74.21875 44.703125 73.484375 
Q 48.484375 72.75 52.59375 71.296875 
z
" id="DejaVuSans-54"/>
      </defs>
      <g transform="translate(29.495313 273.89959)scale(0.1 -0.1)">
       <use xlink:href="#DejaVuSans-8722"/>
       <use x="83.789062" xlink:href="#DejaVuSans-54"/>
       <use x="147.412109" xlink:href="#DejaVuSans-48"/>
      </g>
     </g>
    </g>
    <g id="ytick_3">
     <g id="line2d_21">
      <path clip-path="url(#p6c0e54a2d4)" d="M 57.6 239.70174 
L 414.72 239.70174 
" style="fill:none;stroke:#b0b0b0;stroke-linecap:square;stroke-width:0.8;"/>
     </g>
     <g id="line2d_22">
      <g>
       <use style="stroke:#000000;stroke-width:0.8;" x="57.6" xlink:href="#md61b2822d6" y="239.70174"/>
      </g>
     </g>
     <g id="text_12">
      <!-- −50 -->
      <g transform="translate(29.495313 243.500958)scale(0.1 -0.1)">
       <use xlink:href="#DejaVuSans-8722"/>
       <use x="83.789062" xlink:href="#DejaVuSans-53"/>
       <use x="147.412109" xlink:href="#DejaVuSans-48"/>
      </g>
     </g>
    </g>
    <g id="ytick_4">
     <g id="line2d_23">
      <path clip-path="url(#p6c0e54a2d4)" d="M 57.6 209.303108 
L 414.72 209.303108 
" style="fill:none;stroke:#b0b0b0;stroke-linecap:square;stroke-width:0.8;"/>
     </g>
     <g id="line2d_24">
      <g>
       <use style="stroke:#000000;stroke-width:0.8;" x="57.6" xlink:href="#md61b2822d6" y="209.303108"/>
      </g>
     </g>
     <g id="text_13">
      <!-- −40 -->
      <defs>
       <path d="M 37.796875 64.3125 
L 12.890625 25.390625 
L 37.796875 25.390625 
z
M 35.203125 72.90625 
L 47.609375 72.90625 
L 47.609375 25.390625 
L 58.015625 25.390625 
L 58.015625 17.1875 
L 47.609375 17.1875 
L 47.609375 0 
L 37.796875 0 
L 37.796875 17.1875 
L 4.890625 17.1875 
L 4.890625 26.703125 
z
" id="DejaVuSans-52"/>
      </defs>
      <g transform="translate(29.495313 213.102327)scale(0.1 -0.1)">
       <use xlink:href="#DejaVuSans-8722"/>
       <use x="83.789062" xlink:href="#DejaVuSans-52"/>
       <use x="147.412109" xlink:href="#DejaVuSans-48"/>
      </g>
     </g>
    </g>
    <g id="ytick_5">
     <g id="line2d_25">
      <path clip-path="url(#p6c0e54a2d4)" d="M 57.6 178.904477 
L 414.72 178.904477 
" style="fill:none;stroke:#b0b0b0;stroke-linecap:square;stroke-width:0.8;"/>
     </g>
     <g id="line2d_26">
      <g>
       <use style="stroke:#000000;stroke-width:0.8;" x="57.6" xlink:href="#md61b2822d6" y="178.904477"/>
      </g>
     </g>
     <g id="text_14">
      <!-- −30 -->
      <g transform="translate(29.495313 182.703696)scale(0.1 -0.1)">
       <use xlink:href="#DejaVuSans-8722"/>
       <use x="83.789062" xlink:href="#DejaVuSans-51"/>
       <use x="147.412109" xlink:href="#DejaVuSans-48"/>
      </g>
     </g>
    </g>
    <g id="ytick_6">
     <g id="line2d_27">
      <path clip-path="url(#p6c0e54a2d4)" d="M 57.6 148.505846 
L 414.72 148.505846 
" style="fill:none;stroke:#b0b0b0;stroke-linecap:square;stroke-width:0.8;"/>
     </g>
     <g id="line2d_28">
      <g>
       <use style="stroke:#000000;stroke-width:0.8;" x="57.6" xlink:href="#md61b2822d6" y="148.505846"/>
      </g>
     </g>
     <g id="text_15">
      <!-- −20 -->
      <g transform="translate(29.495313 152.305064)scale(0.1 -0.1)">
       <use xlink:href="#DejaVuSans-8722"/>
       <use x="83.789062" xlink:href="#DejaVuSans-50"/>
       <use x="147.412109" xlink:href="#DejaVuSans-48"/>
      </g>
     </g>
    </g>
    <g id="ytick_7">
     <g id="line2d_29">
      <path clip-path="url(#p6c0e54a2d4)" d="M 57.6 118.107214 
L 414.72 118.107214 
" style="fill:none;stroke:#b0b0b0;stroke-linecap:square;stroke-width:0.8;"/>
     </g>
     <g id="line2d_30">
      <g>
       <use style="stroke:#000000;stroke-width:0.8;" x="57.6" xlink:href="#md61b2822d6" y="118.107214"/>
      </g>
     </g>
     <g id="text_16">
      <!-- −10 -->
      <g transform="translate(29.495313 121.906433)scale(0.1 -0.1)">
       <use xlink:href="#DejaVuSans-8722"/>
       <use x="83.789062" xlink:href="#DejaVuSans-49"/>
       <use x="147.412109" xlink:href="#DejaVuSans-48"/>
      </g>
     </g>
    </g>
    <g id="ytick_8">
     <g id="line2d_31">
      <path clip-path="url(#p6c0e54a2d4)" d="M 57.6 87.708583 
L 414.72 87.708583 
" style="fill:none;stroke:#b0b0b0;stroke-linecap:square;stroke-width:0.8;"/>
     </g>
     <g id="line2d_32">
      <g>
       <use style="stroke:#000000;stroke-width:0.8;" x="57.6" xlink:href="#md61b2822d6" y="87.708583"/>
      </g>
     </g>
     <g id="text_17">
      <!-- 0 -->
      <g transform="translate(44.2375 91.507802)scale(0.1 -0.1)">
       <use xlink:href="#DejaVuSans-48"/>
      </g>
     </g>
    </g>
    <g id="ytick_9">
     <g id="line2d_33">
      <path clip-path="url(#p6c0e54a2d4)" d="M 57.6 57.309952 
L 414.72 57.309952 
" style="fill:none;stroke:#b0b0b0;stroke-linecap:square;stroke-width:0.8;"/>
     </g>
     <g id="line2d_34">
      <g>
       <use style="stroke:#000000;stroke-width:0.8;" x="57.6" xlink:href="#md61b2822d6" y="57.309952"/>
      </g>
     </g>
     <g id="text_18">
      <!-- 10 -->
      <g transform="translate(37.875 61.10917)scale(0.1 -0.1)">
       <use xlink:href="#DejaVuSans-49"/>
       <use x="63.623047" xlink:href="#DejaVuSans-48"/>
      </g>
     </g>
    </g>
    <g id="text_19">
     <!-- Fitness -->
     <defs>
      <path d="M 9.8125 72.90625 
L 51.703125 72.90625 
L 51.703125 64.59375 
L 19.671875 64.59375 
L 19.671875 43.109375 
L 48.578125 43.109375 
L 48.578125 34.8125 
L 19.671875 34.8125 
L 19.671875 0 
L 9.8125 0 
z
" id="DejaVuSans-70"/>
     </defs>
     <g transform="translate(23.415625 192.202219)rotate(-90)scale(0.1 -0.1)">
      <use xlink:href="#DejaVuSans-70"/>
      <use x="57.410156" xlink:href="#DejaVuSans-105"/>
      <use x="85.193359" xlink:href="#DejaVuSans-116"/>
      <use x="124.402344" xlink:href="#DejaVuSans-110"/>
      <use x="187.78125" xlink:href="#DejaVuSans-101"/>
      <use x="249.304688" xlink:href="#DejaVuSans-115"/>
      <use x="301.404297" xlink:href="#DejaVuSans-115"/>
     </g>
    </g>
   </g>
   <g id="line2d_35">
    <path clip-path="url(#p6c0e54a2d4)" d="M 73.832727 295.488 
L 74.79041 265.476219 
L 76.705776 235.814093 
L 77.663459 225.96979 
L 78.621142 214.052453 
L 79.578825 209.378829 
L 80.536508 206.01833 
L 81.494191 199.163353 
L 82.451874 201.236088 
L 83.409558 191.923001 
L 84.367241 190.304796 
L 85.324924 187.576656 
L 86.282607 190.706882 
L 87.24029 192.20616 
L 88.197973 184.879969 
L 89.155656 185.875175 
L 90.113339 191.311671 
L 91.071022 185.991936 
L 92.028705 177.702509 
L 92.986388 175.330237 
L 93.944071 172.164881 
L 94.901754 175.722185 
L 95.859437 171.915326 
L 96.81712 170.099729 
L 97.774803 165.619559 
L 98.732486 165.489437 
L 99.690169 168.649528 
L 100.647852 165.847103 
L 101.605535 160.746094 
L 102.563218 163.946098 
L 103.520901 160.213132 
L 104.478584 161.2601 
L 105.436267 155.095332 
L 106.39395 155.745888 
L 107.351633 158.194311 
L 108.309316 154.682349 
L 109.266999 149.829905 
L 110.224682 148.862752 
L 111.182365 148.883074 
L 112.140048 144.628068 
L 113.097731 146.821982 
L 114.055414 146.72535 
L 115.013097 139.156971 
L 115.97078 141.904385 
L 116.928463 137.065292 
L 117.886146 141.740175 
L 118.843829 138.475118 
L 119.801512 139.070428 
L 120.759195 134.547311 
L 121.716879 138.075546 
L 122.674562 137.421649 
L 123.632245 138.264722 
L 124.589928 138.051033 
L 125.547611 136.658623 
L 126.505294 131.807616 
L 127.462977 129.251444 
L 128.42066 129.139703 
L 129.378343 127.58927 
L 130.336026 121.750229 
L 131.293709 123.978396 
L 132.251392 119.971874 
L 133.209075 114.443188 
L 134.166758 115.883925 
L 135.124441 114.599972 
L 136.082124 111.201477 
L 137.039807 107.002672 
L 137.99749 107.307063 
L 138.955173 106.406403 
L 139.912856 104.907223 
L 140.870539 104.169507 
L 141.828222 103.084412 
L 142.785905 102.712596 
L 143.743588 98.708345 
L 144.701271 100.452677 
L 145.658954 95.103418 
L 146.616637 97.348621 
L 147.57432 98.025832 
L 148.532003 96.470704 
L 149.489686 96.684133 
L 150.447369 100.354661 
L 151.405052 99.504673 
L 152.362735 100.310605 
L 153.320418 98.114843 
L 154.278101 99.540178 
L 155.235784 105.635458 
L 156.193467 102.204062 
L 157.15115 102.467692 
L 158.108833 97.028492 
L 159.066516 100.37455 
L 160.0242 97.335917 
L 160.981883 95.096748 
L 161.939566 93.661296 
L 162.897249 105.282892 
L 163.854932 97.338602 
L 164.812615 98.231388 
L 165.770298 97.515494 
L 166.727981 92.531913 
L 167.685664 97.542103 
L 168.643347 94.437032 
L 169.60103 93.611569 
L 170.558713 98.047609 
L 171.516396 93.50128 
L 172.474079 96.599543 
L 173.431762 93.70708 
L 174.389445 99.289867 
L 175.347128 95.206336 
L 176.304811 95.530928 
L 177.262494 93.755006 
L 178.220177 96.084473 
L 179.17786 94.911673 
L 180.135543 95.319871 
L 181.093226 93.082417 
L 182.050909 105.187249 
L 183.008592 93.01832 
L 183.966275 93.742522 
L 184.923958 96.259065 
L 185.881641 95.370948 
L 186.839324 93.804439 
L 187.797007 90.359981 
L 188.75469 96.917825 
L 189.712373 96.598223 
L 190.670056 102.291185 
L 191.627739 97.883161 
L 192.585422 94.390196 
L 193.543105 96.712584 
L 194.500788 93.87675 
L 195.458471 98.40931 
L 196.416154 99.090492 
L 197.373837 95.908898 
L 198.331521 92.077981 
L 199.289204 93.863341 
L 200.246887 98.833181 
L 201.20457 95.157386 
L 202.162253 95.476579 
L 203.119936 91.367987 
L 204.077619 94.496696 
L 205.035302 94.254675 
L 205.992985 99.947297 
L 206.950668 96.858266 
L 208.866034 97.387168 
L 209.823717 94.396901 
L 210.7814 99.410878 
L 211.739083 93.967431 
L 212.696766 92.326354 
L 213.654449 90.958136 
L 214.612132 91.934535 
L 215.569815 94.710161 
L 216.527498 95.559787 
L 217.485181 92.139612 
L 218.442864 96.613394 
L 219.400547 94.84962 
L 220.35823 91.646203 
L 221.315913 89.530659 
L 222.273596 91.668075 
L 223.231279 92.348118 
L 224.188962 98.594226 
L 225.146645 94.031628 
L 226.104328 92.434756 
L 227.062011 99.048811 
L 228.019694 96.946154 
L 228.977377 95.440153 
L 229.93506 91.451949 
L 230.892743 91.685508 
L 231.850426 92.471304 
L 232.808109 92.600135 
L 233.765792 95.035282 
L 234.723475 92.295716 
L 235.681158 89.943446 
L 236.638842 94.249493 
L 237.596525 90.963864 
L 238.554208 93.895747 
L 239.511891 93.408612 
L 240.469574 95.3138 
L 241.427257 93.934506 
L 242.38494 97.840745 
L 243.342623 100.091587 
L 244.300306 95.157476 
L 245.257989 95.019041 
L 246.215672 92.254081 
L 247.173355 91.632482 
L 248.131038 94.322605 
L 249.088721 89.679654 
L 250.046404 94.079182 
L 251.004087 91.104109 
L 251.96177 93.103811 
L 252.919453 89.749612 
L 253.877136 91.198556 
L 254.834819 93.139119 
L 255.792502 89.56602 
L 256.750185 91.02508 
L 257.707868 90.882335 
L 258.665551 89.64577 
L 259.623234 94.658044 
L 260.580917 94.4495 
L 261.5386 91.86555 
L 262.496283 90.734318 
L 263.453966 91.220826 
L 264.411649 91.437406 
L 265.369332 90.843639 
L 266.327015 89.374304 
L 267.284698 90.056563 
L 268.242381 91.159522 
L 269.200064 89.126313 
L 270.157747 92.209334 
L 271.11543 92.186543 
L 272.073113 93.33419 
L 273.030796 89.088369 
L 273.988479 92.473282 
L 274.946163 90.058412 
L 275.903846 90.816304 
L 276.861529 92.578437 
L 277.819212 91.176777 
L 278.776895 92.707567 
L 279.734578 89.687951 
L 280.692261 93.619942 
L 281.649944 93.160054 
L 282.607627 92.871176 
L 283.56531 92.433627 
L 284.522993 89.167098 
L 285.480676 92.266614 
L 287.396042 94.004972 
L 288.353725 89.592543 
L 289.311408 93.868541 
L 290.269091 89.099847 
L 291.226774 90.296294 
L 292.184457 96.058442 
L 293.14214 89.183651 
L 294.099823 92.506931 
L 295.057506 92.128573 
L 296.015189 91.358227 
L 296.972872 93.016373 
L 297.930555 91.864288 
L 298.888238 94.594371 
L 299.845921 93.184531 
L 300.803604 92.908549 
L 301.761287 91.617566 
L 302.71897 91.603352 
L 303.676653 98.270329 
L 304.634336 92.595814 
L 305.592019 90.644521 
L 306.549702 92.529177 
L 307.507385 95.303908 
L 308.465068 89.794914 
L 309.422751 92.890312 
L 310.380434 91.336673 
L 311.338117 93.720441 
L 312.2958 90.338445 
L 313.253484 90.077403 
L 314.211167 90.519145 
L 315.16885 93.579638 
L 316.126533 89.090753 
L 317.084216 92.136029 
L 318.041899 90.465889 
L 318.999582 92.439375 
L 319.957265 93.770113 
L 320.914948 92.184246 
L 321.872631 97.416895 
L 322.830314 93.53325 
L 323.787997 94.487805 
L 324.74568 88.740093 
L 325.703363 94.91982 
L 326.661046 91.380385 
L 327.618729 90.005539 
L 328.576412 93.352249 
L 329.534095 89.940973 
L 330.491778 90.234387 
L 331.449461 95.886666 
L 332.407144 92.447964 
L 333.364827 93.221808 
L 335.280193 92.310847 
L 336.237876 97.368412 
L 337.195559 92.817749 
L 338.153242 92.186379 
L 339.110925 94.810229 
L 340.068608 91.116304 
L 341.026291 92.544969 
L 341.983974 89.131346 
L 342.941657 91.117978 
L 343.89934 94.880205 
L 344.857023 92.960322 
L 345.814706 91.591902 
L 346.772389 95.066621 
L 347.730072 92.646359 
L 348.687755 93.883335 
L 349.645438 91.411367 
L 350.603121 90.530205 
L 351.560805 95.818116 
L 352.518488 91.353083 
L 353.476171 93.014351 
L 354.433854 92.48768 
L 355.391537 89.844881 
L 356.34922 90.292002 
L 357.306903 92.533873 
L 358.264586 91.454386 
L 359.222269 92.749873 
L 360.179952 94.96759 
L 361.137635 99.026413 
L 362.095318 91.330791 
L 363.053001 92.424912 
L 364.010684 93.819227 
L 364.968367 93.741336 
L 365.92605 95.092318 
L 366.883733 95.368188 
L 367.841416 96.168888 
L 368.799099 93.834933 
L 369.756782 100.273826 
L 370.714465 91.156108 
L 371.672148 95.279336 
L 372.629831 97.674907 
L 373.587514 90.812287 
L 374.545197 92.158144 
L 375.50288 95.427681 
L 376.460563 90.63171 
L 377.418246 93.893314 
L 378.375929 91.317931 
L 379.333612 92.207322 
L 380.291295 94.933152 
L 381.248978 94.348693 
L 382.206661 90.426822 
L 383.164344 95.815928 
L 384.122027 92.681275 
L 385.07971 90.316672 
L 386.037393 95.550411 
L 386.995076 90.639272 
L 388.910442 90.267955 
L 389.868126 93.445406 
L 390.825809 89.428952 
L 391.783492 91.113323 
L 392.741175 92.564553 
L 393.698858 93.373554 
L 394.656541 90.868101 
L 395.614224 95.017709 
L 396.571907 90.964172 
L 397.52959 91.61497 
L 398.487273 90.686652 
L 398.487273 90.686652 
" style="fill:none;stroke:#0000ff;stroke-linecap:square;stroke-width:1.5;"/>
   </g>
   <g id="line2d_36">
    <path clip-path="url(#p6c0e54a2d4)" d="M 73.832727 237.45572 
L 74.79041 224.504404 
L 75.748093 200.394565 
L 76.705776 194.990748 
L 77.663459 178.571619 
L 78.621142 171.356746 
L 79.578825 166.179314 
L 80.536508 165.660209 
L 81.494191 159.226424 
L 82.451874 157.122884 
L 83.409558 148.265873 
L 84.367241 147.6945 
L 85.324924 150.916008 
L 86.282607 152.589698 
L 87.24029 149.677816 
L 88.197973 144.42652 
L 89.155656 143.845238 
L 90.113339 148.960775 
L 91.071022 139.275878 
L 92.028705 140.926982 
L 92.986388 137.750626 
L 93.944071 135.11163 
L 94.901754 133.490241 
L 95.859437 135.035923 
L 96.81712 130.823866 
L 97.774803 128.597958 
L 98.732486 127.512159 
L 99.690169 128.531546 
L 100.647852 124.400707 
L 101.605535 127.162465 
L 102.563218 123.704119 
L 104.478584 125.234947 
L 105.436267 121.793205 
L 106.39395 120.024022 
L 107.351633 127.251559 
L 109.266999 111.824904 
L 110.224682 113.980315 
L 111.182365 115.076756 
L 112.140048 110.40103 
L 113.097731 111.610714 
L 114.055414 111.156682 
L 115.013097 105.719124 
L 115.97078 105.655528 
L 116.928463 107.551129 
L 117.886146 106.713511 
L 118.843829 103.100835 
L 119.801512 106.914096 
L 120.759195 101.712656 
L 121.716879 103.708325 
L 122.674562 103.497258 
L 123.632245 107.792043 
L 124.589928 103.944821 
L 125.547611 103.649344 
L 127.462977 98.18173 
L 128.42066 93.642011 
L 129.378343 93.258747 
L 130.336026 91.693243 
L 131.293709 90.734495 
L 132.251392 89.429079 
L 133.209075 83.121712 
L 134.166758 85.835623 
L 135.124441 86.813426 
L 136.082124 82.682478 
L 137.039807 80.628974 
L 138.955173 77.130455 
L 139.912856 80.604763 
L 140.870539 76.230316 
L 141.828222 76.769476 
L 142.785905 75.907192 
L 143.743588 74.687069 
L 144.701271 76.01077 
L 145.658954 73.970305 
L 146.616637 75.15379 
L 147.57432 73.706282 
L 148.532003 75.670865 
L 149.489686 71.823246 
L 150.447369 66.860361 
L 151.405052 67.841033 
L 152.362735 66.023268 
L 153.320418 66.611427 
L 154.278101 67.011214 
L 155.235784 64.053862 
L 156.193467 65.78877 
L 157.15115 65.986883 
L 158.108833 70.051731 
L 159.066516 69.62584 
L 160.0242 65.406912 
L 160.981883 65.841661 
L 161.939566 68.453681 
L 162.897249 58.678027 
L 163.854932 64.002551 
L 164.812615 62.639827 
L 165.770298 66.482876 
L 166.727981 72.242869 
L 167.685664 63.233806 
L 168.643347 66.846073 
L 169.60103 69.574367 
L 170.558713 64.452552 
L 171.516396 67.522911 
L 172.474079 61.166133 
L 173.431762 67.09399 
L 174.389445 57.671675 
L 175.347128 64.092066 
L 176.304811 63.964961 
L 177.262494 67.701262 
L 178.220177 62.403741 
L 179.17786 65.094503 
L 180.135543 62.359837 
L 181.093226 68.014886 
L 182.050909 53.568 
L 183.008592 67.298811 
L 183.966275 64.824522 
L 184.923958 61.431678 
L 185.881641 62.373871 
L 186.839324 65.921564 
L 187.797007 76.012633 
L 188.75469 60.09947 
L 189.712373 62.519297 
L 190.670056 55.411507 
L 191.627739 58.279236 
L 192.585422 64.124465 
L 193.543105 60.284123 
L 194.500788 66.138239 
L 195.458471 59.903889 
L 196.416154 60.296946 
L 197.373837 64.182502 
L 198.331521 70.725522 
L 200.246887 57.861435 
L 201.20457 64.164056 
L 202.162253 66.52555 
L 203.119936 73.157881 
L 204.077619 67.465699 
L 205.035302 66.948788 
L 205.992985 59.102009 
L 207.908351 64.215096 
L 208.866034 62.208031 
L 209.823717 64.01542 
L 210.7814 57.675966 
L 211.739083 66.606032 
L 212.696766 70.575091 
L 213.654449 76.677395 
L 214.612132 75.30418 
L 215.569815 66.053936 
L 216.527498 66.48512 
L 217.485181 70.313823 
L 218.442864 61.443394 
L 219.400547 65.738066 
L 220.35823 73.832496 
L 221.315913 85.218892 
L 222.273596 72.761794 
L 223.231279 68.998837 
L 224.188962 58.72645 
L 225.146645 64.885777 
L 226.104328 70.158176 
L 227.062011 58.656155 
L 228.019694 60.448546 
L 228.977377 61.943238 
L 229.93506 74.351294 
L 230.892743 71.389037 
L 231.850426 67.960242 
L 232.808109 71.138239 
L 233.765792 65.444457 
L 234.723475 69.372549 
L 235.681158 84.482639 
L 236.638842 62.649646 
L 237.596525 73.190885 
L 238.554208 66.59259 
L 239.511891 66.629562 
L 240.469574 65.22938 
L 241.427257 67.294222 
L 242.38494 65.48476 
L 243.342623 63.251762 
L 244.300306 70.225597 
L 245.257989 64.91159 
L 246.215672 75.28199 
L 247.173355 68.576426 
L 248.131038 65.681879 
L 249.088721 85.280264 
L 250.046404 65.646491 
L 251.004087 75.526787 
L 251.96177 65.816985 
L 252.919453 83.14249 
L 254.834819 64.794123 
L 255.792502 85.141328 
L 256.750185 73.587537 
L 257.707868 74.144022 
L 258.665551 84.531072 
L 259.623234 62.936821 
L 260.580917 62.611516 
L 261.5386 68.042655 
L 262.496283 75.238437 
L 263.453966 75.465758 
L 264.411649 73.872812 
L 265.369332 77.208679 
L 266.327015 85.254205 
L 267.284698 85.025209 
L 268.242381 72.267042 
L 269.200064 85.78153 
L 270.157747 70.525382 
L 271.11543 71.776877 
L 272.073113 67.632029 
L 273.030796 86.351931 
L 273.988479 69.512269 
L 274.946163 76.217224 
L 275.903846 73.858058 
L 276.861529 69.780138 
L 277.819212 74.601728 
L 278.776895 69.002754 
L 279.734578 79.191271 
L 280.692261 64.839477 
L 281.649944 66.851456 
L 282.607627 66.538247 
L 283.56531 69.694266 
L 284.522993 86.242534 
L 285.480676 68.513894 
L 286.438359 68.41823 
L 287.396042 66.219884 
L 288.353725 81.950788 
L 289.311408 65.113134 
L 290.269091 85.951848 
L 291.226774 75.277577 
L 292.184457 61.644684 
L 293.14214 86.327377 
L 294.099823 68.455061 
L 295.057506 68.583653 
L 296.015189 71.988773 
L 296.972872 66.889906 
L 297.930555 69.846491 
L 298.888238 62.978032 
L 299.845921 66.955414 
L 300.803604 68.23104 
L 301.761287 70.641173 
L 302.71897 68.628533 
L 303.676653 56.409602 
L 305.592019 75.553857 
L 306.549702 66.29983 
L 307.507385 60.071422 
L 308.465068 75.164552 
L 309.422751 66.047 
L 310.380434 70.767756 
L 311.338117 65.591012 
L 312.2958 75.284484 
L 313.253484 76.685772 
L 314.211167 76.230043 
L 315.16885 63.617606 
L 316.126533 85.877435 
L 317.084216 70.58842 
L 318.041899 74.074248 
L 318.999582 66.041874 
L 319.957265 65.959038 
L 320.914948 69.00138 
L 321.872631 60.21323 
L 322.830314 67.613093 
L 323.787997 65.1349 
L 324.74568 87.264426 
L 325.703363 63.055754 
L 326.661046 72.117161 
L 327.618729 79.169106 
L 328.576412 64.637574 
L 329.534095 75.022561 
L 330.491778 73.033442 
L 331.449461 60.917112 
L 332.407144 66.30881 
L 333.364827 66.702213 
L 334.32251 65.953021 
L 335.280193 68.297825 
L 336.237876 58.717433 
L 337.195559 67.167366 
L 338.153242 68.21816 
L 339.110925 62.342982 
L 340.068608 68.953408 
L 341.026291 66.267857 
L 341.983974 86.321705 
L 342.941657 70.660316 
L 343.89934 63.931974 
L 344.857023 65.964975 
L 345.814706 69.191279 
L 346.772389 61.462436 
L 347.730072 65.663332 
L 348.687755 64.338194 
L 349.645438 73.248716 
L 350.603121 74.179604 
L 351.560805 61.065739 
L 352.518488 70.51583 
L 353.476171 67.555606 
L 354.433854 67.289034 
L 355.391537 76.638391 
L 356.34922 77.903737 
L 357.306903 68.816602 
L 358.264586 69.862359 
L 359.222269 67.625364 
L 360.179952 62.711986 
L 361.137635 58.70147 
L 362.095318 70.759513 
L 363.053001 66.947081 
L 364.010684 64.154809 
L 364.968367 65.902335 
L 365.92605 62.846485 
L 366.883733 62.497589 
L 367.841416 61.40496 
L 368.799099 64.776568 
L 369.756782 58.716569 
L 370.714465 74.848479 
L 371.672148 63.922075 
L 372.629831 60.071421 
L 373.587514 75.036545 
L 374.545197 67.801335 
L 375.50288 64.480804 
L 376.460563 75.528933 
L 377.418246 65.441215 
L 378.375929 71.147484 
L 379.333612 68.557624 
L 380.291295 64.081389 
L 381.248978 66.087541 
L 382.206661 75.743069 
L 383.164344 61.354196 
L 384.122027 69.719873 
L 385.07971 77.08044 
L 386.037393 64.169028 
L 386.995076 77.148788 
L 387.952759 75.736848 
L 388.910442 74.63089 
L 389.868126 64.486236 
L 390.825809 86.159417 
L 391.783492 72.441446 
L 392.741175 68.930313 
L 393.698858 66.746337 
L 394.656541 76.757165 
L 395.614224 64.989926 
L 396.571907 76.618391 
L 397.52959 72.681872 
L 398.487273 77.060239 
L 398.487273 77.060239 
" style="fill:none;stroke:#008000;stroke-dasharray:9.6,2.4,1.5,2.4;stroke-dashoffset:0;stroke-width:1.5;"/>
   </g>
   <g id="line2d_37">
    <path clip-path="url(#p6c0e54a2d4)" d="M 73.832727 200.086264 
L 74.79041 176.022575 
L 75.748093 174.212005 
L 76.705776 141.581583 
L 77.663459 141.581583 
L 78.621142 133.548067 
L 80.536508 133.548067 
L 81.494191 120.967508 
L 82.451874 120.967508 
L 83.409558 118.832374 
L 84.367241 118.832374 
L 85.324924 114.654649 
L 90.113339 114.654649 
L 91.071022 113.963788 
L 92.028705 113.963788 
L 92.986388 113.776078 
L 93.944071 112.210348 
L 95.859437 112.210348 
L 96.81712 111.79841 
L 97.774803 111.79841 
L 98.732486 110.970796 
L 99.690169 110.834978 
L 100.647852 108.209791 
L 101.605535 108.209791 
L 102.563218 106.195268 
L 104.478584 106.195268 
L 105.436267 100.201571 
L 107.351633 100.201571 
L 108.309316 98.645419 
L 109.266999 89.815399 
L 117.886146 89.769396 
L 119.801512 89.692356 
L 120.759195 89.692356 
L 121.716879 89.483676 
L 125.547611 89.483676 
L 126.505294 89.31264 
L 127.462977 88.981354 
L 130.336026 88.770104 
L 133.209075 88.714631 
L 159.066516 88.626059 
L 162.897249 88.59091 
L 398.487273 88.582977 
L 398.487273 88.582977 
" style="fill:none;stroke:#ff0000;stroke-linecap:square;stroke-width:1.5;"/>
   </g>
   <g id="patch_3">
    <path d="M 57.6 307.584 
L 57.6 41.472 
" style="fill:none;stroke:#000000;stroke-linecap:square;stroke-linejoin:miter;stroke-width:0.8;"/>
   </g>
   <g id="patch_4">
    <path d="M 414.72 307.584 
L 414.72 41.472 
" style="fill:none;stroke:#000000;stroke-linecap:square;stroke-linejoin:miter;stroke-width:0.8;"/>
   </g>
   <g id="patch_5">
    <path d="M 57.6 307.584 
L 414.72 307.584 
" style="fill:none;stroke:#000000;stroke-linecap:square;stroke-linejoin:miter;stroke-width:0.8;"/>
   </g>
   <g id="patch_6">
    <path d="M 57.6 41.472 
L 414.72 41.472 
" style="fill:none;stroke:#000000;stroke-linecap:square;stroke-linejoin:miter;stroke-width:0.8;"/>
   </g>
   <g id="text_20">
    <!-- Population's average and best fitness -->
    <defs>
     <path d="M 19.671875 64.796875 
L 19.671875 37.40625 
L 32.078125 37.40625 
Q 38.96875 37.40625 42.71875 40.96875 
Q 46.484375 44.53125 46.484375 51.125 
Q 46.484375 57.671875 42.71875 61.234375 
Q 38.96875 64.796875 32.078125 64.796875 
z
M 9.8125 72.90625 
L 32.078125 72.90625 
Q 44.34375 72.90625 50.609375 67.359375 
Q 56.890625 61.8125 56.890625 51.125 
Q 56.890625 40.328125 50.609375 34.8125 
Q 44.34375 29.296875 32.078125 29.296875 
L 19.671875 29.296875 
L 19.671875 0 
L 9.8125 0 
z
" id="DejaVuSans-80"/>
     <path d="M 18.109375 8.203125 
L 18.109375 -20.796875 
L 9.078125 -20.796875 
L 9.078125 54.6875 
L 18.109375 54.6875 
L 18.109375 46.390625 
Q 20.953125 51.265625 25.265625 53.625 
Q 29.59375 56 35.59375 56 
Q 45.5625 56 51.78125 48.09375 
Q 58.015625 40.1875 58.015625 27.296875 
Q 58.015625 14.40625 51.78125 6.484375 
Q 45.5625 -1.421875 35.59375 -1.421875 
Q 29.59375 -1.421875 25.265625 0.953125 
Q 20.953125 3.328125 18.109375 8.203125 
z
M 48.6875 27.296875 
Q 48.6875 37.203125 44.609375 42.84375 
Q 40.53125 48.484375 33.40625 48.484375 
Q 26.265625 48.484375 22.1875 42.84375 
Q 18.109375 37.203125 18.109375 27.296875 
Q 18.109375 17.390625 22.1875 11.75 
Q 26.265625 6.109375 33.40625 6.109375 
Q 40.53125 6.109375 44.609375 11.75 
Q 48.6875 17.390625 48.6875 27.296875 
z
" id="DejaVuSans-112"/>
     <path d="M 8.5 21.578125 
L 8.5 54.6875 
L 17.484375 54.6875 
L 17.484375 21.921875 
Q 17.484375 14.15625 20.5 10.265625 
Q 23.53125 6.390625 29.59375 6.390625 
Q 36.859375 6.390625 41.078125 11.03125 
Q 45.3125 15.671875 45.3125 23.6875 
L 45.3125 54.6875 
L 54.296875 54.6875 
L 54.296875 0 
L 45.3125 0 
L 45.3125 8.40625 
Q 42.046875 3.421875 37.71875 1 
Q 33.40625 -1.421875 27.6875 -1.421875 
Q 18.265625 -1.421875 13.375 4.4375 
Q 8.5 10.296875 8.5 21.578125 
z
M 31.109375 56 
z
" id="DejaVuSans-117"/>
     <path d="M 9.421875 75.984375 
L 18.40625 75.984375 
L 18.40625 0 
L 9.421875 0 
z
" id="DejaVuSans-108"/>
     <path d="M 17.921875 72.90625 
L 17.921875 45.796875 
L 9.625 45.796875 
L 9.625 72.90625 
z
" id="DejaVuSans-39"/>
     <path id="DejaVuSans-32"/>
     <path d="M 2.984375 54.6875 
L 12.5 54.6875 
L 29.59375 8.796875 
L 46.6875 54.6875 
L 56.203125 54.6875 
L 35.6875 0 
L 23.484375 0 
z
" id="DejaVuSans-118"/>
     <path d="M 45.40625 27.984375 
Q 45.40625 37.75 41.375 43.109375 
Q 37.359375 48.484375 30.078125 48.484375 
Q 22.859375 48.484375 18.828125 43.109375 
Q 14.796875 37.75 14.796875 27.984375 
Q 14.796875 18.265625 18.828125 12.890625 
Q 22.859375 7.515625 30.078125 7.515625 
Q 37.359375 7.515625 41.375 12.890625 
Q 45.40625 18.265625 45.40625 27.984375 
z
M 54.390625 6.78125 
Q 54.390625 -7.171875 48.1875 -13.984375 
Q 42 -20.796875 29.203125 -20.796875 
Q 24.46875 -20.796875 20.265625 -20.09375 
Q 16.0625 -19.390625 12.109375 -17.921875 
L 12.109375 -9.1875 
Q 16.0625 -11.328125 19.921875 -12.34375 
Q 23.78125 -13.375 27.78125 -13.375 
Q 36.625 -13.375 41.015625 -8.765625 
Q 45.40625 -4.15625 45.40625 5.171875 
L 45.40625 9.625 
Q 42.625 4.78125 38.28125 2.390625 
Q 33.9375 0 27.875 0 
Q 17.828125 0 11.671875 7.65625 
Q 5.515625 15.328125 5.515625 27.984375 
Q 5.515625 40.671875 11.671875 48.328125 
Q 17.828125 56 27.875 56 
Q 33.9375 56 38.28125 53.609375 
Q 42.625 51.21875 45.40625 46.390625 
L 45.40625 54.6875 
L 54.390625 54.6875 
z
" id="DejaVuSans-103"/>
     <path d="M 45.40625 46.390625 
L 45.40625 75.984375 
L 54.390625 75.984375 
L 54.390625 0 
L 45.40625 0 
L 45.40625 8.203125 
Q 42.578125 3.328125 38.25 0.953125 
Q 33.9375 -1.421875 27.875 -1.421875 
Q 17.96875 -1.421875 11.734375 6.484375 
Q 5.515625 14.40625 5.515625 27.296875 
Q 5.515625 40.1875 11.734375 48.09375 
Q 17.96875 56 27.875 56 
Q 33.9375 56 38.25 53.625 
Q 42.578125 51.265625 45.40625 46.390625 
z
M 14.796875 27.296875 
Q 14.796875 17.390625 18.875 11.75 
Q 22.953125 6.109375 30.078125 6.109375 
Q 37.203125 6.109375 41.296875 11.75 
Q 45.40625 17.390625 45.40625 27.296875 
Q 45.40625 37.203125 41.296875 42.84375 
Q 37.203125 48.484375 30.078125 48.484375 
Q 22.953125 48.484375 18.875 42.84375 
Q 14.796875 37.203125 14.796875 27.296875 
z
" id="DejaVuSans-100"/>
     <path d="M 48.6875 27.296875 
Q 48.6875 37.203125 44.609375 42.84375 
Q 40.53125 48.484375 33.40625 48.484375 
Q 26.265625 48.484375 22.1875 42.84375 
Q 18.109375 37.203125 18.109375 27.296875 
Q 18.109375 17.390625 22.1875 11.75 
Q 26.265625 6.109375 33.40625 6.109375 
Q 40.53125 6.109375 44.609375 11.75 
Q 48.6875 17.390625 48.6875 27.296875 
z
M 18.109375 46.390625 
Q 20.953125 51.265625 25.265625 53.625 
Q 29.59375 56 35.59375 56 
Q 45.5625 56 51.78125 48.09375 
Q 58.015625 40.1875 58.015625 27.296875 
Q 58.015625 14.40625 51.78125 6.484375 
Q 45.5625 -1.421875 35.59375 -1.421875 
Q 29.59375 -1.421875 25.265625 0.953125 
Q 20.953125 3.328125 18.109375 8.203125 
L 18.109375 0 
L 9.078125 0 
L 9.078125 75.984375 
L 18.109375 75.984375 
z
" id="DejaVuSans-98"/>
     <path d="M 37.109375 75.984375 
L 37.109375 68.5 
L 28.515625 68.5 
Q 23.6875 68.5 21.796875 66.546875 
Q 19.921875 64.59375 19.921875 59.515625 
L 19.921875 54.6875 
L 34.71875 54.6875 
L 34.71875 47.703125 
L 19.921875 47.703125 
L 19.921875 0 
L 10.890625 0 
L 10.890625 47.703125 
L 2.296875 47.703125 
L 2.296875 54.6875 
L 10.890625 54.6875 
L 10.890625 58.5 
Q 10.890625 67.625 15.140625 71.796875 
Q 19.390625 75.984375 28.609375 75.984375 
z
" id="DejaVuSans-102"/>
    </defs>
    <g transform="translate(123.315 35.472)scale(0.12 -0.12)">
     <use xlink:href="#DejaVuSans-80"/>
     <use x="60.255859" xlink:href="#DejaVuSans-111"/>
     <use x="121.4375" xlink:href="#DejaVuSans-112"/>
     <use x="184.914062" xlink:href="#DejaVuSans-117"/>
     <use x="248.292969" xlink:href="#DejaVuSans-108"/>
     <use x="276.076172" xlink:href="#DejaVuSans-97"/>
     <use x="337.355469" xlink:href="#DejaVuSans-116"/>
     <use x="376.564453" xlink:href="#DejaVuSans-105"/>
     <use x="404.347656" xlink:href="#DejaVuSans-111"/>
     <use x="465.529297" xlink:href="#DejaVuSans-110"/>
     <use x="528.908203" xlink:href="#DejaVuSans-39"/>
     <use x="556.398438" xlink:href="#DejaVuSans-115"/>
     <use x="608.498047" xlink:href="#DejaVuSans-32"/>
     <use x="640.285156" xlink:href="#DejaVuSans-97"/>
     <use x="701.564453" xlink:href="#DejaVuSans-118"/>
     <use x="760.744141" xlink:href="#DejaVuSans-101"/>
     <use x="822.267578" xlink:href="#DejaVuSans-114"/>
     <use x="863.380859" xlink:href="#DejaVuSans-97"/>
     <use x="924.660156" xlink:href="#DejaVuSans-103"/>
     <use x="988.136719" xlink:href="#DejaVuSans-101"/>
     <use x="1049.660156" xlink:href="#DejaVuSans-32"/>
     <use x="1081.447266" xlink:href="#DejaVuSans-97"/>
     <use x="1142.726562" xlink:href="#DejaVuSans-110"/>
     <use x="1206.105469" xlink:href="#DejaVuSans-100"/>
     <use x="1269.582031" xlink:href="#DejaVuSans-32"/>
     <use x="1301.369141" xlink:href="#DejaVuSans-98"/>
     <use x="1364.845703" xlink:href="#DejaVuSans-101"/>
     <use x="1426.369141" xlink:href="#DejaVuSans-115"/>
     <use x="1478.46875" xlink:href="#DejaVuSans-116"/>
     <use x="1517.677734" xlink:href="#DejaVuSans-32"/>
     <use x="1549.464844" xlink:href="#DejaVuSans-102"/>
     <use x="1584.669922" xlink:href="#DejaVuSans-105"/>
     <use x="1612.453125" xlink:href="#DejaVuSans-116"/>
     <use x="1651.662109" xlink:href="#DejaVuSans-110"/>
     <use x="1715.041016" xlink:href="#DejaVuSans-101"/>
     <use x="1776.564453" xlink:href="#DejaVuSans-115"/>
     <use x="1828.664062" xlink:href="#DejaVuSans-115"/>
    </g>
   </g>
   <g id="legend_1">
    <g id="patch_7">
     <path d="M 334.779375 302.584 
L 407.72 302.584 
Q 409.72 302.584 409.72 300.584 
L 409.72 257.549625 
Q 409.72 255.549625 407.72 255.549625 
L 334.779375 255.549625 
Q 332.779375 255.549625 332.779375 257.549625 
L 332.779375 300.584 
Q 332.779375 302.584 334.779375 302.584 
z
" style="fill:#ffffff;opacity:0.8;stroke:#cccccc;stroke-linejoin:miter;"/>
    </g>
    <g id="line2d_38">
     <path d="M 336.779375 263.648062 
L 356.779375 263.648062 
" style="fill:none;stroke:#0000ff;stroke-linecap:square;stroke-width:1.5;"/>
    </g>
    <g id="line2d_39"/>
    <g id="text_21">
     <!-- average -->
     <g transform="translate(364.779375 267.148062)scale(0.1 -0.1)">
      <use xlink:href="#DejaVuSans-97"/>
      <use x="61.279297" xlink:href="#DejaVuSans-118"/>
      <use x="120.458984" xlink:href="#DejaVuSans-101"/>
      <use x="181.982422" xlink:href="#DejaVuSans-114"/>
      <use x="223.095703" xlink:href="#DejaVuSans-97"/>
      <use x="284.375" xlink:href="#DejaVuSans-103"/>
      <use x="347.851562" xlink:href="#DejaVuSans-101"/>
     </g>
    </g>
    <g id="line2d_40">
     <path d="M 336.779375 278.326188 
L 356.779375 278.326188 
" style="fill:none;stroke:#008000;stroke-dasharray:9.6,2.4,1.5,2.4;stroke-dashoffset:0;stroke-width:1.5;"/>
    </g>
    <g id="line2d_41"/>
    <g id="text_22">
     <!-- +1 sd -->
     <defs>
      <path d="M 46 62.703125 
L 46 35.5 
L 73.1875 35.5 
L 73.1875 27.203125 
L 46 27.203125 
L 46 0 
L 37.796875 0 
L 37.796875 27.203125 
L 10.59375 27.203125 
L 10.59375 35.5 
L 37.796875 35.5 
L 37.796875 62.703125 
z
" id="DejaVuSans-43"/>
     </defs>
     <g transform="translate(364.779375 281.826188)scale(0.1 -0.1)">
      <use xlink:href="#DejaVuSans-43"/>
      <use x="83.789062" xlink:href="#DejaVuSans-49"/>
      <use x="147.412109" xlink:href="#DejaVuSans-32"/>
      <use x="179.199219" xlink:href="#DejaVuSans-115"/>
      <use x="231.298828" xlink:href="#DejaVuSans-100"/>
     </g>
    </g>
    <g id="line2d_42">
     <path d="M 336.779375 293.004312 
L 356.779375 293.004312 
" style="fill:none;stroke:#ff0000;stroke-linecap:square;stroke-width:1.5;"/>
    </g>
    <g id="line2d_43"/>
    <g id="text_23">
     <!-- best -->
     <g transform="translate(364.779375 296.504312)scale(0.1 -0.1)">
      <use xlink:href="#DejaVuSans-98"/>
      <use x="63.476562" xlink:href="#DejaVuSans-101"/>
      <use x="125" xlink:href="#DejaVuSans-115"/>
      <use x="177.099609" xlink:href="#DejaVuSans-116"/>
     </g>
    </g>
   </g>
  </g>
 </g>
 <defs>
  <clipPath id="p6c0e54a2d4">
   <rect height="266.112" width="357.12" x="57.6" y="41.472"/>
  </clipPath>
 </defs>
</svg>
