<?xml version="1.0" encoding="utf-8" standalone="no"?>
<!DOCTYPE svg PUBLIC "-//W3C//DTD SVG 1.1//EN"
  "http://www.w3.org/Graphics/SVG/1.1/DTD/svg11.dtd">
<!-- Created with matplotlib (https://matplotlib.org/) -->
<svg height="345.6pt" version="1.1" viewBox="0 0 460.8 345.6" width="460.8pt" xmlns="http://www.w3.org/2000/svg" xmlns:xlink="http://www.w3.org/1999/xlink">
 <defs>
  <style type="text/css">
*{stroke-linecap:butt;stroke-linejoin:round;}
  </style>
 </defs>
 <g id="figure_1">
  <g id="patch_1">
   <path d="M 0 345.6 
L 460.8 345.6 
L 460.8 0 
L 0 0 
z
" style="fill:#ffffff;"/>
  </g>
  <g id="axes_1">
   <g id="patch_2">
    <path d="M 57.6 307.584 
L 414.72 307.584 
L 414.72 41.472 
L 57.6 41.472 
z
" style="fill:#ffffff;"/>
   </g>
   <g id="PolyCollection_1">
    <path clip-path="url(#pfaf34ebd9b)" d="M 73.832727 205.808882 
L 73.832727 307.584 
L 80.45833 307.584 
L 87.083933 307.584 
L 93.709536 307.584 
L 100.335139 307.584 
L 106.960742 307.584 
L 113.586345 307.584 
L 120.211948 307.584 
L 126.837551 307.584 
L 133.463154 307.584 
L 140.088757 307.584 
L 146.71436 307.584 
L 153.339963 307.584 
L 159.965566 307.584 
L 166.591169 307.584 
L 173.216772 307.584 
L 179.842375 307.584 
L 186.467978 307.584 
L 193.093581 307.584 
L 199.719184 307.584 
L 206.344787 307.584 
L 212.97039 307.584 
L 219.595993 307.584 
L 226.221596 307.584 
L 232.847199 307.584 
L 239.472801 307.584 
L 246.098404 307.584 
L 252.724007 307.584 
L 259.34961 307.584 
L 265.975213 307.584 
L 272.600816 307.584 
L 279.226419 307.584 
L 285.852022 307.584 
L 292.477625 307.584 
L 299.103228 307.584 
L 305.728831 307.584 
L 312.354434 307.584 
L 318.980037 307.584 
L 325.60564 307.584 
L 332.231243 307.584 
L 338.856846 307.584 
L 345.482449 307.584 
L 352.108052 307.584 
L 358.733655 307.584 
L 365.359258 307.584 
L 371.984861 307.584 
L 378.610464 307.584 
L 385.236067 307.584 
L 391.86167 307.584 
L 398.487273 307.584 
L 398.487273 307.584 
L 398.487273 307.584 
L 391.86167 307.584 
L 385.236067 307.584 
L 378.610464 307.584 
L 371.984861 307.584 
L 365.359258 307.584 
L 358.733655 307.584 
L 352.108052 307.584 
L 345.482449 307.584 
L 338.856846 307.584 
L 332.231243 307.584 
L 325.60564 307.584 
L 318.980037 307.584 
L 312.354434 307.584 
L 305.728831 307.584 
L 299.103228 307.584 
L 292.477625 307.584 
L 285.852022 307.584 
L 279.226419 307.584 
L 272.600816 307.584 
L 265.975213 307.584 
L 259.34961 307.584 
L 252.724007 307.584 
L 246.098404 286.630299 
L 239.472801 286.630299 
L 232.847199 292.617071 
L 226.221596 299.601638 
L 219.595993 299.601638 
L 212.97039 294.612661 
L 206.344787 294.612661 
L 199.719184 293.614866 
L 193.093581 291.619276 
L 186.467978 301.597228 
L 179.842375 295.610457 
L 173.216772 297.606047 
L 166.591169 304.590614 
L 159.965566 298.603843 
L 153.339963 294.612661 
L 146.71436 294.612661 
L 140.088757 297.606047 
L 133.463154 294.612661 
L 126.837551 294.612661 
L 120.211948 293.614866 
L 113.586345 297.606047 
L 106.960742 294.612661 
L 100.335139 299.601638 
L 93.709536 301.597228 
L 87.083933 301.597228 
L 80.45833 304.590614 
L 73.832727 205.808882 
z
" style="fill:#1f77b4;"/>
   </g>
   <g id="PolyCollection_2">
    <path clip-path="url(#pfaf34ebd9b)" d="M 73.832727 143.945575 
L 73.832727 205.808882 
L 80.45833 304.590614 
L 87.083933 301.597228 
L 93.709536 301.597228 
L 100.335139 299.601638 
L 106.960742 294.612661 
L 113.586345 297.606047 
L 120.211948 293.614866 
L 126.837551 294.612661 
L 133.463154 294.612661 
L 140.088757 297.606047 
L 146.71436 294.612661 
L 153.339963 294.612661 
L 159.965566 298.603843 
L 166.591169 304.590614 
L 173.216772 297.606047 
L 179.842375 295.610457 
L 186.467978 301.597228 
L 193.093581 291.619276 
L 199.719184 293.614866 
L 206.344787 294.612661 
L 212.97039 294.612661 
L 219.595993 299.601638 
L 226.221596 299.601638 
L 232.847199 292.617071 
L 239.472801 286.630299 
L 246.098404 286.630299 
L 252.724007 307.584 
L 259.34961 307.584 
L 265.975213 307.584 
L 272.600816 307.584 
L 279.226419 307.584 
L 285.852022 307.584 
L 292.477625 307.584 
L 299.103228 307.584 
L 305.728831 307.584 
L 312.354434 307.584 
L 318.980037 307.584 
L 325.60564 307.584 
L 332.231243 307.584 
L 338.856846 307.584 
L 345.482449 307.584 
L 352.108052 307.584 
L 358.733655 307.584 
L 365.359258 307.584 
L 371.984861 307.584 
L 378.610464 307.584 
L 385.236067 307.584 
L 391.86167 307.584 
L 398.487273 307.584 
L 398.487273 307.584 
L 398.487273 307.584 
L 391.86167 307.584 
L 385.236067 307.584 
L 378.610464 307.584 
L 371.984861 307.584 
L 365.359258 307.584 
L 358.733655 267.672189 
L 352.108052 273.658961 
L 345.482449 276.652346 
L 338.856846 281.641323 
L 332.231243 289.623685 
L 325.60564 284.634709 
L 318.980037 298.603843 
L 312.354434 259.689827 
L 305.728831 271.66337 
L 299.103228 273.658961 
L 292.477625 255.698646 
L 285.852022 237.738331 
L 279.226419 223.769197 
L 272.600816 258.692031 
L 265.975213 274.656756 
L 259.34961 289.623685 
L 252.724007 304.590614 
L 246.098404 261.685417 
L 239.472801 259.689827 
L 232.847199 268.669984 
L 226.221596 268.669984 
L 219.595993 261.685417 
L 212.97039 289.623685 
L 206.344787 284.634709 
L 199.719184 280.643528 
L 193.093581 279.645732 
L 186.467978 278.647937 
L 179.842375 273.658961 
L 173.216772 270.665575 
L 166.591169 275.654551 
L 159.965566 261.685417 
L 153.339963 282.639118 
L 146.71436 263.681008 
L 140.088757 270.665575 
L 133.463154 277.650142 
L 126.837551 286.630299 
L 120.211948 263.681008 
L 113.586345 260.687622 
L 106.960742 258.692031 
L 100.335139 272.661165 
L 93.709536 284.634709 
L 87.083933 276.652346 
L 80.45833 286.630299 
L 73.832727 143.945575 
z
" style="fill:#ff7f0e;"/>
   </g>
   <g id="PolyCollection_3">
    <path clip-path="url(#pfaf34ebd9b)" d="M 73.832727 124.987465 
L 73.832727 143.945575 
L 80.45833 286.630299 
L 87.083933 276.652346 
L 93.709536 284.634709 
L 100.335139 272.661165 
L 106.960742 258.692031 
L 113.586345 260.687622 
L 120.211948 263.681008 
L 126.837551 286.630299 
L 133.463154 277.650142 
L 140.088757 270.665575 
L 146.71436 263.681008 
L 153.339963 282.639118 
L 159.965566 261.685417 
L 166.591169 275.654551 
L 173.216772 270.665575 
L 179.842375 273.658961 
L 186.467978 278.647937 
L 193.093581 279.645732 
L 199.719184 280.643528 
L 206.344787 284.634709 
L 212.97039 289.623685 
L 219.595993 261.685417 
L 226.221596 268.669984 
L 232.847199 268.669984 
L 239.472801 259.689827 
L 246.098404 261.685417 
L 252.724007 304.590614 
L 259.34961 289.623685 
L 265.975213 274.656756 
L 272.600816 258.692031 
L 279.226419 223.769197 
L 285.852022 237.738331 
L 292.477625 255.698646 
L 299.103228 273.658961 
L 305.728831 271.66337 
L 312.354434 259.689827 
L 318.980037 298.603843 
L 325.60564 284.634709 
L 332.231243 289.623685 
L 338.856846 281.641323 
L 345.482449 276.652346 
L 352.108052 273.658961 
L 358.733655 267.672189 
L 365.359258 307.584 
L 371.984861 307.584 
L 378.610464 307.584 
L 385.236067 307.584 
L 391.86167 307.584 
L 398.487273 307.584 
L 398.487273 307.584 
L 398.487273 307.584 
L 391.86167 307.584 
L 385.236067 307.584 
L 378.610464 307.584 
L 371.984861 307.584 
L 365.359258 307.584 
L 358.733655 267.672189 
L 352.108052 273.658961 
L 345.482449 276.652346 
L 338.856846 281.641323 
L 332.231243 289.623685 
L 325.60564 284.634709 
L 318.980037 298.603843 
L 312.354434 259.689827 
L 305.728831 271.66337 
L 299.103228 273.658961 
L 292.477625 255.698646 
L 285.852022 237.738331 
L 279.226419 223.769197 
L 272.600816 258.692031 
L 265.975213 274.656756 
L 259.34961 262.683213 
L 252.724007 292.617071 
L 246.098404 240.731717 
L 239.472801 250.709669 
L 232.847199 263.681008 
L 226.221596 258.692031 
L 219.595993 244.722898 
L 212.97039 279.645732 
L 206.344787 259.689827 
L 199.719184 270.665575 
L 193.093581 251.707465 
L 186.467978 248.714079 
L 179.842375 257.694236 
L 173.216772 251.707465 
L 166.591169 254.70085 
L 159.965566 231.751559 
L 153.339963 258.692031 
L 146.71436 239.733921 
L 140.088757 261.685417 
L 133.463154 264.678803 
L 126.837551 267.672189 
L 120.211948 255.698646 
L 113.586345 253.703055 
L 106.960742 250.709669 
L 100.335139 267.672189 
L 93.709536 270.665575 
L 87.083933 260.687622 
L 80.45833 270.665575 
L 73.832727 124.987465 
z
" style="fill:#2ca02c;"/>
   </g>
   <g id="PolyCollection_4">
    <path clip-path="url(#pfaf34ebd9b)" d="M 73.832727 123.989669 
L 73.832727 124.987465 
L 80.45833 270.665575 
L 87.083933 260.687622 
L 93.709536 270.665575 
L 100.335139 267.672189 
L 106.960742 250.709669 
L 113.586345 253.703055 
L 120.211948 255.698646 
L 126.837551 267.672189 
L 133.463154 264.678803 
L 140.088757 261.685417 
L 146.71436 239.733921 
L 153.339963 258.692031 
L 159.965566 231.751559 
L 166.591169 254.70085 
L 173.216772 251.707465 
L 179.842375 257.694236 
L 186.467978 248.714079 
L 193.093581 251.707465 
L 199.719184 270.665575 
L 206.344787 259.689827 
L 212.97039 279.645732 
L 219.595993 244.722898 
L 226.221596 258.692031 
L 232.847199 263.681008 
L 239.472801 250.709669 
L 246.098404 240.731717 
L 252.724007 292.617071 
L 259.34961 262.683213 
L 265.975213 274.656756 
L 272.600816 258.692031 
L 279.226419 223.769197 
L 285.852022 237.738331 
L 292.477625 255.698646 
L 299.103228 273.658961 
L 305.728831 271.66337 
L 312.354434 259.689827 
L 318.980037 298.603843 
L 325.60564 284.634709 
L 332.231243 289.623685 
L 338.856846 281.641323 
L 345.482449 276.652346 
L 352.108052 273.658961 
L 358.733655 267.672189 
L 365.359258 307.584 
L 371.984861 307.584 
L 378.610464 307.584 
L 385.236067 307.584 
L 391.86167 307.584 
L 398.487273 307.584 
L 398.487273 235.74274 
L 398.487273 235.74274 
L 391.86167 256.696441 
L 385.236067 273.658961 
L 378.610464 272.661165 
L 371.984861 297.606047 
L 365.359258 244.722898 
L 358.733655 216.78463 
L 352.108052 222.771402 
L 345.482449 215.786835 
L 338.856846 206.806677 
L 332.231243 203.813291 
L 325.60564 191.839748 
L 318.980037 182.859591 
L 312.354434 202.815496 
L 305.728831 216.78463 
L 299.103228 226.762583 
L 292.477625 247.716283 
L 285.852022 229.755969 
L 279.226419 215.786835 
L 272.600816 251.707465 
L 265.975213 265.676598 
L 259.34961 258.692031 
L 252.724007 290.62148 
L 246.098404 237.738331 
L 239.472801 246.718488 
L 232.847199 258.692031 
L 226.221596 255.698646 
L 219.595993 240.731717 
L 212.97039 274.656756 
L 206.344787 256.696441 
L 199.719184 267.672189 
L 193.093581 247.716283 
L 186.467978 245.720693 
L 179.842375 255.698646 
L 173.216772 248.714079 
L 166.591169 251.707465 
L 159.965566 226.762583 
L 153.339963 253.703055 
L 146.71436 235.74274 
L 140.088757 258.692031 
L 133.463154 260.687622 
L 126.837551 264.678803 
L 120.211948 251.707465 
L 113.586345 248.714079 
L 106.960742 247.716283 
L 100.335139 262.683213 
L 93.709536 267.672189 
L 87.083933 258.692031 
L 80.45833 269.66778 
L 73.832727 123.989669 
z
" style="fill:#d62728;"/>
   </g>
   <g id="PolyCollection_5">
    <path clip-path="url(#pfaf34ebd9b)" d="M 73.832727 122.991874 
L 73.832727 123.989669 
L 80.45833 269.66778 
L 87.083933 258.692031 
L 93.709536 267.672189 
L 100.335139 262.683213 
L 106.960742 247.716283 
L 113.586345 248.714079 
L 120.211948 251.707465 
L 126.837551 264.678803 
L 133.463154 260.687622 
L 140.088757 258.692031 
L 146.71436 235.74274 
L 153.339963 253.703055 
L 159.965566 226.762583 
L 166.591169 251.707465 
L 173.216772 248.714079 
L 179.842375 255.698646 
L 186.467978 245.720693 
L 193.093581 247.716283 
L 199.719184 267.672189 
L 206.344787 256.696441 
L 212.97039 274.656756 
L 219.595993 240.731717 
L 226.221596 255.698646 
L 232.847199 258.692031 
L 239.472801 246.718488 
L 246.098404 237.738331 
L 252.724007 290.62148 
L 259.34961 258.692031 
L 265.975213 265.676598 
L 272.600816 251.707465 
L 279.226419 215.786835 
L 285.852022 229.755969 
L 292.477625 247.716283 
L 299.103228 226.762583 
L 305.728831 216.78463 
L 312.354434 202.815496 
L 318.980037 182.859591 
L 325.60564 191.839748 
L 332.231243 203.813291 
L 338.856846 206.806677 
L 345.482449 215.786835 
L 352.108052 222.771402 
L 358.733655 216.78463 
L 365.359258 244.722898 
L 371.984861 297.606047 
L 378.610464 272.661165 
L 385.236067 273.658961 
L 391.86167 256.696441 
L 398.487273 235.74274 
L 398.487273 183.857386 
L 398.487273 183.857386 
L 391.86167 208.802268 
L 385.236067 208.802268 
L 378.610464 189.844157 
L 371.984861 209.800063 
L 365.359258 233.74715 
L 358.733655 140.952189 
L 352.108052 151.927937 
L 345.482449 170.886047 
L 338.856846 194.833134 
L 332.231243 200.819906 
L 325.60564 186.850772 
L 318.980037 173.879433 
L 312.354434 194.833134 
L 305.728831 207.804472 
L 299.103228 216.78463 
L 292.477625 238.736126 
L 285.852022 218.78022 
L 279.226419 206.806677 
L 272.600816 244.722898 
L 265.975213 255.698646 
L 259.34961 252.70526 
L 252.724007 284.634709 
L 246.098404 233.74715 
L 239.472801 240.731717 
L 232.847199 253.703055 
L 226.221596 249.711874 
L 219.595993 235.74274 
L 212.97039 270.665575 
L 206.344787 251.707465 
L 199.719184 260.687622 
L 193.093581 241.729512 
L 186.467978 240.731717 
L 179.842375 251.707465 
L 173.216772 245.720693 
L 166.591169 247.716283 
L 159.965566 221.773606 
L 153.339963 249.711874 
L 146.71436 230.753764 
L 140.088757 252.70526 
L 133.463154 257.694236 
L 126.837551 259.689827 
L 120.211948 247.716283 
L 113.586345 245.720693 
L 106.960742 243.725102 
L 100.335139 256.696441 
L 93.709536 260.687622 
L 87.083933 252.70526 
L 80.45833 264.678803 
L 73.832727 122.991874 
z
" style="fill:#9467bd;"/>
   </g>
   <g id="PolyCollection_6">
    <path clip-path="url(#pfaf34ebd9b)" d="M 73.832727 110.020535 
L 73.832727 122.991874 
L 80.45833 264.678803 
L 87.083933 252.70526 
L 93.709536 260.687622 
L 100.335139 256.696441 
L 106.960742 243.725102 
L 113.586345 245.720693 
L 120.211948 247.716283 
L 126.837551 259.689827 
L 133.463154 257.694236 
L 140.088757 252.70526 
L 146.71436 230.753764 
L 153.339963 249.711874 
L 159.965566 221.773606 
L 166.591169 247.716283 
L 173.216772 245.720693 
L 179.842375 251.707465 
L 186.467978 240.731717 
L 193.093581 241.729512 
L 199.719184 260.687622 
L 206.344787 251.707465 
L 212.97039 270.665575 
L 219.595993 235.74274 
L 226.221596 249.711874 
L 232.847199 253.703055 
L 239.472801 240.731717 
L 246.098404 233.74715 
L 252.724007 284.634709 
L 259.34961 252.70526 
L 265.975213 255.698646 
L 272.600816 244.722898 
L 279.226419 206.806677 
L 285.852022 218.78022 
L 292.477625 238.736126 
L 299.103228 216.78463 
L 305.728831 207.804472 
L 312.354434 194.833134 
L 318.980037 173.879433 
L 325.60564 186.850772 
L 332.231243 200.819906 
L 338.856846 194.833134 
L 345.482449 170.886047 
L 352.108052 151.927937 
L 358.733655 140.952189 
L 365.359258 233.74715 
L 371.984861 209.800063 
L 378.610464 189.844157 
L 385.236067 208.802268 
L 391.86167 208.802268 
L 398.487273 183.857386 
L 398.487273 183.857386 
L 398.487273 183.857386 
L 391.86167 208.802268 
L 385.236067 208.802268 
L 378.610464 189.844157 
L 371.984861 209.800063 
L 365.359258 233.74715 
L 358.733655 114.011717 
L 352.108052 125.98526 
L 345.482449 156.916913 
L 338.856846 169.888252 
L 332.231243 176.872819 
L 325.60564 167.892661 
L 318.980037 148.934551 
L 312.354434 165.897071 
L 305.728831 190.841953 
L 299.103228 183.857386 
L 292.477625 189.844157 
L 285.852022 202.815496 
L 279.226419 180.864 
L 272.600816 205.808882 
L 265.975213 212.793449 
L 259.34961 219.778016 
L 252.724007 241.729512 
L 246.098404 226.762583 
L 239.472801 234.744945 
L 232.847199 249.711874 
L 226.221596 235.74274 
L 219.595993 218.78022 
L 212.97039 249.711874 
L 206.344787 228.758173 
L 199.719184 243.725102 
L 193.093581 217.782425 
L 186.467978 227.760378 
L 179.842375 241.729512 
L 173.216772 229.755969 
L 166.591169 232.749354 
L 159.965566 210.797858 
L 153.339963 226.762583 
L 146.71436 199.82211 
L 140.088757 227.760378 
L 133.463154 207.804472 
L 126.837551 225.764787 
L 120.211948 220.775811 
L 113.586345 218.78022 
L 106.960742 205.808882 
L 100.335139 229.755969 
L 93.709536 223.769197 
L 87.083933 211.795654 
L 80.45833 230.753764 
L 73.832727 110.020535 
z
" style="fill:#8c564b;"/>
   </g>
   <g id="PolyCollection_7">
    <path clip-path="url(#pfaf34ebd9b)" d="M 73.832727 109.02274 
L 73.832727 110.020535 
L 80.45833 230.753764 
L 87.083933 211.795654 
L 93.709536 223.769197 
L 100.335139 229.755969 
L 106.960742 205.808882 
L 113.586345 218.78022 
L 120.211948 220.775811 
L 126.837551 225.764787 
L 133.463154 207.804472 
L 140.088757 227.760378 
L 146.71436 199.82211 
L 153.339963 226.762583 
L 159.965566 210.797858 
L 166.591169 232.749354 
L 173.216772 229.755969 
L 179.842375 241.729512 
L 186.467978 227.760378 
L 193.093581 217.782425 
L 199.719184 243.725102 
L 206.344787 228.758173 
L 212.97039 249.711874 
L 219.595993 218.78022 
L 226.221596 235.74274 
L 232.847199 249.711874 
L 239.472801 234.744945 
L 246.098404 226.762583 
L 252.724007 241.729512 
L 259.34961 219.778016 
L 265.975213 212.793449 
L 272.600816 205.808882 
L 279.226419 180.864 
L 285.852022 202.815496 
L 292.477625 189.844157 
L 299.103228 183.857386 
L 305.728831 190.841953 
L 312.354434 165.897071 
L 318.980037 148.934551 
L 325.60564 167.892661 
L 332.231243 176.872819 
L 338.856846 169.888252 
L 345.482449 156.916913 
L 352.108052 125.98526 
L 358.733655 114.011717 
L 365.359258 233.74715 
L 371.984861 209.800063 
L 378.610464 189.844157 
L 385.236067 208.802268 
L 391.86167 208.802268 
L 398.487273 183.857386 
L 398.487273 183.857386 
L 398.487273 183.857386 
L 391.86167 208.802268 
L 385.236067 208.802268 
L 378.610464 189.844157 
L 371.984861 209.800063 
L 365.359258 233.74715 
L 358.733655 114.011717 
L 352.108052 125.98526 
L 345.482449 156.916913 
L 338.856846 169.888252 
L 332.231243 176.872819 
L 325.60564 167.892661 
L 318.980037 148.934551 
L 312.354434 165.897071 
L 305.728831 190.841953 
L 299.103228 183.857386 
L 292.477625 189.844157 
L 285.852022 202.815496 
L 279.226419 180.864 
L 272.600816 205.808882 
L 265.975213 212.793449 
L 259.34961 219.778016 
L 252.724007 241.729512 
L 246.098404 226.762583 
L 239.472801 234.744945 
L 232.847199 249.711874 
L 226.221596 235.74274 
L 219.595993 208.802268 
L 212.97039 239.733921 
L 206.344787 217.782425 
L 199.719184 231.751559 
L 193.093581 205.808882 
L 186.467978 212.793449 
L 179.842375 228.758173 
L 173.216772 217.782425 
L 166.591169 222.771402 
L 159.965566 200.819906 
L 153.339963 214.789039 
L 146.71436 191.839748 
L 140.088757 218.78022 
L 133.463154 194.833134 
L 126.837551 212.793449 
L 120.211948 210.797858 
L 113.586345 208.802268 
L 106.960742 193.835339 
L 100.335139 214.789039 
L 93.709536 211.795654 
L 87.083933 196.828724 
L 80.45833 224.766992 
L 73.832727 109.02274 
z
" style="fill:#e377c2;"/>
   </g>
   <g id="PolyCollection_8">
    <path clip-path="url(#pfaf34ebd9b)" d="M 73.832727 98.046992 
L 73.832727 109.02274 
L 80.45833 224.766992 
L 87.083933 196.828724 
L 93.709536 211.795654 
L 100.335139 214.789039 
L 106.960742 193.835339 
L 113.586345 208.802268 
L 120.211948 210.797858 
L 126.837551 212.793449 
L 133.463154 194.833134 
L 140.088757 218.78022 
L 146.71436 191.839748 
L 153.339963 214.789039 
L 159.965566 200.819906 
L 166.591169 222.771402 
L 173.216772 217.782425 
L 179.842375 228.758173 
L 186.467978 212.793449 
L 193.093581 205.808882 
L 199.719184 231.751559 
L 206.344787 217.782425 
L 212.97039 239.733921 
L 219.595993 208.802268 
L 226.221596 235.74274 
L 232.847199 249.711874 
L 239.472801 234.744945 
L 246.098404 226.762583 
L 252.724007 241.729512 
L 259.34961 219.778016 
L 265.975213 212.793449 
L 272.600816 205.808882 
L 279.226419 180.864 
L 285.852022 202.815496 
L 292.477625 189.844157 
L 299.103228 183.857386 
L 305.728831 190.841953 
L 312.354434 165.897071 
L 318.980037 148.934551 
L 325.60564 167.892661 
L 332.231243 176.872819 
L 338.856846 169.888252 
L 345.482449 156.916913 
L 352.108052 125.98526 
L 358.733655 114.011717 
L 365.359258 233.74715 
L 371.984861 209.800063 
L 378.610464 189.844157 
L 385.236067 208.802268 
L 391.86167 208.802268 
L 398.487273 183.857386 
L 398.487273 183.857386 
L 398.487273 183.857386 
L 391.86167 208.802268 
L 385.236067 208.802268 
L 378.610464 189.844157 
L 371.984861 209.800063 
L 365.359258 233.74715 
L 358.733655 114.011717 
L 352.108052 125.98526 
L 345.482449 156.916913 
L 338.856846 169.888252 
L 332.231243 176.872819 
L 325.60564 167.892661 
L 318.980037 148.934551 
L 312.354434 165.897071 
L 305.728831 190.841953 
L 299.103228 183.857386 
L 292.477625 189.844157 
L 285.852022 202.815496 
L 279.226419 180.864 
L 272.600816 205.808882 
L 265.975213 212.793449 
L 259.34961 219.778016 
L 252.724007 241.729512 
L 246.098404 215.786835 
L 239.472801 210.797858 
L 232.847199 246.718488 
L 226.221596 214.789039 
L 219.595993 191.839748 
L 212.97039 232.749354 
L 206.344787 196.828724 
L 199.719184 210.797858 
L 193.093581 196.828724 
L 186.467978 188.846362 
L 179.842375 199.82211 
L 173.216772 183.857386 
L 166.591169 186.850772 
L 159.965566 170.886047 
L 153.339963 194.833134 
L 146.71436 175.875024 
L 140.088757 211.795654 
L 133.463154 181.861795 
L 126.837551 198.824315 
L 120.211948 188.846362 
L 113.586345 188.846362 
L 106.960742 180.864 
L 100.335139 202.815496 
L 93.709536 206.806677 
L 87.083933 189.844157 
L 80.45833 221.773606 
L 73.832727 98.046992 
z
" style="fill:#7f7f7f;"/>
   </g>
   <g id="PolyCollection_9">
    <path clip-path="url(#pfaf34ebd9b)" d="M 73.832727 97.049197 
L 73.832727 98.046992 
L 80.45833 221.773606 
L 87.083933 189.844157 
L 93.709536 206.806677 
L 100.335139 202.815496 
L 106.960742 180.864 
L 113.586345 188.846362 
L 120.211948 188.846362 
L 126.837551 198.824315 
L 133.463154 181.861795 
L 140.088757 211.795654 
L 146.71436 175.875024 
L 153.339963 194.833134 
L 159.965566 170.886047 
L 166.591169 186.850772 
L 173.216772 183.857386 
L 179.842375 199.82211 
L 186.467978 188.846362 
L 193.093581 196.828724 
L 199.719184 210.797858 
L 206.344787 196.828724 
L 212.97039 232.749354 
L 219.595993 191.839748 
L 226.221596 214.789039 
L 232.847199 246.718488 
L 239.472801 210.797858 
L 246.098404 215.786835 
L 252.724007 241.729512 
L 259.34961 219.778016 
L 265.975213 212.793449 
L 272.600816 205.808882 
L 279.226419 180.864 
L 285.852022 202.815496 
L 292.477625 189.844157 
L 299.103228 183.857386 
L 305.728831 190.841953 
L 312.354434 165.897071 
L 318.980037 148.934551 
L 325.60564 167.892661 
L 332.231243 176.872819 
L 338.856846 169.888252 
L 345.482449 156.916913 
L 352.108052 125.98526 
L 358.733655 114.011717 
L 365.359258 233.74715 
L 371.984861 209.800063 
L 378.610464 189.844157 
L 385.236067 208.802268 
L 391.86167 208.802268 
L 398.487273 183.857386 
L 398.487273 137.958803 
L 398.487273 137.958803 
L 391.86167 174.877228 
L 385.236067 173.879433 
L 378.610464 141.949984 
L 371.984861 172.881638 
L 365.359258 180.864 
L 358.733655 91.062425 
L 352.108052 92.06022 
L 345.482449 119.998488 
L 338.856846 133.967622 
L 332.231243 167.892661 
L 325.60564 148.934551 
L 318.980037 124.987465 
L 312.354434 129.976441 
L 305.728831 160.908094 
L 299.103228 144.94337 
L 292.477625 158.912504 
L 285.852022 189.844157 
L 279.226419 156.916913 
L 272.600816 186.850772 
L 265.975213 179.866205 
L 259.34961 206.806677 
L 252.724007 224.766992 
L 246.098404 204.811087 
L 239.472801 196.828724 
L 232.847199 232.749354 
L 226.221596 204.811087 
L 219.595993 180.864 
L 212.97039 224.766992 
L 206.344787 186.850772 
L 199.719184 199.82211 
L 193.093581 185.852976 
L 186.467978 177.870614 
L 179.842375 190.841953 
L 173.216772 174.877228 
L 166.591169 178.868409 
L 159.965566 165.897071 
L 153.339963 187.848567 
L 146.71436 170.886047 
L 140.088757 206.806677 
L 133.463154 177.870614 
L 126.837551 194.833134 
L 120.211948 185.852976 
L 113.586345 183.857386 
L 106.960742 176.872819 
L 100.335139 196.828724 
L 93.709536 198.824315 
L 87.083933 182.859591 
L 80.45833 216.78463 
L 73.832727 97.049197 
z
" style="fill:#bcbd22;"/>
   </g>
   <g id="PolyCollection_10">
    <path clip-path="url(#pfaf34ebd9b)" d="M 73.832727 95.053606 
L 73.832727 97.049197 
L 80.45833 216.78463 
L 87.083933 182.859591 
L 93.709536 198.824315 
L 100.335139 196.828724 
L 106.960742 176.872819 
L 113.586345 183.857386 
L 120.211948 185.852976 
L 126.837551 194.833134 
L 133.463154 177.870614 
L 140.088757 206.806677 
L 146.71436 170.886047 
L 153.339963 187.848567 
L 159.965566 165.897071 
L 166.591169 178.868409 
L 173.216772 174.877228 
L 179.842375 190.841953 
L 186.467978 177.870614 
L 193.093581 185.852976 
L 199.719184 199.82211 
L 206.344787 186.850772 
L 212.97039 224.766992 
L 219.595993 180.864 
L 226.221596 204.811087 
L 232.847199 232.749354 
L 239.472801 196.828724 
L 246.098404 204.811087 
L 252.724007 224.766992 
L 259.34961 206.806677 
L 265.975213 179.866205 
L 272.600816 186.850772 
L 279.226419 156.916913 
L 285.852022 189.844157 
L 292.477625 158.912504 
L 299.103228 144.94337 
L 305.728831 160.908094 
L 312.354434 129.976441 
L 318.980037 124.987465 
L 325.60564 148.934551 
L 332.231243 167.892661 
L 338.856846 133.967622 
L 345.482449 119.998488 
L 352.108052 92.06022 
L 358.733655 91.062425 
L 365.359258 180.864 
L 371.984861 172.881638 
L 378.610464 141.949984 
L 385.236067 173.879433 
L 391.86167 174.877228 
L 398.487273 137.958803 
L 398.487273 137.958803 
L 398.487273 137.958803 
L 391.86167 174.877228 
L 385.236067 173.879433 
L 378.610464 141.949984 
L 371.984861 172.881638 
L 365.359258 180.864 
L 358.733655 91.062425 
L 352.108052 92.06022 
L 345.482449 119.998488 
L 338.856846 133.967622 
L 332.231243 167.892661 
L 325.60564 148.934551 
L 318.980037 124.987465 
L 312.354434 129.976441 
L 305.728831 160.908094 
L 299.103228 144.94337 
L 292.477625 158.912504 
L 285.852022 189.844157 
L 279.226419 130.974236 
L 272.600816 154.921323 
L 265.975213 149.932346 
L 259.34961 188.846362 
L 252.724007 206.806677 
L 246.098404 191.839748 
L 239.472801 181.861795 
L 232.847199 221.773606 
L 226.221596 196.828724 
L 219.595993 167.892661 
L 212.97039 206.806677 
L 206.344787 166.894866 
L 199.719184 184.855181 
L 193.093581 168.890457 
L 186.467978 162.903685 
L 179.842375 174.877228 
L 173.216772 156.916913 
L 166.591169 165.897071 
L 159.965566 154.921323 
L 153.339963 167.892661 
L 146.71436 154.921323 
L 140.088757 193.835339 
L 133.463154 168.890457 
L 126.837551 187.848567 
L 120.211948 179.866205 
L 113.586345 178.868409 
L 106.960742 173.879433 
L 100.335139 191.839748 
L 93.709536 194.833134 
L 87.083933 175.875024 
L 80.45833 215.786835 
L 73.832727 95.053606 
z
" style="fill:#17becf;"/>
   </g>
   <g id="PolyCollection_11">
    <path clip-path="url(#pfaf34ebd9b)" d="M 73.832727 80.086677 
L 73.832727 95.053606 
L 80.45833 215.786835 
L 87.083933 175.875024 
L 93.709536 194.833134 
L 100.335139 191.839748 
L 106.960742 173.879433 
L 113.586345 178.868409 
L 120.211948 179.866205 
L 126.837551 187.848567 
L 133.463154 168.890457 
L 140.088757 193.835339 
L 146.71436 154.921323 
L 153.339963 167.892661 
L 159.965566 154.921323 
L 166.591169 165.897071 
L 173.216772 156.916913 
L 179.842375 174.877228 
L 186.467978 162.903685 
L 193.093581 168.890457 
L 199.719184 184.855181 
L 206.344787 166.894866 
L 212.97039 206.806677 
L 219.595993 167.892661 
L 226.221596 196.828724 
L 232.847199 221.773606 
L 239.472801 181.861795 
L 246.098404 191.839748 
L 252.724007 206.806677 
L 259.34961 188.846362 
L 265.975213 149.932346 
L 272.600816 154.921323 
L 279.226419 130.974236 
L 285.852022 189.844157 
L 292.477625 158.912504 
L 299.103228 144.94337 
L 305.728831 160.908094 
L 312.354434 129.976441 
L 318.980037 124.987465 
L 325.60564 148.934551 
L 332.231243 167.892661 
L 338.856846 133.967622 
L 345.482449 119.998488 
L 352.108052 92.06022 
L 358.733655 91.062425 
L 365.359258 180.864 
L 371.984861 172.881638 
L 378.610464 141.949984 
L 385.236067 173.879433 
L 391.86167 174.877228 
L 398.487273 137.958803 
L 398.487273 137.958803 
L 398.487273 137.958803 
L 391.86167 174.877228 
L 385.236067 173.879433 
L 378.610464 141.949984 
L 371.984861 172.881638 
L 365.359258 180.864 
L 358.733655 91.062425 
L 352.108052 92.06022 
L 345.482449 119.998488 
L 338.856846 133.967622 
L 332.231243 167.892661 
L 325.60564 148.934551 
L 318.980037 124.987465 
L 312.354434 129.976441 
L 305.728831 160.908094 
L 299.103228 144.94337 
L 292.477625 158.912504 
L 285.852022 189.844157 
L 279.226419 130.974236 
L 272.600816 154.921323 
L 265.975213 149.932346 
L 259.34961 188.846362 
L 252.724007 206.806677 
L 246.098404 191.839748 
L 239.472801 181.861795 
L 232.847199 195.830929 
L 226.221596 175.875024 
L 219.595993 150.930142 
L 212.97039 184.855181 
L 206.344787 151.927937 
L 199.719184 163.90148 
L 193.093581 149.932346 
L 186.467978 144.94337 
L 179.842375 165.897071 
L 173.216772 146.938961 
L 166.591169 148.934551 
L 159.965566 146.938961 
L 153.339963 157.914709 
L 146.71436 143.945575 
L 140.088757 179.866205 
L 133.463154 152.925732 
L 126.837551 166.894866 
L 120.211948 154.921323 
L 113.586345 157.914709 
L 106.960742 152.925732 
L 100.335139 174.877228 
L 93.709536 143.945575 
L 87.083933 154.921323 
L 80.45833 187.848567 
L 73.832727 80.086677 
z
" style="fill:#1f77b4;"/>
   </g>
   <g id="PolyCollection_12">
    <path clip-path="url(#pfaf34ebd9b)" d="M 73.832727 79.088882 
L 73.832727 80.086677 
L 80.45833 187.848567 
L 87.083933 154.921323 
L 93.709536 143.945575 
L 100.335139 174.877228 
L 106.960742 152.925732 
L 113.586345 157.914709 
L 120.211948 154.921323 
L 126.837551 166.894866 
L 133.463154 152.925732 
L 140.088757 179.866205 
L 146.71436 143.945575 
L 153.339963 157.914709 
L 159.965566 146.938961 
L 166.591169 148.934551 
L 173.216772 146.938961 
L 179.842375 165.897071 
L 186.467978 144.94337 
L 193.093581 149.932346 
L 199.719184 163.90148 
L 206.344787 151.927937 
L 212.97039 184.855181 
L 219.595993 150.930142 
L 226.221596 175.875024 
L 232.847199 195.830929 
L 239.472801 181.861795 
L 246.098404 191.839748 
L 252.724007 206.806677 
L 259.34961 188.846362 
L 265.975213 149.932346 
L 272.600816 154.921323 
L 279.226419 130.974236 
L 285.852022 189.844157 
L 292.477625 158.912504 
L 299.103228 144.94337 
L 305.728831 160.908094 
L 312.354434 129.976441 
L 318.980037 124.987465 
L 325.60564 148.934551 
L 332.231243 167.892661 
L 338.856846 133.967622 
L 345.482449 119.998488 
L 352.108052 92.06022 
L 358.733655 91.062425 
L 365.359258 180.864 
L 371.984861 172.881638 
L 378.610464 141.949984 
L 385.236067 173.879433 
L 391.86167 174.877228 
L 398.487273 137.958803 
L 398.487273 87.071244 
L 398.487273 87.071244 
L 391.86167 144.94337 
L 385.236067 146.938961 
L 378.610464 126.983055 
L 371.984861 137.958803 
L 365.359258 152.925732 
L 358.733655 73.10211 
L 352.108052 71.10652 
L 345.482449 87.071244 
L 338.856846 111.018331 
L 332.231243 143.945575 
L 325.60564 130.974236 
L 318.980037 114.011717 
L 312.354434 119.998488 
L 305.728831 152.925732 
L 299.103228 136.961008 
L 292.477625 150.930142 
L 285.852022 184.855181 
L 279.226419 123.989669 
L 272.600816 147.936756 
L 265.975213 136.961008 
L 259.34961 181.861795 
L 252.724007 197.82652 
L 246.098404 187.848567 
L 239.472801 175.875024 
L 232.847199 189.844157 
L 226.221596 170.886047 
L 219.595993 146.938961 
L 212.97039 178.868409 
L 206.344787 144.94337 
L 199.719184 157.914709 
L 193.093581 144.94337 
L 186.467978 139.954394 
L 179.842375 161.90589 
L 173.216772 141.949984 
L 166.591169 144.94337 
L 159.965566 142.94778 
L 153.339963 152.925732 
L 146.71436 139.954394 
L 140.088757 174.877228 
L 133.463154 148.934551 
L 126.837551 161.90589 
L 120.211948 150.930142 
L 113.586345 153.923528 
L 106.960742 146.938961 
L 100.335139 169.888252 
L 93.709536 139.954394 
L 87.083933 148.934551 
L 80.45833 183.857386 
L 73.832727 79.088882 
z
" style="fill:#ff7f0e;"/>
   </g>
   <g id="PolyCollection_13">
    <path clip-path="url(#pfaf34ebd9b)" d="M 73.832727 78.091087 
L 73.832727 79.088882 
L 80.45833 183.857386 
L 87.083933 148.934551 
L 93.709536 139.954394 
L 100.335139 169.888252 
L 106.960742 146.938961 
L 113.586345 153.923528 
L 120.211948 150.930142 
L 126.837551 161.90589 
L 133.463154 148.934551 
L 140.088757 174.877228 
L 146.71436 139.954394 
L 153.339963 152.925732 
L 159.965566 142.94778 
L 166.591169 144.94337 
L 173.216772 141.949984 
L 179.842375 161.90589 
L 186.467978 139.954394 
L 193.093581 144.94337 
L 199.719184 157.914709 
L 206.344787 144.94337 
L 212.97039 178.868409 
L 219.595993 146.938961 
L 226.221596 170.886047 
L 232.847199 189.844157 
L 239.472801 175.875024 
L 246.098404 187.848567 
L 252.724007 197.82652 
L 259.34961 181.861795 
L 265.975213 136.961008 
L 272.600816 147.936756 
L 279.226419 123.989669 
L 285.852022 184.855181 
L 292.477625 150.930142 
L 299.103228 136.961008 
L 305.728831 152.925732 
L 312.354434 119.998488 
L 318.980037 114.011717 
L 325.60564 130.974236 
L 332.231243 143.945575 
L 338.856846 111.018331 
L 345.482449 87.071244 
L 352.108052 71.10652 
L 358.733655 73.10211 
L 365.359258 152.925732 
L 371.984861 137.958803 
L 378.610464 126.983055 
L 385.236067 146.938961 
L 391.86167 144.94337 
L 398.487273 87.071244 
L 398.487273 59.132976 
L 398.487273 59.132976 
L 391.86167 59.132976 
L 385.236067 59.132976 
L 378.610464 58.135181 
L 371.984861 58.135181 
L 365.359258 59.132976 
L 358.733655 58.135181 
L 352.108052 59.132976 
L 345.482449 58.135181 
L 338.856846 75.097701 
L 332.231243 76.095496 
L 325.60564 90.06463 
L 318.980037 76.095496 
L 312.354434 83.080063 
L 305.728831 82.082268 
L 299.103228 91.062425 
L 292.477625 100.042583 
L 285.852022 97.049197 
L 279.226419 90.06463 
L 272.600816 91.062425 
L 265.975213 99.044787 
L 259.34961 161.90589 
L 252.724007 153.923528 
L 246.098404 146.938961 
L 239.472801 172.881638 
L 232.847199 186.850772 
L 226.221596 166.894866 
L 219.595993 144.94337 
L 212.97039 175.875024 
L 206.344787 139.954394 
L 199.719184 153.923528 
L 193.093581 141.949984 
L 186.467978 135.963213 
L 179.842375 158.912504 
L 173.216772 137.958803 
L 166.591169 138.956598 
L 159.965566 135.963213 
L 153.339963 146.938961 
L 146.71436 135.963213 
L 140.088757 169.888252 
L 133.463154 144.94337 
L 126.837551 158.912504 
L 120.211948 147.936756 
L 113.586345 149.932346 
L 106.960742 143.945575 
L 100.335139 165.897071 
L 93.709536 136.961008 
L 87.083933 145.941165 
L 80.45833 179.866205 
L 73.832727 78.091087 
z
" style="fill:#2ca02c;"/>
   </g>
   <g id="PolyCollection_14">
    <path clip-path="url(#pfaf34ebd9b)" d="M 73.832727 69.110929 
L 73.832727 78.091087 
L 80.45833 179.866205 
L 87.083933 145.941165 
L 93.709536 136.961008 
L 100.335139 165.897071 
L 106.960742 143.945575 
L 113.586345 149.932346 
L 120.211948 147.936756 
L 126.837551 158.912504 
L 133.463154 144.94337 
L 140.088757 169.888252 
L 146.71436 135.963213 
L 153.339963 146.938961 
L 159.965566 135.963213 
L 166.591169 138.956598 
L 173.216772 137.958803 
L 179.842375 158.912504 
L 186.467978 135.963213 
L 193.093581 141.949984 
L 199.719184 153.923528 
L 206.344787 139.954394 
L 212.97039 175.875024 
L 219.595993 144.94337 
L 226.221596 166.894866 
L 232.847199 186.850772 
L 239.472801 172.881638 
L 246.098404 146.938961 
L 252.724007 153.923528 
L 259.34961 161.90589 
L 265.975213 99.044787 
L 272.600816 91.062425 
L 279.226419 90.06463 
L 285.852022 97.049197 
L 292.477625 100.042583 
L 299.103228 91.062425 
L 305.728831 82.082268 
L 312.354434 83.080063 
L 318.980037 76.095496 
L 325.60564 90.06463 
L 332.231243 76.095496 
L 338.856846 75.097701 
L 345.482449 58.135181 
L 352.108052 59.132976 
L 358.733655 58.135181 
L 365.359258 59.132976 
L 371.984861 58.135181 
L 378.610464 58.135181 
L 385.236067 59.132976 
L 391.86167 59.132976 
L 398.487273 59.132976 
L 398.487273 59.132976 
L 398.487273 59.132976 
L 391.86167 59.132976 
L 385.236067 59.132976 
L 378.610464 58.135181 
L 371.984861 58.135181 
L 365.359258 59.132976 
L 358.733655 58.135181 
L 352.108052 59.132976 
L 345.482449 58.135181 
L 338.856846 75.097701 
L 332.231243 76.095496 
L 325.60564 90.06463 
L 318.980037 76.095496 
L 312.354434 83.080063 
L 305.728831 82.082268 
L 299.103228 91.062425 
L 292.477625 100.042583 
L 285.852022 97.049197 
L 279.226419 90.06463 
L 272.600816 91.062425 
L 265.975213 99.044787 
L 259.34961 148.934551 
L 252.724007 135.963213 
L 246.098404 131.972031 
L 239.472801 149.932346 
L 232.847199 159.910299 
L 226.221596 153.923528 
L 219.595993 131.972031 
L 212.97039 160.908094 
L 206.344787 130.974236 
L 199.719184 139.954394 
L 193.093581 134.965417 
L 186.467978 127.98085 
L 179.842375 141.949984 
L 173.216772 128.978646 
L 166.591169 118.002898 
L 159.965566 123.989669 
L 153.339963 119.998488 
L 146.71436 119.998488 
L 140.088757 124.987465 
L 133.463154 120.996283 
L 126.837551 136.961008 
L 120.211948 129.976441 
L 113.586345 122.991874 
L 106.960742 115.009512 
L 100.335139 134.965417 
L 93.709536 111.018331 
L 87.083933 130.974236 
L 80.45833 144.94337 
L 73.832727 69.110929 
z
" style="fill:#d62728;"/>
   </g>
   <g id="PolyCollection_15">
    <path clip-path="url(#pfaf34ebd9b)" d="M 73.832727 68.113134 
L 73.832727 69.110929 
L 80.45833 144.94337 
L 87.083933 130.974236 
L 93.709536 111.018331 
L 100.335139 134.965417 
L 106.960742 115.009512 
L 113.586345 122.991874 
L 120.211948 129.976441 
L 126.837551 136.961008 
L 133.463154 120.996283 
L 140.088757 124.987465 
L 146.71436 119.998488 
L 153.339963 119.998488 
L 159.965566 123.989669 
L 166.591169 118.002898 
L 173.216772 128.978646 
L 179.842375 141.949984 
L 186.467978 127.98085 
L 193.093581 134.965417 
L 199.719184 139.954394 
L 206.344787 130.974236 
L 212.97039 160.908094 
L 219.595993 131.972031 
L 226.221596 153.923528 
L 232.847199 159.910299 
L 239.472801 149.932346 
L 246.098404 131.972031 
L 252.724007 135.963213 
L 259.34961 148.934551 
L 265.975213 99.044787 
L 272.600816 91.062425 
L 279.226419 90.06463 
L 285.852022 97.049197 
L 292.477625 100.042583 
L 299.103228 91.062425 
L 305.728831 82.082268 
L 312.354434 83.080063 
L 318.980037 76.095496 
L 325.60564 90.06463 
L 332.231243 76.095496 
L 338.856846 75.097701 
L 345.482449 58.135181 
L 352.108052 59.132976 
L 358.733655 58.135181 
L 365.359258 59.132976 
L 371.984861 58.135181 
L 378.610464 58.135181 
L 385.236067 59.132976 
L 391.86167 59.132976 
L 398.487273 59.132976 
L 398.487273 59.132976 
L 398.487273 59.132976 
L 391.86167 59.132976 
L 385.236067 59.132976 
L 378.610464 58.135181 
L 371.984861 58.135181 
L 365.359258 59.132976 
L 358.733655 58.135181 
L 352.108052 59.132976 
L 345.482449 58.135181 
L 338.856846 75.097701 
L 332.231243 76.095496 
L 325.60564 90.06463 
L 318.980037 76.095496 
L 312.354434 83.080063 
L 305.728831 82.082268 
L 299.103228 91.062425 
L 292.477625 100.042583 
L 285.852022 97.049197 
L 279.226419 90.06463 
L 272.600816 91.062425 
L 265.975213 99.044787 
L 259.34961 148.934551 
L 252.724007 135.963213 
L 246.098404 131.972031 
L 239.472801 149.932346 
L 232.847199 159.910299 
L 226.221596 134.965417 
L 219.595993 115.009512 
L 212.97039 144.94337 
L 206.344787 117.005102 
L 199.719184 127.98085 
L 193.093581 123.989669 
L 186.467978 115.009512 
L 179.842375 125.98526 
L 173.216772 117.005102 
L 166.591169 105.031559 
L 159.965566 105.031559 
L 153.339963 104.033764 
L 146.71436 101.040378 
L 140.088757 111.018331 
L 133.463154 108.024945 
L 126.837551 123.989669 
L 120.211948 115.009512 
L 113.586345 109.02274 
L 106.960742 102.038173 
L 100.335139 119.998488 
L 93.709536 100.042583 
L 87.083933 121.994079 
L 80.45833 139.954394 
L 73.832727 68.113134 
z
" style="fill:#9467bd;"/>
   </g>
   <g id="PolyCollection_16">
    <path clip-path="url(#pfaf34ebd9b)" d="M 73.832727 67.115339 
L 73.832727 68.113134 
L 80.45833 139.954394 
L 87.083933 121.994079 
L 93.709536 100.042583 
L 100.335139 119.998488 
L 106.960742 102.038173 
L 113.586345 109.02274 
L 120.211948 115.009512 
L 126.837551 123.989669 
L 133.463154 108.024945 
L 140.088757 111.018331 
L 146.71436 101.040378 
L 153.339963 104.033764 
L 159.965566 105.031559 
L 166.591169 105.031559 
L 173.216772 117.005102 
L 179.842375 125.98526 
L 186.467978 115.009512 
L 193.093581 123.989669 
L 199.719184 127.98085 
L 206.344787 117.005102 
L 212.97039 144.94337 
L 219.595993 115.009512 
L 226.221596 134.965417 
L 232.847199 159.910299 
L 239.472801 149.932346 
L 246.098404 131.972031 
L 252.724007 135.963213 
L 259.34961 148.934551 
L 265.975213 99.044787 
L 272.600816 91.062425 
L 279.226419 90.06463 
L 285.852022 97.049197 
L 292.477625 100.042583 
L 299.103228 91.062425 
L 305.728831 82.082268 
L 312.354434 83.080063 
L 318.980037 76.095496 
L 325.60564 90.06463 
L 332.231243 76.095496 
L 338.856846 75.097701 
L 345.482449 58.135181 
L 352.108052 59.132976 
L 358.733655 58.135181 
L 365.359258 59.132976 
L 371.984861 58.135181 
L 378.610464 58.135181 
L 385.236067 59.132976 
L 391.86167 59.132976 
L 398.487273 59.132976 
L 398.487273 59.132976 
L 398.487273 59.132976 
L 391.86167 59.132976 
L 385.236067 59.132976 
L 378.610464 58.135181 
L 371.984861 58.135181 
L 365.359258 59.132976 
L 358.733655 58.135181 
L 352.108052 59.132976 
L 345.482449 58.135181 
L 338.856846 75.097701 
L 332.231243 76.095496 
L 325.60564 90.06463 
L 318.980037 76.095496 
L 312.354434 83.080063 
L 305.728831 82.082268 
L 299.103228 91.062425 
L 292.477625 100.042583 
L 285.852022 97.049197 
L 279.226419 90.06463 
L 272.600816 91.062425 
L 265.975213 99.044787 
L 259.34961 148.934551 
L 252.724007 135.963213 
L 246.098404 131.972031 
L 239.472801 144.94337 
L 232.847199 153.923528 
L 226.221596 129.976441 
L 219.595993 111.018331 
L 212.97039 139.954394 
L 206.344787 113.013921 
L 199.719184 123.989669 
L 193.093581 120.996283 
L 186.467978 112.016126 
L 179.842375 122.991874 
L 173.216772 115.009512 
L 166.591169 103.035969 
L 159.965566 103.035969 
L 153.339963 102.038173 
L 146.71436 98.046992 
L 140.088757 107.02715 
L 133.463154 103.035969 
L 126.837551 119.000693 
L 120.211948 109.02274 
L 113.586345 102.038173 
L 106.960742 96.051402 
L 100.335139 113.013921 
L 93.709536 96.051402 
L 87.083933 115.009512 
L 80.45833 131.972031 
L 73.832727 67.115339 
z
" style="fill:#8c564b;"/>
   </g>
   <g id="PolyCollection_17">
    <path clip-path="url(#pfaf34ebd9b)" d="M 73.832727 65.119748 
L 73.832727 67.115339 
L 80.45833 131.972031 
L 87.083933 115.009512 
L 93.709536 96.051402 
L 100.335139 113.013921 
L 106.960742 96.051402 
L 113.586345 102.038173 
L 120.211948 109.02274 
L 126.837551 119.000693 
L 133.463154 103.035969 
L 140.088757 107.02715 
L 146.71436 98.046992 
L 153.339963 102.038173 
L 159.965566 103.035969 
L 166.591169 103.035969 
L 173.216772 115.009512 
L 179.842375 122.991874 
L 186.467978 112.016126 
L 193.093581 120.996283 
L 199.719184 123.989669 
L 206.344787 113.013921 
L 212.97039 139.954394 
L 219.595993 111.018331 
L 226.221596 129.976441 
L 232.847199 153.923528 
L 239.472801 144.94337 
L 246.098404 131.972031 
L 252.724007 135.963213 
L 259.34961 148.934551 
L 265.975213 99.044787 
L 272.600816 91.062425 
L 279.226419 90.06463 
L 285.852022 97.049197 
L 292.477625 100.042583 
L 299.103228 91.062425 
L 305.728831 82.082268 
L 312.354434 83.080063 
L 318.980037 76.095496 
L 325.60564 90.06463 
L 332.231243 76.095496 
L 338.856846 75.097701 
L 345.482449 58.135181 
L 352.108052 59.132976 
L 358.733655 58.135181 
L 365.359258 59.132976 
L 371.984861 58.135181 
L 378.610464 58.135181 
L 385.236067 59.132976 
L 391.86167 59.132976 
L 398.487273 59.132976 
L 398.487273 59.132976 
L 398.487273 59.132976 
L 391.86167 59.132976 
L 385.236067 59.132976 
L 378.610464 58.135181 
L 371.984861 58.135181 
L 365.359258 59.132976 
L 358.733655 58.135181 
L 352.108052 59.132976 
L 345.482449 58.135181 
L 338.856846 75.097701 
L 332.231243 76.095496 
L 325.60564 90.06463 
L 318.980037 76.095496 
L 312.354434 83.080063 
L 305.728831 82.082268 
L 299.103228 81.084472 
L 292.477625 86.073449 
L 285.852022 84.077858 
L 279.226419 78.091087 
L 272.600816 83.080063 
L 265.975213 89.066835 
L 259.34961 142.94778 
L 252.724007 128.978646 
L 246.098404 124.987465 
L 239.472801 138.956598 
L 232.847199 148.934551 
L 226.221596 125.98526 
L 219.595993 108.024945 
L 212.97039 135.963213 
L 206.344787 110.020535 
L 199.719184 122.991874 
L 193.093581 116.007307 
L 186.467978 107.02715 
L 179.842375 116.007307 
L 173.216772 109.02274 
L 166.591169 98.046992 
L 159.965566 99.044787 
L 153.339963 97.049197 
L 146.71436 92.06022 
L 140.088757 102.038173 
L 133.463154 99.044787 
L 126.837551 114.011717 
L 120.211948 104.033764 
L 113.586345 96.051402 
L 106.960742 91.062425 
L 100.335139 109.02274 
L 93.709536 93.058016 
L 87.083933 111.018331 
L 80.45833 129.976441 
L 73.832727 65.119748 
z
" style="fill:#e377c2;"/>
   </g>
   <g id="PolyCollection_18">
    <path clip-path="url(#pfaf34ebd9b)" d="M 73.832727 64.121953 
L 73.832727 65.119748 
L 80.45833 129.976441 
L 87.083933 111.018331 
L 93.709536 93.058016 
L 100.335139 109.02274 
L 106.960742 91.062425 
L 113.586345 96.051402 
L 120.211948 104.033764 
L 126.837551 114.011717 
L 133.463154 99.044787 
L 140.088757 102.038173 
L 146.71436 92.06022 
L 153.339963 97.049197 
L 159.965566 99.044787 
L 166.591169 98.046992 
L 173.216772 109.02274 
L 179.842375 116.007307 
L 186.467978 107.02715 
L 193.093581 116.007307 
L 199.719184 122.991874 
L 206.344787 110.020535 
L 212.97039 135.963213 
L 219.595993 108.024945 
L 226.221596 125.98526 
L 232.847199 148.934551 
L 239.472801 138.956598 
L 246.098404 124.987465 
L 252.724007 128.978646 
L 259.34961 142.94778 
L 265.975213 89.066835 
L 272.600816 83.080063 
L 279.226419 78.091087 
L 285.852022 84.077858 
L 292.477625 86.073449 
L 299.103228 81.084472 
L 305.728831 82.082268 
L 312.354434 83.080063 
L 318.980037 76.095496 
L 325.60564 90.06463 
L 332.231243 76.095496 
L 338.856846 75.097701 
L 345.482449 58.135181 
L 352.108052 59.132976 
L 358.733655 58.135181 
L 365.359258 59.132976 
L 371.984861 58.135181 
L 378.610464 58.135181 
L 385.236067 59.132976 
L 391.86167 59.132976 
L 398.487273 59.132976 
L 398.487273 59.132976 
L 398.487273 59.132976 
L 391.86167 59.132976 
L 385.236067 59.132976 
L 378.610464 58.135181 
L 371.984861 58.135181 
L 365.359258 59.132976 
L 358.733655 58.135181 
L 352.108052 59.132976 
L 345.482449 58.135181 
L 338.856846 75.097701 
L 332.231243 76.095496 
L 325.60564 90.06463 
L 318.980037 76.095496 
L 312.354434 83.080063 
L 305.728831 82.082268 
L 299.103228 81.084472 
L 292.477625 86.073449 
L 285.852022 84.077858 
L 279.226419 78.091087 
L 272.600816 83.080063 
L 265.975213 78.091087 
L 259.34961 135.963213 
L 252.724007 122.991874 
L 246.098404 120.996283 
L 239.472801 133.967622 
L 232.847199 144.94337 
L 226.221596 120.996283 
L 219.595993 104.033764 
L 212.97039 132.969827 
L 206.344787 106.029354 
L 199.719184 118.002898 
L 193.093581 110.020535 
L 186.467978 102.038173 
L 179.842375 112.016126 
L 173.216772 106.029354 
L 166.591169 94.055811 
L 159.965566 96.051402 
L 153.339963 94.055811 
L 146.71436 88.069039 
L 140.088757 97.049197 
L 133.463154 95.053606 
L 126.837551 109.02274 
L 120.211948 101.040378 
L 113.586345 91.062425 
L 106.960742 87.071244 
L 100.335139 104.033764 
L 93.709536 89.066835 
L 87.083933 106.029354 
L 80.45833 127.98085 
L 73.832727 64.121953 
z
" style="fill:#7f7f7f;"/>
   </g>
   <g id="PolyCollection_19">
    <path clip-path="url(#pfaf34ebd9b)" d="M 73.832727 63.124157 
L 73.832727 64.121953 
L 80.45833 127.98085 
L 87.083933 106.029354 
L 93.709536 89.066835 
L 100.335139 104.033764 
L 106.960742 87.071244 
L 113.586345 91.062425 
L 120.211948 101.040378 
L 126.837551 109.02274 
L 133.463154 95.053606 
L 140.088757 97.049197 
L 146.71436 88.069039 
L 153.339963 94.055811 
L 159.965566 96.051402 
L 166.591169 94.055811 
L 173.216772 106.029354 
L 179.842375 112.016126 
L 186.467978 102.038173 
L 193.093581 110.020535 
L 199.719184 118.002898 
L 206.344787 106.029354 
L 212.97039 132.969827 
L 219.595993 104.033764 
L 226.221596 120.996283 
L 232.847199 144.94337 
L 239.472801 133.967622 
L 246.098404 120.996283 
L 252.724007 122.991874 
L 259.34961 135.963213 
L 265.975213 78.091087 
L 272.600816 83.080063 
L 279.226419 78.091087 
L 285.852022 84.077858 
L 292.477625 86.073449 
L 299.103228 81.084472 
L 305.728831 82.082268 
L 312.354434 83.080063 
L 318.980037 76.095496 
L 325.60564 90.06463 
L 332.231243 76.095496 
L 338.856846 75.097701 
L 345.482449 58.135181 
L 352.108052 59.132976 
L 358.733655 58.135181 
L 365.359258 59.132976 
L 371.984861 58.135181 
L 378.610464 58.135181 
L 385.236067 59.132976 
L 391.86167 59.132976 
L 398.487273 59.132976 
L 398.487273 59.132976 
L 398.487273 59.132976 
L 391.86167 59.132976 
L 385.236067 59.132976 
L 378.610464 58.135181 
L 371.984861 58.135181 
L 365.359258 59.132976 
L 358.733655 58.135181 
L 352.108052 59.132976 
L 345.482449 58.135181 
L 338.856846 75.097701 
L 332.231243 76.095496 
L 325.60564 90.06463 
L 318.980037 76.095496 
L 312.354434 83.080063 
L 305.728831 82.082268 
L 299.103228 81.084472 
L 292.477625 86.073449 
L 285.852022 84.077858 
L 279.226419 78.091087 
L 272.600816 83.080063 
L 265.975213 78.091087 
L 259.34961 135.963213 
L 252.724007 122.991874 
L 246.098404 109.02274 
L 239.472801 118.002898 
L 232.847199 123.989669 
L 226.221596 108.024945 
L 219.595993 93.058016 
L 212.97039 121.994079 
L 206.344787 83.080063 
L 199.719184 97.049197 
L 193.093581 95.053606 
L 186.467978 93.058016 
L 179.842375 96.051402 
L 173.216772 85.075654 
L 166.591169 88.069039 
L 159.965566 86.073449 
L 153.339963 85.075654 
L 146.71436 82.082268 
L 140.088757 81.084472 
L 133.463154 87.071244 
L 126.837551 91.062425 
L 120.211948 82.082268 
L 113.586345 71.10652 
L 106.960742 73.10211 
L 100.335139 87.071244 
L 93.709536 75.097701 
L 87.083933 98.046992 
L 80.45833 108.024945 
L 73.832727 63.124157 
z
" style="fill:#bcbd22;"/>
   </g>
   <g id="PolyCollection_20">
    <path clip-path="url(#pfaf34ebd9b)" d="M 73.832727 59.132976 
L 73.832727 63.124157 
L 80.45833 108.024945 
L 87.083933 98.046992 
L 93.709536 75.097701 
L 100.335139 87.071244 
L 106.960742 73.10211 
L 113.586345 71.10652 
L 120.211948 82.082268 
L 126.837551 91.062425 
L 133.463154 87.071244 
L 140.088757 81.084472 
L 146.71436 82.082268 
L 153.339963 85.075654 
L 159.965566 86.073449 
L 166.591169 88.069039 
L 173.216772 85.075654 
L 179.842375 96.051402 
L 186.467978 93.058016 
L 193.093581 95.053606 
L 199.719184 97.049197 
L 206.344787 83.080063 
L 212.97039 121.994079 
L 219.595993 93.058016 
L 226.221596 108.024945 
L 232.847199 123.989669 
L 239.472801 118.002898 
L 246.098404 109.02274 
L 252.724007 122.991874 
L 259.34961 135.963213 
L 265.975213 78.091087 
L 272.600816 83.080063 
L 279.226419 78.091087 
L 285.852022 84.077858 
L 292.477625 86.073449 
L 299.103228 81.084472 
L 305.728831 82.082268 
L 312.354434 83.080063 
L 318.980037 76.095496 
L 325.60564 90.06463 
L 332.231243 76.095496 
L 338.856846 75.097701 
L 345.482449 58.135181 
L 352.108052 59.132976 
L 358.733655 58.135181 
L 365.359258 59.132976 
L 371.984861 58.135181 
L 378.610464 58.135181 
L 385.236067 59.132976 
L 391.86167 59.132976 
L 398.487273 59.132976 
L 398.487273 59.132976 
L 398.487273 59.132976 
L 391.86167 59.132976 
L 385.236067 59.132976 
L 378.610464 58.135181 
L 371.984861 58.135181 
L 365.359258 59.132976 
L 358.733655 58.135181 
L 352.108052 59.132976 
L 345.482449 58.135181 
L 338.856846 75.097701 
L 332.231243 76.095496 
L 325.60564 90.06463 
L 318.980037 76.095496 
L 312.354434 83.080063 
L 305.728831 82.082268 
L 299.103228 81.084472 
L 292.477625 86.073449 
L 285.852022 84.077858 
L 279.226419 78.091087 
L 272.600816 83.080063 
L 265.975213 78.091087 
L 259.34961 76.095496 
L 252.724007 76.095496 
L 246.098404 76.095496 
L 239.472801 77.093291 
L 232.847199 72.104315 
L 226.221596 77.093291 
L 219.595993 74.099906 
L 212.97039 69.110929 
L 206.344787 71.10652 
L 199.719184 70.108724 
L 193.093581 70.108724 
L 186.467978 72.104315 
L 179.842375 71.10652 
L 173.216772 72.104315 
L 166.591169 72.104315 
L 159.965566 70.108724 
L 153.339963 69.110929 
L 146.71436 68.113134 
L 140.088757 67.115339 
L 133.463154 75.097701 
L 126.837551 73.10211 
L 120.211948 70.108724 
L 113.586345 65.119748 
L 106.960742 68.113134 
L 100.335139 69.110929 
L 93.709536 66.117543 
L 87.083933 66.117543 
L 80.45833 67.115339 
L 73.832727 59.132976 
z
" style="fill:#17becf;"/>
   </g>
   <g id="PolyCollection_21">
    <path clip-path="url(#pfaf34ebd9b)" d="M 73.832727 58.135181 
L 73.832727 59.132976 
L 80.45833 67.115339 
L 87.083933 66.117543 
L 93.709536 66.117543 
L 100.335139 69.110929 
L 106.960742 68.113134 
L 113.586345 65.119748 
L 120.211948 70.108724 
L 126.837551 73.10211 
L 133.463154 75.097701 
L 140.088757 67.115339 
L 146.71436 68.113134 
L 153.339963 69.110929 
L 159.965566 70.108724 
L 166.591169 72.104315 
L 173.216772 72.104315 
L 179.842375 71.10652 
L 186.467978 72.104315 
L 193.093581 70.108724 
L 199.719184 70.108724 
L 206.344787 71.10652 
L 212.97039 69.110929 
L 219.595993 74.099906 
L 226.221596 77.093291 
L 232.847199 72.104315 
L 239.472801 77.093291 
L 246.098404 76.095496 
L 252.724007 76.095496 
L 259.34961 76.095496 
L 265.975213 78.091087 
L 272.600816 83.080063 
L 279.226419 78.091087 
L 285.852022 84.077858 
L 292.477625 86.073449 
L 299.103228 81.084472 
L 305.728831 82.082268 
L 312.354434 83.080063 
L 318.980037 76.095496 
L 325.60564 90.06463 
L 332.231243 76.095496 
L 338.856846 75.097701 
L 345.482449 58.135181 
L 352.108052 59.132976 
L 358.733655 58.135181 
L 365.359258 59.132976 
L 371.984861 58.135181 
L 378.610464 58.135181 
L 385.236067 59.132976 
L 391.86167 59.132976 
L 398.487273 59.132976 
L 398.487273 59.132976 
L 398.487273 59.132976 
L 391.86167 59.132976 
L 385.236067 59.132976 
L 378.610464 58.135181 
L 371.984861 58.135181 
L 365.359258 59.132976 
L 358.733655 58.135181 
L 352.108052 59.132976 
L 345.482449 58.135181 
L 338.856846 57.137386 
L 332.231243 58.135181 
L 325.60564 58.135181 
L 318.980037 57.137386 
L 312.354434 57.137386 
L 305.728831 57.137386 
L 299.103228 57.137386 
L 292.477625 57.137386 
L 285.852022 58.135181 
L 279.226419 57.137386 
L 272.600816 59.132976 
L 265.975213 59.132976 
L 259.34961 59.132976 
L 252.724007 57.137386 
L 246.098404 62.126362 
L 239.472801 60.130772 
L 232.847199 58.135181 
L 226.221596 62.126362 
L 219.595993 60.130772 
L 212.97039 56.139591 
L 206.344787 55.141795 
L 199.719184 55.141795 
L 193.093581 54.144 
L 186.467978 57.137386 
L 179.842375 58.135181 
L 173.216772 58.135181 
L 166.591169 59.132976 
L 159.965566 56.139591 
L 153.339963 56.139591 
L 146.71436 56.139591 
L 140.088757 55.141795 
L 133.463154 55.141795 
L 126.837551 57.137386 
L 120.211948 60.130772 
L 113.586345 56.139591 
L 106.960742 57.137386 
L 100.335139 56.139591 
L 93.709536 57.137386 
L 87.083933 56.139591 
L 80.45833 57.137386 
L 73.832727 58.135181 
z
" style="fill:#1f77b4;"/>
   </g>
   <g id="matplotlib.axis_1">
    <g id="xtick_1">
     <g id="line2d_1">
      <defs>
       <path d="M 0 0 
L 0 3.5 
" id="ma379169ca6" style="stroke:#000000;stroke-width:0.8;"/>
      </defs>
      <g>
       <use style="stroke:#000000;stroke-width:0.8;" x="73.832727" xlink:href="#ma379169ca6" y="307.584"/>
      </g>
     </g>
     <g id="text_1">
      <!-- 0 -->
      <defs>
       <path d="M 31.78125 66.40625 
Q 24.171875 66.40625 20.328125 58.90625 
Q 16.5 51.421875 16.5 36.375 
Q 16.5 21.390625 20.328125 13.890625 
Q 24.171875 6.390625 31.78125 6.390625 
Q 39.453125 6.390625 43.28125 13.890625 
Q 47.125 21.390625 47.125 36.375 
Q 47.125 51.421875 43.28125 58.90625 
Q 39.453125 66.40625 31.78125 66.40625 
z
M 31.78125 74.21875 
Q 44.046875 74.21875 50.515625 64.515625 
Q 56.984375 54.828125 56.984375 36.375 
Q 56.984375 17.96875 50.515625 8.265625 
Q 44.046875 -1.421875 31.78125 -1.421875 
Q 19.53125 -1.421875 13.0625 8.265625 
Q 6.59375 17.96875 6.59375 36.375 
Q 6.59375 54.828125 13.0625 64.515625 
Q 19.53125 74.21875 31.78125 74.21875 
z
" id="DejaVuSans-48"/>
      </defs>
      <g transform="translate(70.651477 322.182437)scale(0.1 -0.1)">
       <use xlink:href="#DejaVuSans-48"/>
      </g>
     </g>
    </g>
    <g id="xtick_2">
     <g id="line2d_2">
      <g>
       <use style="stroke:#000000;stroke-width:0.8;" x="140.088757" xlink:href="#ma379169ca6" y="307.584"/>
      </g>
     </g>
     <g id="text_2">
      <!-- 10 -->
      <defs>
       <path d="M 12.40625 8.296875 
L 28.515625 8.296875 
L 28.515625 63.921875 
L 10.984375 60.40625 
L 10.984375 69.390625 
L 28.421875 72.90625 
L 38.28125 72.90625 
L 38.28125 8.296875 
L 54.390625 8.296875 
L 54.390625 0 
L 12.40625 0 
z
" id="DejaVuSans-49"/>
      </defs>
      <g transform="translate(133.726257 322.182437)scale(0.1 -0.1)">
       <use xlink:href="#DejaVuSans-49"/>
       <use x="63.623047" xlink:href="#DejaVuSans-48"/>
      </g>
     </g>
    </g>
    <g id="xtick_3">
     <g id="line2d_3">
      <g>
       <use style="stroke:#000000;stroke-width:0.8;" x="206.344787" xlink:href="#ma379169ca6" y="307.584"/>
      </g>
     </g>
     <g id="text_3">
      <!-- 20 -->
      <defs>
       <path d="M 19.1875 8.296875 
L 53.609375 8.296875 
L 53.609375 0 
L 7.328125 0 
L 7.328125 8.296875 
Q 12.9375 14.109375 22.625 23.890625 
Q 32.328125 33.6875 34.8125 36.53125 
Q 39.546875 41.84375 41.421875 45.53125 
Q 43.3125 49.21875 43.3125 52.78125 
Q 43.3125 58.59375 39.234375 62.25 
Q 35.15625 65.921875 28.609375 65.921875 
Q 23.96875 65.921875 18.8125 64.3125 
Q 13.671875 62.703125 7.8125 59.421875 
L 7.8125 69.390625 
Q 13.765625 71.78125 18.9375 73 
Q 24.125 74.21875 28.421875 74.21875 
Q 39.75 74.21875 46.484375 68.546875 
Q 53.21875 62.890625 53.21875 53.421875 
Q 53.21875 48.921875 51.53125 44.890625 
Q 49.859375 40.875 45.40625 35.40625 
Q 44.1875 33.984375 37.640625 27.21875 
Q 31.109375 20.453125 19.1875 8.296875 
z
" id="DejaVuSans-50"/>
      </defs>
      <g transform="translate(199.982287 322.182437)scale(0.1 -0.1)">
       <use xlink:href="#DejaVuSans-50"/>
       <use x="63.623047" xlink:href="#DejaVuSans-48"/>
      </g>
     </g>
    </g>
    <g id="xtick_4">
     <g id="line2d_4">
      <g>
       <use style="stroke:#000000;stroke-width:0.8;" x="272.600816" xlink:href="#ma379169ca6" y="307.584"/>
      </g>
     </g>
     <g id="text_4">
      <!-- 30 -->
      <defs>
       <path d="M 40.578125 39.3125 
Q 47.65625 37.796875 51.625 33 
Q 55.609375 28.21875 55.609375 21.1875 
Q 55.609375 10.40625 48.1875 4.484375 
Q 40.765625 -1.421875 27.09375 -1.421875 
Q 22.515625 -1.421875 17.65625 -0.515625 
Q 12.796875 0.390625 7.625 2.203125 
L 7.625 11.71875 
Q 11.71875 9.328125 16.59375 8.109375 
Q 21.484375 6.890625 26.8125 6.890625 
Q 36.078125 6.890625 40.9375 10.546875 
Q 45.796875 14.203125 45.796875 21.1875 
Q 45.796875 27.640625 41.28125 31.265625 
Q 36.765625 34.90625 28.71875 34.90625 
L 20.21875 34.90625 
L 20.21875 43.015625 
L 29.109375 43.015625 
Q 36.375 43.015625 40.234375 45.921875 
Q 44.09375 48.828125 44.09375 54.296875 
Q 44.09375 59.90625 40.109375 62.90625 
Q 36.140625 65.921875 28.71875 65.921875 
Q 24.65625 65.921875 20.015625 65.03125 
Q 15.375 64.15625 9.8125 62.3125 
L 9.8125 71.09375 
Q 15.4375 72.65625 20.34375 73.4375 
Q 25.25 74.21875 29.59375 74.21875 
Q 40.828125 74.21875 47.359375 69.109375 
Q 53.90625 64.015625 53.90625 55.328125 
Q 53.90625 49.265625 50.4375 45.09375 
Q 46.96875 40.921875 40.578125 39.3125 
z
" id="DejaVuSans-51"/>
      </defs>
      <g transform="translate(266.238316 322.182437)scale(0.1 -0.1)">
       <use xlink:href="#DejaVuSans-51"/>
       <use x="63.623047" xlink:href="#DejaVuSans-48"/>
      </g>
     </g>
    </g>
    <g id="xtick_5">
     <g id="line2d_5">
      <g>
       <use style="stroke:#000000;stroke-width:0.8;" x="338.856846" xlink:href="#ma379169ca6" y="307.584"/>
      </g>
     </g>
     <g id="text_5">
      <!-- 40 -->
      <defs>
       <path d="M 37.796875 64.3125 
L 12.890625 25.390625 
L 37.796875 25.390625 
z
M 35.203125 72.90625 
L 47.609375 72.90625 
L 47.609375 25.390625 
L 58.015625 25.390625 
L 58.015625 17.1875 
L 47.609375 17.1875 
L 47.609375 0 
L 37.796875 0 
L 37.796875 17.1875 
L 4.890625 17.1875 
L 4.890625 26.703125 
z
" id="DejaVuSans-52"/>
      </defs>
      <g transform="translate(332.494346 322.182437)scale(0.1 -0.1)">
       <use xlink:href="#DejaVuSans-52"/>
       <use x="63.623047" xlink:href="#DejaVuSans-48"/>
      </g>
     </g>
    </g>
    <g id="xtick_6">
     <g id="line2d_6">
      <g>
       <use style="stroke:#000000;stroke-width:0.8;" x="405.112876" xlink:href="#ma379169ca6" y="307.584"/>
      </g>
     </g>
     <g id="text_6">
      <!-- 50 -->
      <defs>
       <path d="M 10.796875 72.90625 
L 49.515625 72.90625 
L 49.515625 64.59375 
L 19.828125 64.59375 
L 19.828125 46.734375 
Q 21.96875 47.46875 24.109375 47.828125 
Q 26.265625 48.1875 28.421875 48.1875 
Q 40.625 48.1875 47.75 41.5 
Q 54.890625 34.8125 54.890625 23.390625 
Q 54.890625 11.625 47.5625 5.09375 
Q 40.234375 -1.421875 26.90625 -1.421875 
Q 22.3125 -1.421875 17.546875 -0.640625 
Q 12.796875 0.140625 7.71875 1.703125 
L 7.71875 11.625 
Q 12.109375 9.234375 16.796875 8.0625 
Q 21.484375 6.890625 26.703125 6.890625 
Q 35.15625 6.890625 40.078125 11.328125 
Q 45.015625 15.765625 45.015625 23.390625 
Q 45.015625 31 40.078125 35.4375 
Q 35.15625 39.890625 26.703125 39.890625 
Q 22.75 39.890625 18.8125 39.015625 
Q 14.890625 38.140625 10.796875 36.28125 
z
" id="DejaVuSans-53"/>
      </defs>
      <g transform="translate(398.750376 322.182437)scale(0.1 -0.1)">
       <use xlink:href="#DejaVuSans-53"/>
       <use x="63.623047" xlink:href="#DejaVuSans-48"/>
      </g>
     </g>
    </g>
    <g id="text_7">
     <!-- Generations -->
     <defs>
      <path d="M 59.515625 10.40625 
L 59.515625 29.984375 
L 43.40625 29.984375 
L 43.40625 38.09375 
L 69.28125 38.09375 
L 69.28125 6.78125 
Q 63.578125 2.734375 56.6875 0.65625 
Q 49.8125 -1.421875 42 -1.421875 
Q 24.90625 -1.421875 15.25 8.5625 
Q 5.609375 18.5625 5.609375 36.375 
Q 5.609375 54.25 15.25 64.234375 
Q 24.90625 74.21875 42 74.21875 
Q 49.125 74.21875 55.546875 72.453125 
Q 61.96875 70.703125 67.390625 67.28125 
L 67.390625 56.78125 
Q 61.921875 61.421875 55.765625 63.765625 
Q 49.609375 66.109375 42.828125 66.109375 
Q 29.4375 66.109375 22.71875 58.640625 
Q 16.015625 51.171875 16.015625 36.375 
Q 16.015625 21.625 22.71875 14.15625 
Q 29.4375 6.6875 42.828125 6.6875 
Q 48.046875 6.6875 52.140625 7.59375 
Q 56.25 8.5 59.515625 10.40625 
z
" id="DejaVuSans-71"/>
      <path d="M 56.203125 29.59375 
L 56.203125 25.203125 
L 14.890625 25.203125 
Q 15.484375 15.921875 20.484375 11.0625 
Q 25.484375 6.203125 34.421875 6.203125 
Q 39.59375 6.203125 44.453125 7.46875 
Q 49.3125 8.734375 54.109375 11.28125 
L 54.109375 2.78125 
Q 49.265625 0.734375 44.1875 -0.34375 
Q 39.109375 -1.421875 33.890625 -1.421875 
Q 20.796875 -1.421875 13.15625 6.1875 
Q 5.515625 13.8125 5.515625 26.8125 
Q 5.515625 40.234375 12.765625 48.109375 
Q 20.015625 56 32.328125 56 
Q 43.359375 56 49.78125 48.890625 
Q 56.203125 41.796875 56.203125 29.59375 
z
M 47.21875 32.234375 
Q 47.125 39.59375 43.09375 43.984375 
Q 39.0625 48.390625 32.421875 48.390625 
Q 24.90625 48.390625 20.390625 44.140625 
Q 15.875 39.890625 15.1875 32.171875 
z
" id="DejaVuSans-101"/>
      <path d="M 54.890625 33.015625 
L 54.890625 0 
L 45.90625 0 
L 45.90625 32.71875 
Q 45.90625 40.484375 42.875 44.328125 
Q 39.84375 48.1875 33.796875 48.1875 
Q 26.515625 48.1875 22.3125 43.546875 
Q 18.109375 38.921875 18.109375 30.90625 
L 18.109375 0 
L 9.078125 0 
L 9.078125 54.6875 
L 18.109375 54.6875 
L 18.109375 46.1875 
Q 21.34375 51.125 25.703125 53.5625 
Q 30.078125 56 35.796875 56 
Q 45.21875 56 50.046875 50.171875 
Q 54.890625 44.34375 54.890625 33.015625 
z
" id="DejaVuSans-110"/>
      <path d="M 41.109375 46.296875 
Q 39.59375 47.171875 37.8125 47.578125 
Q 36.03125 48 33.890625 48 
Q 26.265625 48 22.1875 43.046875 
Q 18.109375 38.09375 18.109375 28.8125 
L 18.109375 0 
L 9.078125 0 
L 9.078125 54.6875 
L 18.109375 54.6875 
L 18.109375 46.1875 
Q 20.953125 51.171875 25.484375 53.578125 
Q 30.03125 56 36.53125 56 
Q 37.453125 56 38.578125 55.875 
Q 39.703125 55.765625 41.0625 55.515625 
z
" id="DejaVuSans-114"/>
      <path d="M 34.28125 27.484375 
Q 23.390625 27.484375 19.1875 25 
Q 14.984375 22.515625 14.984375 16.5 
Q 14.984375 11.71875 18.140625 8.90625 
Q 21.296875 6.109375 26.703125 6.109375 
Q 34.1875 6.109375 38.703125 11.40625 
Q 43.21875 16.703125 43.21875 25.484375 
L 43.21875 27.484375 
z
M 52.203125 31.203125 
L 52.203125 0 
L 43.21875 0 
L 43.21875 8.296875 
Q 40.140625 3.328125 35.546875 0.953125 
Q 30.953125 -1.421875 24.3125 -1.421875 
Q 15.921875 -1.421875 10.953125 3.296875 
Q 6 8.015625 6 15.921875 
Q 6 25.140625 12.171875 29.828125 
Q 18.359375 34.515625 30.609375 34.515625 
L 43.21875 34.515625 
L 43.21875 35.40625 
Q 43.21875 41.609375 39.140625 45 
Q 35.0625 48.390625 27.6875 48.390625 
Q 23 48.390625 18.546875 47.265625 
Q 14.109375 46.140625 10.015625 43.890625 
L 10.015625 52.203125 
Q 14.9375 54.109375 19.578125 55.046875 
Q 24.21875 56 28.609375 56 
Q 40.484375 56 46.34375 49.84375 
Q 52.203125 43.703125 52.203125 31.203125 
z
" id="DejaVuSans-97"/>
      <path d="M 18.3125 70.21875 
L 18.3125 54.6875 
L 36.8125 54.6875 
L 36.8125 47.703125 
L 18.3125 47.703125 
L 18.3125 18.015625 
Q 18.3125 11.328125 20.140625 9.421875 
Q 21.96875 7.515625 27.59375 7.515625 
L 36.8125 7.515625 
L 36.8125 0 
L 27.59375 0 
Q 17.1875 0 13.234375 3.875 
Q 9.28125 7.765625 9.28125 18.015625 
L 9.28125 47.703125 
L 2.6875 47.703125 
L 2.6875 54.6875 
L 9.28125 54.6875 
L 9.28125 70.21875 
z
" id="DejaVuSans-116"/>
      <path d="M 9.421875 54.6875 
L 18.40625 54.6875 
L 18.40625 0 
L 9.421875 0 
z
M 9.421875 75.984375 
L 18.40625 75.984375 
L 18.40625 64.59375 
L 9.421875 64.59375 
z
" id="DejaVuSans-105"/>
      <path d="M 30.609375 48.390625 
Q 23.390625 48.390625 19.1875 42.75 
Q 14.984375 37.109375 14.984375 27.296875 
Q 14.984375 17.484375 19.15625 11.84375 
Q 23.34375 6.203125 30.609375 6.203125 
Q 37.796875 6.203125 41.984375 11.859375 
Q 46.1875 17.53125 46.1875 27.296875 
Q 46.1875 37.015625 41.984375 42.703125 
Q 37.796875 48.390625 30.609375 48.390625 
z
M 30.609375 56 
Q 42.328125 56 49.015625 48.375 
Q 55.71875 40.765625 55.71875 27.296875 
Q 55.71875 13.875 49.015625 6.21875 
Q 42.328125 -1.421875 30.609375 -1.421875 
Q 18.84375 -1.421875 12.171875 6.21875 
Q 5.515625 13.875 5.515625 27.296875 
Q 5.515625 40.765625 12.171875 48.375 
Q 18.84375 56 30.609375 56 
z
" id="DejaVuSans-111"/>
      <path d="M 44.28125 53.078125 
L 44.28125 44.578125 
Q 40.484375 46.53125 36.375 47.5 
Q 32.28125 48.484375 27.875 48.484375 
Q 21.1875 48.484375 17.84375 46.4375 
Q 14.5 44.390625 14.5 40.28125 
Q 14.5 37.15625 16.890625 35.375 
Q 19.28125 33.59375 26.515625 31.984375 
L 29.59375 31.296875 
Q 39.15625 29.25 43.1875 25.515625 
Q 47.21875 21.78125 47.21875 15.09375 
Q 47.21875 7.46875 41.1875 3.015625 
Q 35.15625 -1.421875 24.609375 -1.421875 
Q 20.21875 -1.421875 15.453125 -0.5625 
Q 10.6875 0.296875 5.421875 2 
L 5.421875 11.28125 
Q 10.40625 8.6875 15.234375 7.390625 
Q 20.0625 6.109375 24.8125 6.109375 
Q 31.15625 6.109375 34.5625 8.28125 
Q 37.984375 10.453125 37.984375 14.40625 
Q 37.984375 18.0625 35.515625 20.015625 
Q 33.0625 21.96875 24.703125 23.78125 
L 21.578125 24.515625 
Q 13.234375 26.265625 9.515625 29.90625 
Q 5.8125 33.546875 5.8125 39.890625 
Q 5.8125 47.609375 11.28125 51.796875 
Q 16.75 56 26.8125 56 
Q 31.78125 56 36.171875 55.265625 
Q 40.578125 54.546875 44.28125 53.078125 
z
" id="DejaVuSans-115"/>
     </defs>
     <g transform="translate(205.662344 335.860562)scale(0.1 -0.1)">
      <use xlink:href="#DejaVuSans-71"/>
      <use x="77.490234" xlink:href="#DejaVuSans-101"/>
      <use x="139.013672" xlink:href="#DejaVuSans-110"/>
      <use x="202.392578" xlink:href="#DejaVuSans-101"/>
      <use x="263.916016" xlink:href="#DejaVuSans-114"/>
      <use x="305.029297" xlink:href="#DejaVuSans-97"/>
      <use x="366.308594" xlink:href="#DejaVuSans-116"/>
      <use x="405.517578" xlink:href="#DejaVuSans-105"/>
      <use x="433.300781" xlink:href="#DejaVuSans-111"/>
      <use x="494.482422" xlink:href="#DejaVuSans-110"/>
      <use x="557.861328" xlink:href="#DejaVuSans-115"/>
     </g>
    </g>
   </g>
   <g id="matplotlib.axis_2">
    <g id="ytick_1">
     <g id="line2d_7">
      <defs>
       <path d="M 0 0 
L -3.5 0 
" id="mf13ca33f8c" style="stroke:#000000;stroke-width:0.8;"/>
      </defs>
      <g>
       <use style="stroke:#000000;stroke-width:0.8;" x="57.6" xlink:href="#mf13ca33f8c" y="307.584"/>
      </g>
     </g>
     <g id="text_8">
      <!-- 0 -->
      <g transform="translate(44.2375 311.383219)scale(0.1 -0.1)">
       <use xlink:href="#DejaVuSans-48"/>
      </g>
     </g>
    </g>
    <g id="ytick_2">
     <g id="line2d_8">
      <g>
       <use style="stroke:#000000;stroke-width:0.8;" x="57.6" xlink:href="#mf13ca33f8c" y="257.694236"/>
      </g>
     </g>
     <g id="text_9">
      <!-- 50 -->
      <g transform="translate(37.875 261.493455)scale(0.1 -0.1)">
       <use xlink:href="#DejaVuSans-53"/>
       <use x="63.623047" xlink:href="#DejaVuSans-48"/>
      </g>
     </g>
    </g>
    <g id="ytick_3">
     <g id="line2d_9">
      <g>
       <use style="stroke:#000000;stroke-width:0.8;" x="57.6" xlink:href="#mf13ca33f8c" y="207.804472"/>
      </g>
     </g>
     <g id="text_10">
      <!-- 100 -->
      <g transform="translate(31.5125 211.603691)scale(0.1 -0.1)">
       <use xlink:href="#DejaVuSans-49"/>
       <use x="63.623047" xlink:href="#DejaVuSans-48"/>
       <use x="127.246094" xlink:href="#DejaVuSans-48"/>
      </g>
     </g>
    </g>
    <g id="ytick_4">
     <g id="line2d_10">
      <g>
       <use style="stroke:#000000;stroke-width:0.8;" x="57.6" xlink:href="#mf13ca33f8c" y="157.914709"/>
      </g>
     </g>
     <g id="text_11">
      <!-- 150 -->
      <g transform="translate(31.5125 161.713927)scale(0.1 -0.1)">
       <use xlink:href="#DejaVuSans-49"/>
       <use x="63.623047" xlink:href="#DejaVuSans-53"/>
       <use x="127.246094" xlink:href="#DejaVuSans-48"/>
      </g>
     </g>
    </g>
    <g id="ytick_5">
     <g id="line2d_11">
      <g>
       <use style="stroke:#000000;stroke-width:0.8;" x="57.6" xlink:href="#mf13ca33f8c" y="108.024945"/>
      </g>
     </g>
     <g id="text_12">
      <!-- 200 -->
      <g transform="translate(31.5125 111.824164)scale(0.1 -0.1)">
       <use xlink:href="#DejaVuSans-50"/>
       <use x="63.623047" xlink:href="#DejaVuSans-48"/>
       <use x="127.246094" xlink:href="#DejaVuSans-48"/>
      </g>
     </g>
    </g>
    <g id="ytick_6">
     <g id="line2d_12">
      <g>
       <use style="stroke:#000000;stroke-width:0.8;" x="57.6" xlink:href="#mf13ca33f8c" y="58.135181"/>
      </g>
     </g>
     <g id="text_13">
      <!-- 250 -->
      <g transform="translate(31.5125 61.9344)scale(0.1 -0.1)">
       <use xlink:href="#DejaVuSans-50"/>
       <use x="63.623047" xlink:href="#DejaVuSans-53"/>
       <use x="127.246094" xlink:href="#DejaVuSans-48"/>
      </g>
     </g>
    </g>
    <g id="text_14">
     <!-- Size per Species -->
     <defs>
      <path d="M 53.515625 70.515625 
L 53.515625 60.890625 
Q 47.90625 63.578125 42.921875 64.890625 
Q 37.9375 66.21875 33.296875 66.21875 
Q 25.25 66.21875 20.875 63.09375 
Q 16.5 59.96875 16.5 54.203125 
Q 16.5 49.359375 19.40625 46.890625 
Q 22.3125 44.4375 30.421875 42.921875 
L 36.375 41.703125 
Q 47.40625 39.59375 52.65625 34.296875 
Q 57.90625 29 57.90625 20.125 
Q 57.90625 9.515625 50.796875 4.046875 
Q 43.703125 -1.421875 29.984375 -1.421875 
Q 24.8125 -1.421875 18.96875 -0.25 
Q 13.140625 0.921875 6.890625 3.21875 
L 6.890625 13.375 
Q 12.890625 10.015625 18.65625 8.296875 
Q 24.421875 6.59375 29.984375 6.59375 
Q 38.421875 6.59375 43.015625 9.90625 
Q 47.609375 13.234375 47.609375 19.390625 
Q 47.609375 24.75 44.3125 27.78125 
Q 41.015625 30.8125 33.5 32.328125 
L 27.484375 33.5 
Q 16.453125 35.6875 11.515625 40.375 
Q 6.59375 45.0625 6.59375 53.421875 
Q 6.59375 63.09375 13.40625 68.65625 
Q 20.21875 74.21875 32.171875 74.21875 
Q 37.3125 74.21875 42.625 73.28125 
Q 47.953125 72.359375 53.515625 70.515625 
z
" id="DejaVuSans-83"/>
      <path d="M 5.515625 54.6875 
L 48.1875 54.6875 
L 48.1875 46.484375 
L 14.40625 7.171875 
L 48.1875 7.171875 
L 48.1875 0 
L 4.296875 0 
L 4.296875 8.203125 
L 38.09375 47.515625 
L 5.515625 47.515625 
z
" id="DejaVuSans-122"/>
      <path id="DejaVuSans-32"/>
      <path d="M 18.109375 8.203125 
L 18.109375 -20.796875 
L 9.078125 -20.796875 
L 9.078125 54.6875 
L 18.109375 54.6875 
L 18.109375 46.390625 
Q 20.953125 51.265625 25.265625 53.625 
Q 29.59375 56 35.59375 56 
Q 45.5625 56 51.78125 48.09375 
Q 58.015625 40.1875 58.015625 27.296875 
Q 58.015625 14.40625 51.78125 6.484375 
Q 45.5625 -1.421875 35.59375 -1.421875 
Q 29.59375 -1.421875 25.265625 0.953125 
Q 20.953125 3.328125 18.109375 8.203125 
z
M 48.6875 27.296875 
Q 48.6875 37.203125 44.609375 42.84375 
Q 40.53125 48.484375 33.40625 48.484375 
Q 26.265625 48.484375 22.1875 42.84375 
Q 18.109375 37.203125 18.109375 27.296875 
Q 18.109375 17.390625 22.1875 11.75 
Q 26.265625 6.109375 33.40625 6.109375 
Q 40.53125 6.109375 44.609375 11.75 
Q 48.6875 17.390625 48.6875 27.296875 
z
" id="DejaVuSans-112"/>
      <path d="M 48.78125 52.59375 
L 48.78125 44.1875 
Q 44.96875 46.296875 41.140625 47.34375 
Q 37.3125 48.390625 33.40625 48.390625 
Q 24.65625 48.390625 19.8125 42.84375 
Q 14.984375 37.3125 14.984375 27.296875 
Q 14.984375 17.28125 19.8125 11.734375 
Q 24.65625 6.203125 33.40625 6.203125 
Q 37.3125 6.203125 41.140625 7.25 
Q 44.96875 8.296875 48.78125 10.40625 
L 48.78125 2.09375 
Q 45.015625 0.34375 40.984375 -0.53125 
Q 36.96875 -1.421875 32.421875 -1.421875 
Q 20.0625 -1.421875 12.78125 6.34375 
Q 5.515625 14.109375 5.515625 27.296875 
Q 5.515625 40.671875 12.859375 48.328125 
Q 20.21875 56 33.015625 56 
Q 37.15625 56 41.109375 55.140625 
Q 45.0625 54.296875 48.78125 52.59375 
z
" id="DejaVuSans-99"/>
     </defs>
     <g transform="translate(25.432812 215.520969)rotate(-90)scale(0.1 -0.1)">
      <use xlink:href="#DejaVuSans-83"/>
      <use x="63.476562" xlink:href="#DejaVuSans-105"/>
      <use x="91.259766" xlink:href="#DejaVuSans-122"/>
      <use x="143.75" xlink:href="#DejaVuSans-101"/>
      <use x="205.273438" xlink:href="#DejaVuSans-32"/>
      <use x="237.060547" xlink:href="#DejaVuSans-112"/>
      <use x="300.537109" xlink:href="#DejaVuSans-101"/>
      <use x="362.060547" xlink:href="#DejaVuSans-114"/>
      <use x="403.173828" xlink:href="#DejaVuSans-32"/>
      <use x="434.960938" xlink:href="#DejaVuSans-83"/>
      <use x="498.4375" xlink:href="#DejaVuSans-112"/>
      <use x="561.914062" xlink:href="#DejaVuSans-101"/>
      <use x="623.4375" xlink:href="#DejaVuSans-99"/>
      <use x="678.417969" xlink:href="#DejaVuSans-105"/>
      <use x="706.201172" xlink:href="#DejaVuSans-101"/>
      <use x="767.724609" xlink:href="#DejaVuSans-115"/>
     </g>
    </g>
   </g>
   <g id="patch_3">
    <path d="M 57.6 307.584 
L 57.6 41.472 
" style="fill:none;stroke:#000000;stroke-linecap:square;stroke-linejoin:miter;stroke-width:0.8;"/>
   </g>
   <g id="patch_4">
    <path d="M 414.72 307.584 
L 414.72 41.472 
" style="fill:none;stroke:#000000;stroke-linecap:square;stroke-linejoin:miter;stroke-width:0.8;"/>
   </g>
   <g id="patch_5">
    <path d="M 57.6 307.584 
L 414.72 307.584 
" style="fill:none;stroke:#000000;stroke-linecap:square;stroke-linejoin:miter;stroke-width:0.8;"/>
   </g>
   <g id="patch_6">
    <path d="M 57.6 41.472 
L 414.72 41.472 
" style="fill:none;stroke:#000000;stroke-linecap:square;stroke-linejoin:miter;stroke-width:0.8;"/>
   </g>
   <g id="text_15">
    <!-- Speciation -->
    <g transform="translate(204.714375 35.472)scale(0.12 -0.12)">
     <use xlink:href="#DejaVuSans-83"/>
     <use x="63.476562" xlink:href="#DejaVuSans-112"/>
     <use x="126.953125" xlink:href="#DejaVuSans-101"/>
     <use x="188.476562" xlink:href="#DejaVuSans-99"/>
     <use x="243.457031" xlink:href="#DejaVuSans-105"/>
     <use x="271.240234" xlink:href="#DejaVuSans-97"/>
     <use x="332.519531" xlink:href="#DejaVuSans-116"/>
     <use x="371.728516" xlink:href="#DejaVuSans-105"/>
     <use x="399.511719" xlink:href="#DejaVuSans-111"/>
     <use x="460.693359" xlink:href="#DejaVuSans-110"/>
    </g>
   </g>
  </g>
 </g>
 <defs>
  <clipPath id="pfaf34ebd9b">
   <rect height="266.112" width="357.12" x="57.6" y="41.472"/>
  </clipPath>
 </defs>
</svg>
