<?xml version="1.0" encoding="utf-8" standalone="no"?>
<!DOCTYPE svg PUBLIC "-//W3C//DTD SVG 1.1//EN"
  "http://www.w3.org/Graphics/SVG/1.1/DTD/svg11.dtd">
<!-- Created with matplotlib (https://matplotlib.org/) -->
<svg height="345.6pt" version="1.1" viewBox="0 0 460.8 345.6" width="460.8pt" xmlns="http://www.w3.org/2000/svg" xmlns:xlink="http://www.w3.org/1999/xlink">
 <defs>
  <style type="text/css">
*{stroke-linecap:butt;stroke-linejoin:round;}
  </style>
 </defs>
 <g id="figure_1">
  <g id="patch_1">
   <path d="M 0 345.6 
L 460.8 345.6 
L 460.8 0 
L 0 0 
z
" style="fill:#ffffff;"/>
  </g>
  <g id="axes_1">
   <g id="patch_2">
    <path d="M 57.6 307.584 
L 414.72 307.584 
L 414.72 41.472 
L 57.6 41.472 
z
" style="fill:#ffffff;"/>
   </g>
   <g id="PolyCollection_1">
    <path clip-path="url(#pa187c4d04f)" d="M 73.832727 277.650142 
L 73.832727 307.584 
L 83.108571 307.584 
L 92.384416 307.584 
L 101.66026 307.584 
L 110.936104 307.584 
L 120.211948 307.584 
L 129.487792 307.584 
L 138.763636 307.584 
L 148.039481 307.584 
L 157.315325 307.584 
L 166.591169 307.584 
L 175.867013 307.584 
L 185.142857 307.584 
L 194.418701 307.584 
L 203.694545 307.584 
L 212.97039 307.584 
L 222.246234 307.584 
L 231.522078 307.584 
L 240.797922 307.584 
L 250.073766 307.584 
L 259.34961 307.584 
L 268.625455 307.584 
L 277.901299 307.584 
L 287.177143 307.584 
L 296.452987 307.584 
L 305.728831 307.584 
L 315.004675 307.584 
L 324.280519 307.584 
L 333.556364 307.584 
L 342.832208 307.584 
L 352.108052 307.584 
L 361.383896 307.584 
L 370.65974 307.584 
L 379.935584 307.584 
L 389.211429 307.584 
L 398.487273 307.584 
L 398.487273 307.584 
L 398.487273 307.584 
L 389.211429 307.584 
L 379.935584 307.584 
L 370.65974 307.584 
L 361.383896 307.584 
L 352.108052 307.584 
L 342.832208 307.584 
L 333.556364 307.584 
L 324.280519 307.584 
L 315.004675 307.584 
L 305.728831 307.584 
L 296.452987 304.590614 
L 287.177143 291.619276 
L 277.901299 291.619276 
L 268.625455 295.610457 
L 259.34961 288.62589 
L 250.073766 288.62589 
L 240.797922 289.623685 
L 231.522078 287.628094 
L 222.246234 294.612661 
L 212.97039 287.628094 
L 203.694545 291.619276 
L 194.418701 303.592819 
L 185.142857 304.590614 
L 175.867013 304.590614 
L 166.591169 276.652346 
L 157.315325 301.597228 
L 148.039481 299.601638 
L 138.763636 297.606047 
L 129.487792 301.597228 
L 120.211948 295.610457 
L 110.936104 276.652346 
L 101.66026 291.619276 
L 92.384416 260.687622 
L 83.108571 285.632504 
L 73.832727 277.650142 
z
" style="fill:#1f77b4;"/>
   </g>
   <g id="PolyCollection_2">
    <path clip-path="url(#pa187c4d04f)" d="M 73.832727 233.74715 
L 73.832727 277.650142 
L 83.108571 285.632504 
L 92.384416 260.687622 
L 101.66026 291.619276 
L 110.936104 276.652346 
L 120.211948 295.610457 
L 129.487792 301.597228 
L 138.763636 297.606047 
L 148.039481 299.601638 
L 157.315325 301.597228 
L 166.591169 276.652346 
L 175.867013 304.590614 
L 185.142857 304.590614 
L 194.418701 303.592819 
L 203.694545 291.619276 
L 212.97039 287.628094 
L 222.246234 294.612661 
L 231.522078 287.628094 
L 240.797922 289.623685 
L 250.073766 288.62589 
L 259.34961 288.62589 
L 268.625455 295.610457 
L 277.901299 291.619276 
L 287.177143 291.619276 
L 296.452987 304.590614 
L 305.728831 307.584 
L 315.004675 307.584 
L 324.280519 307.584 
L 333.556364 307.584 
L 342.832208 307.584 
L 352.108052 307.584 
L 361.383896 307.584 
L 370.65974 307.584 
L 379.935584 307.584 
L 389.211429 307.584 
L 398.487273 307.584 
L 398.487273 260.687622 
L 398.487273 260.687622 
L 389.211429 287.628094 
L 379.935584 289.623685 
L 370.65974 295.610457 
L 361.383896 279.645732 
L 352.108052 297.606047 
L 342.832208 299.601638 
L 333.556364 297.606047 
L 324.280519 301.597228 
L 315.004675 295.610457 
L 305.728831 297.606047 
L 296.452987 297.606047 
L 287.177143 279.645732 
L 277.901299 278.647937 
L 268.625455 269.66778 
L 259.34961 274.656756 
L 250.073766 278.647937 
L 240.797922 273.658961 
L 231.522078 274.656756 
L 222.246234 277.650142 
L 212.97039 276.652346 
L 203.694545 281.641323 
L 194.418701 295.610457 
L 185.142857 294.612661 
L 175.867013 294.612661 
L 166.591169 272.661165 
L 157.315325 294.612661 
L 148.039481 287.628094 
L 138.763636 290.62148 
L 129.487792 289.623685 
L 120.211948 283.636913 
L 110.936104 269.66778 
L 101.66026 288.62589 
L 92.384416 258.692031 
L 83.108571 279.645732 
L 73.832727 233.74715 
z
" style="fill:#ff7f0e;"/>
   </g>
   <g id="PolyCollection_3">
    <path clip-path="url(#pa187c4d04f)" d="M 73.832727 225.764787 
L 73.832727 233.74715 
L 83.108571 279.645732 
L 92.384416 258.692031 
L 101.66026 288.62589 
L 110.936104 269.66778 
L 120.211948 283.636913 
L 129.487792 289.623685 
L 138.763636 290.62148 
L 148.039481 287.628094 
L 157.315325 294.612661 
L 166.591169 272.661165 
L 175.867013 294.612661 
L 185.142857 294.612661 
L 194.418701 295.610457 
L 203.694545 281.641323 
L 212.97039 276.652346 
L 222.246234 277.650142 
L 231.522078 274.656756 
L 240.797922 273.658961 
L 250.073766 278.647937 
L 259.34961 274.656756 
L 268.625455 269.66778 
L 277.901299 278.647937 
L 287.177143 279.645732 
L 296.452987 297.606047 
L 305.728831 297.606047 
L 315.004675 295.610457 
L 324.280519 301.597228 
L 333.556364 297.606047 
L 342.832208 299.601638 
L 352.108052 297.606047 
L 361.383896 279.645732 
L 370.65974 295.610457 
L 379.935584 289.623685 
L 389.211429 287.628094 
L 398.487273 260.687622 
L 398.487273 260.687622 
L 398.487273 260.687622 
L 389.211429 277.650142 
L 379.935584 277.650142 
L 370.65974 283.636913 
L 361.383896 261.685417 
L 352.108052 282.639118 
L 342.832208 286.630299 
L 333.556364 291.619276 
L 324.280519 296.608252 
L 315.004675 281.641323 
L 305.728831 282.639118 
L 296.452987 284.634709 
L 287.177143 269.66778 
L 277.901299 274.656756 
L 268.625455 264.678803 
L 259.34961 259.689827 
L 250.073766 262.683213 
L 240.797922 257.694236 
L 231.522078 241.729512 
L 222.246234 242.727307 
L 212.97039 231.751559 
L 203.694545 226.762583 
L 194.418701 220.775811 
L 185.142857 275.654551 
L 175.867013 289.623685 
L 166.591169 264.678803 
L 157.315325 285.632504 
L 148.039481 280.643528 
L 138.763636 281.641323 
L 129.487792 287.628094 
L 120.211948 277.650142 
L 110.936104 265.676598 
L 101.66026 280.643528 
L 92.384416 254.70085 
L 83.108571 266.674394 
L 73.832727 225.764787 
z
" style="fill:#2ca02c;"/>
   </g>
   <g id="PolyCollection_4">
    <path clip-path="url(#pa187c4d04f)" d="M 73.832727 224.766992 
L 73.832727 225.764787 
L 83.108571 266.674394 
L 92.384416 254.70085 
L 101.66026 280.643528 
L 110.936104 265.676598 
L 120.211948 277.650142 
L 129.487792 287.628094 
L 138.763636 281.641323 
L 148.039481 280.643528 
L 157.315325 285.632504 
L 166.591169 264.678803 
L 175.867013 289.623685 
L 185.142857 275.654551 
L 194.418701 220.775811 
L 203.694545 226.762583 
L 212.97039 231.751559 
L 222.246234 242.727307 
L 231.522078 241.729512 
L 240.797922 257.694236 
L 250.073766 262.683213 
L 259.34961 259.689827 
L 268.625455 264.678803 
L 277.901299 274.656756 
L 287.177143 269.66778 
L 296.452987 284.634709 
L 305.728831 282.639118 
L 315.004675 281.641323 
L 324.280519 296.608252 
L 333.556364 291.619276 
L 342.832208 286.630299 
L 352.108052 282.639118 
L 361.383896 261.685417 
L 370.65974 283.636913 
L 379.935584 277.650142 
L 389.211429 277.650142 
L 398.487273 260.687622 
L 398.487273 246.718488 
L 398.487273 246.718488 
L 389.211429 269.66778 
L 379.935584 265.676598 
L 370.65974 262.683213 
L 361.383896 244.722898 
L 352.108052 263.681008 
L 342.832208 272.661165 
L 333.556364 270.665575 
L 324.280519 273.658961 
L 315.004675 268.669984 
L 305.728831 262.683213 
L 296.452987 279.645732 
L 287.177143 264.678803 
L 277.901299 267.672189 
L 268.625455 248.714079 
L 259.34961 249.711874 
L 250.073766 248.714079 
L 240.797922 249.711874 
L 231.522078 233.74715 
L 222.246234 235.74274 
L 212.97039 219.778016 
L 203.694545 214.789039 
L 194.418701 208.802268 
L 185.142857 268.669984 
L 175.867013 276.652346 
L 166.591169 254.70085 
L 157.315325 274.656756 
L 148.039481 269.66778 
L 138.763636 272.661165 
L 129.487792 272.661165 
L 120.211948 264.678803 
L 110.936104 249.711874 
L 101.66026 266.674394 
L 92.384416 232.749354 
L 83.108571 237.738331 
L 73.832727 224.766992 
z
" style="fill:#d62728;"/>
   </g>
   <g id="PolyCollection_5">
    <path clip-path="url(#pa187c4d04f)" d="M 73.832727 210.797858 
L 73.832727 224.766992 
L 83.108571 237.738331 
L 92.384416 232.749354 
L 101.66026 266.674394 
L 110.936104 249.711874 
L 120.211948 264.678803 
L 129.487792 272.661165 
L 138.763636 272.661165 
L 148.039481 269.66778 
L 157.315325 274.656756 
L 166.591169 254.70085 
L 175.867013 276.652346 
L 185.142857 268.669984 
L 194.418701 208.802268 
L 203.694545 214.789039 
L 212.97039 219.778016 
L 222.246234 235.74274 
L 231.522078 233.74715 
L 240.797922 249.711874 
L 250.073766 248.714079 
L 259.34961 249.711874 
L 268.625455 248.714079 
L 277.901299 267.672189 
L 287.177143 264.678803 
L 296.452987 279.645732 
L 305.728831 262.683213 
L 315.004675 268.669984 
L 324.280519 273.658961 
L 333.556364 270.665575 
L 342.832208 272.661165 
L 352.108052 263.681008 
L 361.383896 244.722898 
L 370.65974 262.683213 
L 379.935584 265.676598 
L 389.211429 269.66778 
L 398.487273 246.718488 
L 398.487273 231.751559 
L 398.487273 231.751559 
L 389.211429 255.698646 
L 379.935584 251.707465 
L 370.65974 247.716283 
L 361.383896 233.74715 
L 352.108052 250.709669 
L 342.832208 260.687622 
L 333.556364 256.696441 
L 324.280519 262.683213 
L 315.004675 258.692031 
L 305.728831 252.70526 
L 296.452987 264.678803 
L 287.177143 256.696441 
L 277.901299 254.70085 
L 268.625455 234.744945 
L 259.34961 236.740535 
L 250.073766 235.74274 
L 240.797922 237.738331 
L 231.522078 218.78022 
L 222.246234 223.769197 
L 212.97039 209.800063 
L 203.694545 204.811087 
L 194.418701 194.833134 
L 185.142857 255.698646 
L 175.867013 262.683213 
L 166.591169 245.720693 
L 157.315325 262.683213 
L 148.039481 259.689827 
L 138.763636 261.685417 
L 129.487792 261.685417 
L 120.211948 250.709669 
L 110.936104 237.738331 
L 101.66026 255.698646 
L 92.384416 223.769197 
L 83.108571 236.740535 
L 73.832727 210.797858 
z
" style="fill:#9467bd;"/>
   </g>
   <g id="PolyCollection_6">
    <path clip-path="url(#pa187c4d04f)" d="M 73.832727 187.848567 
L 73.832727 210.797858 
L 83.108571 236.740535 
L 92.384416 223.769197 
L 101.66026 255.698646 
L 110.936104 237.738331 
L 120.211948 250.709669 
L 129.487792 261.685417 
L 138.763636 261.685417 
L 148.039481 259.689827 
L 157.315325 262.683213 
L 166.591169 245.720693 
L 175.867013 262.683213 
L 185.142857 255.698646 
L 194.418701 194.833134 
L 203.694545 204.811087 
L 212.97039 209.800063 
L 222.246234 223.769197 
L 231.522078 218.78022 
L 240.797922 237.738331 
L 250.073766 235.74274 
L 259.34961 236.740535 
L 268.625455 234.744945 
L 277.901299 254.70085 
L 287.177143 256.696441 
L 296.452987 264.678803 
L 305.728831 252.70526 
L 315.004675 258.692031 
L 324.280519 262.683213 
L 333.556364 256.696441 
L 342.832208 260.687622 
L 352.108052 250.709669 
L 361.383896 233.74715 
L 370.65974 247.716283 
L 379.935584 251.707465 
L 389.211429 255.698646 
L 398.487273 231.751559 
L 398.487273 221.773606 
L 398.487273 221.773606 
L 389.211429 237.738331 
L 379.935584 240.731717 
L 370.65974 234.744945 
L 361.383896 207.804472 
L 352.108052 235.74274 
L 342.832208 249.711874 
L 333.556364 246.718488 
L 324.280519 255.698646 
L 315.004675 235.74274 
L 305.728831 243.725102 
L 296.452987 246.718488 
L 287.177143 243.725102 
L 277.901299 244.722898 
L 268.625455 228.758173 
L 259.34961 227.760378 
L 250.073766 219.778016 
L 240.797922 216.78463 
L 231.522078 204.811087 
L 222.246234 207.804472 
L 212.97039 199.82211 
L 203.694545 196.828724 
L 194.418701 189.844157 
L 185.142857 236.740535 
L 175.867013 248.714079 
L 166.591169 236.740535 
L 157.315325 248.714079 
L 148.039481 250.709669 
L 138.763636 246.718488 
L 129.487792 255.698646 
L 120.211948 240.731717 
L 110.936104 233.74715 
L 101.66026 250.709669 
L 92.384416 219.778016 
L 83.108571 228.758173 
L 73.832727 187.848567 
z
" style="fill:#8c564b;"/>
   </g>
   <g id="PolyCollection_7">
    <path clip-path="url(#pa187c4d04f)" d="M 73.832727 171.883843 
L 73.832727 187.848567 
L 83.108571 228.758173 
L 92.384416 219.778016 
L 101.66026 250.709669 
L 110.936104 233.74715 
L 120.211948 240.731717 
L 129.487792 255.698646 
L 138.763636 246.718488 
L 148.039481 250.709669 
L 157.315325 248.714079 
L 166.591169 236.740535 
L 175.867013 248.714079 
L 185.142857 236.740535 
L 194.418701 189.844157 
L 203.694545 196.828724 
L 212.97039 199.82211 
L 222.246234 207.804472 
L 231.522078 204.811087 
L 240.797922 216.78463 
L 250.073766 219.778016 
L 259.34961 227.760378 
L 268.625455 228.758173 
L 277.901299 244.722898 
L 287.177143 243.725102 
L 296.452987 246.718488 
L 305.728831 243.725102 
L 315.004675 235.74274 
L 324.280519 255.698646 
L 333.556364 246.718488 
L 342.832208 249.711874 
L 352.108052 235.74274 
L 361.383896 207.804472 
L 370.65974 234.744945 
L 379.935584 240.731717 
L 389.211429 237.738331 
L 398.487273 221.773606 
L 398.487273 202.815496 
L 398.487273 202.815496 
L 389.211429 225.764787 
L 379.935584 234.744945 
L 370.65974 214.789039 
L 361.383896 185.852976 
L 352.108052 209.800063 
L 342.832208 229.755969 
L 333.556364 234.744945 
L 324.280519 237.738331 
L 315.004675 224.766992 
L 305.728831 230.753764 
L 296.452987 228.758173 
L 287.177143 217.782425 
L 277.901299 213.791244 
L 268.625455 217.782425 
L 259.34961 210.797858 
L 250.073766 213.791244 
L 240.797922 204.811087 
L 231.522078 195.830929 
L 222.246234 186.850772 
L 212.97039 181.861795 
L 203.694545 186.850772 
L 194.418701 166.894866 
L 185.142857 227.760378 
L 175.867013 233.74715 
L 166.591169 217.782425 
L 157.315325 236.740535 
L 148.039481 221.773606 
L 138.763636 211.795654 
L 129.487792 227.760378 
L 120.211948 214.789039 
L 110.936104 204.811087 
L 101.66026 229.755969 
L 92.384416 205.808882 
L 83.108571 200.819906 
L 73.832727 171.883843 
z
" style="fill:#e377c2;"/>
   </g>
   <g id="PolyCollection_8">
    <path clip-path="url(#pa187c4d04f)" d="M 73.832727 165.897071 
L 73.832727 171.883843 
L 83.108571 200.819906 
L 92.384416 205.808882 
L 101.66026 229.755969 
L 110.936104 204.811087 
L 120.211948 214.789039 
L 129.487792 227.760378 
L 138.763636 211.795654 
L 148.039481 221.773606 
L 157.315325 236.740535 
L 166.591169 217.782425 
L 175.867013 233.74715 
L 185.142857 227.760378 
L 194.418701 166.894866 
L 203.694545 186.850772 
L 212.97039 181.861795 
L 222.246234 186.850772 
L 231.522078 195.830929 
L 240.797922 204.811087 
L 250.073766 213.791244 
L 259.34961 210.797858 
L 268.625455 217.782425 
L 277.901299 213.791244 
L 287.177143 217.782425 
L 296.452987 228.758173 
L 305.728831 230.753764 
L 315.004675 224.766992 
L 324.280519 237.738331 
L 333.556364 234.744945 
L 342.832208 229.755969 
L 352.108052 209.800063 
L 361.383896 185.852976 
L 370.65974 214.789039 
L 379.935584 234.744945 
L 389.211429 225.764787 
L 398.487273 202.815496 
L 398.487273 162.903685 
L 398.487273 162.903685 
L 389.211429 197.82652 
L 379.935584 211.795654 
L 370.65974 201.817701 
L 361.383896 170.886047 
L 352.108052 192.837543 
L 342.832208 212.793449 
L 333.556364 218.78022 
L 324.280519 227.760378 
L 315.004675 208.802268 
L 305.728831 213.791244 
L 296.452987 215.786835 
L 287.177143 207.804472 
L 277.901299 201.817701 
L 268.625455 206.806677 
L 259.34961 200.819906 
L 250.073766 203.813291 
L 240.797922 193.835339 
L 231.522078 179.866205 
L 222.246234 168.890457 
L 212.97039 166.894866 
L 203.694545 173.879433 
L 194.418701 155.919118 
L 185.142857 217.782425 
L 175.867013 219.778016 
L 166.591169 205.808882 
L 157.315325 222.771402 
L 148.039481 209.800063 
L 138.763636 198.824315 
L 129.487792 210.797858 
L 120.211948 199.82211 
L 110.936104 187.848567 
L 101.66026 215.786835 
L 92.384416 195.830929 
L 83.108571 194.833134 
L 73.832727 165.897071 
z
" style="fill:#7f7f7f;"/>
   </g>
   <g id="PolyCollection_9">
    <path clip-path="url(#pa187c4d04f)" d="M 73.832727 164.899276 
L 73.832727 165.897071 
L 83.108571 194.833134 
L 92.384416 195.830929 
L 101.66026 215.786835 
L 110.936104 187.848567 
L 120.211948 199.82211 
L 129.487792 210.797858 
L 138.763636 198.824315 
L 148.039481 209.800063 
L 157.315325 222.771402 
L 166.591169 205.808882 
L 175.867013 219.778016 
L 185.142857 217.782425 
L 194.418701 155.919118 
L 203.694545 173.879433 
L 212.97039 166.894866 
L 222.246234 168.890457 
L 231.522078 179.866205 
L 240.797922 193.835339 
L 250.073766 203.813291 
L 259.34961 200.819906 
L 268.625455 206.806677 
L 277.901299 201.817701 
L 287.177143 207.804472 
L 296.452987 215.786835 
L 305.728831 213.791244 
L 315.004675 208.802268 
L 324.280519 227.760378 
L 333.556364 218.78022 
L 342.832208 212.793449 
L 352.108052 192.837543 
L 361.383896 170.886047 
L 370.65974 201.817701 
L 379.935584 211.795654 
L 389.211429 197.82652 
L 398.487273 162.903685 
L 398.487273 162.903685 
L 398.487273 162.903685 
L 389.211429 197.82652 
L 379.935584 211.795654 
L 370.65974 201.817701 
L 361.383896 170.886047 
L 352.108052 192.837543 
L 342.832208 212.793449 
L 333.556364 218.78022 
L 324.280519 227.760378 
L 315.004675 208.802268 
L 305.728831 213.791244 
L 296.452987 215.786835 
L 287.177143 207.804472 
L 277.901299 201.817701 
L 268.625455 206.806677 
L 259.34961 198.824315 
L 250.073766 200.819906 
L 240.797922 191.839748 
L 231.522078 175.875024 
L 222.246234 165.897071 
L 212.97039 164.899276 
L 203.694545 171.883843 
L 194.418701 153.923528 
L 185.142857 214.789039 
L 175.867013 217.782425 
L 166.591169 203.813291 
L 157.315325 220.775811 
L 148.039481 206.806677 
L 138.763636 196.828724 
L 129.487792 207.804472 
L 120.211948 195.830929 
L 110.936104 184.855181 
L 101.66026 211.795654 
L 92.384416 190.841953 
L 83.108571 190.841953 
L 73.832727 164.899276 
z
" style="fill:#bcbd22;"/>
   </g>
   <g id="PolyCollection_10">
    <path clip-path="url(#pa187c4d04f)" d="M 73.832727 132.969827 
L 73.832727 164.899276 
L 83.108571 190.841953 
L 92.384416 190.841953 
L 101.66026 211.795654 
L 110.936104 184.855181 
L 120.211948 195.830929 
L 129.487792 207.804472 
L 138.763636 196.828724 
L 148.039481 206.806677 
L 157.315325 220.775811 
L 166.591169 203.813291 
L 175.867013 217.782425 
L 185.142857 214.789039 
L 194.418701 153.923528 
L 203.694545 171.883843 
L 212.97039 164.899276 
L 222.246234 165.897071 
L 231.522078 175.875024 
L 240.797922 191.839748 
L 250.073766 200.819906 
L 259.34961 198.824315 
L 268.625455 206.806677 
L 277.901299 201.817701 
L 287.177143 207.804472 
L 296.452987 215.786835 
L 305.728831 213.791244 
L 315.004675 208.802268 
L 324.280519 227.760378 
L 333.556364 218.78022 
L 342.832208 212.793449 
L 352.108052 192.837543 
L 361.383896 170.886047 
L 370.65974 201.817701 
L 379.935584 211.795654 
L 389.211429 197.82652 
L 398.487273 162.903685 
L 398.487273 147.936756 
L 398.487273 147.936756 
L 389.211429 188.846362 
L 379.935584 195.830929 
L 370.65974 191.839748 
L 361.383896 147.936756 
L 352.108052 167.892661 
L 342.832208 192.837543 
L 333.556364 203.813291 
L 324.280519 222.771402 
L 315.004675 201.817701 
L 305.728831 203.813291 
L 296.452987 205.808882 
L 287.177143 186.850772 
L 277.901299 192.837543 
L 268.625455 196.828724 
L 259.34961 180.864 
L 250.073766 192.837543 
L 240.797922 189.844157 
L 231.522078 166.894866 
L 222.246234 158.912504 
L 212.97039 156.916913 
L 203.694545 167.892661 
L 194.418701 151.927937 
L 185.142857 204.811087 
L 175.867013 212.793449 
L 166.591169 192.837543 
L 157.315325 192.837543 
L 148.039481 193.835339 
L 138.763636 191.839748 
L 129.487792 177.870614 
L 120.211948 175.875024 
L 110.936104 167.892661 
L 101.66026 173.879433 
L 92.384416 154.921323 
L 83.108571 166.894866 
L 73.832727 132.969827 
z
" style="fill:#17becf;"/>
   </g>
   <g id="PolyCollection_11">
    <path clip-path="url(#pa187c4d04f)" d="M 73.832727 110.020535 
L 73.832727 132.969827 
L 83.108571 166.894866 
L 92.384416 154.921323 
L 101.66026 173.879433 
L 110.936104 167.892661 
L 120.211948 175.875024 
L 129.487792 177.870614 
L 138.763636 191.839748 
L 148.039481 193.835339 
L 157.315325 192.837543 
L 166.591169 192.837543 
L 175.867013 212.793449 
L 185.142857 204.811087 
L 194.418701 151.927937 
L 203.694545 167.892661 
L 212.97039 156.916913 
L 222.246234 158.912504 
L 231.522078 166.894866 
L 240.797922 189.844157 
L 250.073766 192.837543 
L 259.34961 180.864 
L 268.625455 196.828724 
L 277.901299 192.837543 
L 287.177143 186.850772 
L 296.452987 205.808882 
L 305.728831 203.813291 
L 315.004675 201.817701 
L 324.280519 222.771402 
L 333.556364 203.813291 
L 342.832208 192.837543 
L 352.108052 167.892661 
L 361.383896 147.936756 
L 370.65974 191.839748 
L 379.935584 195.830929 
L 389.211429 188.846362 
L 398.487273 147.936756 
L 398.487273 147.936756 
L 398.487273 147.936756 
L 389.211429 188.846362 
L 379.935584 195.830929 
L 370.65974 191.839748 
L 361.383896 147.936756 
L 352.108052 167.892661 
L 342.832208 186.850772 
L 333.556364 195.830929 
L 324.280519 215.786835 
L 315.004675 195.830929 
L 305.728831 179.866205 
L 296.452987 187.848567 
L 287.177143 166.894866 
L 277.901299 178.868409 
L 268.625455 183.857386 
L 259.34961 158.912504 
L 250.073766 181.861795 
L 240.797922 166.894866 
L 231.522078 159.910299 
L 222.246234 140.952189 
L 212.97039 141.949984 
L 203.694545 161.90589 
L 194.418701 138.956598 
L 185.142857 192.837543 
L 175.867013 190.841953 
L 166.591169 167.892661 
L 157.315325 171.883843 
L 148.039481 160.908094 
L 138.763636 157.914709 
L 129.487792 145.941165 
L 120.211948 145.941165 
L 110.936104 142.94778 
L 101.66026 152.925732 
L 92.384416 149.932346 
L 83.108571 155.919118 
L 73.832727 110.020535 
z
" style="fill:#1f77b4;"/>
   </g>
   <g id="PolyCollection_12">
    <path clip-path="url(#pa187c4d04f)" d="M 73.832727 97.049197 
L 73.832727 110.020535 
L 83.108571 155.919118 
L 92.384416 149.932346 
L 101.66026 152.925732 
L 110.936104 142.94778 
L 120.211948 145.941165 
L 129.487792 145.941165 
L 138.763636 157.914709 
L 148.039481 160.908094 
L 157.315325 171.883843 
L 166.591169 167.892661 
L 175.867013 190.841953 
L 185.142857 192.837543 
L 194.418701 138.956598 
L 203.694545 161.90589 
L 212.97039 141.949984 
L 222.246234 140.952189 
L 231.522078 159.910299 
L 240.797922 166.894866 
L 250.073766 181.861795 
L 259.34961 158.912504 
L 268.625455 183.857386 
L 277.901299 178.868409 
L 287.177143 166.894866 
L 296.452987 187.848567 
L 305.728831 179.866205 
L 315.004675 195.830929 
L 324.280519 215.786835 
L 333.556364 195.830929 
L 342.832208 186.850772 
L 352.108052 167.892661 
L 361.383896 147.936756 
L 370.65974 191.839748 
L 379.935584 195.830929 
L 389.211429 188.846362 
L 398.487273 147.936756 
L 398.487273 121.994079 
L 398.487273 121.994079 
L 389.211429 166.894866 
L 379.935584 170.886047 
L 370.65974 154.921323 
L 361.383896 134.965417 
L 352.108052 146.938961 
L 342.832208 157.914709 
L 333.556364 166.894866 
L 324.280519 188.846362 
L 315.004675 178.868409 
L 305.728831 152.925732 
L 296.452987 160.908094 
L 287.177143 152.925732 
L 277.901299 162.903685 
L 268.625455 168.890457 
L 259.34961 147.936756 
L 250.073766 166.894866 
L 240.797922 152.925732 
L 231.522078 142.94778 
L 222.246234 127.98085 
L 212.97039 137.958803 
L 203.694545 144.94337 
L 194.418701 135.963213 
L 185.142857 116.007307 
L 175.867013 153.923528 
L 166.591169 126.983055 
L 157.315325 140.952189 
L 148.039481 126.983055 
L 138.763636 124.987465 
L 129.487792 107.02715 
L 120.211948 111.018331 
L 110.936104 120.996283 
L 101.66026 132.969827 
L 92.384416 127.98085 
L 83.108571 118.002898 
L 73.832727 97.049197 
z
" style="fill:#ff7f0e;"/>
   </g>
   <g id="PolyCollection_13">
    <path clip-path="url(#pa187c4d04f)" d="M 73.832727 96.051402 
L 73.832727 97.049197 
L 83.108571 118.002898 
L 92.384416 127.98085 
L 101.66026 132.969827 
L 110.936104 120.996283 
L 120.211948 111.018331 
L 129.487792 107.02715 
L 138.763636 124.987465 
L 148.039481 126.983055 
L 157.315325 140.952189 
L 166.591169 126.983055 
L 175.867013 153.923528 
L 185.142857 116.007307 
L 194.418701 135.963213 
L 203.694545 144.94337 
L 212.97039 137.958803 
L 222.246234 127.98085 
L 231.522078 142.94778 
L 240.797922 152.925732 
L 250.073766 166.894866 
L 259.34961 147.936756 
L 268.625455 168.890457 
L 277.901299 162.903685 
L 287.177143 152.925732 
L 296.452987 160.908094 
L 305.728831 152.925732 
L 315.004675 178.868409 
L 324.280519 188.846362 
L 333.556364 166.894866 
L 342.832208 157.914709 
L 352.108052 146.938961 
L 361.383896 134.965417 
L 370.65974 154.921323 
L 379.935584 170.886047 
L 389.211429 166.894866 
L 398.487273 121.994079 
L 398.487273 121.994079 
L 398.487273 121.994079 
L 389.211429 166.894866 
L 379.935584 170.886047 
L 370.65974 154.921323 
L 361.383896 134.965417 
L 352.108052 146.938961 
L 342.832208 157.914709 
L 333.556364 166.894866 
L 324.280519 188.846362 
L 315.004675 178.868409 
L 305.728831 152.925732 
L 296.452987 160.908094 
L 287.177143 149.932346 
L 277.901299 160.908094 
L 268.625455 166.894866 
L 259.34961 145.941165 
L 250.073766 163.90148 
L 240.797922 150.930142 
L 231.522078 140.952189 
L 222.246234 125.98526 
L 212.97039 134.965417 
L 203.694545 142.94778 
L 194.418701 132.969827 
L 185.142857 114.011717 
L 175.867013 150.930142 
L 166.591169 124.987465 
L 157.315325 137.958803 
L 148.039481 124.987465 
L 138.763636 122.991874 
L 129.487792 104.033764 
L 120.211948 107.02715 
L 110.936104 117.005102 
L 101.66026 129.976441 
L 92.384416 125.98526 
L 83.108571 115.009512 
L 73.832727 96.051402 
z
" style="fill:#2ca02c;"/>
   </g>
   <g id="PolyCollection_14">
    <path clip-path="url(#pa187c4d04f)" d="M 73.832727 95.053606 
L 73.832727 96.051402 
L 83.108571 115.009512 
L 92.384416 125.98526 
L 101.66026 129.976441 
L 110.936104 117.005102 
L 120.211948 107.02715 
L 129.487792 104.033764 
L 138.763636 122.991874 
L 148.039481 124.987465 
L 157.315325 137.958803 
L 166.591169 124.987465 
L 175.867013 150.930142 
L 185.142857 114.011717 
L 194.418701 132.969827 
L 203.694545 142.94778 
L 212.97039 134.965417 
L 222.246234 125.98526 
L 231.522078 140.952189 
L 240.797922 150.930142 
L 250.073766 163.90148 
L 259.34961 145.941165 
L 268.625455 166.894866 
L 277.901299 160.908094 
L 287.177143 149.932346 
L 296.452987 160.908094 
L 305.728831 152.925732 
L 315.004675 178.868409 
L 324.280519 188.846362 
L 333.556364 166.894866 
L 342.832208 157.914709 
L 352.108052 146.938961 
L 361.383896 134.965417 
L 370.65974 154.921323 
L 379.935584 170.886047 
L 389.211429 166.894866 
L 398.487273 121.994079 
L 398.487273 121.994079 
L 398.487273 121.994079 
L 389.211429 166.894866 
L 379.935584 170.886047 
L 370.65974 154.921323 
L 361.383896 134.965417 
L 352.108052 146.938961 
L 342.832208 157.914709 
L 333.556364 166.894866 
L 324.280519 188.846362 
L 315.004675 178.868409 
L 305.728831 152.925732 
L 296.452987 160.908094 
L 287.177143 147.936756 
L 277.901299 158.912504 
L 268.625455 164.899276 
L 259.34961 143.945575 
L 250.073766 160.908094 
L 240.797922 148.934551 
L 231.522078 138.956598 
L 222.246234 122.991874 
L 212.97039 131.972031 
L 203.694545 140.952189 
L 194.418701 129.976441 
L 185.142857 112.016126 
L 175.867013 148.934551 
L 166.591169 122.991874 
L 157.315325 134.965417 
L 148.039481 122.991874 
L 138.763636 120.996283 
L 129.487792 103.035969 
L 120.211948 106.029354 
L 110.936104 114.011717 
L 101.66026 125.98526 
L 92.384416 121.994079 
L 83.108571 114.011717 
L 73.832727 95.053606 
z
" style="fill:#d62728;"/>
   </g>
   <g id="PolyCollection_15">
    <path clip-path="url(#pa187c4d04f)" d="M 73.832727 72.104315 
L 73.832727 95.053606 
L 83.108571 114.011717 
L 92.384416 121.994079 
L 101.66026 125.98526 
L 110.936104 114.011717 
L 120.211948 106.029354 
L 129.487792 103.035969 
L 138.763636 120.996283 
L 148.039481 122.991874 
L 157.315325 134.965417 
L 166.591169 122.991874 
L 175.867013 148.934551 
L 185.142857 112.016126 
L 194.418701 129.976441 
L 203.694545 140.952189 
L 212.97039 131.972031 
L 222.246234 122.991874 
L 231.522078 138.956598 
L 240.797922 148.934551 
L 250.073766 160.908094 
L 259.34961 143.945575 
L 268.625455 164.899276 
L 277.901299 158.912504 
L 287.177143 147.936756 
L 296.452987 160.908094 
L 305.728831 152.925732 
L 315.004675 178.868409 
L 324.280519 188.846362 
L 333.556364 166.894866 
L 342.832208 157.914709 
L 352.108052 146.938961 
L 361.383896 134.965417 
L 370.65974 154.921323 
L 379.935584 170.886047 
L 389.211429 166.894866 
L 398.487273 121.994079 
L 398.487273 112.016126 
L 398.487273 112.016126 
L 389.211429 115.009512 
L 379.935584 122.991874 
L 370.65974 128.978646 
L 361.383896 112.016126 
L 352.108052 122.991874 
L 342.832208 141.949984 
L 333.556364 142.94778 
L 324.280519 170.886047 
L 315.004675 150.930142 
L 305.728831 140.952189 
L 296.452987 144.94337 
L 287.177143 129.976441 
L 277.901299 135.963213 
L 268.625455 157.914709 
L 259.34961 128.978646 
L 250.073766 156.916913 
L 240.797922 135.963213 
L 231.522078 132.969827 
L 222.246234 119.000693 
L 212.97039 127.98085 
L 203.694545 126.983055 
L 194.418701 119.998488 
L 185.142857 106.029354 
L 175.867013 117.005102 
L 166.591169 117.005102 
L 157.315325 119.000693 
L 148.039481 103.035969 
L 138.763636 110.020535 
L 129.487792 95.053606 
L 120.211948 93.058016 
L 110.936104 98.046992 
L 101.66026 107.02715 
L 92.384416 114.011717 
L 83.108571 108.024945 
L 73.832727 72.104315 
z
" style="fill:#9467bd;"/>
   </g>
   <g id="PolyCollection_16">
    <path clip-path="url(#pa187c4d04f)" d="M 73.832727 71.10652 
L 73.832727 72.104315 
L 83.108571 108.024945 
L 92.384416 114.011717 
L 101.66026 107.02715 
L 110.936104 98.046992 
L 120.211948 93.058016 
L 129.487792 95.053606 
L 138.763636 110.020535 
L 148.039481 103.035969 
L 157.315325 119.000693 
L 166.591169 117.005102 
L 175.867013 117.005102 
L 185.142857 106.029354 
L 194.418701 119.998488 
L 203.694545 126.983055 
L 212.97039 127.98085 
L 222.246234 119.000693 
L 231.522078 132.969827 
L 240.797922 135.963213 
L 250.073766 156.916913 
L 259.34961 128.978646 
L 268.625455 157.914709 
L 277.901299 135.963213 
L 287.177143 129.976441 
L 296.452987 144.94337 
L 305.728831 140.952189 
L 315.004675 150.930142 
L 324.280519 170.886047 
L 333.556364 142.94778 
L 342.832208 141.949984 
L 352.108052 122.991874 
L 361.383896 112.016126 
L 370.65974 128.978646 
L 379.935584 122.991874 
L 389.211429 115.009512 
L 398.487273 112.016126 
L 398.487273 109.02274 
L 398.487273 109.02274 
L 389.211429 113.013921 
L 379.935584 120.996283 
L 370.65974 126.983055 
L 361.383896 109.02274 
L 352.108052 120.996283 
L 342.832208 139.954394 
L 333.556364 140.952189 
L 324.280519 167.892661 
L 315.004675 148.934551 
L 305.728831 137.958803 
L 296.452987 140.952189 
L 287.177143 126.983055 
L 277.901299 133.967622 
L 268.625455 155.919118 
L 259.34961 126.983055 
L 250.073766 154.921323 
L 240.797922 132.969827 
L 231.522078 130.974236 
L 222.246234 116.007307 
L 212.97039 125.98526 
L 203.694545 123.989669 
L 194.418701 118.002898 
L 185.142857 103.035969 
L 175.867013 115.009512 
L 166.591169 114.011717 
L 157.315325 117.005102 
L 148.039481 101.040378 
L 138.763636 107.02715 
L 129.487792 93.058016 
L 120.211948 90.06463 
L 110.936104 94.055811 
L 101.66026 104.033764 
L 92.384416 110.020535 
L 83.108571 103.035969 
L 73.832727 71.10652 
z
" style="fill:#8c564b;"/>
   </g>
   <g id="PolyCollection_17">
    <path clip-path="url(#pa187c4d04f)" d="M 73.832727 70.108724 
L 73.832727 71.10652 
L 83.108571 103.035969 
L 92.384416 110.020535 
L 101.66026 104.033764 
L 110.936104 94.055811 
L 120.211948 90.06463 
L 129.487792 93.058016 
L 138.763636 107.02715 
L 148.039481 101.040378 
L 157.315325 117.005102 
L 166.591169 114.011717 
L 175.867013 115.009512 
L 185.142857 103.035969 
L 194.418701 118.002898 
L 203.694545 123.989669 
L 212.97039 125.98526 
L 222.246234 116.007307 
L 231.522078 130.974236 
L 240.797922 132.969827 
L 250.073766 154.921323 
L 259.34961 126.983055 
L 268.625455 155.919118 
L 277.901299 133.967622 
L 287.177143 126.983055 
L 296.452987 140.952189 
L 305.728831 137.958803 
L 315.004675 148.934551 
L 324.280519 167.892661 
L 333.556364 140.952189 
L 342.832208 139.954394 
L 352.108052 120.996283 
L 361.383896 109.02274 
L 370.65974 126.983055 
L 379.935584 120.996283 
L 389.211429 113.013921 
L 398.487273 109.02274 
L 398.487273 92.06022 
L 398.487273 92.06022 
L 389.211429 98.046992 
L 379.935584 100.042583 
L 370.65974 107.02715 
L 361.383896 90.06463 
L 352.108052 94.055811 
L 342.832208 104.033764 
L 333.556364 98.046992 
L 324.280519 109.02274 
L 315.004675 112.016126 
L 305.728831 100.042583 
L 296.452987 96.051402 
L 287.177143 92.06022 
L 277.901299 100.042583 
L 268.625455 111.018331 
L 259.34961 101.040378 
L 250.073766 101.040378 
L 240.797922 113.013921 
L 231.522078 103.035969 
L 222.246234 102.038173 
L 212.97039 100.042583 
L 203.694545 104.033764 
L 194.418701 102.038173 
L 185.142857 95.053606 
L 175.867013 112.016126 
L 166.591169 111.018331 
L 157.315325 115.009512 
L 148.039481 98.046992 
L 138.763636 103.035969 
L 129.487792 90.06463 
L 120.211948 87.071244 
L 110.936104 92.06022 
L 101.66026 101.040378 
L 92.384416 108.024945 
L 83.108571 100.042583 
L 73.832727 70.108724 
z
" style="fill:#e377c2;"/>
   </g>
   <g id="PolyCollection_18">
    <path clip-path="url(#pa187c4d04f)" d="M 73.832727 69.110929 
L 73.832727 70.108724 
L 83.108571 100.042583 
L 92.384416 108.024945 
L 101.66026 101.040378 
L 110.936104 92.06022 
L 120.211948 87.071244 
L 129.487792 90.06463 
L 138.763636 103.035969 
L 148.039481 98.046992 
L 157.315325 115.009512 
L 166.591169 111.018331 
L 175.867013 112.016126 
L 185.142857 95.053606 
L 194.418701 102.038173 
L 203.694545 104.033764 
L 212.97039 100.042583 
L 222.246234 102.038173 
L 231.522078 103.035969 
L 240.797922 113.013921 
L 250.073766 101.040378 
L 259.34961 101.040378 
L 268.625455 111.018331 
L 277.901299 100.042583 
L 287.177143 92.06022 
L 296.452987 96.051402 
L 305.728831 100.042583 
L 315.004675 112.016126 
L 324.280519 109.02274 
L 333.556364 98.046992 
L 342.832208 104.033764 
L 352.108052 94.055811 
L 361.383896 90.06463 
L 370.65974 107.02715 
L 379.935584 100.042583 
L 389.211429 98.046992 
L 398.487273 92.06022 
L 398.487273 77.093291 
L 398.487273 77.093291 
L 389.211429 80.086677 
L 379.935584 79.088882 
L 370.65974 82.082268 
L 361.383896 77.093291 
L 352.108052 79.088882 
L 342.832208 83.080063 
L 333.556364 84.077858 
L 324.280519 88.069039 
L 315.004675 88.069039 
L 305.728831 89.066835 
L 296.452987 86.073449 
L 287.177143 80.086677 
L 277.901299 86.073449 
L 268.625455 89.066835 
L 259.34961 89.066835 
L 250.073766 89.066835 
L 240.797922 96.051402 
L 231.522078 93.058016 
L 222.246234 94.055811 
L 212.97039 93.058016 
L 203.694545 97.049197 
L 194.418701 96.051402 
L 185.142857 91.062425 
L 175.867013 95.053606 
L 166.591169 93.058016 
L 157.315325 87.071244 
L 148.039481 92.06022 
L 138.763636 99.044787 
L 129.487792 88.069039 
L 120.211948 85.075654 
L 110.936104 89.066835 
L 101.66026 97.049197 
L 92.384416 105.031559 
L 83.108571 98.046992 
L 73.832727 69.110929 
z
" style="fill:#7f7f7f;"/>
   </g>
   <g id="PolyCollection_19">
    <path clip-path="url(#pa187c4d04f)" d="M 73.832727 68.113134 
L 73.832727 69.110929 
L 83.108571 98.046992 
L 92.384416 105.031559 
L 101.66026 97.049197 
L 110.936104 89.066835 
L 120.211948 85.075654 
L 129.487792 88.069039 
L 138.763636 99.044787 
L 148.039481 92.06022 
L 157.315325 87.071244 
L 166.591169 93.058016 
L 175.867013 95.053606 
L 185.142857 91.062425 
L 194.418701 96.051402 
L 203.694545 97.049197 
L 212.97039 93.058016 
L 222.246234 94.055811 
L 231.522078 93.058016 
L 240.797922 96.051402 
L 250.073766 89.066835 
L 259.34961 89.066835 
L 268.625455 89.066835 
L 277.901299 86.073449 
L 287.177143 80.086677 
L 296.452987 86.073449 
L 305.728831 89.066835 
L 315.004675 88.069039 
L 324.280519 88.069039 
L 333.556364 84.077858 
L 342.832208 83.080063 
L 352.108052 79.088882 
L 361.383896 77.093291 
L 370.65974 82.082268 
L 379.935584 79.088882 
L 389.211429 80.086677 
L 398.487273 77.093291 
L 398.487273 77.093291 
L 398.487273 77.093291 
L 389.211429 80.086677 
L 379.935584 79.088882 
L 370.65974 82.082268 
L 361.383896 77.093291 
L 352.108052 76.095496 
L 342.832208 81.084472 
L 333.556364 81.084472 
L 324.280519 86.073449 
L 315.004675 85.075654 
L 305.728831 87.071244 
L 296.452987 83.080063 
L 287.177143 78.091087 
L 277.901299 83.080063 
L 268.625455 87.071244 
L 259.34961 87.071244 
L 250.073766 87.071244 
L 240.797922 93.058016 
L 231.522078 91.062425 
L 222.246234 91.062425 
L 212.97039 91.062425 
L 203.694545 94.055811 
L 194.418701 92.06022 
L 185.142857 88.069039 
L 175.867013 91.062425 
L 166.591169 90.06463 
L 157.315325 85.075654 
L 148.039481 90.06463 
L 138.763636 96.051402 
L 129.487792 85.075654 
L 120.211948 83.080063 
L 110.936104 87.071244 
L 101.66026 94.055811 
L 92.384416 103.035969 
L 83.108571 96.051402 
L 73.832727 68.113134 
z
" style="fill:#bcbd22;"/>
   </g>
   <g id="PolyCollection_20">
    <path clip-path="url(#pa187c4d04f)" d="M 73.832727 67.115339 
L 73.832727 68.113134 
L 83.108571 96.051402 
L 92.384416 103.035969 
L 101.66026 94.055811 
L 110.936104 87.071244 
L 120.211948 83.080063 
L 129.487792 85.075654 
L 138.763636 96.051402 
L 148.039481 90.06463 
L 157.315325 85.075654 
L 166.591169 90.06463 
L 175.867013 91.062425 
L 185.142857 88.069039 
L 194.418701 92.06022 
L 203.694545 94.055811 
L 212.97039 91.062425 
L 222.246234 91.062425 
L 231.522078 91.062425 
L 240.797922 93.058016 
L 250.073766 87.071244 
L 259.34961 87.071244 
L 268.625455 87.071244 
L 277.901299 83.080063 
L 287.177143 78.091087 
L 296.452987 83.080063 
L 305.728831 87.071244 
L 315.004675 85.075654 
L 324.280519 86.073449 
L 333.556364 81.084472 
L 342.832208 81.084472 
L 352.108052 76.095496 
L 361.383896 77.093291 
L 370.65974 82.082268 
L 379.935584 79.088882 
L 389.211429 80.086677 
L 398.487273 77.093291 
L 398.487273 77.093291 
L 398.487273 77.093291 
L 389.211429 80.086677 
L 379.935584 79.088882 
L 370.65974 82.082268 
L 361.383896 77.093291 
L 352.108052 76.095496 
L 342.832208 81.084472 
L 333.556364 81.084472 
L 324.280519 86.073449 
L 315.004675 85.075654 
L 305.728831 87.071244 
L 296.452987 83.080063 
L 287.177143 76.095496 
L 277.901299 81.084472 
L 268.625455 84.077858 
L 259.34961 85.075654 
L 250.073766 84.077858 
L 240.797922 91.062425 
L 231.522078 89.066835 
L 222.246234 89.066835 
L 212.97039 87.071244 
L 203.694545 91.062425 
L 194.418701 88.069039 
L 185.142857 85.075654 
L 175.867013 89.066835 
L 166.591169 87.071244 
L 157.315325 83.080063 
L 148.039481 87.071244 
L 138.763636 94.055811 
L 129.487792 81.084472 
L 120.211948 80.086677 
L 110.936104 85.075654 
L 101.66026 92.06022 
L 92.384416 100.042583 
L 83.108571 94.055811 
L 73.832727 67.115339 
z
" style="fill:#17becf;"/>
   </g>
   <g id="PolyCollection_21">
    <path clip-path="url(#pa187c4d04f)" d="M 73.832727 66.117543 
L 73.832727 67.115339 
L 83.108571 94.055811 
L 92.384416 100.042583 
L 101.66026 92.06022 
L 110.936104 85.075654 
L 120.211948 80.086677 
L 129.487792 81.084472 
L 138.763636 94.055811 
L 148.039481 87.071244 
L 157.315325 83.080063 
L 166.591169 87.071244 
L 175.867013 89.066835 
L 185.142857 85.075654 
L 194.418701 88.069039 
L 203.694545 91.062425 
L 212.97039 87.071244 
L 222.246234 89.066835 
L 231.522078 89.066835 
L 240.797922 91.062425 
L 250.073766 84.077858 
L 259.34961 85.075654 
L 268.625455 84.077858 
L 277.901299 81.084472 
L 287.177143 76.095496 
L 296.452987 83.080063 
L 305.728831 87.071244 
L 315.004675 85.075654 
L 324.280519 86.073449 
L 333.556364 81.084472 
L 342.832208 81.084472 
L 352.108052 76.095496 
L 361.383896 77.093291 
L 370.65974 82.082268 
L 379.935584 79.088882 
L 389.211429 80.086677 
L 398.487273 77.093291 
L 398.487273 75.097701 
L 398.487273 75.097701 
L 389.211429 77.093291 
L 379.935584 77.093291 
L 370.65974 79.088882 
L 361.383896 75.097701 
L 352.108052 74.099906 
L 342.832208 78.091087 
L 333.556364 79.088882 
L 324.280519 84.077858 
L 315.004675 83.080063 
L 305.728831 85.075654 
L 296.452987 80.086677 
L 287.177143 74.099906 
L 277.901299 79.088882 
L 268.625455 82.082268 
L 259.34961 82.082268 
L 250.073766 82.082268 
L 240.797922 88.069039 
L 231.522078 87.071244 
L 222.246234 86.073449 
L 212.97039 83.080063 
L 203.694545 88.069039 
L 194.418701 86.073449 
L 185.142857 83.080063 
L 175.867013 87.071244 
L 166.591169 85.075654 
L 157.315325 80.086677 
L 148.039481 85.075654 
L 138.763636 91.062425 
L 129.487792 79.088882 
L 120.211948 78.091087 
L 110.936104 82.082268 
L 101.66026 90.06463 
L 92.384416 96.051402 
L 83.108571 92.06022 
L 73.832727 66.117543 
z
" style="fill:#1f77b4;"/>
   </g>
   <g id="PolyCollection_22">
    <path clip-path="url(#pa187c4d04f)" d="M 73.832727 65.119748 
L 73.832727 66.117543 
L 83.108571 92.06022 
L 92.384416 96.051402 
L 101.66026 90.06463 
L 110.936104 82.082268 
L 120.211948 78.091087 
L 129.487792 79.088882 
L 138.763636 91.062425 
L 148.039481 85.075654 
L 157.315325 80.086677 
L 166.591169 85.075654 
L 175.867013 87.071244 
L 185.142857 83.080063 
L 194.418701 86.073449 
L 203.694545 88.069039 
L 212.97039 83.080063 
L 222.246234 86.073449 
L 231.522078 87.071244 
L 240.797922 88.069039 
L 250.073766 82.082268 
L 259.34961 82.082268 
L 268.625455 82.082268 
L 277.901299 79.088882 
L 287.177143 74.099906 
L 296.452987 80.086677 
L 305.728831 85.075654 
L 315.004675 83.080063 
L 324.280519 84.077858 
L 333.556364 79.088882 
L 342.832208 78.091087 
L 352.108052 74.099906 
L 361.383896 75.097701 
L 370.65974 79.088882 
L 379.935584 77.093291 
L 389.211429 77.093291 
L 398.487273 75.097701 
L 398.487273 75.097701 
L 398.487273 75.097701 
L 389.211429 77.093291 
L 379.935584 77.093291 
L 370.65974 79.088882 
L 361.383896 75.097701 
L 352.108052 74.099906 
L 342.832208 78.091087 
L 333.556364 79.088882 
L 324.280519 74.099906 
L 315.004675 74.099906 
L 305.728831 75.097701 
L 296.452987 71.10652 
L 287.177143 65.119748 
L 277.901299 71.10652 
L 268.625455 72.104315 
L 259.34961 74.099906 
L 250.073766 73.10211 
L 240.797922 77.093291 
L 231.522078 78.091087 
L 222.246234 78.091087 
L 212.97039 74.099906 
L 203.694545 77.093291 
L 194.418701 72.104315 
L 185.142857 73.10211 
L 175.867013 76.095496 
L 166.591169 73.10211 
L 157.315325 67.115339 
L 148.039481 73.10211 
L 138.763636 82.082268 
L 129.487792 69.110929 
L 120.211948 71.10652 
L 110.936104 76.095496 
L 101.66026 83.080063 
L 92.384416 90.06463 
L 83.108571 88.069039 
L 73.832727 65.119748 
z
" style="fill:#ff7f0e;"/>
   </g>
   <g id="PolyCollection_23">
    <path clip-path="url(#pa187c4d04f)" d="M 73.832727 64.121953 
L 73.832727 65.119748 
L 83.108571 88.069039 
L 92.384416 90.06463 
L 101.66026 83.080063 
L 110.936104 76.095496 
L 120.211948 71.10652 
L 129.487792 69.110929 
L 138.763636 82.082268 
L 148.039481 73.10211 
L 157.315325 67.115339 
L 166.591169 73.10211 
L 175.867013 76.095496 
L 185.142857 73.10211 
L 194.418701 72.104315 
L 203.694545 77.093291 
L 212.97039 74.099906 
L 222.246234 78.091087 
L 231.522078 78.091087 
L 240.797922 77.093291 
L 250.073766 73.10211 
L 259.34961 74.099906 
L 268.625455 72.104315 
L 277.901299 71.10652 
L 287.177143 65.119748 
L 296.452987 71.10652 
L 305.728831 75.097701 
L 315.004675 74.099906 
L 324.280519 74.099906 
L 333.556364 79.088882 
L 342.832208 78.091087 
L 352.108052 74.099906 
L 361.383896 75.097701 
L 370.65974 79.088882 
L 379.935584 77.093291 
L 389.211429 77.093291 
L 398.487273 75.097701 
L 398.487273 75.097701 
L 398.487273 75.097701 
L 389.211429 77.093291 
L 379.935584 75.097701 
L 370.65974 76.095496 
L 361.383896 73.10211 
L 352.108052 72.104315 
L 342.832208 76.095496 
L 333.556364 76.095496 
L 324.280519 72.104315 
L 315.004675 71.10652 
L 305.728831 73.10211 
L 296.452987 69.110929 
L 287.177143 63.124157 
L 277.901299 68.113134 
L 268.625455 70.108724 
L 259.34961 71.10652 
L 250.073766 71.10652 
L 240.797922 74.099906 
L 231.522078 76.095496 
L 222.246234 75.097701 
L 212.97039 72.104315 
L 203.694545 74.099906 
L 194.418701 70.108724 
L 185.142857 71.10652 
L 175.867013 73.10211 
L 166.591169 71.10652 
L 157.315325 66.117543 
L 148.039481 70.108724 
L 138.763636 79.088882 
L 129.487792 67.115339 
L 120.211948 69.110929 
L 110.936104 72.104315 
L 101.66026 80.086677 
L 92.384416 86.073449 
L 83.108571 85.075654 
L 73.832727 64.121953 
z
" style="fill:#2ca02c;"/>
   </g>
   <g id="PolyCollection_24">
    <path clip-path="url(#pa187c4d04f)" d="M 73.832727 63.124157 
L 73.832727 64.121953 
L 83.108571 85.075654 
L 92.384416 86.073449 
L 101.66026 80.086677 
L 110.936104 72.104315 
L 120.211948 69.110929 
L 129.487792 67.115339 
L 138.763636 79.088882 
L 148.039481 70.108724 
L 157.315325 66.117543 
L 166.591169 71.10652 
L 175.867013 73.10211 
L 185.142857 71.10652 
L 194.418701 70.108724 
L 203.694545 74.099906 
L 212.97039 72.104315 
L 222.246234 75.097701 
L 231.522078 76.095496 
L 240.797922 74.099906 
L 250.073766 71.10652 
L 259.34961 71.10652 
L 268.625455 70.108724 
L 277.901299 68.113134 
L 287.177143 63.124157 
L 296.452987 69.110929 
L 305.728831 73.10211 
L 315.004675 71.10652 
L 324.280519 72.104315 
L 333.556364 76.095496 
L 342.832208 76.095496 
L 352.108052 72.104315 
L 361.383896 73.10211 
L 370.65974 76.095496 
L 379.935584 75.097701 
L 389.211429 77.093291 
L 398.487273 75.097701 
L 398.487273 73.10211 
L 398.487273 73.10211 
L 389.211429 75.097701 
L 379.935584 72.104315 
L 370.65974 72.104315 
L 361.383896 70.108724 
L 352.108052 70.108724 
L 342.832208 74.099906 
L 333.556364 73.10211 
L 324.280519 70.108724 
L 315.004675 69.110929 
L 305.728831 71.10652 
L 296.452987 66.117543 
L 287.177143 61.128567 
L 277.901299 66.117543 
L 268.625455 67.115339 
L 259.34961 69.110929 
L 250.073766 69.110929 
L 240.797922 72.104315 
L 231.522078 73.10211 
L 222.246234 71.10652 
L 212.97039 69.110929 
L 203.694545 72.104315 
L 194.418701 68.113134 
L 185.142857 69.110929 
L 175.867013 70.108724 
L 166.591169 69.110929 
L 157.315325 64.121953 
L 148.039481 68.113134 
L 138.763636 77.093291 
L 129.487792 65.119748 
L 120.211948 67.115339 
L 110.936104 70.108724 
L 101.66026 76.095496 
L 92.384416 83.080063 
L 83.108571 82.082268 
L 73.832727 63.124157 
z
" style="fill:#d62728;"/>
   </g>
   <g id="PolyCollection_25">
    <path clip-path="url(#pa187c4d04f)" d="M 73.832727 61.128567 
L 73.832727 63.124157 
L 83.108571 82.082268 
L 92.384416 83.080063 
L 101.66026 76.095496 
L 110.936104 70.108724 
L 120.211948 67.115339 
L 129.487792 65.119748 
L 138.763636 77.093291 
L 148.039481 68.113134 
L 157.315325 64.121953 
L 166.591169 69.110929 
L 175.867013 70.108724 
L 185.142857 69.110929 
L 194.418701 68.113134 
L 203.694545 72.104315 
L 212.97039 69.110929 
L 222.246234 71.10652 
L 231.522078 73.10211 
L 240.797922 72.104315 
L 250.073766 69.110929 
L 259.34961 69.110929 
L 268.625455 67.115339 
L 277.901299 66.117543 
L 287.177143 61.128567 
L 296.452987 66.117543 
L 305.728831 71.10652 
L 315.004675 69.110929 
L 324.280519 70.108724 
L 333.556364 73.10211 
L 342.832208 74.099906 
L 352.108052 70.108724 
L 361.383896 70.108724 
L 370.65974 72.104315 
L 379.935584 72.104315 
L 389.211429 75.097701 
L 398.487273 73.10211 
L 398.487273 73.10211 
L 398.487273 73.10211 
L 389.211429 75.097701 
L 379.935584 72.104315 
L 370.65974 72.104315 
L 361.383896 70.108724 
L 352.108052 70.108724 
L 342.832208 74.099906 
L 333.556364 73.10211 
L 324.280519 70.108724 
L 315.004675 69.110929 
L 305.728831 71.10652 
L 296.452987 66.117543 
L 287.177143 61.128567 
L 277.901299 66.117543 
L 268.625455 67.115339 
L 259.34961 67.115339 
L 250.073766 66.117543 
L 240.797922 70.108724 
L 231.522078 71.10652 
L 222.246234 68.113134 
L 212.97039 67.115339 
L 203.694545 70.108724 
L 194.418701 67.115339 
L 185.142857 66.117543 
L 175.867013 66.117543 
L 166.591169 66.117543 
L 157.315325 61.128567 
L 148.039481 66.117543 
L 138.763636 75.097701 
L 129.487792 62.126362 
L 120.211948 65.119748 
L 110.936104 67.115339 
L 101.66026 72.104315 
L 92.384416 81.084472 
L 83.108571 78.091087 
L 73.832727 61.128567 
z
" style="fill:#9467bd;"/>
   </g>
   <g id="PolyCollection_26">
    <path clip-path="url(#pa187c4d04f)" d="M 73.832727 58.135181 
L 73.832727 61.128567 
L 83.108571 78.091087 
L 92.384416 81.084472 
L 101.66026 72.104315 
L 110.936104 67.115339 
L 120.211948 65.119748 
L 129.487792 62.126362 
L 138.763636 75.097701 
L 148.039481 66.117543 
L 157.315325 61.128567 
L 166.591169 66.117543 
L 175.867013 66.117543 
L 185.142857 66.117543 
L 194.418701 67.115339 
L 203.694545 70.108724 
L 212.97039 67.115339 
L 222.246234 68.113134 
L 231.522078 71.10652 
L 240.797922 70.108724 
L 250.073766 66.117543 
L 259.34961 67.115339 
L 268.625455 67.115339 
L 277.901299 66.117543 
L 287.177143 61.128567 
L 296.452987 66.117543 
L 305.728831 71.10652 
L 315.004675 69.110929 
L 324.280519 70.108724 
L 333.556364 73.10211 
L 342.832208 74.099906 
L 352.108052 70.108724 
L 361.383896 70.108724 
L 370.65974 72.104315 
L 379.935584 72.104315 
L 389.211429 75.097701 
L 398.487273 73.10211 
L 398.487273 61.128567 
L 398.487273 61.128567 
L 389.211429 61.128567 
L 379.935584 60.130772 
L 370.65974 59.132976 
L 361.383896 60.130772 
L 352.108052 61.128567 
L 342.832208 60.130772 
L 333.556364 60.130772 
L 324.280519 58.135181 
L 315.004675 58.135181 
L 305.728831 61.128567 
L 296.452987 58.135181 
L 287.177143 54.144 
L 277.901299 56.139591 
L 268.625455 56.139591 
L 259.34961 57.137386 
L 250.073766 56.139591 
L 240.797922 58.135181 
L 231.522078 61.128567 
L 222.246234 56.139591 
L 212.97039 55.141795 
L 203.694545 56.139591 
L 194.418701 56.139591 
L 185.142857 56.139591 
L 175.867013 56.139591 
L 166.591169 57.137386 
L 157.315325 56.139591 
L 148.039481 55.141795 
L 138.763636 57.137386 
L 129.487792 54.144 
L 120.211948 56.139591 
L 110.936104 60.130772 
L 101.66026 58.135181 
L 92.384416 58.135181 
L 83.108571 58.135181 
L 73.832727 58.135181 
z
" style="fill:#8c564b;"/>
   </g>
   <g id="matplotlib.axis_1">
    <g id="xtick_1">
     <g id="line2d_1">
      <defs>
       <path d="M 0 0 
L 0 3.5 
" id="m1e03844fe5" style="stroke:#000000;stroke-width:0.8;"/>
      </defs>
      <g>
       <use style="stroke:#000000;stroke-width:0.8;" x="73.832727" xlink:href="#m1e03844fe5" y="307.584"/>
      </g>
     </g>
     <g id="text_1">
      <!-- 0 -->
      <defs>
       <path d="M 31.78125 66.40625 
Q 24.171875 66.40625 20.328125 58.90625 
Q 16.5 51.421875 16.5 36.375 
Q 16.5 21.390625 20.328125 13.890625 
Q 24.171875 6.390625 31.78125 6.390625 
Q 39.453125 6.390625 43.28125 13.890625 
Q 47.125 21.390625 47.125 36.375 
Q 47.125 51.421875 43.28125 58.90625 
Q 39.453125 66.40625 31.78125 66.40625 
z
M 31.78125 74.21875 
Q 44.046875 74.21875 50.515625 64.515625 
Q 56.984375 54.828125 56.984375 36.375 
Q 56.984375 17.96875 50.515625 8.265625 
Q 44.046875 -1.421875 31.78125 -1.421875 
Q 19.53125 -1.421875 13.0625 8.265625 
Q 6.59375 17.96875 6.59375 36.375 
Q 6.59375 54.828125 13.0625 64.515625 
Q 19.53125 74.21875 31.78125 74.21875 
z
" id="DejaVuSans-48"/>
      </defs>
      <g transform="translate(70.651477 322.182437)scale(0.1 -0.1)">
       <use xlink:href="#DejaVuSans-48"/>
      </g>
     </g>
    </g>
    <g id="xtick_2">
     <g id="line2d_2">
      <g>
       <use style="stroke:#000000;stroke-width:0.8;" x="120.211948" xlink:href="#m1e03844fe5" y="307.584"/>
      </g>
     </g>
     <g id="text_2">
      <!-- 5 -->
      <defs>
       <path d="M 10.796875 72.90625 
L 49.515625 72.90625 
L 49.515625 64.59375 
L 19.828125 64.59375 
L 19.828125 46.734375 
Q 21.96875 47.46875 24.109375 47.828125 
Q 26.265625 48.1875 28.421875 48.1875 
Q 40.625 48.1875 47.75 41.5 
Q 54.890625 34.8125 54.890625 23.390625 
Q 54.890625 11.625 47.5625 5.09375 
Q 40.234375 -1.421875 26.90625 -1.421875 
Q 22.3125 -1.421875 17.546875 -0.640625 
Q 12.796875 0.140625 7.71875 1.703125 
L 7.71875 11.625 
Q 12.109375 9.234375 16.796875 8.0625 
Q 21.484375 6.890625 26.703125 6.890625 
Q 35.15625 6.890625 40.078125 11.328125 
Q 45.015625 15.765625 45.015625 23.390625 
Q 45.015625 31 40.078125 35.4375 
Q 35.15625 39.890625 26.703125 39.890625 
Q 22.75 39.890625 18.8125 39.015625 
Q 14.890625 38.140625 10.796875 36.28125 
z
" id="DejaVuSans-53"/>
      </defs>
      <g transform="translate(117.030698 322.182437)scale(0.1 -0.1)">
       <use xlink:href="#DejaVuSans-53"/>
      </g>
     </g>
    </g>
    <g id="xtick_3">
     <g id="line2d_3">
      <g>
       <use style="stroke:#000000;stroke-width:0.8;" x="166.591169" xlink:href="#m1e03844fe5" y="307.584"/>
      </g>
     </g>
     <g id="text_3">
      <!-- 10 -->
      <defs>
       <path d="M 12.40625 8.296875 
L 28.515625 8.296875 
L 28.515625 63.921875 
L 10.984375 60.40625 
L 10.984375 69.390625 
L 28.421875 72.90625 
L 38.28125 72.90625 
L 38.28125 8.296875 
L 54.390625 8.296875 
L 54.390625 0 
L 12.40625 0 
z
" id="DejaVuSans-49"/>
      </defs>
      <g transform="translate(160.228669 322.182437)scale(0.1 -0.1)">
       <use xlink:href="#DejaVuSans-49"/>
       <use x="63.623047" xlink:href="#DejaVuSans-48"/>
      </g>
     </g>
    </g>
    <g id="xtick_4">
     <g id="line2d_4">
      <g>
       <use style="stroke:#000000;stroke-width:0.8;" x="212.97039" xlink:href="#m1e03844fe5" y="307.584"/>
      </g>
     </g>
     <g id="text_4">
      <!-- 15 -->
      <g transform="translate(206.60789 322.182437)scale(0.1 -0.1)">
       <use xlink:href="#DejaVuSans-49"/>
       <use x="63.623047" xlink:href="#DejaVuSans-53"/>
      </g>
     </g>
    </g>
    <g id="xtick_5">
     <g id="line2d_5">
      <g>
       <use style="stroke:#000000;stroke-width:0.8;" x="259.34961" xlink:href="#m1e03844fe5" y="307.584"/>
      </g>
     </g>
     <g id="text_5">
      <!-- 20 -->
      <defs>
       <path d="M 19.1875 8.296875 
L 53.609375 8.296875 
L 53.609375 0 
L 7.328125 0 
L 7.328125 8.296875 
Q 12.9375 14.109375 22.625 23.890625 
Q 32.328125 33.6875 34.8125 36.53125 
Q 39.546875 41.84375 41.421875 45.53125 
Q 43.3125 49.21875 43.3125 52.78125 
Q 43.3125 58.59375 39.234375 62.25 
Q 35.15625 65.921875 28.609375 65.921875 
Q 23.96875 65.921875 18.8125 64.3125 
Q 13.671875 62.703125 7.8125 59.421875 
L 7.8125 69.390625 
Q 13.765625 71.78125 18.9375 73 
Q 24.125 74.21875 28.421875 74.21875 
Q 39.75 74.21875 46.484375 68.546875 
Q 53.21875 62.890625 53.21875 53.421875 
Q 53.21875 48.921875 51.53125 44.890625 
Q 49.859375 40.875 45.40625 35.40625 
Q 44.1875 33.984375 37.640625 27.21875 
Q 31.109375 20.453125 19.1875 8.296875 
z
" id="DejaVuSans-50"/>
      </defs>
      <g transform="translate(252.98711 322.182437)scale(0.1 -0.1)">
       <use xlink:href="#DejaVuSans-50"/>
       <use x="63.623047" xlink:href="#DejaVuSans-48"/>
      </g>
     </g>
    </g>
    <g id="xtick_6">
     <g id="line2d_6">
      <g>
       <use style="stroke:#000000;stroke-width:0.8;" x="305.728831" xlink:href="#m1e03844fe5" y="307.584"/>
      </g>
     </g>
     <g id="text_6">
      <!-- 25 -->
      <g transform="translate(299.366331 322.182437)scale(0.1 -0.1)">
       <use xlink:href="#DejaVuSans-50"/>
       <use x="63.623047" xlink:href="#DejaVuSans-53"/>
      </g>
     </g>
    </g>
    <g id="xtick_7">
     <g id="line2d_7">
      <g>
       <use style="stroke:#000000;stroke-width:0.8;" x="352.108052" xlink:href="#m1e03844fe5" y="307.584"/>
      </g>
     </g>
     <g id="text_7">
      <!-- 30 -->
      <defs>
       <path d="M 40.578125 39.3125 
Q 47.65625 37.796875 51.625 33 
Q 55.609375 28.21875 55.609375 21.1875 
Q 55.609375 10.40625 48.1875 4.484375 
Q 40.765625 -1.421875 27.09375 -1.421875 
Q 22.515625 -1.421875 17.65625 -0.515625 
Q 12.796875 0.390625 7.625 2.203125 
L 7.625 11.71875 
Q 11.71875 9.328125 16.59375 8.109375 
Q 21.484375 6.890625 26.8125 6.890625 
Q 36.078125 6.890625 40.9375 10.546875 
Q 45.796875 14.203125 45.796875 21.1875 
Q 45.796875 27.640625 41.28125 31.265625 
Q 36.765625 34.90625 28.71875 34.90625 
L 20.21875 34.90625 
L 20.21875 43.015625 
L 29.109375 43.015625 
Q 36.375 43.015625 40.234375 45.921875 
Q 44.09375 48.828125 44.09375 54.296875 
Q 44.09375 59.90625 40.109375 62.90625 
Q 36.140625 65.921875 28.71875 65.921875 
Q 24.65625 65.921875 20.015625 65.03125 
Q 15.375 64.15625 9.8125 62.3125 
L 9.8125 71.09375 
Q 15.4375 72.65625 20.34375 73.4375 
Q 25.25 74.21875 29.59375 74.21875 
Q 40.828125 74.21875 47.359375 69.109375 
Q 53.90625 64.015625 53.90625 55.328125 
Q 53.90625 49.265625 50.4375 45.09375 
Q 46.96875 40.921875 40.578125 39.3125 
z
" id="DejaVuSans-51"/>
      </defs>
      <g transform="translate(345.745552 322.182437)scale(0.1 -0.1)">
       <use xlink:href="#DejaVuSans-51"/>
       <use x="63.623047" xlink:href="#DejaVuSans-48"/>
      </g>
     </g>
    </g>
    <g id="xtick_8">
     <g id="line2d_8">
      <g>
       <use style="stroke:#000000;stroke-width:0.8;" x="398.487273" xlink:href="#m1e03844fe5" y="307.584"/>
      </g>
     </g>
     <g id="text_8">
      <!-- 35 -->
      <g transform="translate(392.124773 322.182437)scale(0.1 -0.1)">
       <use xlink:href="#DejaVuSans-51"/>
       <use x="63.623047" xlink:href="#DejaVuSans-53"/>
      </g>
     </g>
    </g>
    <g id="text_9">
     <!-- Generations -->
     <defs>
      <path d="M 59.515625 10.40625 
L 59.515625 29.984375 
L 43.40625 29.984375 
L 43.40625 38.09375 
L 69.28125 38.09375 
L 69.28125 6.78125 
Q 63.578125 2.734375 56.6875 0.65625 
Q 49.8125 -1.421875 42 -1.421875 
Q 24.90625 -1.421875 15.25 8.5625 
Q 5.609375 18.5625 5.609375 36.375 
Q 5.609375 54.25 15.25 64.234375 
Q 24.90625 74.21875 42 74.21875 
Q 49.125 74.21875 55.546875 72.453125 
Q 61.96875 70.703125 67.390625 67.28125 
L 67.390625 56.78125 
Q 61.921875 61.421875 55.765625 63.765625 
Q 49.609375 66.109375 42.828125 66.109375 
Q 29.4375 66.109375 22.71875 58.640625 
Q 16.015625 51.171875 16.015625 36.375 
Q 16.015625 21.625 22.71875 14.15625 
Q 29.4375 6.6875 42.828125 6.6875 
Q 48.046875 6.6875 52.140625 7.59375 
Q 56.25 8.5 59.515625 10.40625 
z
" id="DejaVuSans-71"/>
      <path d="M 56.203125 29.59375 
L 56.203125 25.203125 
L 14.890625 25.203125 
Q 15.484375 15.921875 20.484375 11.0625 
Q 25.484375 6.203125 34.421875 6.203125 
Q 39.59375 6.203125 44.453125 7.46875 
Q 49.3125 8.734375 54.109375 11.28125 
L 54.109375 2.78125 
Q 49.265625 0.734375 44.1875 -0.34375 
Q 39.109375 -1.421875 33.890625 -1.421875 
Q 20.796875 -1.421875 13.15625 6.1875 
Q 5.515625 13.8125 5.515625 26.8125 
Q 5.515625 40.234375 12.765625 48.109375 
Q 20.015625 56 32.328125 56 
Q 43.359375 56 49.78125 48.890625 
Q 56.203125 41.796875 56.203125 29.59375 
z
M 47.21875 32.234375 
Q 47.125 39.59375 43.09375 43.984375 
Q 39.0625 48.390625 32.421875 48.390625 
Q 24.90625 48.390625 20.390625 44.140625 
Q 15.875 39.890625 15.1875 32.171875 
z
" id="DejaVuSans-101"/>
      <path d="M 54.890625 33.015625 
L 54.890625 0 
L 45.90625 0 
L 45.90625 32.71875 
Q 45.90625 40.484375 42.875 44.328125 
Q 39.84375 48.1875 33.796875 48.1875 
Q 26.515625 48.1875 22.3125 43.546875 
Q 18.109375 38.921875 18.109375 30.90625 
L 18.109375 0 
L 9.078125 0 
L 9.078125 54.6875 
L 18.109375 54.6875 
L 18.109375 46.1875 
Q 21.34375 51.125 25.703125 53.5625 
Q 30.078125 56 35.796875 56 
Q 45.21875 56 50.046875 50.171875 
Q 54.890625 44.34375 54.890625 33.015625 
z
" id="DejaVuSans-110"/>
      <path d="M 41.109375 46.296875 
Q 39.59375 47.171875 37.8125 47.578125 
Q 36.03125 48 33.890625 48 
Q 26.265625 48 22.1875 43.046875 
Q 18.109375 38.09375 18.109375 28.8125 
L 18.109375 0 
L 9.078125 0 
L 9.078125 54.6875 
L 18.109375 54.6875 
L 18.109375 46.1875 
Q 20.953125 51.171875 25.484375 53.578125 
Q 30.03125 56 36.53125 56 
Q 37.453125 56 38.578125 55.875 
Q 39.703125 55.765625 41.0625 55.515625 
z
" id="DejaVuSans-114"/>
      <path d="M 34.28125 27.484375 
Q 23.390625 27.484375 19.1875 25 
Q 14.984375 22.515625 14.984375 16.5 
Q 14.984375 11.71875 18.140625 8.90625 
Q 21.296875 6.109375 26.703125 6.109375 
Q 34.1875 6.109375 38.703125 11.40625 
Q 43.21875 16.703125 43.21875 25.484375 
L 43.21875 27.484375 
z
M 52.203125 31.203125 
L 52.203125 0 
L 43.21875 0 
L 43.21875 8.296875 
Q 40.140625 3.328125 35.546875 0.953125 
Q 30.953125 -1.421875 24.3125 -1.421875 
Q 15.921875 -1.421875 10.953125 3.296875 
Q 6 8.015625 6 15.921875 
Q 6 25.140625 12.171875 29.828125 
Q 18.359375 34.515625 30.609375 34.515625 
L 43.21875 34.515625 
L 43.21875 35.40625 
Q 43.21875 41.609375 39.140625 45 
Q 35.0625 48.390625 27.6875 48.390625 
Q 23 48.390625 18.546875 47.265625 
Q 14.109375 46.140625 10.015625 43.890625 
L 10.015625 52.203125 
Q 14.9375 54.109375 19.578125 55.046875 
Q 24.21875 56 28.609375 56 
Q 40.484375 56 46.34375 49.84375 
Q 52.203125 43.703125 52.203125 31.203125 
z
" id="DejaVuSans-97"/>
      <path d="M 18.3125 70.21875 
L 18.3125 54.6875 
L 36.8125 54.6875 
L 36.8125 47.703125 
L 18.3125 47.703125 
L 18.3125 18.015625 
Q 18.3125 11.328125 20.140625 9.421875 
Q 21.96875 7.515625 27.59375 7.515625 
L 36.8125 7.515625 
L 36.8125 0 
L 27.59375 0 
Q 17.1875 0 13.234375 3.875 
Q 9.28125 7.765625 9.28125 18.015625 
L 9.28125 47.703125 
L 2.6875 47.703125 
L 2.6875 54.6875 
L 9.28125 54.6875 
L 9.28125 70.21875 
z
" id="DejaVuSans-116"/>
      <path d="M 9.421875 54.6875 
L 18.40625 54.6875 
L 18.40625 0 
L 9.421875 0 
z
M 9.421875 75.984375 
L 18.40625 75.984375 
L 18.40625 64.59375 
L 9.421875 64.59375 
z
" id="DejaVuSans-105"/>
      <path d="M 30.609375 48.390625 
Q 23.390625 48.390625 19.1875 42.75 
Q 14.984375 37.109375 14.984375 27.296875 
Q 14.984375 17.484375 19.15625 11.84375 
Q 23.34375 6.203125 30.609375 6.203125 
Q 37.796875 6.203125 41.984375 11.859375 
Q 46.1875 17.53125 46.1875 27.296875 
Q 46.1875 37.015625 41.984375 42.703125 
Q 37.796875 48.390625 30.609375 48.390625 
z
M 30.609375 56 
Q 42.328125 56 49.015625 48.375 
Q 55.71875 40.765625 55.71875 27.296875 
Q 55.71875 13.875 49.015625 6.21875 
Q 42.328125 -1.421875 30.609375 -1.421875 
Q 18.84375 -1.421875 12.171875 6.21875 
Q 5.515625 13.875 5.515625 27.296875 
Q 5.515625 40.765625 12.171875 48.375 
Q 18.84375 56 30.609375 56 
z
" id="DejaVuSans-111"/>
      <path d="M 44.28125 53.078125 
L 44.28125 44.578125 
Q 40.484375 46.53125 36.375 47.5 
Q 32.28125 48.484375 27.875 48.484375 
Q 21.1875 48.484375 17.84375 46.4375 
Q 14.5 44.390625 14.5 40.28125 
Q 14.5 37.15625 16.890625 35.375 
Q 19.28125 33.59375 26.515625 31.984375 
L 29.59375 31.296875 
Q 39.15625 29.25 43.1875 25.515625 
Q 47.21875 21.78125 47.21875 15.09375 
Q 47.21875 7.46875 41.1875 3.015625 
Q 35.15625 -1.421875 24.609375 -1.421875 
Q 20.21875 -1.421875 15.453125 -0.5625 
Q 10.6875 0.296875 5.421875 2 
L 5.421875 11.28125 
Q 10.40625 8.6875 15.234375 7.390625 
Q 20.0625 6.109375 24.8125 6.109375 
Q 31.15625 6.109375 34.5625 8.28125 
Q 37.984375 10.453125 37.984375 14.40625 
Q 37.984375 18.0625 35.515625 20.015625 
Q 33.0625 21.96875 24.703125 23.78125 
L 21.578125 24.515625 
Q 13.234375 26.265625 9.515625 29.90625 
Q 5.8125 33.546875 5.8125 39.890625 
Q 5.8125 47.609375 11.28125 51.796875 
Q 16.75 56 26.8125 56 
Q 31.78125 56 36.171875 55.265625 
Q 40.578125 54.546875 44.28125 53.078125 
z
" id="DejaVuSans-115"/>
     </defs>
     <g transform="translate(205.662344 335.860562)scale(0.1 -0.1)">
      <use xlink:href="#DejaVuSans-71"/>
      <use x="77.490234" xlink:href="#DejaVuSans-101"/>
      <use x="139.013672" xlink:href="#DejaVuSans-110"/>
      <use x="202.392578" xlink:href="#DejaVuSans-101"/>
      <use x="263.916016" xlink:href="#DejaVuSans-114"/>
      <use x="305.029297" xlink:href="#DejaVuSans-97"/>
      <use x="366.308594" xlink:href="#DejaVuSans-116"/>
      <use x="405.517578" xlink:href="#DejaVuSans-105"/>
      <use x="433.300781" xlink:href="#DejaVuSans-111"/>
      <use x="494.482422" xlink:href="#DejaVuSans-110"/>
      <use x="557.861328" xlink:href="#DejaVuSans-115"/>
     </g>
    </g>
   </g>
   <g id="matplotlib.axis_2">
    <g id="ytick_1">
     <g id="line2d_9">
      <defs>
       <path d="M 0 0 
L -3.5 0 
" id="me991ab6e42" style="stroke:#000000;stroke-width:0.8;"/>
      </defs>
      <g>
       <use style="stroke:#000000;stroke-width:0.8;" x="57.6" xlink:href="#me991ab6e42" y="307.584"/>
      </g>
     </g>
     <g id="text_10">
      <!-- 0 -->
      <g transform="translate(44.2375 311.383219)scale(0.1 -0.1)">
       <use xlink:href="#DejaVuSans-48"/>
      </g>
     </g>
    </g>
    <g id="ytick_2">
     <g id="line2d_10">
      <g>
       <use style="stroke:#000000;stroke-width:0.8;" x="57.6" xlink:href="#me991ab6e42" y="257.694236"/>
      </g>
     </g>
     <g id="text_11">
      <!-- 50 -->
      <g transform="translate(37.875 261.493455)scale(0.1 -0.1)">
       <use xlink:href="#DejaVuSans-53"/>
       <use x="63.623047" xlink:href="#DejaVuSans-48"/>
      </g>
     </g>
    </g>
    <g id="ytick_3">
     <g id="line2d_11">
      <g>
       <use style="stroke:#000000;stroke-width:0.8;" x="57.6" xlink:href="#me991ab6e42" y="207.804472"/>
      </g>
     </g>
     <g id="text_12">
      <!-- 100 -->
      <g transform="translate(31.5125 211.603691)scale(0.1 -0.1)">
       <use xlink:href="#DejaVuSans-49"/>
       <use x="63.623047" xlink:href="#DejaVuSans-48"/>
       <use x="127.246094" xlink:href="#DejaVuSans-48"/>
      </g>
     </g>
    </g>
    <g id="ytick_4">
     <g id="line2d_12">
      <g>
       <use style="stroke:#000000;stroke-width:0.8;" x="57.6" xlink:href="#me991ab6e42" y="157.914709"/>
      </g>
     </g>
     <g id="text_13">
      <!-- 150 -->
      <g transform="translate(31.5125 161.713927)scale(0.1 -0.1)">
       <use xlink:href="#DejaVuSans-49"/>
       <use x="63.623047" xlink:href="#DejaVuSans-53"/>
       <use x="127.246094" xlink:href="#DejaVuSans-48"/>
      </g>
     </g>
    </g>
    <g id="ytick_5">
     <g id="line2d_13">
      <g>
       <use style="stroke:#000000;stroke-width:0.8;" x="57.6" xlink:href="#me991ab6e42" y="108.024945"/>
      </g>
     </g>
     <g id="text_14">
      <!-- 200 -->
      <g transform="translate(31.5125 111.824164)scale(0.1 -0.1)">
       <use xlink:href="#DejaVuSans-50"/>
       <use x="63.623047" xlink:href="#DejaVuSans-48"/>
       <use x="127.246094" xlink:href="#DejaVuSans-48"/>
      </g>
     </g>
    </g>
    <g id="ytick_6">
     <g id="line2d_14">
      <g>
       <use style="stroke:#000000;stroke-width:0.8;" x="57.6" xlink:href="#me991ab6e42" y="58.135181"/>
      </g>
     </g>
     <g id="text_15">
      <!-- 250 -->
      <g transform="translate(31.5125 61.9344)scale(0.1 -0.1)">
       <use xlink:href="#DejaVuSans-50"/>
       <use x="63.623047" xlink:href="#DejaVuSans-53"/>
       <use x="127.246094" xlink:href="#DejaVuSans-48"/>
      </g>
     </g>
    </g>
    <g id="text_16">
     <!-- Size per Species -->
     <defs>
      <path d="M 53.515625 70.515625 
L 53.515625 60.890625 
Q 47.90625 63.578125 42.921875 64.890625 
Q 37.9375 66.21875 33.296875 66.21875 
Q 25.25 66.21875 20.875 63.09375 
Q 16.5 59.96875 16.5 54.203125 
Q 16.5 49.359375 19.40625 46.890625 
Q 22.3125 44.4375 30.421875 42.921875 
L 36.375 41.703125 
Q 47.40625 39.59375 52.65625 34.296875 
Q 57.90625 29 57.90625 20.125 
Q 57.90625 9.515625 50.796875 4.046875 
Q 43.703125 -1.421875 29.984375 -1.421875 
Q 24.8125 -1.421875 18.96875 -0.25 
Q 13.140625 0.921875 6.890625 3.21875 
L 6.890625 13.375 
Q 12.890625 10.015625 18.65625 8.296875 
Q 24.421875 6.59375 29.984375 6.59375 
Q 38.421875 6.59375 43.015625 9.90625 
Q 47.609375 13.234375 47.609375 19.390625 
Q 47.609375 24.75 44.3125 27.78125 
Q 41.015625 30.8125 33.5 32.328125 
L 27.484375 33.5 
Q 16.453125 35.6875 11.515625 40.375 
Q 6.59375 45.0625 6.59375 53.421875 
Q 6.59375 63.09375 13.40625 68.65625 
Q 20.21875 74.21875 32.171875 74.21875 
Q 37.3125 74.21875 42.625 73.28125 
Q 47.953125 72.359375 53.515625 70.515625 
z
" id="DejaVuSans-83"/>
      <path d="M 5.515625 54.6875 
L 48.1875 54.6875 
L 48.1875 46.484375 
L 14.40625 7.171875 
L 48.1875 7.171875 
L 48.1875 0 
L 4.296875 0 
L 4.296875 8.203125 
L 38.09375 47.515625 
L 5.515625 47.515625 
z
" id="DejaVuSans-122"/>
      <path id="DejaVuSans-32"/>
      <path d="M 18.109375 8.203125 
L 18.109375 -20.796875 
L 9.078125 -20.796875 
L 9.078125 54.6875 
L 18.109375 54.6875 
L 18.109375 46.390625 
Q 20.953125 51.265625 25.265625 53.625 
Q 29.59375 56 35.59375 56 
Q 45.5625 56 51.78125 48.09375 
Q 58.015625 40.1875 58.015625 27.296875 
Q 58.015625 14.40625 51.78125 6.484375 
Q 45.5625 -1.421875 35.59375 -1.421875 
Q 29.59375 -1.421875 25.265625 0.953125 
Q 20.953125 3.328125 18.109375 8.203125 
z
M 48.6875 27.296875 
Q 48.6875 37.203125 44.609375 42.84375 
Q 40.53125 48.484375 33.40625 48.484375 
Q 26.265625 48.484375 22.1875 42.84375 
Q 18.109375 37.203125 18.109375 27.296875 
Q 18.109375 17.390625 22.1875 11.75 
Q 26.265625 6.109375 33.40625 6.109375 
Q 40.53125 6.109375 44.609375 11.75 
Q 48.6875 17.390625 48.6875 27.296875 
z
" id="DejaVuSans-112"/>
      <path d="M 48.78125 52.59375 
L 48.78125 44.1875 
Q 44.96875 46.296875 41.140625 47.34375 
Q 37.3125 48.390625 33.40625 48.390625 
Q 24.65625 48.390625 19.8125 42.84375 
Q 14.984375 37.3125 14.984375 27.296875 
Q 14.984375 17.28125 19.8125 11.734375 
Q 24.65625 6.203125 33.40625 6.203125 
Q 37.3125 6.203125 41.140625 7.25 
Q 44.96875 8.296875 48.78125 10.40625 
L 48.78125 2.09375 
Q 45.015625 0.34375 40.984375 -0.53125 
Q 36.96875 -1.421875 32.421875 -1.421875 
Q 20.0625 -1.421875 12.78125 6.34375 
Q 5.515625 14.109375 5.515625 27.296875 
Q 5.515625 40.671875 12.859375 48.328125 
Q 20.21875 56 33.015625 56 
Q 37.15625 56 41.109375 55.140625 
Q 45.0625 54.296875 48.78125 52.59375 
z
" id="DejaVuSans-99"/>
     </defs>
     <g transform="translate(25.432812 215.520969)rotate(-90)scale(0.1 -0.1)">
      <use xlink:href="#DejaVuSans-83"/>
      <use x="63.476562" xlink:href="#DejaVuSans-105"/>
      <use x="91.259766" xlink:href="#DejaVuSans-122"/>
      <use x="143.75" xlink:href="#DejaVuSans-101"/>
      <use x="205.273438" xlink:href="#DejaVuSans-32"/>
      <use x="237.060547" xlink:href="#DejaVuSans-112"/>
      <use x="300.537109" xlink:href="#DejaVuSans-101"/>
      <use x="362.060547" xlink:href="#DejaVuSans-114"/>
      <use x="403.173828" xlink:href="#DejaVuSans-32"/>
      <use x="434.960938" xlink:href="#DejaVuSans-83"/>
      <use x="498.4375" xlink:href="#DejaVuSans-112"/>
      <use x="561.914062" xlink:href="#DejaVuSans-101"/>
      <use x="623.4375" xlink:href="#DejaVuSans-99"/>
      <use x="678.417969" xlink:href="#DejaVuSans-105"/>
      <use x="706.201172" xlink:href="#DejaVuSans-101"/>
      <use x="767.724609" xlink:href="#DejaVuSans-115"/>
     </g>
    </g>
   </g>
   <g id="patch_3">
    <path d="M 57.6 307.584 
L 57.6 41.472 
" style="fill:none;stroke:#000000;stroke-linecap:square;stroke-linejoin:miter;stroke-width:0.8;"/>
   </g>
   <g id="patch_4">
    <path d="M 414.72 307.584 
L 414.72 41.472 
" style="fill:none;stroke:#000000;stroke-linecap:square;stroke-linejoin:miter;stroke-width:0.8;"/>
   </g>
   <g id="patch_5">
    <path d="M 57.6 307.584 
L 414.72 307.584 
" style="fill:none;stroke:#000000;stroke-linecap:square;stroke-linejoin:miter;stroke-width:0.8;"/>
   </g>
   <g id="patch_6">
    <path d="M 57.6 41.472 
L 414.72 41.472 
" style="fill:none;stroke:#000000;stroke-linecap:square;stroke-linejoin:miter;stroke-width:0.8;"/>
   </g>
   <g id="text_17">
    <!-- Speciation -->
    <g transform="translate(204.714375 35.472)scale(0.12 -0.12)">
     <use xlink:href="#DejaVuSans-83"/>
     <use x="63.476562" xlink:href="#DejaVuSans-112"/>
     <use x="126.953125" xlink:href="#DejaVuSans-101"/>
     <use x="188.476562" xlink:href="#DejaVuSans-99"/>
     <use x="243.457031" xlink:href="#DejaVuSans-105"/>
     <use x="271.240234" xlink:href="#DejaVuSans-97"/>
     <use x="332.519531" xlink:href="#DejaVuSans-116"/>
     <use x="371.728516" xlink:href="#DejaVuSans-105"/>
     <use x="399.511719" xlink:href="#DejaVuSans-111"/>
     <use x="460.693359" xlink:href="#DejaVuSans-110"/>
    </g>
   </g>
  </g>
 </g>
 <defs>
  <clipPath id="pa187c4d04f">
   <rect height="266.112" width="357.12" x="57.6" y="41.472"/>
  </clipPath>
 </defs>
</svg>
