<?xml version="1.0" encoding="UTF-8" standalone="no"?>
<!DOCTYPE svg PUBLIC "-//W3C//DTD SVG 1.1//EN"
 "http://www.w3.org/Graphics/SVG/1.1/DTD/svg11.dtd">
<!-- Generated by graphviz version 2.40.1 (20161225.0304)
 -->
<!-- Title: %3 Pages: 1 -->
<svg width="171pt" height="275pt"
 viewBox="0.00 0.00 171.00 275.12" xmlns="http://www.w3.org/2000/svg" xmlns:xlink="http://www.w3.org/1999/xlink">
<g id="graph0" class="graph" transform="scale(1 1) rotate(0) translate(4 271.1181)">
<title>%3</title>
<polygon fill="#ffffff" stroke="transparent" points="-4,4 -4,-271.1181 166.9951,-271.1181 166.9951,4 -4,4"/>
<!-- x -->
<g id="node1" class="node">
<title>x</title>
<polygon fill="#d3d3d3" stroke="#000000" points="20.256,-201.7585 .244,-201.7585 .244,-184.7585 20.256,-184.7585 20.256,-201.7585"/>
<text text-anchor="middle" x="10.25" y="-190.5585" font-family="Times,serif" font-size="9.00" fill="#000000">x</text>
</g>
<!-- 120 -->
<g id="node6" class="node">
<title>120</title>
<ellipse fill="#ffffff" stroke="#000000" cx="71.25" cy="-115.5392" rx="20.7202" ry="20.7202"/>
<text text-anchor="middle" x="71.25" y="-112.8392" font-family="Times,serif" font-size="9.00" fill="#000000">120</text>
</g>
<!-- x&#45;&gt;120 -->
<g id="edge3" class="edge">
<title>x&#45;&gt;120</title>
<path fill="none" stroke="#00ff00" stroke-width=".2535" d="M17.0111,-184.6442C25.3865,-173.9733 40.0118,-155.3393 51.9662,-140.1083"/>
<polygon fill="#00ff00" stroke="#00ff00" stroke-width=".2535" points="54.8552,-142.0963 58.2761,-132.069 49.3487,-137.7744 54.8552,-142.0963"/>
</g>
<!-- dx -->
<g id="node2" class="node">
<title>dx</title>
<polygon fill="#d3d3d3" stroke="#000000" points="63.75,-201.7585 38.75,-201.7585 38.75,-184.7585 63.75,-184.7585 63.75,-201.7585"/>
<text text-anchor="middle" x="51.25" y="-190.5585" font-family="Times,serif" font-size="9.00" fill="#000000">dx</text>
</g>
<!-- dx&#45;&gt;120 -->
<g id="edge4" class="edge">
<title>dx&#45;&gt;120</title>
<path fill="none" stroke="#00ff00" stroke-width=".3632" d="M53.4668,-184.6442C55.8892,-175.2306 59.9064,-159.6198 63.5103,-145.6152"/>
<polygon fill="#00ff00" stroke="#00ff00" stroke-width=".3632" points="66.9301,-146.3699 66.0328,-135.8131 60.151,-144.6253 66.9301,-146.3699"/>
</g>
<!-- theta -->
<g id="node3" class="node">
<title>theta</title>
<polygon fill="#d3d3d3" stroke="#000000" points="163.2439,-267.1181 129.2561,-267.1181 129.2561,-250.1181 163.2439,-250.1181 163.2439,-267.1181"/>
<text text-anchor="middle" x="146.25" y="-255.9181" font-family="Times,serif" font-size="9.00" fill="#000000">theta</text>
</g>
<!-- 492 -->
<g id="node7" class="node">
<title>492</title>
<ellipse fill="#ffffff" stroke="#000000" cx="141.25" cy="-193.2585" rx="20.7202" ry="20.7202"/>
<text text-anchor="middle" x="141.25" y="-190.5585" font-family="Times,serif" font-size="9.00" fill="#000000">492</text>
</g>
<!-- theta&#45;&gt;492 -->
<g id="edge7" class="edge">
<title>theta&#45;&gt;492</title>
<path fill="none" stroke="#00ff00" stroke-width=".9931" d="M145.5963,-250.0735C145.087,-243.4157 144.3467,-233.7384 143.6209,-224.2512"/>
<polygon fill="#00ff00" stroke="#00ff00" stroke-width=".9931" points="147.1034,-223.8869 142.8507,-214.183 140.1238,-224.4209 147.1034,-223.8869"/>
</g>
<!-- dtheta -->
<g id="node4" class="node">
<title>dtheta</title>
<polygon fill="#d3d3d3" stroke="#000000" points="111.2402,-267.1181 73.2598,-267.1181 73.2598,-250.1181 111.2402,-250.1181 111.2402,-267.1181"/>
<text text-anchor="middle" x="92.25" y="-255.9181" font-family="Times,serif" font-size="9.00" fill="#000000">dtheta</text>
</g>
<!-- dtheta&#45;&gt;120 -->
<g id="edge1" class="edge">
<title>dtheta&#45;&gt;120</title>
<path fill="none" stroke="#ff0000" stroke-width=".1224" stroke-dasharray="1,5" d="M90.9992,-250.0963C88.0672,-230.1193 80.6312,-179.4561 75.7668,-146.3133"/>
<polygon fill="#ff0000" stroke="#ff0000" stroke-width=".1224" points="79.2019,-145.6151 74.2868,-136.2294 72.2761,-146.6317 79.2019,-145.6151"/>
</g>
<!-- dtheta&#45;&gt;492 -->
<g id="edge5" class="edge">
<title>dtheta&#45;&gt;492</title>
<path fill="none" stroke="#00ff00" stroke-width=".3575" d="M98.6559,-250.0735C104.6922,-242.0219 114.0393,-229.554 122.4411,-218.347"/>
<polygon fill="#00ff00" stroke="#00ff00" stroke-width=".3575" points="125.4133,-220.2174 128.6114,-210.1167 119.8125,-216.0184 125.4133,-220.2174"/>
</g>
<!-- control -->
<g id="node5" class="node">
<title>control</title>
<ellipse fill="#add8e6" stroke="#000000" cx="71.25" cy="-29.3398" rx="29.1804" ry="29.1804"/>
<text text-anchor="middle" x="71.25" y="-26.6398" font-family="Times,serif" font-size="9.00" fill="#000000">control</text>
</g>
<!-- 120&#45;&gt;control -->
<g id="edge2" class="edge">
<title>120&#45;&gt;control</title>
<path fill="none" stroke="#00ff00" stroke-width=".7117" d="M71.25,-94.6727C71.25,-86.9372 71.25,-77.8859 71.25,-69.0279"/>
<polygon fill="#00ff00" stroke="#00ff00" stroke-width=".7117" points="74.7501,-68.8087 71.25,-58.8088 67.7501,-68.8088 74.7501,-68.8087"/>
</g>
<!-- 492&#45;&gt;120 -->
<g id="edge6" class="edge">
<title>492&#45;&gt;120</title>
<path fill="none" stroke="#00ff00" stroke-width=".4145" d="M127.0845,-177.5308C117.122,-166.4697 103.6187,-151.4773 92.3871,-139.0072"/>
<polygon fill="#00ff00" stroke="#00ff00" stroke-width=".4145" points="94.6876,-136.3315 85.3945,-131.2434 89.4863,-141.0162 94.6876,-136.3315"/>
</g>
</g>
</svg>
