<?xml version="1.0" encoding="UTF-8" standalone="no"?>
<!DOCTYPE svg PUBLIC "-//W3C//DTD SVG 1.1//EN"
 "http://www.w3.org/Graphics/SVG/1.1/DTD/svg11.dtd">
<!-- Generated by graphviz version 2.40.1 (20161225.0304)
 -->
<!-- Title: %3 Pages: 1 -->
<svg width="179pt" height="120pt"
 viewBox="0.00 0.00 179.25 119.68" xmlns="http://www.w3.org/2000/svg" xmlns:xlink="http://www.w3.org/1999/xlink">
<g id="graph0" class="graph" transform="scale(1 1) rotate(0) translate(4 115.6795)">
<title>%3</title>
<polygon fill="#ffffff" stroke="transparent" points="-4,4 -4,-115.6795 175.2451,-115.6795 175.2451,4 -4,4"/>
<!-- x -->
<g id="node1" class="node">
<title>x</title>
<polygon fill="#d3d3d3" stroke="#000000" points="20.256,-111.6795 .244,-111.6795 .244,-94.6795 20.256,-94.6795 20.256,-111.6795"/>
<text text-anchor="middle" x="10.25" y="-100.4795" font-family="Times,serif" font-size="9.00" fill="#000000">x</text>
</g>
<!-- control -->
<g id="node5" class="node">
<title>control</title>
<ellipse fill="#add8e6" stroke="#000000" cx="74.25" cy="-29.3398" rx="29.1804" ry="29.1804"/>
<text text-anchor="middle" x="74.25" y="-26.6398" font-family="Times,serif" font-size="9.00" fill="#000000">control</text>
</g>
<!-- x&#45;&gt;control -->
<g id="edge4" class="edge">
<title>x&#45;&gt;control</title>
<path fill="none" stroke="#00ff00" stroke-width=".2816" d="M17.843,-94.4192C25.3561,-85.7509 37.2886,-71.9838 48.2477,-59.3398"/>
<polygon fill="#00ff00" stroke="#00ff00" stroke-width=".2816" points="50.9925,-61.5169 54.8973,-51.6679 45.7028,-56.9321 50.9925,-61.5169"/>
</g>
<!-- dx -->
<g id="node2" class="node">
<title>dx</title>
<polygon fill="#d3d3d3" stroke="#000000" points="63.75,-111.6795 38.75,-111.6795 38.75,-94.6795 63.75,-94.6795 63.75,-111.6795"/>
<text text-anchor="middle" x="51.25" y="-100.4795" font-family="Times,serif" font-size="9.00" fill="#000000">dx</text>
</g>
<!-- dx&#45;&gt;control -->
<g id="edge3" class="edge">
<title>dx&#45;&gt;control</title>
<path fill="none" stroke="#00ff00" stroke-width=".4069" d="M53.9787,-94.4192C56.1249,-87.5291 59.2745,-77.4175 62.4542,-67.2091"/>
<polygon fill="#00ff00" stroke="#00ff00" stroke-width=".4069" points="65.848,-68.0825 65.4804,-57.494 59.1647,-66.0007 65.848,-68.0825"/>
</g>
<!-- theta -->
<g id="node3" class="node">
<title>theta</title>
<polygon fill="#d3d3d3" stroke="#000000" points="115.2439,-111.6795 81.2561,-111.6795 81.2561,-94.6795 115.2439,-94.6795 115.2439,-111.6795"/>
<text text-anchor="middle" x="98.25" y="-100.4795" font-family="Times,serif" font-size="9.00" fill="#000000">theta</text>
</g>
<!-- theta&#45;&gt;control -->
<g id="edge2" class="edge">
<title>theta&#45;&gt;control</title>
<path fill="none" stroke="#00ff00" stroke-width=".5845" d="M95.4026,-94.4192C93.1632,-87.5291 89.8766,-77.4175 86.5586,-67.2091"/>
<polygon fill="#00ff00" stroke="#00ff00" stroke-width=".5845" points="89.8207,-65.9224 83.4009,-57.494 83.1635,-68.0862 89.8207,-65.9224"/>
</g>
<!-- dtheta -->
<g id="node4" class="node">
<title>dtheta</title>
<polygon fill="#d3d3d3" stroke="#000000" points="171.2402,-111.6795 133.2598,-111.6795 133.2598,-94.6795 171.2402,-94.6795 171.2402,-111.6795"/>
<text text-anchor="middle" x="152.25" y="-100.4795" font-family="Times,serif" font-size="9.00" fill="#000000">dtheta</text>
</g>
<!-- dtheta&#45;&gt;control -->
<g id="edge1" class="edge">
<title>dtheta&#45;&gt;control</title>
<path fill="none" stroke="#00ff00" stroke-width=".8955" d="M142.9961,-94.4192C133.2581,-85.2006 117.4284,-70.2151 103.4123,-56.9467"/>
<polygon fill="#00ff00" stroke="#00ff00" stroke-width=".8955" points="105.5307,-54.1325 95.8624,-49.7995 100.7184,-59.216 105.5307,-54.1325"/>
</g>
</g>
</svg>
