<?xml version="1.0" encoding="UTF-8" standalone="no"?>
<!DOCTYPE svg PUBLIC "-//W3C//DTD SVG 1.1//EN"
 "http://www.w3.org/Graphics/SVG/1.1/DTD/svg11.dtd">
<!-- Generated by graphviz version 2.40.1 (20161225.0304)
 -->
<!-- Title: %3 Pages: 1 -->
<svg width="319pt" height="204pt"
 viewBox="0.00 0.00 319.29 203.76" xmlns="http://www.w3.org/2000/svg" xmlns:xlink="http://www.w3.org/1999/xlink">
<g id="graph0" class="graph" transform="scale(1 1) rotate(0) translate(4 199.7628)">
<title>%3</title>
<polygon fill="#ffffff" stroke="transparent" points="-4,4 -4,-199.7628 315.2916,-199.7628 315.2916,4 -4,4"/>
<!-- x -->
<g id="node1" class="node">
<title>x</title>
<polygon fill="#d3d3d3" stroke="#000000" points="20.256,-195.7628 .244,-195.7628 .244,-178.7628 20.256,-178.7628 20.256,-195.7628"/>
<text text-anchor="middle" x="10.25" y="-184.5628" font-family="Times,serif" font-size="9.00" fill="#000000">x</text>
</g>
<!-- dx -->
<g id="node2" class="node">
<title>dx</title>
<polygon fill="#d3d3d3" stroke="#000000" points="63.75,-195.7628 38.75,-195.7628 38.75,-178.7628 63.75,-178.7628 63.75,-195.7628"/>
<text text-anchor="middle" x="51.25" y="-184.5628" font-family="Times,serif" font-size="9.00" fill="#000000">dx</text>
</g>
<!-- 1439 -->
<g id="node9" class="node">
<title>1439</title>
<ellipse fill="#ffffff" stroke="#000000" cx="51.25" cy="-118.7211" rx="24.0833" ry="24.0833"/>
<text text-anchor="middle" x="51.25" y="-116.0211" font-family="Times,serif" font-size="9.00" fill="#000000">1439</text>
</g>
<!-- dx&#45;&gt;1439 -->
<g id="edge1" class="edge">
<title>dx&#45;&gt;1439</title>
<path fill="none" stroke="#ff0000" stroke-width=".1569" d="M51.25,-178.5819C51.25,-172.0213 51.25,-162.5538 51.25,-153.0775"/>
<polygon fill="#ff0000" stroke="#ff0000" stroke-width=".1569" points="54.7501,-152.9285 51.25,-142.9285 47.7501,-152.9286 54.7501,-152.9285"/>
</g>
<!-- theta -->
<g id="node3" class="node">
<title>theta</title>
<polygon fill="#d3d3d3" stroke="#000000" points="117.2439,-195.7628 83.2561,-195.7628 83.2561,-178.7628 117.2439,-178.7628 117.2439,-195.7628"/>
<text text-anchor="middle" x="100.25" y="-184.5628" font-family="Times,serif" font-size="9.00" fill="#000000">theta</text>
</g>
<!-- dtheta -->
<g id="node4" class="node">
<title>dtheta</title>
<polygon fill="#d3d3d3" stroke="#000000" points="174.2402,-195.7628 136.2598,-195.7628 136.2598,-178.7628 174.2402,-178.7628 174.2402,-195.7628"/>
<text text-anchor="middle" x="155.25" y="-184.5628" font-family="Times,serif" font-size="9.00" fill="#000000">dtheta</text>
</g>
<!-- control -->
<g id="node5" class="node">
<title>control</title>
<ellipse fill="#add8e6" stroke="#000000" cx="155.25" cy="-29.3398" rx="29.1804" ry="29.1804"/>
<text text-anchor="middle" x="155.25" y="-26.6398" font-family="Times,serif" font-size="9.00" fill="#000000">control</text>
</g>
<!-- dtheta&#45;&gt;control -->
<g id="edge2" class="edge">
<title>dtheta&#45;&gt;control</title>
<path fill="none" stroke="#00ff00" stroke-width=".4501" stroke-dasharray="1,5" d="M146.2321,-178.7189C138.1809,-170.4179 126.9562,-157.01 122.25,-142.7628 115.547,-122.4709 117.2982,-115.4682 122.25,-94.6795 124.8163,-83.9058 129.4596,-72.8952 134.4685,-63.0576"/>
<polygon fill="#00ff00" stroke="#00ff00" stroke-width=".4501" points="137.6693,-64.4954 139.3269,-54.0311 131.5054,-61.1778 137.6693,-64.4954"/>
</g>
<!-- 2017 -->
<g id="node6" class="node">
<title>2017</title>
<ellipse fill="#ffffff" stroke="#000000" cx="155.25" cy="-118.7211" rx="24.0833" ry="24.0833"/>
<text text-anchor="middle" x="155.25" y="-116.0211" font-family="Times,serif" font-size="9.00" fill="#000000">2017</text>
</g>
<!-- dtheta&#45;&gt;2017 -->
<g id="edge3" class="edge">
<title>dtheta&#45;&gt;2017</title>
<path fill="none" stroke="#00ff00" stroke-width=".8047" d="M155.25,-178.5819C155.25,-172.0213 155.25,-162.5538 155.25,-153.0775"/>
<polygon fill="#00ff00" stroke="#00ff00" stroke-width=".8047" points="158.7501,-152.9285 155.25,-142.9285 151.7501,-152.9286 158.7501,-152.9285"/>
</g>
<!-- 2184 -->
<g id="node8" class="node">
<title>2184</title>
<ellipse fill="#ffffff" stroke="#000000" cx="221.25" cy="-118.7211" rx="24.0833" ry="24.0833"/>
<text text-anchor="middle" x="221.25" y="-116.0211" font-family="Times,serif" font-size="9.00" fill="#000000">2184</text>
</g>
<!-- dtheta&#45;&gt;2184 -->
<g id="edge5" class="edge">
<title>dtheta&#45;&gt;2184</title>
<path fill="none" stroke="#00ff00" stroke-width=".1655" d="M163.6089,-178.5819C172.0541,-169.8115 185.5015,-155.8463 197.2841,-143.6099"/>
<polygon fill="#00ff00" stroke="#00ff00" stroke-width=".1655" points="199.9307,-145.9074 204.3458,-136.2764 194.8883,-141.052 199.9307,-145.9074"/>
</g>
<!-- 2017&#45;&gt;control -->
<g id="edge4" class="edge">
<title>2017&#45;&gt;control</title>
<path fill="none" stroke="#00ff00" stroke-width=".2427" d="M155.25,-94.2973C155.25,-86.507 155.25,-77.6742 155.25,-69.0879"/>
<polygon fill="#00ff00" stroke="#00ff00" stroke-width=".2427" points="158.7501,-68.8232 155.25,-58.8233 151.7501,-68.8233 158.7501,-68.8232"/>
</g>
<!-- 2310 -->
<g id="node7" class="node">
<title>2310</title>
<ellipse fill="#ffffff" stroke="#000000" cx="287.25" cy="-118.7211" rx="24.0833" ry="24.0833"/>
<text text-anchor="middle" x="287.25" y="-116.0211" font-family="Times,serif" font-size="9.00" fill="#000000">2310</text>
</g>
<!-- 2310&#45;&gt;control -->
<g id="edge6" class="edge">
<title>2310&#45;&gt;control</title>
<path fill="none" stroke="#00ff00" stroke-width=".56" d="M267.8134,-104.3323C263.383,-101.1165 258.6764,-97.7501 254.25,-94.6795 232.6802,-79.7162 208.044,-63.4534 188.7437,-50.8956"/>
<polygon fill="#00ff00" stroke="#00ff00" stroke-width=".56" points="190.5755,-47.9119 180.2817,-45.4044 186.765,-53.784 190.5755,-47.9119"/>
</g>
</g>
</svg>
