<?xml version="1.0" encoding="UTF-8" standalone="no"?>
<!DOCTYPE svg PUBLIC "-//W3C//DTD SVG 1.1//EN"
 "http://www.w3.org/Graphics/SVG/1.1/DTD/svg11.dtd">
<!-- Generated by graphviz version 2.40.1 (20161225.0304)
 -->
<!-- Title: %3 Pages: 1 -->
<svg width="156pt" height="275pt"
 viewBox="0.00 0.00 156.25 275.12" xmlns="http://www.w3.org/2000/svg" xmlns:xlink="http://www.w3.org/1999/xlink">
<g id="graph0" class="graph" transform="scale(1 1) rotate(0) translate(4 271.1181)">
<title>%3</title>
<polygon fill="#ffffff" stroke="transparent" points="-4,4 -4,-271.1181 152.2451,-271.1181 152.2451,4 -4,4"/>
<!-- x -->
<g id="node1" class="node">
<title>x</title>
<polygon fill="#d3d3d3" stroke="#000000" points="20.256,-201.7585 .244,-201.7585 .244,-184.7585 20.256,-184.7585 20.256,-201.7585"/>
<text text-anchor="middle" x="10.25" y="-190.5585" font-family="Times,serif" font-size="9.00" fill="#000000">x</text>
</g>
<!-- 120 -->
<g id="node6" class="node">
<title>120</title>
<ellipse fill="#ffffff" stroke="#000000" cx="51.25" cy="-115.5392" rx="20.7202" ry="20.7202"/>
<text text-anchor="middle" x="51.25" y="-112.8392" font-family="Times,serif" font-size="9.00" fill="#000000">120</text>
</g>
<!-- x&#45;&gt;120 -->
<g id="edge2" class="edge">
<title>x&#45;&gt;120</title>
<path fill="none" stroke="#00ff00" stroke-width=".2535" d="M14.7944,-184.6442C20.0279,-174.7236 28.8922,-157.9204 36.5694,-143.3677"/>
<polygon fill="#00ff00" stroke="#00ff00" stroke-width=".2535" points="39.8225,-144.7022 41.3928,-134.2244 33.6312,-141.436 39.8225,-144.7022"/>
</g>
<!-- dx -->
<g id="node2" class="node">
<title>dx</title>
<polygon fill="#d3d3d3" stroke="#000000" points="63.75,-201.7585 38.75,-201.7585 38.75,-184.7585 63.75,-184.7585 63.75,-201.7585"/>
<text text-anchor="middle" x="51.25" y="-190.5585" font-family="Times,serif" font-size="9.00" fill="#000000">dx</text>
</g>
<!-- dx&#45;&gt;120 -->
<g id="edge3" class="edge">
<title>dx&#45;&gt;120</title>
<path fill="none" stroke="#00ff00" stroke-width=".3632" d="M51.25,-184.6442C51.25,-175.4479 51.25,-160.3375 51.25,-146.5878"/>
<polygon fill="#00ff00" stroke="#00ff00" stroke-width=".3632" points="54.7501,-146.4591 51.25,-136.4591 47.7501,-146.4592 54.7501,-146.4591"/>
</g>
<!-- theta -->
<g id="node3" class="node">
<title>theta</title>
<polygon fill="#d3d3d3" stroke="#000000" points="92.2439,-267.1181 58.2561,-267.1181 58.2561,-250.1181 92.2439,-250.1181 92.2439,-267.1181"/>
<text text-anchor="middle" x="75.25" y="-255.9181" font-family="Times,serif" font-size="9.00" fill="#000000">theta</text>
</g>
<!-- 492 -->
<g id="node7" class="node">
<title>492</title>
<ellipse fill="#ffffff" stroke="#000000" cx="102.25" cy="-193.2585" rx="20.7202" ry="20.7202"/>
<text text-anchor="middle" x="102.25" y="-190.5585" font-family="Times,serif" font-size="9.00" fill="#000000">492</text>
</g>
<!-- theta&#45;&gt;492 -->
<g id="edge6" class="edge">
<title>theta&#45;&gt;492</title>
<path fill="none" stroke="#00ff00" stroke-width=".9931" d="M78.7798,-250.0735C81.7262,-242.941 86.1042,-232.343 90.2836,-222.2259"/>
<polygon fill="#00ff00" stroke="#00ff00" stroke-width=".9931" points="93.5933,-223.3809 94.1765,-212.8021 87.1236,-220.7082 93.5933,-223.3809"/>
</g>
<!-- dtheta -->
<g id="node4" class="node">
<title>dtheta</title>
<polygon fill="#d3d3d3" stroke="#000000" points="148.2402,-267.1181 110.2598,-267.1181 110.2598,-250.1181 148.2402,-250.1181 148.2402,-267.1181"/>
<text text-anchor="middle" x="129.25" y="-255.9181" font-family="Times,serif" font-size="9.00" fill="#000000">dtheta</text>
</g>
<!-- dtheta&#45;&gt;492 -->
<g id="edge4" class="edge">
<title>dtheta&#45;&gt;492</title>
<path fill="none" stroke="#00ff00" stroke-width=".3575" d="M125.7202,-250.0735C122.7738,-242.941 118.3958,-232.343 114.2164,-222.2259"/>
<polygon fill="#00ff00" stroke="#00ff00" stroke-width=".3575" points="117.3764,-220.7082 110.3235,-212.8021 110.9067,-223.3809 117.3764,-220.7082"/>
</g>
<!-- control -->
<g id="node5" class="node">
<title>control</title>
<ellipse fill="#add8e6" stroke="#000000" cx="51.25" cy="-29.3398" rx="29.1804" ry="29.1804"/>
<text text-anchor="middle" x="51.25" y="-26.6398" font-family="Times,serif" font-size="9.00" fill="#000000">control</text>
</g>
<!-- 120&#45;&gt;control -->
<g id="edge1" class="edge">
<title>120&#45;&gt;control</title>
<path fill="none" stroke="#00ff00" stroke-width=".7117" d="M51.25,-94.6727C51.25,-86.9372 51.25,-77.8859 51.25,-69.0279"/>
<polygon fill="#00ff00" stroke="#00ff00" stroke-width=".7117" points="54.7501,-68.8087 51.25,-58.8088 47.7501,-68.8088 54.7501,-68.8087"/>
</g>
<!-- 492&#45;&gt;120 -->
<g id="edge5" class="edge">
<title>492&#45;&gt;120</title>
<path fill="none" stroke="#00ff00" stroke-width=".4145" d="M90.6773,-175.6227C84.0914,-165.5865 75.7177,-152.8256 68.3827,-141.6478"/>
<polygon fill="#00ff00" stroke="#00ff00" stroke-width=".4145" points="71.1895,-139.5455 62.7769,-133.1051 65.337,-143.386 71.1895,-139.5455"/>
</g>
</g>
</svg>
