<?xml version="1.0" encoding="UTF-8" standalone="no"?>
<!DOCTYPE svg PUBLIC "-//W3C//DTD SVG 1.1//EN"
 "http://www.w3.org/Graphics/SVG/1.1/DTD/svg11.dtd">
<!-- Generated by graphviz version 2.40.1 (20161225.0304)
 -->
<!-- Title: %3 Pages: 1 -->
<svg width="298pt" height="204pt"
 viewBox="0.00 0.00 298.29 203.76" xmlns="http://www.w3.org/2000/svg" xmlns:xlink="http://www.w3.org/1999/xlink">
<g id="graph0" class="graph" transform="scale(1 1) rotate(0) translate(4 199.7628)">
<title>%3</title>
<polygon fill="#ffffff" stroke="transparent" points="-4,4 -4,-199.7628 294.2916,-199.7628 294.2916,4 -4,4"/>
<!-- x -->
<g id="node1" class="node">
<title>x</title>
<polygon fill="#d3d3d3" stroke="#000000" points="20.256,-195.7628 .244,-195.7628 .244,-178.7628 20.256,-178.7628 20.256,-195.7628"/>
<text text-anchor="middle" x="10.25" y="-184.5628" font-family="Times,serif" font-size="9.00" fill="#000000">x</text>
</g>
<!-- dx -->
<g id="node2" class="node">
<title>dx</title>
<polygon fill="#d3d3d3" stroke="#000000" points="63.75,-195.7628 38.75,-195.7628 38.75,-178.7628 63.75,-178.7628 63.75,-195.7628"/>
<text text-anchor="middle" x="51.25" y="-184.5628" font-family="Times,serif" font-size="9.00" fill="#000000">dx</text>
</g>
<!-- 1439 -->
<g id="node8" class="node">
<title>1439</title>
<ellipse fill="none" stroke="#000000" cx="51.25" cy="-118.7211" rx="24.0833" ry="24.0833"/>
<text text-anchor="middle" x="51.25" y="-116.0211" font-family="Times,serif" font-size="9.00" fill="#000000">1439</text>
</g>
<!-- dx&#45;&gt;1439 -->
<g id="edge1" class="edge">
<title>dx&#45;&gt;1439</title>
<path fill="none" stroke="#ff0000" stroke-width=".1569" d="M51.25,-178.5819C51.25,-172.0213 51.25,-162.5538 51.25,-153.0775"/>
<polygon fill="#ff0000" stroke="#ff0000" stroke-width=".1569" points="54.7501,-152.9285 51.25,-142.9285 47.7501,-152.9286 54.7501,-152.9285"/>
</g>
<!-- theta -->
<g id="node3" class="node">
<title>theta</title>
<polygon fill="#d3d3d3" stroke="#000000" points="139.2439,-195.7628 105.2561,-195.7628 105.2561,-178.7628 139.2439,-178.7628 139.2439,-195.7628"/>
<text text-anchor="middle" x="122.25" y="-184.5628" font-family="Times,serif" font-size="9.00" fill="#000000">theta</text>
</g>
<!-- dtheta -->
<g id="node4" class="node">
<title>dtheta</title>
<polygon fill="#d3d3d3" stroke="#000000" points="207.2402,-195.7628 169.2598,-195.7628 169.2598,-178.7628 207.2402,-178.7628 207.2402,-195.7628"/>
<text text-anchor="middle" x="188.25" y="-184.5628" font-family="Times,serif" font-size="9.00" fill="#000000">dtheta</text>
</g>
<!-- 2017 -->
<g id="node6" class="node">
<title>2017</title>
<ellipse fill="#ffffff" stroke="#000000" cx="134.25" cy="-118.7211" rx="24.0833" ry="24.0833"/>
<text text-anchor="middle" x="134.25" y="-116.0211" font-family="Times,serif" font-size="9.00" fill="#000000">2017</text>
</g>
<!-- dtheta&#45;&gt;2017 -->
<g id="edge2" class="edge">
<title>dtheta&#45;&gt;2017</title>
<path fill="none" stroke="#00ff00" stroke-width=".8047" d="M181.4109,-178.5819C174.8621,-170.2697 164.6371,-157.2912 155.3796,-145.5407"/>
<polygon fill="#00ff00" stroke="#00ff00" stroke-width=".8047" points="158.1201,-143.3635 149.1822,-137.6745 152.6215,-147.6956 158.1201,-143.3635"/>
</g>
<!-- 2184 -->
<g id="node9" class="node">
<title>2184</title>
<ellipse fill="none" stroke="#000000" cx="200.25" cy="-118.7211" rx="24.0833" ry="24.0833"/>
<text text-anchor="middle" x="200.25" y="-116.0211" font-family="Times,serif" font-size="9.00" fill="#000000">2184</text>
</g>
<!-- dtheta&#45;&gt;2184 -->
<g id="edge4" class="edge">
<title>dtheta&#45;&gt;2184</title>
<path fill="none" stroke="#00ff00" stroke-width=".1655" d="M189.7698,-178.5819C190.94,-171.898 192.6384,-162.197 194.3285,-152.5434"/>
<polygon fill="#00ff00" stroke="#00ff00" stroke-width=".1655" points="197.7873,-153.0828 196.0643,-142.629 190.8921,-151.8756 197.7873,-153.0828"/>
</g>
<!-- control -->
<g id="node5" class="node">
<title>control</title>
<ellipse fill="#add8e6" stroke="#000000" cx="200.25" cy="-29.3398" rx="29.1804" ry="29.1804"/>
<text text-anchor="middle" x="200.25" y="-26.6398" font-family="Times,serif" font-size="9.00" fill="#000000">control</text>
</g>
<!-- 2017&#45;&gt;control -->
<g id="edge3" class="edge">
<title>2017&#45;&gt;control</title>
<path fill="none" stroke="#00ff00" stroke-width=".2427" d="M148.571,-99.3267C156.7814,-88.2077 167.292,-73.9736 176.688,-61.249"/>
<polygon fill="#00ff00" stroke="#00ff00" stroke-width=".2427" points="179.5416,-63.2765 182.6662,-53.1529 173.9104,-59.1184 179.5416,-63.2765"/>
</g>
<!-- 2310 -->
<g id="node7" class="node">
<title>2310</title>
<ellipse fill="#ffffff" stroke="#000000" cx="266.25" cy="-118.7211" rx="24.0833" ry="24.0833"/>
<text text-anchor="middle" x="266.25" y="-116.0211" font-family="Times,serif" font-size="9.00" fill="#000000">2310</text>
</g>
<!-- 2310&#45;&gt;control -->
<g id="edge5" class="edge">
<title>2310&#45;&gt;control</title>
<path fill="none" stroke="#00ff00" stroke-width=".56" d="M251.929,-99.3267C243.7186,-88.2077 233.208,-73.9736 223.812,-61.249"/>
<polygon fill="#00ff00" stroke="#00ff00" stroke-width=".56" points="226.5896,-59.1184 217.8338,-53.1529 220.9584,-63.2765 226.5896,-59.1184"/>
</g>
</g>
</svg>
