<?xml version="1.0" encoding="utf-8" standalone="no"?>
<!DOCTYPE svg PUBLIC "-//W3C//DTD SVG 1.1//EN"
  "http://www.w3.org/Graphics/SVG/1.1/DTD/svg11.dtd">
<!-- Created with matplotlib (https://matplotlib.org/) -->
<svg height="345.6pt" version="1.1" viewBox="0 0 460.8 345.6" width="460.8pt" xmlns="http://www.w3.org/2000/svg" xmlns:xlink="http://www.w3.org/1999/xlink">
 <defs>
  <style type="text/css">
*{stroke-linecap:butt;stroke-linejoin:round;}
  </style>
 </defs>
 <g id="figure_1">
  <g id="patch_1">
   <path d="M 0 345.6 
L 460.8 345.6 
L 460.8 0 
L 0 0 
z
" style="fill:#ffffff;"/>
  </g>
  <g id="axes_1">
   <g id="patch_2">
    <path d="M 57.6 307.584 
L 414.72 307.584 
L 414.72 41.472 
L 57.6 41.472 
z
" style="fill:#ffffff;"/>
   </g>
   <g id="matplotlib.axis_1">
    <g id="xtick_1">
     <g id="line2d_1">
      <path clip-path="url(#pb4575eec15)" d="M 73.832727 307.584 
L 73.832727 41.472 
" style="fill:none;stroke:#b0b0b0;stroke-linecap:square;stroke-width:0.8;"/>
     </g>
     <g id="line2d_2">
      <defs>
       <path d="M 0 0 
L 0 3.5 
" id="m6bbbed76b7" style="stroke:#000000;stroke-width:0.8;"/>
      </defs>
      <g>
       <use style="stroke:#000000;stroke-width:0.8;" x="73.832727" xlink:href="#m6bbbed76b7" y="307.584"/>
      </g>
     </g>
     <g id="text_1">
      <!-- 0 -->
      <defs>
       <path d="M 31.78125 66.40625 
Q 24.171875 66.40625 20.328125 58.90625 
Q 16.5 51.421875 16.5 36.375 
Q 16.5 21.390625 20.328125 13.890625 
Q 24.171875 6.390625 31.78125 6.390625 
Q 39.453125 6.390625 43.28125 13.890625 
Q 47.125 21.390625 47.125 36.375 
Q 47.125 51.421875 43.28125 58.90625 
Q 39.453125 66.40625 31.78125 66.40625 
z
M 31.78125 74.21875 
Q 44.046875 74.21875 50.515625 64.515625 
Q 56.984375 54.828125 56.984375 36.375 
Q 56.984375 17.96875 50.515625 8.265625 
Q 44.046875 -1.421875 31.78125 -1.421875 
Q 19.53125 -1.421875 13.0625 8.265625 
Q 6.59375 17.96875 6.59375 36.375 
Q 6.59375 54.828125 13.0625 64.515625 
Q 19.53125 74.21875 31.78125 74.21875 
z
" id="DejaVuSans-48"/>
      </defs>
      <g transform="translate(70.651477 322.182437)scale(0.1 -0.1)">
       <use xlink:href="#DejaVuSans-48"/>
      </g>
     </g>
    </g>
    <g id="xtick_2">
     <g id="line2d_3">
      <path clip-path="url(#pb4575eec15)" d="M 128.122785 307.584 
L 128.122785 41.472 
" style="fill:none;stroke:#b0b0b0;stroke-linecap:square;stroke-width:0.8;"/>
     </g>
     <g id="line2d_4">
      <g>
       <use style="stroke:#000000;stroke-width:0.8;" x="128.122785" xlink:href="#m6bbbed76b7" y="307.584"/>
      </g>
     </g>
     <g id="text_2">
      <!-- 50 -->
      <defs>
       <path d="M 10.796875 72.90625 
L 49.515625 72.90625 
L 49.515625 64.59375 
L 19.828125 64.59375 
L 19.828125 46.734375 
Q 21.96875 47.46875 24.109375 47.828125 
Q 26.265625 48.1875 28.421875 48.1875 
Q 40.625 48.1875 47.75 41.5 
Q 54.890625 34.8125 54.890625 23.390625 
Q 54.890625 11.625 47.5625 5.09375 
Q 40.234375 -1.421875 26.90625 -1.421875 
Q 22.3125 -1.421875 17.546875 -0.640625 
Q 12.796875 0.140625 7.71875 1.703125 
L 7.71875 11.625 
Q 12.109375 9.234375 16.796875 8.0625 
Q 21.484375 6.890625 26.703125 6.890625 
Q 35.15625 6.890625 40.078125 11.328125 
Q 45.015625 15.765625 45.015625 23.390625 
Q 45.015625 31 40.078125 35.4375 
Q 35.15625 39.890625 26.703125 39.890625 
Q 22.75 39.890625 18.8125 39.015625 
Q 14.890625 38.140625 10.796875 36.28125 
z
" id="DejaVuSans-53"/>
      </defs>
      <g transform="translate(121.760285 322.182437)scale(0.1 -0.1)">
       <use xlink:href="#DejaVuSans-53"/>
       <use x="63.623047" xlink:href="#DejaVuSans-48"/>
      </g>
     </g>
    </g>
    <g id="xtick_3">
     <g id="line2d_5">
      <path clip-path="url(#pb4575eec15)" d="M 182.412843 307.584 
L 182.412843 41.472 
" style="fill:none;stroke:#b0b0b0;stroke-linecap:square;stroke-width:0.8;"/>
     </g>
     <g id="line2d_6">
      <g>
       <use style="stroke:#000000;stroke-width:0.8;" x="182.412843" xlink:href="#m6bbbed76b7" y="307.584"/>
      </g>
     </g>
     <g id="text_3">
      <!-- 100 -->
      <defs>
       <path d="M 12.40625 8.296875 
L 28.515625 8.296875 
L 28.515625 63.921875 
L 10.984375 60.40625 
L 10.984375 69.390625 
L 28.421875 72.90625 
L 38.28125 72.90625 
L 38.28125 8.296875 
L 54.390625 8.296875 
L 54.390625 0 
L 12.40625 0 
z
" id="DejaVuSans-49"/>
      </defs>
      <g transform="translate(172.869093 322.182437)scale(0.1 -0.1)">
       <use xlink:href="#DejaVuSans-49"/>
       <use x="63.623047" xlink:href="#DejaVuSans-48"/>
       <use x="127.246094" xlink:href="#DejaVuSans-48"/>
      </g>
     </g>
    </g>
    <g id="xtick_4">
     <g id="line2d_7">
      <path clip-path="url(#pb4575eec15)" d="M 236.702901 307.584 
L 236.702901 41.472 
" style="fill:none;stroke:#b0b0b0;stroke-linecap:square;stroke-width:0.8;"/>
     </g>
     <g id="line2d_8">
      <g>
       <use style="stroke:#000000;stroke-width:0.8;" x="236.702901" xlink:href="#m6bbbed76b7" y="307.584"/>
      </g>
     </g>
     <g id="text_4">
      <!-- 150 -->
      <g transform="translate(227.159151 322.182437)scale(0.1 -0.1)">
       <use xlink:href="#DejaVuSans-49"/>
       <use x="63.623047" xlink:href="#DejaVuSans-53"/>
       <use x="127.246094" xlink:href="#DejaVuSans-48"/>
      </g>
     </g>
    </g>
    <g id="xtick_5">
     <g id="line2d_9">
      <path clip-path="url(#pb4575eec15)" d="M 290.992958 307.584 
L 290.992958 41.472 
" style="fill:none;stroke:#b0b0b0;stroke-linecap:square;stroke-width:0.8;"/>
     </g>
     <g id="line2d_10">
      <g>
       <use style="stroke:#000000;stroke-width:0.8;" x="290.992958" xlink:href="#m6bbbed76b7" y="307.584"/>
      </g>
     </g>
     <g id="text_5">
      <!-- 200 -->
      <defs>
       <path d="M 19.1875 8.296875 
L 53.609375 8.296875 
L 53.609375 0 
L 7.328125 0 
L 7.328125 8.296875 
Q 12.9375 14.109375 22.625 23.890625 
Q 32.328125 33.6875 34.8125 36.53125 
Q 39.546875 41.84375 41.421875 45.53125 
Q 43.3125 49.21875 43.3125 52.78125 
Q 43.3125 58.59375 39.234375 62.25 
Q 35.15625 65.921875 28.609375 65.921875 
Q 23.96875 65.921875 18.8125 64.3125 
Q 13.671875 62.703125 7.8125 59.421875 
L 7.8125 69.390625 
Q 13.765625 71.78125 18.9375 73 
Q 24.125 74.21875 28.421875 74.21875 
Q 39.75 74.21875 46.484375 68.546875 
Q 53.21875 62.890625 53.21875 53.421875 
Q 53.21875 48.921875 51.53125 44.890625 
Q 49.859375 40.875 45.40625 35.40625 
Q 44.1875 33.984375 37.640625 27.21875 
Q 31.109375 20.453125 19.1875 8.296875 
z
" id="DejaVuSans-50"/>
      </defs>
      <g transform="translate(281.449208 322.182437)scale(0.1 -0.1)">
       <use xlink:href="#DejaVuSans-50"/>
       <use x="63.623047" xlink:href="#DejaVuSans-48"/>
       <use x="127.246094" xlink:href="#DejaVuSans-48"/>
      </g>
     </g>
    </g>
    <g id="xtick_6">
     <g id="line2d_11">
      <path clip-path="url(#pb4575eec15)" d="M 345.283016 307.584 
L 345.283016 41.472 
" style="fill:none;stroke:#b0b0b0;stroke-linecap:square;stroke-width:0.8;"/>
     </g>
     <g id="line2d_12">
      <g>
       <use style="stroke:#000000;stroke-width:0.8;" x="345.283016" xlink:href="#m6bbbed76b7" y="307.584"/>
      </g>
     </g>
     <g id="text_6">
      <!-- 250 -->
      <g transform="translate(335.739266 322.182437)scale(0.1 -0.1)">
       <use xlink:href="#DejaVuSans-50"/>
       <use x="63.623047" xlink:href="#DejaVuSans-53"/>
       <use x="127.246094" xlink:href="#DejaVuSans-48"/>
      </g>
     </g>
    </g>
    <g id="xtick_7">
     <g id="line2d_13">
      <path clip-path="url(#pb4575eec15)" d="M 399.573074 307.584 
L 399.573074 41.472 
" style="fill:none;stroke:#b0b0b0;stroke-linecap:square;stroke-width:0.8;"/>
     </g>
     <g id="line2d_14">
      <g>
       <use style="stroke:#000000;stroke-width:0.8;" x="399.573074" xlink:href="#m6bbbed76b7" y="307.584"/>
      </g>
     </g>
     <g id="text_7">
      <!-- 300 -->
      <defs>
       <path d="M 40.578125 39.3125 
Q 47.65625 37.796875 51.625 33 
Q 55.609375 28.21875 55.609375 21.1875 
Q 55.609375 10.40625 48.1875 4.484375 
Q 40.765625 -1.421875 27.09375 -1.421875 
Q 22.515625 -1.421875 17.65625 -0.515625 
Q 12.796875 0.390625 7.625 2.203125 
L 7.625 11.71875 
Q 11.71875 9.328125 16.59375 8.109375 
Q 21.484375 6.890625 26.8125 6.890625 
Q 36.078125 6.890625 40.9375 10.546875 
Q 45.796875 14.203125 45.796875 21.1875 
Q 45.796875 27.640625 41.28125 31.265625 
Q 36.765625 34.90625 28.71875 34.90625 
L 20.21875 34.90625 
L 20.21875 43.015625 
L 29.109375 43.015625 
Q 36.375 43.015625 40.234375 45.921875 
Q 44.09375 48.828125 44.09375 54.296875 
Q 44.09375 59.90625 40.109375 62.90625 
Q 36.140625 65.921875 28.71875 65.921875 
Q 24.65625 65.921875 20.015625 65.03125 
Q 15.375 64.15625 9.8125 62.3125 
L 9.8125 71.09375 
Q 15.4375 72.65625 20.34375 73.4375 
Q 25.25 74.21875 29.59375 74.21875 
Q 40.828125 74.21875 47.359375 69.109375 
Q 53.90625 64.015625 53.90625 55.328125 
Q 53.90625 49.265625 50.4375 45.09375 
Q 46.96875 40.921875 40.578125 39.3125 
z
" id="DejaVuSans-51"/>
      </defs>
      <g transform="translate(390.029324 322.182437)scale(0.1 -0.1)">
       <use xlink:href="#DejaVuSans-51"/>
       <use x="63.623047" xlink:href="#DejaVuSans-48"/>
       <use x="127.246094" xlink:href="#DejaVuSans-48"/>
      </g>
     </g>
    </g>
    <g id="text_8">
     <!-- Generations -->
     <defs>
      <path d="M 59.515625 10.40625 
L 59.515625 29.984375 
L 43.40625 29.984375 
L 43.40625 38.09375 
L 69.28125 38.09375 
L 69.28125 6.78125 
Q 63.578125 2.734375 56.6875 0.65625 
Q 49.8125 -1.421875 42 -1.421875 
Q 24.90625 -1.421875 15.25 8.5625 
Q 5.609375 18.5625 5.609375 36.375 
Q 5.609375 54.25 15.25 64.234375 
Q 24.90625 74.21875 42 74.21875 
Q 49.125 74.21875 55.546875 72.453125 
Q 61.96875 70.703125 67.390625 67.28125 
L 67.390625 56.78125 
Q 61.921875 61.421875 55.765625 63.765625 
Q 49.609375 66.109375 42.828125 66.109375 
Q 29.4375 66.109375 22.71875 58.640625 
Q 16.015625 51.171875 16.015625 36.375 
Q 16.015625 21.625 22.71875 14.15625 
Q 29.4375 6.6875 42.828125 6.6875 
Q 48.046875 6.6875 52.140625 7.59375 
Q 56.25 8.5 59.515625 10.40625 
z
" id="DejaVuSans-71"/>
      <path d="M 56.203125 29.59375 
L 56.203125 25.203125 
L 14.890625 25.203125 
Q 15.484375 15.921875 20.484375 11.0625 
Q 25.484375 6.203125 34.421875 6.203125 
Q 39.59375 6.203125 44.453125 7.46875 
Q 49.3125 8.734375 54.109375 11.28125 
L 54.109375 2.78125 
Q 49.265625 0.734375 44.1875 -0.34375 
Q 39.109375 -1.421875 33.890625 -1.421875 
Q 20.796875 -1.421875 13.15625 6.1875 
Q 5.515625 13.8125 5.515625 26.8125 
Q 5.515625 40.234375 12.765625 48.109375 
Q 20.015625 56 32.328125 56 
Q 43.359375 56 49.78125 48.890625 
Q 56.203125 41.796875 56.203125 29.59375 
z
M 47.21875 32.234375 
Q 47.125 39.59375 43.09375 43.984375 
Q 39.0625 48.390625 32.421875 48.390625 
Q 24.90625 48.390625 20.390625 44.140625 
Q 15.875 39.890625 15.1875 32.171875 
z
" id="DejaVuSans-101"/>
      <path d="M 54.890625 33.015625 
L 54.890625 0 
L 45.90625 0 
L 45.90625 32.71875 
Q 45.90625 40.484375 42.875 44.328125 
Q 39.84375 48.1875 33.796875 48.1875 
Q 26.515625 48.1875 22.3125 43.546875 
Q 18.109375 38.921875 18.109375 30.90625 
L 18.109375 0 
L 9.078125 0 
L 9.078125 54.6875 
L 18.109375 54.6875 
L 18.109375 46.1875 
Q 21.34375 51.125 25.703125 53.5625 
Q 30.078125 56 35.796875 56 
Q 45.21875 56 50.046875 50.171875 
Q 54.890625 44.34375 54.890625 33.015625 
z
" id="DejaVuSans-110"/>
      <path d="M 41.109375 46.296875 
Q 39.59375 47.171875 37.8125 47.578125 
Q 36.03125 48 33.890625 48 
Q 26.265625 48 22.1875 43.046875 
Q 18.109375 38.09375 18.109375 28.8125 
L 18.109375 0 
L 9.078125 0 
L 9.078125 54.6875 
L 18.109375 54.6875 
L 18.109375 46.1875 
Q 20.953125 51.171875 25.484375 53.578125 
Q 30.03125 56 36.53125 56 
Q 37.453125 56 38.578125 55.875 
Q 39.703125 55.765625 41.0625 55.515625 
z
" id="DejaVuSans-114"/>
      <path d="M 34.28125 27.484375 
Q 23.390625 27.484375 19.1875 25 
Q 14.984375 22.515625 14.984375 16.5 
Q 14.984375 11.71875 18.140625 8.90625 
Q 21.296875 6.109375 26.703125 6.109375 
Q 34.1875 6.109375 38.703125 11.40625 
Q 43.21875 16.703125 43.21875 25.484375 
L 43.21875 27.484375 
z
M 52.203125 31.203125 
L 52.203125 0 
L 43.21875 0 
L 43.21875 8.296875 
Q 40.140625 3.328125 35.546875 0.953125 
Q 30.953125 -1.421875 24.3125 -1.421875 
Q 15.921875 -1.421875 10.953125 3.296875 
Q 6 8.015625 6 15.921875 
Q 6 25.140625 12.171875 29.828125 
Q 18.359375 34.515625 30.609375 34.515625 
L 43.21875 34.515625 
L 43.21875 35.40625 
Q 43.21875 41.609375 39.140625 45 
Q 35.0625 48.390625 27.6875 48.390625 
Q 23 48.390625 18.546875 47.265625 
Q 14.109375 46.140625 10.015625 43.890625 
L 10.015625 52.203125 
Q 14.9375 54.109375 19.578125 55.046875 
Q 24.21875 56 28.609375 56 
Q 40.484375 56 46.34375 49.84375 
Q 52.203125 43.703125 52.203125 31.203125 
z
" id="DejaVuSans-97"/>
      <path d="M 18.3125 70.21875 
L 18.3125 54.6875 
L 36.8125 54.6875 
L 36.8125 47.703125 
L 18.3125 47.703125 
L 18.3125 18.015625 
Q 18.3125 11.328125 20.140625 9.421875 
Q 21.96875 7.515625 27.59375 7.515625 
L 36.8125 7.515625 
L 36.8125 0 
L 27.59375 0 
Q 17.1875 0 13.234375 3.875 
Q 9.28125 7.765625 9.28125 18.015625 
L 9.28125 47.703125 
L 2.6875 47.703125 
L 2.6875 54.6875 
L 9.28125 54.6875 
L 9.28125 70.21875 
z
" id="DejaVuSans-116"/>
      <path d="M 9.421875 54.6875 
L 18.40625 54.6875 
L 18.40625 0 
L 9.421875 0 
z
M 9.421875 75.984375 
L 18.40625 75.984375 
L 18.40625 64.59375 
L 9.421875 64.59375 
z
" id="DejaVuSans-105"/>
      <path d="M 30.609375 48.390625 
Q 23.390625 48.390625 19.1875 42.75 
Q 14.984375 37.109375 14.984375 27.296875 
Q 14.984375 17.484375 19.15625 11.84375 
Q 23.34375 6.203125 30.609375 6.203125 
Q 37.796875 6.203125 41.984375 11.859375 
Q 46.1875 17.53125 46.1875 27.296875 
Q 46.1875 37.015625 41.984375 42.703125 
Q 37.796875 48.390625 30.609375 48.390625 
z
M 30.609375 56 
Q 42.328125 56 49.015625 48.375 
Q 55.71875 40.765625 55.71875 27.296875 
Q 55.71875 13.875 49.015625 6.21875 
Q 42.328125 -1.421875 30.609375 -1.421875 
Q 18.84375 -1.421875 12.171875 6.21875 
Q 5.515625 13.875 5.515625 27.296875 
Q 5.515625 40.765625 12.171875 48.375 
Q 18.84375 56 30.609375 56 
z
" id="DejaVuSans-111"/>
      <path d="M 44.28125 53.078125 
L 44.28125 44.578125 
Q 40.484375 46.53125 36.375 47.5 
Q 32.28125 48.484375 27.875 48.484375 
Q 21.1875 48.484375 17.84375 46.4375 
Q 14.5 44.390625 14.5 40.28125 
Q 14.5 37.15625 16.890625 35.375 
Q 19.28125 33.59375 26.515625 31.984375 
L 29.59375 31.296875 
Q 39.15625 29.25 43.1875 25.515625 
Q 47.21875 21.78125 47.21875 15.09375 
Q 47.21875 7.46875 41.1875 3.015625 
Q 35.15625 -1.421875 24.609375 -1.421875 
Q 20.21875 -1.421875 15.453125 -0.5625 
Q 10.6875 0.296875 5.421875 2 
L 5.421875 11.28125 
Q 10.40625 8.6875 15.234375 7.390625 
Q 20.0625 6.109375 24.8125 6.109375 
Q 31.15625 6.109375 34.5625 8.28125 
Q 37.984375 10.453125 37.984375 14.40625 
Q 37.984375 18.0625 35.515625 20.015625 
Q 33.0625 21.96875 24.703125 23.78125 
L 21.578125 24.515625 
Q 13.234375 26.265625 9.515625 29.90625 
Q 5.8125 33.546875 5.8125 39.890625 
Q 5.8125 47.609375 11.28125 51.796875 
Q 16.75 56 26.8125 56 
Q 31.78125 56 36.171875 55.265625 
Q 40.578125 54.546875 44.28125 53.078125 
z
" id="DejaVuSans-115"/>
     </defs>
     <g transform="translate(205.662344 335.860562)scale(0.1 -0.1)">
      <use xlink:href="#DejaVuSans-71"/>
      <use x="77.490234" xlink:href="#DejaVuSans-101"/>
      <use x="139.013672" xlink:href="#DejaVuSans-110"/>
      <use x="202.392578" xlink:href="#DejaVuSans-101"/>
      <use x="263.916016" xlink:href="#DejaVuSans-114"/>
      <use x="305.029297" xlink:href="#DejaVuSans-97"/>
      <use x="366.308594" xlink:href="#DejaVuSans-116"/>
      <use x="405.517578" xlink:href="#DejaVuSans-105"/>
      <use x="433.300781" xlink:href="#DejaVuSans-111"/>
      <use x="494.482422" xlink:href="#DejaVuSans-110"/>
      <use x="557.861328" xlink:href="#DejaVuSans-115"/>
     </g>
    </g>
   </g>
   <g id="matplotlib.axis_2">
    <g id="ytick_1">
     <g id="line2d_15">
      <path clip-path="url(#pb4575eec15)" d="M 57.6 270.812729 
L 414.72 270.812729 
" style="fill:none;stroke:#b0b0b0;stroke-linecap:square;stroke-width:0.8;"/>
     </g>
     <g id="line2d_16">
      <defs>
       <path d="M 0 0 
L -3.5 0 
" id="m8767344cb3" style="stroke:#000000;stroke-width:0.8;"/>
      </defs>
      <g>
       <use style="stroke:#000000;stroke-width:0.8;" x="57.6" xlink:href="#m8767344cb3" y="270.812729"/>
      </g>
     </g>
     <g id="text_9">
      <!-- −1000 -->
      <defs>
       <path d="M 10.59375 35.5 
L 73.1875 35.5 
L 73.1875 27.203125 
L 10.59375 27.203125 
z
" id="DejaVuSans-8722"/>
      </defs>
      <g transform="translate(16.770313 274.611948)scale(0.1 -0.1)">
       <use xlink:href="#DejaVuSans-8722"/>
       <use x="83.789062" xlink:href="#DejaVuSans-49"/>
       <use x="147.412109" xlink:href="#DejaVuSans-48"/>
       <use x="211.035156" xlink:href="#DejaVuSans-48"/>
       <use x="274.658203" xlink:href="#DejaVuSans-48"/>
      </g>
     </g>
    </g>
    <g id="ytick_2">
     <g id="line2d_17">
      <path clip-path="url(#pb4575eec15)" d="M 57.6 217.769247 
L 414.72 217.769247 
" style="fill:none;stroke:#b0b0b0;stroke-linecap:square;stroke-width:0.8;"/>
     </g>
     <g id="line2d_18">
      <g>
       <use style="stroke:#000000;stroke-width:0.8;" x="57.6" xlink:href="#m8767344cb3" y="217.769247"/>
      </g>
     </g>
     <g id="text_10">
      <!-- −500 -->
      <g transform="translate(23.132812 221.568466)scale(0.1 -0.1)">
       <use xlink:href="#DejaVuSans-8722"/>
       <use x="83.789062" xlink:href="#DejaVuSans-53"/>
       <use x="147.412109" xlink:href="#DejaVuSans-48"/>
       <use x="211.035156" xlink:href="#DejaVuSans-48"/>
      </g>
     </g>
    </g>
    <g id="ytick_3">
     <g id="line2d_19">
      <path clip-path="url(#pb4575eec15)" d="M 57.6 164.725765 
L 414.72 164.725765 
" style="fill:none;stroke:#b0b0b0;stroke-linecap:square;stroke-width:0.8;"/>
     </g>
     <g id="line2d_20">
      <g>
       <use style="stroke:#000000;stroke-width:0.8;" x="57.6" xlink:href="#m8767344cb3" y="164.725765"/>
      </g>
     </g>
     <g id="text_11">
      <!-- 0 -->
      <g transform="translate(44.2375 168.524984)scale(0.1 -0.1)">
       <use xlink:href="#DejaVuSans-48"/>
      </g>
     </g>
    </g>
    <g id="ytick_4">
     <g id="line2d_21">
      <path clip-path="url(#pb4575eec15)" d="M 57.6 111.682283 
L 414.72 111.682283 
" style="fill:none;stroke:#b0b0b0;stroke-linecap:square;stroke-width:0.8;"/>
     </g>
     <g id="line2d_22">
      <g>
       <use style="stroke:#000000;stroke-width:0.8;" x="57.6" xlink:href="#m8767344cb3" y="111.682283"/>
      </g>
     </g>
     <g id="text_12">
      <!-- 500 -->
      <g transform="translate(31.5125 115.481501)scale(0.1 -0.1)">
       <use xlink:href="#DejaVuSans-53"/>
       <use x="63.623047" xlink:href="#DejaVuSans-48"/>
       <use x="127.246094" xlink:href="#DejaVuSans-48"/>
      </g>
     </g>
    </g>
    <g id="ytick_5">
     <g id="line2d_23">
      <path clip-path="url(#pb4575eec15)" d="M 57.6 58.638801 
L 414.72 58.638801 
" style="fill:none;stroke:#b0b0b0;stroke-linecap:square;stroke-width:0.8;"/>
     </g>
     <g id="line2d_24">
      <g>
       <use style="stroke:#000000;stroke-width:0.8;" x="57.6" xlink:href="#m8767344cb3" y="58.638801"/>
      </g>
     </g>
     <g id="text_13">
      <!-- 1000 -->
      <g transform="translate(25.15 62.438019)scale(0.1 -0.1)">
       <use xlink:href="#DejaVuSans-49"/>
       <use x="63.623047" xlink:href="#DejaVuSans-48"/>
       <use x="127.246094" xlink:href="#DejaVuSans-48"/>
       <use x="190.869141" xlink:href="#DejaVuSans-48"/>
      </g>
     </g>
    </g>
    <g id="text_14">
     <!-- Fitness -->
     <defs>
      <path d="M 9.8125 72.90625 
L 51.703125 72.90625 
L 51.703125 64.59375 
L 19.671875 64.59375 
L 19.671875 43.109375 
L 48.578125 43.109375 
L 48.578125 34.8125 
L 19.671875 34.8125 
L 19.671875 0 
L 9.8125 0 
z
" id="DejaVuSans-70"/>
     </defs>
     <g transform="translate(10.690625 192.202219)rotate(-90)scale(0.1 -0.1)">
      <use xlink:href="#DejaVuSans-70"/>
      <use x="57.410156" xlink:href="#DejaVuSans-105"/>
      <use x="85.193359" xlink:href="#DejaVuSans-116"/>
      <use x="124.402344" xlink:href="#DejaVuSans-110"/>
      <use x="187.78125" xlink:href="#DejaVuSans-101"/>
      <use x="249.304688" xlink:href="#DejaVuSans-115"/>
      <use x="301.404297" xlink:href="#DejaVuSans-115"/>
     </g>
    </g>
   </g>
   <g id="line2d_25">
    <path clip-path="url(#pb4575eec15)" d="M 73.832727 164.709179 
L 74.918528 164.569083 
L 79.261733 164.640541 
L 80.347534 164.722154 
L 83.604938 164.517433 
L 89.033943 164.618651 
L 91.205546 164.592735 
L 92.291347 164.648287 
L 93.377148 164.574957 
L 95.54875 164.613575 
L 97.720353 164.54309 
L 102.063557 164.613714 
L 103.149358 164.505417 
L 132.46599 164.577662 
L 134.637592 164.554535 
L 138.980797 164.553127 
L 140.066598 164.65794 
L 141.152399 164.513568 
L 146.581405 164.622093 
L 147.667206 165.092454 
L 148.753007 164.583933 
L 149.838808 164.631293 
L 153.096212 164.517851 
L 154.182013 165.174322 
L 155.267814 164.575416 
L 157.439416 164.488273 
L 158.525217 164.68816 
L 159.611019 164.531616 
L 160.69682 164.592186 
L 161.782621 164.484283 
L 162.868422 164.877616 
L 165.040024 164.588511 
L 166.125825 164.9805 
L 167.211627 164.579994 
L 169.383229 164.567637 
L 170.46903 165.360246 
L 171.554831 164.556538 
L 173.726434 164.521002 
L 174.812235 164.72264 
L 175.898036 164.556769 
L 178.069638 164.51838 
L 179.155439 164.708216 
L 180.24124 164.573538 
L 181.327042 164.579148 
L 182.412843 165.066668 
L 183.498644 164.732499 
L 186.756047 164.54563 
L 192.185053 164.612522 
L 193.270854 164.52681 
L 195.442457 164.532048 
L 197.614059 164.501392 
L 198.69986 164.588911 
L 199.785661 164.517397 
L 201.957264 164.524953 
L 204.128866 164.53257 
L 205.214667 164.720273 
L 206.300468 164.555012 
L 207.386269 164.511275 
L 208.472071 164.636011 
L 209.557872 164.512458 
L 210.643673 164.731663 
L 211.729474 164.570081 
L 216.072679 164.661939 
L 217.15848 164.928791 
L 219.330082 164.614821 
L 221.501684 164.547216 
L 222.587486 164.5558 
L 223.673287 164.884764 
L 226.93069 164.903031 
L 228.016491 164.520497 
L 232.359696 164.592398 
L 233.445497 164.59534 
L 236.702901 165.009595 
L 237.788702 165.479233 
L 238.874503 164.69109 
L 239.960304 164.617341 
L 241.046105 164.703068 
L 243.217708 164.549223 
L 244.303509 164.650343 
L 245.38931 164.60253 
L 247.560912 164.804607 
L 248.646713 164.590975 
L 250.818316 164.550381 
L 251.904117 164.775885 
L 252.989918 164.520976 
L 254.075719 164.679119 
L 255.16152 164.5255 
L 256.247321 164.674963 
L 258.418924 164.545237 
L 260.590526 164.514854 
L 261.676327 164.942703 
L 262.762128 164.511134 
L 264.933731 164.550513 
L 266.019532 166.191198 
L 267.105333 164.917108 
L 268.191134 165.485012 
L 269.276935 164.661559 
L 270.362736 164.530112 
L 274.705941 164.694367 
L 275.791742 164.942741 
L 276.877543 164.530817 
L 281.220748 164.573291 
L 282.306549 165.315468 
L 283.39235 164.521485 
L 285.563953 164.890661 
L 286.649754 174.528 
L 287.735555 167.350485 
L 288.821356 164.514044 
L 289.907157 164.541186 
L 290.992958 165.744345 
L 293.164561 164.638367 
L 295.336163 164.660588 
L 296.421964 165.942933 
L 297.507765 164.670866 
L 298.593566 164.947903 
L 299.679368 164.560092 
L 301.85097 164.510201 
L 302.936771 164.638998 
L 304.022572 164.521825 
L 305.108373 164.628222 
L 306.194175 164.494096 
L 307.279976 164.623519 
L 308.365777 165.013786 
L 309.451578 164.677658 
L 311.62318 164.555795 
L 312.708981 168.570885 
L 313.794783 164.748182 
L 314.880584 164.616121 
L 315.966385 165.200863 
L 317.052186 164.570903 
L 318.137987 164.88765 
L 319.223788 164.681082 
L 326.824396 164.614981 
L 327.910198 165.64718 
L 328.995999 164.662882 
L 330.0818 164.537626 
L 332.253402 164.718701 
L 337.682408 164.543729 
L 338.768209 164.877924 
L 339.85401 164.683432 
L 342.025613 164.623849 
L 343.111414 166.098208 
L 344.197215 164.538274 
L 345.283016 164.577232 
L 347.454618 165.055861 
L 348.54042 164.686863 
L 349.626221 164.712755 
L 350.712022 164.558764 
L 355.055227 164.610226 
L 356.141028 164.750928 
L 357.226829 164.613252 
L 364.827437 164.762804 
L 365.913238 164.550435 
L 366.999039 164.630564 
L 368.08484 164.899181 
L 369.170642 164.575056 
L 370.256443 164.959373 
L 371.342244 164.704542 
L 373.513846 164.529626 
L 374.599647 164.671791 
L 375.685448 165.056169 
L 376.77125 164.793108 
L 377.857051 164.857894 
L 378.942852 164.631953 
L 381.114454 164.556635 
L 382.200255 164.669881 
L 383.286057 164.505768 
L 384.371858 164.876438 
L 385.457659 165.051284 
L 386.54346 164.604598 
L 387.629261 164.787509 
L 389.800863 164.560199 
L 394.144068 164.658449 
L 395.229869 164.557415 
L 397.401472 164.857866 
L 398.487273 164.657113 
L 398.487273 164.657113 
" style="fill:none;stroke:#0000ff;stroke-linecap:square;stroke-width:1.5;"/>
   </g>
   <g id="line2d_26">
    <path clip-path="url(#pb4575eec15)" d="M 73.832727 165.179738 
L 74.918528 164.805736 
L 78.175932 164.922974 
L 79.261733 165.23128 
L 80.347534 166.596957 
L 81.433335 165.250996 
L 83.604938 164.659516 
L 84.690739 164.957007 
L 85.77654 164.772793 
L 86.862341 165.033092 
L 87.948142 164.891392 
L 89.033943 165.66872 
L 90.119745 164.831799 
L 91.205546 165.071242 
L 92.291347 165.501772 
L 93.377148 164.921523 
L 94.462949 165.217816 
L 95.54875 165.071204 
L 96.634552 164.772559 
L 97.720353 164.790269 
L 98.806154 164.952611 
L 99.891955 164.843481 
L 100.977756 164.905189 
L 102.063557 165.302557 
L 103.149358 164.630933 
L 105.320961 164.853203 
L 106.406762 164.628856 
L 107.492563 164.664259 
L 108.578364 164.932606 
L 109.664165 164.785323 
L 110.749967 165.608124 
L 111.835768 164.732956 
L 112.921569 164.681576 
L 114.00737 164.815413 
L 115.093171 164.683288 
L 116.178972 164.983281 
L 118.350575 164.644151 
L 119.436376 164.790511 
L 120.522177 164.746654 
L 121.607978 164.938013 
L 122.693779 164.808571 
L 123.77958 165.131488 
L 124.865382 164.87977 
L 130.294387 164.694602 
L 131.380189 165.107293 
L 132.46599 165.170313 
L 133.551791 164.72088 
L 134.637592 164.91341 
L 136.809194 164.913972 
L 137.894995 165.248551 
L 138.980797 164.975579 
L 140.066598 165.716179 
L 141.152399 164.676352 
L 143.324001 165.057295 
L 144.409802 164.943627 
L 145.495604 165.104731 
L 146.581405 165.499048 
L 147.667206 171.104529 
L 148.753007 165.089977 
L 149.838808 165.920832 
L 150.924609 165.294452 
L 152.01041 165.151765 
L 153.096212 164.739714 
L 154.182013 172.970827 
L 155.267814 165.020285 
L 157.439416 164.579392 
L 158.525217 165.931013 
L 159.611019 164.841943 
L 160.69682 165.27169 
L 161.782621 164.566599 
L 162.868422 168.834582 
L 165.040024 165.189358 
L 166.125825 169.026534 
L 167.211627 165.022958 
L 168.297428 164.77689 
L 169.383229 164.940042 
L 170.46903 175.492102 
L 171.554831 164.895197 
L 173.726434 164.745472 
L 174.812235 165.917126 
L 175.898036 164.980142 
L 176.983837 165.064523 
L 178.069638 164.681228 
L 179.155439 166.142836 
L 180.24124 164.933729 
L 181.327042 164.925625 
L 182.412843 168.656694 
L 183.498644 167.013998 
L 184.584445 165.871303 
L 185.670246 164.945067 
L 188.92765 165.061738 
L 190.013451 164.679515 
L 191.099252 164.887503 
L 192.185053 165.465583 
L 193.270854 164.770683 
L 194.356656 165.05195 
L 195.442457 164.762928 
L 197.614059 164.643336 
L 198.69986 165.037018 
L 199.785661 164.687058 
L 200.871462 164.883773 
L 201.957264 164.73247 
L 204.128866 164.716952 
L 205.214667 166.529937 
L 206.300468 164.958461 
L 207.386269 164.716858 
L 208.472071 165.439697 
L 209.557872 164.68156 
L 210.643673 166.891074 
L 211.729474 164.915697 
L 212.815275 165.136107 
L 213.901076 165.088773 
L 214.986877 165.293516 
L 216.072679 166.105756 
L 217.15848 169.83709 
L 218.244281 167.043916 
L 219.330082 165.719558 
L 220.415883 164.793801 
L 221.501684 164.932466 
L 222.587486 164.870223 
L 223.673287 169.401327 
L 224.759088 168.757641 
L 226.93069 169.462803 
L 228.016491 164.736098 
L 229.102292 165.118457 
L 230.188094 164.723815 
L 231.273895 164.78668 
L 232.359696 165.221626 
L 233.445497 165.06343 
L 234.531298 167.395989 
L 235.617099 168.212102 
L 236.702901 170.180056 
L 237.788702 176.852907 
L 238.874503 166.094879 
L 239.960304 165.120157 
L 241.046105 166.072933 
L 242.131906 165.077391 
L 243.217708 164.80524 
L 244.303509 165.51824 
L 245.38931 165.283105 
L 246.475111 165.912134 
L 247.560912 166.355428 
L 248.646713 165.278069 
L 249.732514 164.763799 
L 250.818316 164.807629 
L 251.904117 166.35233 
L 252.989918 164.750904 
L 254.075719 166.607456 
L 255.16152 164.732448 
L 256.247321 166.90286 
L 257.333123 165.076351 
L 258.418924 164.841015 
L 260.590526 164.68291 
L 261.676327 168.415211 
L 262.762128 164.667497 
L 263.847929 164.709336 
L 264.933731 164.991691 
L 266.019532 184.792091 
L 267.105333 168.203446 
L 268.191134 174.014892 
L 269.276935 165.727661 
L 270.362736 164.714293 
L 271.448538 164.998407 
L 272.534339 165.973172 
L 273.62014 165.354378 
L 274.705941 166.261576 
L 275.791742 168.441212 
L 276.877543 164.793634 
L 277.963344 164.906631 
L 279.049146 166.818359 
L 280.134947 165.058932 
L 281.220748 165.060021 
L 282.306549 172.191437 
L 283.39235 164.666804 
L 284.478151 165.632546 
L 285.563953 168.110614 
L 286.649754 295.488 
L 287.735555 201.491448 
L 288.821356 164.668533 
L 289.907157 164.949683 
L 290.992958 179.609209 
L 292.07876 172.237703 
L 293.164561 165.708964 
L 294.250362 166.020508 
L 295.336163 165.658848 
L 296.421964 180.340438 
L 297.507765 166.057056 
L 298.593566 168.359402 
L 299.679368 165.165826 
L 300.765169 165.026423 
L 301.85097 164.653804 
L 302.936771 165.43151 
L 304.022572 164.720761 
L 305.108373 165.486479 
L 306.194175 164.617828 
L 307.279976 165.417378 
L 308.365777 169.001687 
L 309.451578 166.193251 
L 310.537379 164.888557 
L 311.62318 164.953677 
L 312.708981 215.981813 
L 313.794783 166.092059 
L 314.880584 165.362433 
L 315.966385 171.233902 
L 317.052186 165.028186 
L 318.137987 167.680047 
L 319.223788 166.816979 
L 320.30959 165.342994 
L 321.395391 165.048579 
L 322.481192 166.177292 
L 323.566993 165.235092 
L 324.652794 165.301273 
L 325.738595 164.868055 
L 326.824396 165.17604 
L 327.910198 177.070332 
L 328.995999 165.590213 
L 330.0818 164.847235 
L 331.167601 165.677186 
L 332.253402 166.338284 
L 333.339203 166.106221 
L 334.425005 164.911257 
L 335.510806 165.012687 
L 337.682408 164.761526 
L 338.768209 167.356376 
L 339.85401 165.690359 
L 340.939811 165.790178 
L 342.025613 165.369101 
L 343.111414 184.779874 
L 344.197215 164.777787 
L 345.283016 165.027098 
L 346.368817 166.573304 
L 347.454618 170.296154 
L 348.54042 165.737285 
L 349.626221 165.844068 
L 350.712022 164.809745 
L 352.883624 165.063696 
L 353.969425 166.490869 
L 355.055227 165.041749 
L 356.141028 166.536024 
L 357.226829 165.096285 
L 358.31263 165.331327 
L 359.398431 165.307139 
L 360.484232 166.265071 
L 361.570033 165.793375 
L 362.655835 164.811359 
L 363.741636 164.930102 
L 364.827437 167.109753 
L 365.913238 164.841622 
L 366.999039 165.010026 
L 368.08484 167.294047 
L 369.170642 164.982321 
L 370.256443 167.441076 
L 371.342244 165.942937 
L 372.428045 165.456872 
L 373.513846 164.810855 
L 374.599647 165.795605 
L 375.685448 168.948749 
L 376.77125 167.008716 
L 377.857051 167.199185 
L 378.942852 165.35735 
L 380.028653 164.769176 
L 381.114454 164.917015 
L 382.200255 165.855447 
L 383.286057 164.662504 
L 384.371858 167.962766 
L 385.457659 169.822406 
L 386.54346 165.264544 
L 387.629261 166.76264 
L 388.715062 165.413898 
L 389.800863 164.854483 
L 390.886665 165.390064 
L 391.972466 165.054086 
L 393.058267 165.114828 
L 394.144068 165.397717 
L 395.229869 164.910702 
L 396.31567 166.384211 
L 397.401472 168.504026 
L 398.487273 165.485633 
L 398.487273 165.485633 
" style="fill:none;stroke:#008000;stroke-dasharray:9.6,2.4,1.5,2.4;stroke-dashoffset:0;stroke-width:1.5;"/>
   </g>
   <g id="line2d_27">
    <path clip-path="url(#pb4575eec15)" d="M 73.832727 164.238619 
L 74.918528 164.33243 
L 78.175932 164.239796 
L 79.261733 164.049802 
L 80.347534 162.847352 
L 81.433335 164.014412 
L 82.519137 164.126679 
L 83.604938 164.37535 
L 84.690739 164.145421 
L 85.77654 164.306378 
L 86.862341 164.13403 
L 87.948142 164.231485 
L 89.033943 163.568582 
L 90.119745 164.27572 
L 91.205546 164.114227 
L 92.291347 163.794801 
L 93.377148 164.22839 
L 94.462949 164.037634 
L 97.720353 164.29591 
L 98.806154 164.16565 
L 99.891955 164.249223 
L 100.977756 164.215169 
L 102.063557 163.924871 
L 103.149358 164.3799 
L 105.320961 164.247165 
L 106.406762 164.402763 
L 109.664165 164.347403 
L 110.749967 163.604716 
L 111.835768 164.309619 
L 112.921569 164.366908 
L 116.178972 164.174409 
L 118.350575 164.391258 
L 119.436376 164.287984 
L 120.522177 164.334139 
L 121.607978 164.20258 
L 122.693779 164.251909 
L 123.77958 163.963871 
L 124.865382 164.251551 
L 125.951183 164.222844 
L 127.036984 164.314383 
L 128.122785 164.22291 
L 129.208586 164.347915 
L 130.294387 164.325053 
L 131.380189 164.036755 
L 132.46599 163.985011 
L 133.551791 164.313674 
L 134.637592 164.195661 
L 136.809194 164.225712 
L 137.894995 163.962275 
L 138.980797 164.130675 
L 140.066598 163.599701 
L 141.152399 164.350784 
L 143.324001 164.044353 
L 144.409802 164.145274 
L 145.495604 164.005353 
L 146.581405 163.745137 
L 147.667206 159.080379 
L 148.753007 164.077889 
L 149.838808 163.341754 
L 150.924609 163.829097 
L 152.01041 163.984981 
L 153.096212 164.295988 
L 154.182013 157.377816 
L 155.267814 164.130547 
L 157.439416 164.397154 
L 158.525217 163.445306 
L 159.611019 164.221289 
L 160.69682 163.912683 
L 161.782621 164.401967 
L 162.868422 160.920651 
L 165.040024 163.987665 
L 166.125825 160.934466 
L 167.211627 164.137029 
L 168.297428 164.29154 
L 169.383229 164.195231 
L 170.46903 155.228389 
L 171.554831 164.217879 
L 173.726434 164.296532 
L 174.812235 163.528153 
L 175.898036 164.133397 
L 176.983837 164.072034 
L 178.069638 164.355532 
L 179.155439 163.273595 
L 180.24124 164.213347 
L 181.327042 164.232671 
L 182.412843 161.476642 
L 184.584445 163.407684 
L 185.670246 164.204776 
L 186.756047 164.072532 
L 187.841849 164.127484 
L 188.92765 164.042537 
L 190.013451 164.346913 
L 191.099252 164.216955 
L 192.185053 163.759461 
L 193.270854 164.282936 
L 194.356656 164.073918 
L 195.442457 164.301168 
L 197.614059 164.359447 
L 198.69986 164.140803 
L 199.785661 164.347735 
L 200.871462 164.248915 
L 204.128866 164.348187 
L 205.214667 162.910609 
L 206.300468 164.151563 
L 207.386269 164.305692 
L 208.472071 163.832325 
L 209.557872 164.343355 
L 210.643673 162.572252 
L 211.729474 164.224466 
L 212.815275 164.033558 
L 213.901076 164.054636 
L 214.986877 163.891479 
L 216.072679 163.218122 
L 217.15848 160.020491 
L 218.244281 162.420962 
L 219.330082 163.510084 
L 220.415883 164.285741 
L 221.501684 164.161965 
L 222.587486 164.241376 
L 223.673287 160.368202 
L 224.759088 161.07899 
L 225.844889 160.552514 
L 226.93069 160.34326 
L 228.016491 164.304896 
L 229.102292 164.010379 
L 230.188094 164.312746 
L 231.273895 164.302517 
L 232.359696 163.96317 
L 233.445497 164.127251 
L 234.531298 162.139201 
L 235.617099 161.865098 
L 236.702901 159.839135 
L 237.788702 154.105559 
L 238.874503 163.2873 
L 239.960304 164.114524 
L 241.046105 163.333203 
L 242.131906 164.124833 
L 243.217708 164.293205 
L 244.303509 163.782446 
L 245.38931 163.921954 
L 246.475111 163.471389 
L 247.560912 163.253787 
L 248.646713 163.903882 
L 249.732514 164.297752 
L 250.818316 164.293132 
L 251.904117 163.19944 
L 252.989918 164.291047 
L 254.075719 162.750782 
L 255.16152 164.318553 
L 256.247321 162.447066 
L 257.333123 164.054796 
L 258.418924 164.24946 
L 260.590526 164.346798 
L 261.676327 161.470195 
L 262.762128 164.354772 
L 263.847929 164.298976 
L 264.933731 164.109334 
L 266.019532 147.590306 
L 267.105333 161.63077 
L 268.191134 156.955133 
L 269.276935 163.595458 
L 270.362736 164.345931 
L 271.448538 164.165474 
L 272.534339 163.410127 
L 273.62014 163.903905 
L 274.705941 163.127158 
L 275.791742 161.44427 
L 276.877543 164.267999 
L 277.963344 164.18754 
L 279.049146 162.505892 
L 280.134947 164.070032 
L 281.220748 164.08656 
L 282.306549 158.439499 
L 283.39235 164.376166 
L 284.478151 163.687421 
L 285.563953 161.670707 
L 286.649754 53.568 
L 287.735555 133.209521 
L 288.821356 164.359556 
L 289.907157 164.13269 
L 290.992958 151.879482 
L 292.07876 158.177547 
L 293.164561 163.56777 
L 294.250362 163.347881 
L 295.336163 163.662327 
L 296.421964 151.545428 
L 297.507765 163.284677 
L 298.593566 161.536404 
L 299.679368 163.954359 
L 300.765169 164.060834 
L 301.85097 164.366598 
L 302.936771 163.846486 
L 304.022572 164.322889 
L 305.108373 163.769964 
L 306.194175 164.370363 
L 307.279976 163.82966 
L 308.365777 161.025885 
L 309.451578 163.162066 
L 310.537379 164.252228 
L 311.62318 164.157914 
L 312.708981 121.159957 
L 313.794783 163.404306 
L 314.880584 163.869809 
L 315.966385 159.167825 
L 317.052186 164.11362 
L 318.137987 162.095253 
L 319.223788 162.545185 
L 320.30959 163.977684 
L 321.395391 164.17032 
L 322.481192 163.258655 
L 323.566993 164.028225 
L 324.652794 163.969877 
L 325.738595 164.257702 
L 326.824396 164.053921 
L 327.910198 154.224028 
L 328.995999 163.735552 
L 330.0818 164.228018 
L 332.253402 163.099118 
L 333.339203 163.24024 
L 334.425005 164.209337 
L 336.596607 164.182869 
L 337.682408 164.325932 
L 338.768209 162.399471 
L 339.85401 163.676506 
L 340.939811 163.605007 
L 342.025613 163.878597 
L 343.111414 147.416542 
L 344.197215 164.298761 
L 345.283016 164.127366 
L 346.368817 163.074968 
L 347.454618 159.815568 
L 348.54042 163.63644 
L 349.626221 163.581443 
L 350.712022 164.307782 
L 352.883624 164.145269 
L 353.969425 162.916745 
L 355.055227 164.178702 
L 356.141028 162.965831 
L 357.226829 164.13022 
L 358.31263 163.910445 
L 359.398431 163.971081 
L 360.484232 163.196318 
L 361.570033 163.584913 
L 362.655835 164.305361 
L 363.741636 164.212797 
L 364.827437 162.415855 
L 365.913238 164.259247 
L 366.999039 164.251101 
L 368.08484 162.504314 
L 369.170642 164.167791 
L 370.256443 162.477671 
L 371.342244 163.466147 
L 373.513846 164.248397 
L 374.599647 163.547977 
L 375.685448 161.16359 
L 376.77125 162.577499 
L 377.857051 162.516603 
L 378.942852 163.906555 
L 380.028653 164.322688 
L 381.114454 164.196256 
L 382.200255 163.484314 
L 383.286057 164.349032 
L 384.371858 161.79011 
L 385.457659 160.280163 
L 386.54346 163.944653 
L 387.629261 162.812378 
L 388.715062 163.892669 
L 389.800863 164.265915 
L 390.886665 163.804819 
L 391.972466 164.159244 
L 394.144068 163.91918 
L 395.229869 164.204127 
L 396.31567 162.996496 
L 397.401472 161.211705 
L 398.487273 163.828592 
L 398.487273 163.828592 
" style="fill:none;stroke:#008000;stroke-dasharray:9.6,2.4,1.5,2.4;stroke-dashoffset:0;stroke-width:1.5;"/>
   </g>
   <g id="line2d_28">
    <path clip-path="url(#pb4575eec15)" d="M 73.832727 164.410134 
L 170.46903 164.356612 
L 398.487273 164.317355 
L 398.487273 164.317355 
" style="fill:none;stroke:#ff0000;stroke-linecap:square;stroke-width:1.5;"/>
   </g>
   <g id="patch_3">
    <path d="M 57.6 307.584 
L 57.6 41.472 
" style="fill:none;stroke:#000000;stroke-linecap:square;stroke-linejoin:miter;stroke-width:0.8;"/>
   </g>
   <g id="patch_4">
    <path d="M 414.72 307.584 
L 414.72 41.472 
" style="fill:none;stroke:#000000;stroke-linecap:square;stroke-linejoin:miter;stroke-width:0.8;"/>
   </g>
   <g id="patch_5">
    <path d="M 57.6 307.584 
L 414.72 307.584 
" style="fill:none;stroke:#000000;stroke-linecap:square;stroke-linejoin:miter;stroke-width:0.8;"/>
   </g>
   <g id="patch_6">
    <path d="M 57.6 41.472 
L 414.72 41.472 
" style="fill:none;stroke:#000000;stroke-linecap:square;stroke-linejoin:miter;stroke-width:0.8;"/>
   </g>
   <g id="text_15">
    <!-- Population's average and best fitness -->
    <defs>
     <path d="M 19.671875 64.796875 
L 19.671875 37.40625 
L 32.078125 37.40625 
Q 38.96875 37.40625 42.71875 40.96875 
Q 46.484375 44.53125 46.484375 51.125 
Q 46.484375 57.671875 42.71875 61.234375 
Q 38.96875 64.796875 32.078125 64.796875 
z
M 9.8125 72.90625 
L 32.078125 72.90625 
Q 44.34375 72.90625 50.609375 67.359375 
Q 56.890625 61.8125 56.890625 51.125 
Q 56.890625 40.328125 50.609375 34.8125 
Q 44.34375 29.296875 32.078125 29.296875 
L 19.671875 29.296875 
L 19.671875 0 
L 9.8125 0 
z
" id="DejaVuSans-80"/>
     <path d="M 18.109375 8.203125 
L 18.109375 -20.796875 
L 9.078125 -20.796875 
L 9.078125 54.6875 
L 18.109375 54.6875 
L 18.109375 46.390625 
Q 20.953125 51.265625 25.265625 53.625 
Q 29.59375 56 35.59375 56 
Q 45.5625 56 51.78125 48.09375 
Q 58.015625 40.1875 58.015625 27.296875 
Q 58.015625 14.40625 51.78125 6.484375 
Q 45.5625 -1.421875 35.59375 -1.421875 
Q 29.59375 -1.421875 25.265625 0.953125 
Q 20.953125 3.328125 18.109375 8.203125 
z
M 48.6875 27.296875 
Q 48.6875 37.203125 44.609375 42.84375 
Q 40.53125 48.484375 33.40625 48.484375 
Q 26.265625 48.484375 22.1875 42.84375 
Q 18.109375 37.203125 18.109375 27.296875 
Q 18.109375 17.390625 22.1875 11.75 
Q 26.265625 6.109375 33.40625 6.109375 
Q 40.53125 6.109375 44.609375 11.75 
Q 48.6875 17.390625 48.6875 27.296875 
z
" id="DejaVuSans-112"/>
     <path d="M 8.5 21.578125 
L 8.5 54.6875 
L 17.484375 54.6875 
L 17.484375 21.921875 
Q 17.484375 14.15625 20.5 10.265625 
Q 23.53125 6.390625 29.59375 6.390625 
Q 36.859375 6.390625 41.078125 11.03125 
Q 45.3125 15.671875 45.3125 23.6875 
L 45.3125 54.6875 
L 54.296875 54.6875 
L 54.296875 0 
L 45.3125 0 
L 45.3125 8.40625 
Q 42.046875 3.421875 37.71875 1 
Q 33.40625 -1.421875 27.6875 -1.421875 
Q 18.265625 -1.421875 13.375 4.4375 
Q 8.5 10.296875 8.5 21.578125 
z
M 31.109375 56 
z
" id="DejaVuSans-117"/>
     <path d="M 9.421875 75.984375 
L 18.40625 75.984375 
L 18.40625 0 
L 9.421875 0 
z
" id="DejaVuSans-108"/>
     <path d="M 17.921875 72.90625 
L 17.921875 45.796875 
L 9.625 45.796875 
L 9.625 72.90625 
z
" id="DejaVuSans-39"/>
     <path id="DejaVuSans-32"/>
     <path d="M 2.984375 54.6875 
L 12.5 54.6875 
L 29.59375 8.796875 
L 46.6875 54.6875 
L 56.203125 54.6875 
L 35.6875 0 
L 23.484375 0 
z
" id="DejaVuSans-118"/>
     <path d="M 45.40625 27.984375 
Q 45.40625 37.75 41.375 43.109375 
Q 37.359375 48.484375 30.078125 48.484375 
Q 22.859375 48.484375 18.828125 43.109375 
Q 14.796875 37.75 14.796875 27.984375 
Q 14.796875 18.265625 18.828125 12.890625 
Q 22.859375 7.515625 30.078125 7.515625 
Q 37.359375 7.515625 41.375 12.890625 
Q 45.40625 18.265625 45.40625 27.984375 
z
M 54.390625 6.78125 
Q 54.390625 -7.171875 48.1875 -13.984375 
Q 42 -20.796875 29.203125 -20.796875 
Q 24.46875 -20.796875 20.265625 -20.09375 
Q 16.0625 -19.390625 12.109375 -17.921875 
L 12.109375 -9.1875 
Q 16.0625 -11.328125 19.921875 -12.34375 
Q 23.78125 -13.375 27.78125 -13.375 
Q 36.625 -13.375 41.015625 -8.765625 
Q 45.40625 -4.15625 45.40625 5.171875 
L 45.40625 9.625 
Q 42.625 4.78125 38.28125 2.390625 
Q 33.9375 0 27.875 0 
Q 17.828125 0 11.671875 7.65625 
Q 5.515625 15.328125 5.515625 27.984375 
Q 5.515625 40.671875 11.671875 48.328125 
Q 17.828125 56 27.875 56 
Q 33.9375 56 38.28125 53.609375 
Q 42.625 51.21875 45.40625 46.390625 
L 45.40625 54.6875 
L 54.390625 54.6875 
z
" id="DejaVuSans-103"/>
     <path d="M 45.40625 46.390625 
L 45.40625 75.984375 
L 54.390625 75.984375 
L 54.390625 0 
L 45.40625 0 
L 45.40625 8.203125 
Q 42.578125 3.328125 38.25 0.953125 
Q 33.9375 -1.421875 27.875 -1.421875 
Q 17.96875 -1.421875 11.734375 6.484375 
Q 5.515625 14.40625 5.515625 27.296875 
Q 5.515625 40.1875 11.734375 48.09375 
Q 17.96875 56 27.875 56 
Q 33.9375 56 38.25 53.625 
Q 42.578125 51.265625 45.40625 46.390625 
z
M 14.796875 27.296875 
Q 14.796875 17.390625 18.875 11.75 
Q 22.953125 6.109375 30.078125 6.109375 
Q 37.203125 6.109375 41.296875 11.75 
Q 45.40625 17.390625 45.40625 27.296875 
Q 45.40625 37.203125 41.296875 42.84375 
Q 37.203125 48.484375 30.078125 48.484375 
Q 22.953125 48.484375 18.875 42.84375 
Q 14.796875 37.203125 14.796875 27.296875 
z
" id="DejaVuSans-100"/>
     <path d="M 48.6875 27.296875 
Q 48.6875 37.203125 44.609375 42.84375 
Q 40.53125 48.484375 33.40625 48.484375 
Q 26.265625 48.484375 22.1875 42.84375 
Q 18.109375 37.203125 18.109375 27.296875 
Q 18.109375 17.390625 22.1875 11.75 
Q 26.265625 6.109375 33.40625 6.109375 
Q 40.53125 6.109375 44.609375 11.75 
Q 48.6875 17.390625 48.6875 27.296875 
z
M 18.109375 46.390625 
Q 20.953125 51.265625 25.265625 53.625 
Q 29.59375 56 35.59375 56 
Q 45.5625 56 51.78125 48.09375 
Q 58.015625 40.1875 58.015625 27.296875 
Q 58.015625 14.40625 51.78125 6.484375 
Q 45.5625 -1.421875 35.59375 -1.421875 
Q 29.59375 -1.421875 25.265625 0.953125 
Q 20.953125 3.328125 18.109375 8.203125 
L 18.109375 0 
L 9.078125 0 
L 9.078125 75.984375 
L 18.109375 75.984375 
z
" id="DejaVuSans-98"/>
     <path d="M 37.109375 75.984375 
L 37.109375 68.5 
L 28.515625 68.5 
Q 23.6875 68.5 21.796875 66.546875 
Q 19.921875 64.59375 19.921875 59.515625 
L 19.921875 54.6875 
L 34.71875 54.6875 
L 34.71875 47.703125 
L 19.921875 47.703125 
L 19.921875 0 
L 10.890625 0 
L 10.890625 47.703125 
L 2.296875 47.703125 
L 2.296875 54.6875 
L 10.890625 54.6875 
L 10.890625 58.5 
Q 10.890625 67.625 15.140625 71.796875 
Q 19.390625 75.984375 28.609375 75.984375 
z
" id="DejaVuSans-102"/>
    </defs>
    <g transform="translate(123.315 35.472)scale(0.12 -0.12)">
     <use xlink:href="#DejaVuSans-80"/>
     <use x="60.255859" xlink:href="#DejaVuSans-111"/>
     <use x="121.4375" xlink:href="#DejaVuSans-112"/>
     <use x="184.914062" xlink:href="#DejaVuSans-117"/>
     <use x="248.292969" xlink:href="#DejaVuSans-108"/>
     <use x="276.076172" xlink:href="#DejaVuSans-97"/>
     <use x="337.355469" xlink:href="#DejaVuSans-116"/>
     <use x="376.564453" xlink:href="#DejaVuSans-105"/>
     <use x="404.347656" xlink:href="#DejaVuSans-111"/>
     <use x="465.529297" xlink:href="#DejaVuSans-110"/>
     <use x="528.908203" xlink:href="#DejaVuSans-39"/>
     <use x="556.398438" xlink:href="#DejaVuSans-115"/>
     <use x="608.498047" xlink:href="#DejaVuSans-32"/>
     <use x="640.285156" xlink:href="#DejaVuSans-97"/>
     <use x="701.564453" xlink:href="#DejaVuSans-118"/>
     <use x="760.744141" xlink:href="#DejaVuSans-101"/>
     <use x="822.267578" xlink:href="#DejaVuSans-114"/>
     <use x="863.380859" xlink:href="#DejaVuSans-97"/>
     <use x="924.660156" xlink:href="#DejaVuSans-103"/>
     <use x="988.136719" xlink:href="#DejaVuSans-101"/>
     <use x="1049.660156" xlink:href="#DejaVuSans-32"/>
     <use x="1081.447266" xlink:href="#DejaVuSans-97"/>
     <use x="1142.726562" xlink:href="#DejaVuSans-110"/>
     <use x="1206.105469" xlink:href="#DejaVuSans-100"/>
     <use x="1269.582031" xlink:href="#DejaVuSans-32"/>
     <use x="1301.369141" xlink:href="#DejaVuSans-98"/>
     <use x="1364.845703" xlink:href="#DejaVuSans-101"/>
     <use x="1426.369141" xlink:href="#DejaVuSans-115"/>
     <use x="1478.46875" xlink:href="#DejaVuSans-116"/>
     <use x="1517.677734" xlink:href="#DejaVuSans-32"/>
     <use x="1549.464844" xlink:href="#DejaVuSans-102"/>
     <use x="1584.669922" xlink:href="#DejaVuSans-105"/>
     <use x="1612.453125" xlink:href="#DejaVuSans-116"/>
     <use x="1651.662109" xlink:href="#DejaVuSans-110"/>
     <use x="1715.041016" xlink:href="#DejaVuSans-101"/>
     <use x="1776.564453" xlink:href="#DejaVuSans-115"/>
     <use x="1828.664062" xlink:href="#DejaVuSans-115"/>
    </g>
   </g>
   <g id="legend_1">
    <g id="patch_7">
     <path d="M 334.779375 108.1845 
L 407.72 108.1845 
Q 409.72 108.1845 409.72 106.1845 
L 409.72 48.472 
Q 409.72 46.472 407.72 46.472 
L 334.779375 46.472 
Q 332.779375 46.472 332.779375 48.472 
L 332.779375 106.1845 
Q 332.779375 108.1845 334.779375 108.1845 
z
" style="fill:#ffffff;opacity:0.8;stroke:#cccccc;stroke-linejoin:miter;"/>
    </g>
    <g id="line2d_29">
     <path d="M 336.779375 54.570438 
L 356.779375 54.570438 
" style="fill:none;stroke:#0000ff;stroke-linecap:square;stroke-width:1.5;"/>
    </g>
    <g id="line2d_30"/>
    <g id="text_16">
     <!-- average -->
     <g transform="translate(364.779375 58.070438)scale(0.1 -0.1)">
      <use xlink:href="#DejaVuSans-97"/>
      <use x="61.279297" xlink:href="#DejaVuSans-118"/>
      <use x="120.458984" xlink:href="#DejaVuSans-101"/>
      <use x="181.982422" xlink:href="#DejaVuSans-114"/>
      <use x="223.095703" xlink:href="#DejaVuSans-97"/>
      <use x="284.375" xlink:href="#DejaVuSans-103"/>
      <use x="347.851562" xlink:href="#DejaVuSans-101"/>
     </g>
    </g>
    <g id="line2d_31">
     <path d="M 336.779375 69.248563 
L 356.779375 69.248563 
" style="fill:none;stroke:#008000;stroke-dasharray:9.6,2.4,1.5,2.4;stroke-dashoffset:0;stroke-width:1.5;"/>
    </g>
    <g id="line2d_32"/>
    <g id="text_17">
     <!-- -1 sd -->
     <defs>
      <path d="M 4.890625 31.390625 
L 31.203125 31.390625 
L 31.203125 23.390625 
L 4.890625 23.390625 
z
" id="DejaVuSans-45"/>
     </defs>
     <g transform="translate(364.779375 72.748563)scale(0.1 -0.1)">
      <use xlink:href="#DejaVuSans-45"/>
      <use x="36.083984" xlink:href="#DejaVuSans-49"/>
      <use x="99.707031" xlink:href="#DejaVuSans-32"/>
      <use x="131.494141" xlink:href="#DejaVuSans-115"/>
      <use x="183.59375" xlink:href="#DejaVuSans-100"/>
     </g>
    </g>
    <g id="line2d_33">
     <path d="M 336.779375 83.926688 
L 356.779375 83.926688 
" style="fill:none;stroke:#008000;stroke-dasharray:9.6,2.4,1.5,2.4;stroke-dashoffset:0;stroke-width:1.5;"/>
    </g>
    <g id="line2d_34"/>
    <g id="text_18">
     <!-- +1 sd -->
     <defs>
      <path d="M 46 62.703125 
L 46 35.5 
L 73.1875 35.5 
L 73.1875 27.203125 
L 46 27.203125 
L 46 0 
L 37.796875 0 
L 37.796875 27.203125 
L 10.59375 27.203125 
L 10.59375 35.5 
L 37.796875 35.5 
L 37.796875 62.703125 
z
" id="DejaVuSans-43"/>
     </defs>
     <g transform="translate(364.779375 87.426688)scale(0.1 -0.1)">
      <use xlink:href="#DejaVuSans-43"/>
      <use x="83.789062" xlink:href="#DejaVuSans-49"/>
      <use x="147.412109" xlink:href="#DejaVuSans-32"/>
      <use x="179.199219" xlink:href="#DejaVuSans-115"/>
      <use x="231.298828" xlink:href="#DejaVuSans-100"/>
     </g>
    </g>
    <g id="line2d_35">
     <path d="M 336.779375 98.604813 
L 356.779375 98.604813 
" style="fill:none;stroke:#ff0000;stroke-linecap:square;stroke-width:1.5;"/>
    </g>
    <g id="line2d_36"/>
    <g id="text_19">
     <!-- best -->
     <g transform="translate(364.779375 102.104813)scale(0.1 -0.1)">
      <use xlink:href="#DejaVuSans-98"/>
      <use x="63.476562" xlink:href="#DejaVuSans-101"/>
      <use x="125" xlink:href="#DejaVuSans-115"/>
      <use x="177.099609" xlink:href="#DejaVuSans-116"/>
     </g>
    </g>
   </g>
  </g>
 </g>
 <defs>
  <clipPath id="pb4575eec15">
   <rect height="266.112" width="357.12" x="57.6" y="41.472"/>
  </clipPath>
 </defs>
</svg>
