<?xml version="1.0" encoding="UTF-8" standalone="no"?>
<!DOCTYPE svg PUBLIC "-//W3C//DTD SVG 1.1//EN"
 "http://www.w3.org/Graphics/SVG/1.1/DTD/svg11.dtd">
<!-- Generated by graphviz version 2.40.1 (20161225.0304)
 -->
<!-- Title: %3 Pages: 1 -->
<svg width="118pt" height="451pt"
 viewBox="0.00 0.00 117.86 451.09" xmlns="http://www.w3.org/2000/svg" xmlns:xlink="http://www.w3.org/1999/xlink">
<g id="graph0" class="graph" transform="scale(1 1) rotate(0) translate(4 447.0904)">
<title>%3</title>
<polygon fill="#ffffff" stroke="transparent" points="-4,4 -4,-447.0904 113.8597,-447.0904 113.8597,4 -4,4"/>
<!-- A -->
<g id="node1" class="node">
<title>A</title>
<polygon fill="#d3d3d3" stroke="#000000" points="50.5052,-215.9282 27.4948,-215.9282 27.4948,-198.9282 50.5052,-198.9282 50.5052,-215.9282"/>
<text text-anchor="middle" x="39" y="-204.7282" font-family="Times,serif" font-size="9.00" fill="#000000">A</text>
</g>
<!-- A XOR B -->
<g id="node3" class="node">
<title>A XOR B</title>
<ellipse fill="#add8e6" stroke="#000000" cx="38" cy="-36.4246" rx="36.3494" ry="36.3494"/>
<text text-anchor="middle" x="38" y="-33.7246" font-family="Times,serif" font-size="9.00" fill="#000000">A XOR B</text>
</g>
<!-- A&#45;&gt;A XOR B -->
<g id="edge6" class="edge">
<title>A&#45;&gt;A XOR B</title>
<path fill="none" stroke="#00ff00" stroke-width=".3192" d="M38.949,-198.713C38.8264,-177.7384 38.5076,-123.2183 38.2731,-83.1337"/>
<polygon fill="#00ff00" stroke="#00ff00" stroke-width=".3192" points="41.7726,-83.0049 38.214,-73.0256 34.7727,-83.0459 41.7726,-83.0049"/>
</g>
<!-- 310 -->
<g id="node6" class="node">
<title>310</title>
<ellipse fill="#ffffff" stroke="#000000" cx="87" cy="-129.7089" rx="20.7202" ry="20.7202"/>
<text text-anchor="middle" x="87" y="-127.0089" font-family="Times,serif" font-size="9.00" fill="#000000">310</text>
</g>
<!-- A&#45;&gt;310 -->
<g id="edge1" class="edge">
<title>A&#45;&gt;310</title>
<path fill="none" stroke="#00ff00" stroke-width=".3574" d="M44.3202,-198.8139C50.6269,-188.6025 61.4372,-171.0989 70.5997,-156.2635"/>
<polygon fill="#00ff00" stroke="#00ff00" stroke-width=".3574" points="73.7598,-157.8074 76.0367,-147.4601 67.8041,-154.1291 73.7598,-157.8074"/>
</g>
<!-- B -->
<g id="node2" class="node">
<title>B</title>
<polygon fill="#d3d3d3" stroke="#000000" points="37.0029,-443.0904 14.9971,-443.0904 14.9971,-426.0904 37.0029,-426.0904 37.0029,-443.0904"/>
<text text-anchor="middle" x="26" y="-431.8904" font-family="Times,serif" font-size="9.00" fill="#000000">B</text>
</g>
<!-- B&#45;&gt;A XOR B -->
<g id="edge4" class="edge">
<title>B&#45;&gt;A XOR B</title>
<path fill="none" stroke="#00ff00" stroke-width=".2187" d="M23.412,-425.9233C16.8356,-403.1063 0,-339.397 0,-285.1475 0,-285.1475 0,-285.1475 0,-207.4282 0,-163.5555 12.0669,-114.8266 22.6009,-80.6464"/>
<polygon fill="#00ff00" stroke="#00ff00" stroke-width=".2187" points="25.9833,-81.5583 25.6625,-70.9683 19.3093,-79.4469 25.9833,-81.5583"/>
</g>
<!-- 7226 -->
<g id="node7" class="node">
<title>7226</title>
<ellipse fill="#ffffff" stroke="#000000" cx="70" cy="-366.0488" rx="24.0833" ry="24.0833"/>
<text text-anchor="middle" x="70" y="-363.3488" font-family="Times,serif" font-size="9.00" fill="#000000">7226</text>
</g>
<!-- B&#45;&gt;7226 -->
<g id="edge7" class="edge">
<title>B&#45;&gt;7226</title>
<path fill="none" stroke="#00ff00" stroke-width=".3" d="M31.5726,-425.9096C36.5722,-418.1214 44.2016,-406.2367 51.3482,-395.1039"/>
<polygon fill="#00ff00" stroke="#00ff00" stroke-width=".3" points="54.4599,-396.7355 56.9167,-386.4294 48.5692,-392.9539 54.4599,-396.7355"/>
</g>
<!-- 904 -->
<g id="node4" class="node">
<title>904</title>
<ellipse fill="#ffffff" stroke="#000000" cx="79" cy="-285.1475" rx="20.7202" ry="20.7202"/>
<text text-anchor="middle" x="79" y="-282.4475" font-family="Times,serif" font-size="9.00" fill="#000000">904</text>
</g>
<!-- 241 -->
<g id="node5" class="node">
<title>241</title>
<ellipse fill="#ffffff" stroke="#000000" cx="89" cy="-207.4282" rx="20.7202" ry="20.7202"/>
<text text-anchor="middle" x="89" y="-204.7282" font-family="Times,serif" font-size="9.00" fill="#000000">241</text>
</g>
<!-- 904&#45;&gt;241 -->
<g id="edge5" class="edge">
<title>904&#45;&gt;241</title>
<path fill="none" stroke="#00ff00" stroke-width=".6764" d="M81.6798,-264.3202C82.6999,-256.3925 83.8854,-247.1783 85.0016,-238.5037"/>
<polygon fill="#00ff00" stroke="#00ff00" stroke-width=".6764" points="88.5079,-238.678 86.3128,-228.313 81.5652,-237.7846 88.5079,-238.678"/>
</g>
<!-- 241&#45;&gt;310 -->
<g id="edge3" class="edge">
<title>241&#45;&gt;310</title>
<path fill="none" stroke="#00ff00" stroke-width=".4623" d="M88.4535,-186.1911C88.2512,-178.3308 88.0175,-169.2501 87.7975,-160.6999"/>
<polygon fill="#00ff00" stroke="#00ff00" stroke-width=".4623" points="91.2951,-160.5579 87.5389,-150.6513 84.2974,-160.738 91.2951,-160.5579"/>
</g>
<!-- 310&#45;&gt;A XOR B -->
<g id="edge2" class="edge">
<title>310&#45;&gt;A XOR B</title>
<path fill="none" stroke="#ff0000" stroke-width=".617" d="M77.0841,-110.8314C72.0972,-101.3376 65.8428,-89.4307 59.8089,-77.9435"/>
<polygon fill="#ff0000" stroke="#ff0000" stroke-width=".617" points="62.7943,-76.1004 55.0454,-68.875 56.5972,-79.3556 62.7943,-76.1004"/>
</g>
<!-- 7226&#45;&gt;904 -->
<g id="edge8" class="edge">
<title>7226&#45;&gt;904</title>
<path fill="none" stroke="#00ff00" stroke-width=".374" d="M72.7003,-341.7757C73.5985,-333.702 74.6112,-324.5988 75.5577,-316.0905"/>
<polygon fill="#00ff00" stroke="#00ff00" stroke-width=".374" points="79.0401,-316.4421 76.6673,-306.1164 72.083,-315.6681 79.0401,-316.4421"/>
</g>
</g>
</svg>
