<?xml version="1.0" encoding="UTF-8" standalone="no"?>
<!DOCTYPE svg PUBLIC "-//W3C//DTD SVG 1.1//EN"
 "http://www.w3.org/Graphics/SVG/1.1/DTD/svg11.dtd">
<!-- Generated by graphviz version 2.40.1 (20161225.0304)
 -->
<!-- Title: %3 Pages: 1 -->
<svg width="188pt" height="302pt"
 viewBox="0.00 0.00 188.04 301.55" xmlns="http://www.w3.org/2000/svg" xmlns:xlink="http://www.w3.org/1999/xlink">
<g id="graph0" class="graph" transform="scale(1 1) rotate(0) translate(4 297.5497)">
<title>%3</title>
<polygon fill="#ffffff" stroke="transparent" points="-4,4 -4,-297.5497 184.0431,-297.5497 184.0431,4 -4,4"/>
<!-- A -->
<g id="node1" class="node">
<title>A</title>
<polygon fill="#d3d3d3" stroke="#000000" points="107.5468,-293.5497 84.5364,-293.5497 84.5364,-276.5497 107.5468,-276.5497 107.5468,-293.5497"/>
<text text-anchor="middle" x="96.0416" y="-282.3497" font-family="Times,serif" font-size="9.00" fill="#000000">A</text>
</g>
<!-- A XOR B -->
<g id="node3" class="node">
<title>A XOR B</title>
<ellipse fill="#add8e6" stroke="#000000" cx="139.0416" cy="-120.5079" rx="36.3494" ry="36.3494"/>
<text text-anchor="middle" x="139.0416" y="-117.8079" font-family="Times,serif" font-size="9.00" fill="#000000">A XOR B</text>
</g>
<!-- A&#45;&gt;A XOR B -->
<g id="edge4" class="edge">
<title>A&#45;&gt;A XOR B</title>
<path fill="none" stroke="#00ff00" stroke-width=".391" d="M97.4895,-276.3347C100.2984,-259.8907 106.9302,-223.2171 115.0416,-192.9325 117.5343,-183.6261 120.5479,-173.7615 123.5852,-164.4073"/>
<polygon fill="#00ff00" stroke="#00ff00" stroke-width=".391" points="126.9161,-165.482 126.7381,-154.8887 120.2712,-163.2809 126.9161,-165.482"/>
</g>
<!-- 2311 -->
<g id="node5" class="node">
<title>2311</title>
<ellipse fill="#ffffff" stroke="#000000" cx="44.0416" cy="-216.7411" rx="23.6187" ry="23.6187"/>
<text text-anchor="middle" x="44.0416" y="-214.0411" font-family="Times,serif" font-size="9.00" fill="#000000">2311</text>
</g>
<!-- A&#45;&gt;2311 -->
<g id="edge5" class="edge">
<title>A&#45;&gt;2311</title>
<path fill="none" stroke="#ff0000" stroke-width=".28" stroke-dasharray="1,5" d="M89.4558,-276.3983C83.2542,-268.2518 73.629,-255.6079 64.8331,-244.0533"/>
<polygon fill="#ff0000" stroke="#ff0000" stroke-width=".28" points="67.4778,-241.7491 58.6357,-235.9122 61.908,-245.9891 67.4778,-241.7491"/>
</g>
<!-- 135 -->
<g id="node6" class="node">
<title>135</title>
<ellipse fill="#ffffff" stroke="#000000" cx="145.0416" cy="-216.7411" rx="20.7202" ry="20.7202"/>
<text text-anchor="middle" x="145.0416" y="-214.0411" font-family="Times,serif" font-size="9.00" fill="#000000">135</text>
</g>
<!-- A&#45;&gt;135 -->
<g id="edge3" class="edge">
<title>A&#45;&gt;135</title>
<path fill="none" stroke="#ff0000" stroke-width="1.0002" d="M102.2475,-276.3983C108.3814,-267.8474 118.0697,-254.3414 126.6779,-242.3412"/>
<polygon fill="#ff0000" stroke="#ff0000" stroke-width="1.0002" points="129.7039,-244.1274 132.6887,-233.9617 124.016,-240.0472 129.7039,-244.1274"/>
</g>
<!-- B -->
<g id="node2" class="node">
<title>B</title>
<polygon fill="#d3d3d3" stroke="#000000" points="180.0446,-293.5497 158.0387,-293.5497 158.0387,-276.5497 180.0446,-276.5497 180.0446,-293.5497"/>
<text text-anchor="middle" x="169.0416" y="-282.3497" font-family="Times,serif" font-size="9.00" fill="#000000">B</text>
</g>
<!-- B&#45;&gt;A XOR B -->
<g id="edge7" class="edge">
<title>B&#45;&gt;A XOR B</title>
<path fill="none" stroke="#ff0000" stroke-width=".3956" d="M171.2981,-276.2731C175.1839,-259.7264 182.0761,-222.8884 175.0416,-192.9325 172.4857,-182.0481 168.0369,-170.928 163.1202,-160.7718"/>
<polygon fill="#ff0000" stroke="#ff0000" stroke-width=".3956" points="166.1785,-159.0649 158.514,-151.7501 159.9441,-162.248 166.1785,-159.0649"/>
</g>
<!-- B&#45;&gt;135 -->
<g id="edge1" class="edge">
<title>B&#45;&gt;135</title>
<path fill="none" stroke="#00ff00" stroke-width=".9847" d="M166.002,-276.3983C163.3173,-268.7572 159.2425,-257.1594 155.3972,-246.2151"/>
<polygon fill="#00ff00" stroke="#00ff00" stroke-width=".9847" points="158.5939,-244.7546 151.9769,-236.4801 151.9897,-247.075 158.5939,-244.7546"/>
</g>
<!-- 2471 -->
<g id="node4" class="node">
<title>2471</title>
<ellipse fill="#ffffff" stroke="#000000" cx="24.0416" cy="-24.0416" rx="24.0833" ry="24.0833"/>
<text text-anchor="middle" x="24.0416" y="-21.3416" font-family="Times,serif" font-size="9.00" fill="#000000">2471</text>
</g>
<!-- 2311&#45;&gt;A XOR B -->
<g id="edge6" class="edge">
<title>2311&#45;&gt;A XOR B</title>
<path fill="none" stroke="#ff0000" stroke-width=".3461" stroke-dasharray="1,5" d="M61.0257,-199.5365C73.5009,-186.8994 90.8462,-169.329 106.0145,-153.9638"/>
<polygon fill="#ff0000" stroke="#ff0000" stroke-width=".3461" points="108.7204,-156.2047 113.255,-146.6293 103.7388,-151.287 108.7204,-156.2047"/>
</g>
<!-- 2311&#45;&gt;2471 -->
<g id="edge8" class="edge">
<title>2311&#45;&gt;2471</title>
<path fill="none" stroke="#ff0000" stroke-width=".2227" stroke-dasharray="1,5" d="M31.9972,-195.9042C26.2356,-184.7402 19.9665,-170.5201 17.0416,-156.9325 9.9167,-123.8335 13.243,-85.0814 17.3897,-57.995"/>
<polygon fill="#ff0000" stroke="#ff0000" stroke-width=".2227" points="20.8863,-58.3021 19.0619,-47.8655 13.9798,-57.1619 20.8863,-58.3021"/>
</g>
<!-- 2900 -->
<g id="node7" class="node">
<title>2900</title>
<ellipse fill="#ffffff" stroke="#000000" cx="50.0416" cy="-120.5079" rx="24.0833" ry="24.0833"/>
<text text-anchor="middle" x="50.0416" y="-117.8079" font-family="Times,serif" font-size="9.00" fill="#000000">2900</text>
</g>
<!-- 2311&#45;&gt;2900 -->
<g id="edge9" class="edge">
<title>2311&#45;&gt;2900</title>
<path fill="none" stroke="#00ff00" stroke-width=".1373" stroke-dasharray="1,5" d="M45.5248,-192.9531C46.2405,-181.4734 47.1126,-167.4866 47.8989,-154.8753"/>
<polygon fill="#00ff00" stroke="#00ff00" stroke-width=".1373" points="51.4047,-154.8891 48.5339,-144.6907 44.4183,-154.4534 51.4047,-154.8891"/>
</g>
<!-- 135&#45;&gt;A XOR B -->
<g id="edge2" class="edge">
<title>135&#45;&gt;A XOR B</title>
<path fill="none" stroke="#00ff00" stroke-width="1.0536" d="M143.7397,-195.8599C143.2072,-187.3193 142.5683,-177.0717 141.9357,-166.925"/>
<polygon fill="#00ff00" stroke="#00ff00" stroke-width="1.0536" points="145.4249,-166.6416 141.3093,-156.8788 138.4385,-167.0773 145.4249,-166.6416"/>
</g>
<!-- 2900&#45;&gt;2471 -->
<g id="edge10" class="edge">
<title>2900&#45;&gt;2471</title>
<path fill="none" stroke="#00ff00" stroke-width=".492" d="M43.7478,-97.1561C40.5142,-85.1588 36.5184,-70.3334 32.972,-57.1753"/>
<polygon fill="#00ff00" stroke="#00ff00" stroke-width=".492" points="36.3495,-56.2573 30.3677,-47.5127 29.5907,-58.079 36.3495,-56.2573"/>
</g>
</g>
</svg>
