<?xml version="1.0" encoding="UTF-8" standalone="no"?>
<!DOCTYPE svg PUBLIC "-//W3C//DTD SVG 1.1//EN"
 "http://www.w3.org/Graphics/SVG/1.1/DTD/svg11.dtd">
<!-- Generated by graphviz version 2.40.1 (20161225.0304)
 -->
<!-- Title: %3 Pages: 1 -->
<svg width="176pt" height="212pt"
 viewBox="0.00 0.00 176.11 211.57" xmlns="http://www.w3.org/2000/svg" xmlns:xlink="http://www.w3.org/1999/xlink">
<g id="graph0" class="graph" transform="scale(1 1) rotate(0) translate(4 207.5686)">
<title>%3</title>
<polygon fill="#ffffff" stroke="transparent" points="-4,4 -4,-207.5686 172.1094,-207.5686 172.1094,4 -4,4"/>
<!-- A -->
<g id="node1" class="node">
<title>A</title>
<polygon fill="#d3d3d3" stroke="#000000" points="22.7549,-203.5686 -.2554,-203.5686 -.2554,-186.5686 22.7549,-186.5686 22.7549,-203.5686"/>
<text text-anchor="middle" x="11.2498" y="-192.3686" font-family="Times,serif" font-size="9.00" fill="#000000">A</text>
</g>
<!-- A XOR B -->
<g id="node3" class="node">
<title>A XOR B</title>
<ellipse fill="#add8e6" stroke="#000000" cx="62.2498" cy="-36.4246" rx="36.3494" ry="36.3494"/>
<text text-anchor="middle" x="62.2498" y="-33.7246" font-family="Times,serif" font-size="9.00" fill="#000000">A XOR B</text>
</g>
<!-- A&#45;&gt;A XOR B -->
<g id="edge1" class="edge">
<title>A&#45;&gt;A XOR B</title>
<path fill="none" stroke="#ff0000" stroke-width=".2982" d="M8.8409,-186.462C4.839,-170.6181 -1.8823,-135.9741 7.2498,-108.8493 11.9521,-94.8821 20.5375,-81.4715 29.5491,-70.0686"/>
<polygon fill="#ff0000" stroke="#ff0000" stroke-width=".2982" points="32.4375,-72.0691 36.1369,-62.1411 27.0537,-67.5952 32.4375,-72.0691"/>
</g>
<!-- 40 -->
<g id="node5" class="node">
<title>40</title>
<ellipse fill="#ffffff" stroke="#000000" cx="34.2498" cy="-129.7089" rx="17.8571" ry="17.8571"/>
<text text-anchor="middle" x="34.2498" y="-127.0089" font-family="Times,serif" font-size="9.00" fill="#000000">40</text>
</g>
<!-- A&#45;&gt;40 -->
<g id="edge3" class="edge">
<title>A&#45;&gt;40</title>
<path fill="none" stroke="#00ff00" stroke-width=".6299" d="M14.2566,-186.5239C16.9788,-178.7881 21.1356,-166.9756 24.9552,-156.1214"/>
<polygon fill="#00ff00" stroke="#00ff00" stroke-width=".6299" points="28.2994,-157.162 28.3173,-146.5672 21.6963,-154.8384 28.2994,-157.162"/>
</g>
<!-- B -->
<g id="node2" class="node">
<title>B</title>
<polygon fill="#d3d3d3" stroke="#000000" points="115.2527,-203.5686 93.2468,-203.5686 93.2468,-186.5686 115.2527,-186.5686 115.2527,-203.5686"/>
<text text-anchor="middle" x="104.2498" y="-192.3686" font-family="Times,serif" font-size="9.00" fill="#000000">B</text>
</g>
<!-- B&#45;&gt;A XOR B -->
<g id="edge2" class="edge">
<title>B&#45;&gt;A XOR B</title>
<path fill="none" stroke="#00ff00" stroke-width=".3236" d="M101.9917,-186.5392C96.8521,-167.1258 83.9744,-118.4839 74.2603,-81.7911"/>
<polygon fill="#00ff00" stroke="#00ff00" stroke-width=".3236" points="77.5561,-80.5642 71.6133,-71.793 70.7892,-82.3557 77.5561,-80.5642"/>
</g>
<!-- 480 -->
<g id="node4" class="node">
<title>480</title>
<ellipse fill="#ffffff" stroke="#000000" cx="129.2498" cy="-129.7089" rx="20.7202" ry="20.7202"/>
<text text-anchor="middle" x="129.2498" y="-127.0089" font-family="Times,serif" font-size="9.00" fill="#000000">480</text>
</g>
<!-- B&#45;&gt;480 -->
<g id="edge7" class="edge">
<title>B&#45;&gt;480</title>
<path fill="none" stroke="#ff0000" stroke-width=".4661" d="M107.5181,-186.5239C110.2462,-179.3915 114.2999,-168.7935 118.1697,-158.6763"/>
<polygon fill="#ff0000" stroke="#ff0000" stroke-width=".4661" points="121.4707,-159.843 121.7743,-149.2526 114.9327,-157.3422 121.4707,-159.843"/>
</g>
<!-- B&#45;&gt;40 -->
<g id="edge5" class="edge">
<title>B&#45;&gt;40</title>
<path fill="none" stroke="#ff0000" stroke-width="1.1191" d="M95.0985,-186.5239C84.8753,-176.9785 68.0045,-161.226 54.617,-148.726"/>
<polygon fill="#ff0000" stroke="#ff0000" stroke-width="1.1191" points="56.9117,-146.08 47.2138,-141.8136 52.1344,-151.1965 56.9117,-146.08"/>
</g>
<!-- 146 -->
<g id="node6" class="node">
<title>146</title>
<ellipse fill="#ffffff" stroke="#000000" cx="147.2498" cy="-36.4246" rx="20.7202" ry="20.7202"/>
<text text-anchor="middle" x="147.2498" y="-33.7246" font-family="Times,serif" font-size="9.00" fill="#000000">146</text>
</g>
<!-- B&#45;&gt;146 -->
<g id="edge6" class="edge">
<title>B&#45;&gt;146</title>
<path fill="none" stroke="#00ff00" stroke-width=".6336" d="M115.6556,-189.7567C128.9536,-182.8533 150.2566,-169.413 159.2498,-150.5686 172.0156,-123.8189 165.8946,-89.6174 158.5253,-65.6554"/>
<polygon fill="#00ff00" stroke="#00ff00" stroke-width=".6336" points="161.814,-64.4528 155.3421,-56.0644 155.1704,-66.6578 161.814,-64.4528"/>
</g>
<!-- 480&#45;&gt;A XOR B -->
<g id="edge8" class="edge">
<title>480&#45;&gt;A XOR B</title>
<path fill="none" stroke="#00ff00" stroke-width=".4264" d="M116.9609,-112.5991C109.3374,-101.9849 99.2244,-87.9045 89.7684,-74.7389"/>
<polygon fill="#00ff00" stroke="#00ff00" stroke-width=".4264" points="92.3586,-72.3454 83.6822,-66.2651 86.6731,-76.429 92.3586,-72.3454"/>
</g>
<!-- 480&#45;&gt;146 -->
<g id="edge9" class="edge">
<title>480&#45;&gt;146</title>
<path fill="none" stroke="#00ff00" stroke-width=".1619" d="M133.2445,-109.0061C135.6215,-96.6874 138.6815,-80.829 141.3347,-67.0794"/>
<polygon fill="#00ff00" stroke="#00ff00" stroke-width=".1619" points="144.808,-67.5516 143.2661,-57.0696 137.9348,-66.2253 144.808,-67.5516"/>
</g>
<!-- 40&#45;&gt;A XOR B -->
<g id="edge4" class="edge">
<title>40&#45;&gt;A XOR B</title>
<path fill="none" stroke="#00ff00" stroke-width=".4913" d="M39.3854,-112.5991C42.0474,-103.7306 45.4357,-92.4421 48.7833,-81.2893"/>
<polygon fill="#00ff00" stroke="#00ff00" stroke-width=".4913" points="52.1726,-82.1716 51.6953,-71.5876 45.4681,-80.1592 52.1726,-82.1716"/>
</g>
</g>
</svg>
