<?xml version="1.0" encoding="UTF-8" standalone="no"?>
<!DOCTYPE svg PUBLIC "-//W3C//DTD SVG 1.1//EN"
 "http://www.w3.org/Graphics/SVG/1.1/DTD/svg11.dtd">
<!-- Generated by graphviz version 2.40.1 (20161225.0304)
 -->
<!-- Title: %3 Pages: 1 -->
<svg width="164pt" height="218pt"
 viewBox="0.00 0.00 164.29 217.93" xmlns="http://www.w3.org/2000/svg" xmlns:xlink="http://www.w3.org/1999/xlink">
<g id="graph0" class="graph" transform="scale(1 1) rotate(0) translate(4 213.9325)">
<title>%3</title>
<polygon fill="#ffffff" stroke="transparent" points="-4,4 -4,-213.9325 160.2914,-213.9325 160.2914,4 -4,4"/>
<!-- A -->
<g id="node1" class="node">
<title>A</title>
<polygon fill="#d3d3d3" stroke="#000000" points="22.7549,-209.9325 -.2554,-209.9325 -.2554,-192.9325 22.7549,-192.9325 22.7549,-209.9325"/>
<text text-anchor="middle" x="11.2498" y="-198.7325" font-family="Times,serif" font-size="9.00" fill="#000000">A</text>
</g>
<!-- A XOR B -->
<g id="node3" class="node">
<title>A XOR B</title>
<ellipse fill="#add8e6" stroke="#000000" cx="57.2498" cy="-36.4246" rx="36.3494" ry="36.3494"/>
<text text-anchor="middle" x="57.2498" y="-33.7246" font-family="Times,serif" font-size="9.00" fill="#000000">A XOR B</text>
</g>
<!-- A&#45;&gt;A XOR B -->
<g id="edge7" class="edge">
<title>A&#45;&gt;A XOR B</title>
<path fill="none" stroke="#00ff00" stroke-width=".2607" d="M8.9637,-192.7571C4.976,-176.0619 -1.9892,-138.4937 7.2498,-108.8493 11.3434,-95.7141 18.7435,-82.8586 26.6175,-71.7113"/>
<polygon fill="#00ff00" stroke="#00ff00" stroke-width=".2607" points="29.5311,-73.6583 32.6842,-63.5435 23.9117,-69.4843 29.5311,-73.6583"/>
</g>
<!-- 60 -->
<g id="node4" class="node">
<title>60</title>
<ellipse fill="#ffffff" stroke="#000000" cx="34.2498" cy="-132.8909" rx="17.8571" ry="17.8571"/>
<text text-anchor="middle" x="34.2498" y="-130.1909" font-family="Times,serif" font-size="9.00" fill="#000000">60</text>
</g>
<!-- A&#45;&gt;60 -->
<g id="edge1" class="edge">
<title>A&#45;&gt;60</title>
<path fill="none" stroke="#00ff00" stroke-width=".5988" d="M14.1627,-192.7517C16.9769,-184.3652 21.3851,-171.2285 25.3557,-159.3957"/>
<polygon fill="#00ff00" stroke="#00ff00" stroke-width=".5988" points="28.6804,-160.4896 28.5436,-149.8957 22.0441,-158.2627 28.6804,-160.4896"/>
</g>
<!-- B -->
<g id="node2" class="node">
<title>B</title>
<polygon fill="#d3d3d3" stroke="#000000" points="91.2527,-209.9325 69.2468,-209.9325 69.2468,-192.9325 91.2527,-192.9325 91.2527,-209.9325"/>
<text text-anchor="middle" x="80.2498" y="-198.7325" font-family="Times,serif" font-size="9.00" fill="#000000">B</text>
</g>
<!-- B&#45;&gt;A XOR B -->
<g id="edge4" class="edge">
<title>B&#45;&gt;A XOR B</title>
<path fill="none" stroke="#00ff00" stroke-width=".259" stroke-dasharray="1,5" d="M79.0132,-192.561C76.1695,-172.1596 69,-120.7241 63.6622,-82.4289"/>
<polygon fill="#00ff00" stroke="#00ff00" stroke-width=".259" points="67.1265,-81.9299 62.2794,-72.5088 60.1936,-82.8963 67.1265,-81.9299"/>
</g>
<!-- B&#45;&gt;60 -->
<g id="edge3" class="edge">
<title>B&#45;&gt;60</title>
<path fill="none" stroke="#00ff00" stroke-width=".7714" d="M74.4238,-192.7517C68.3153,-183.6498 58.4518,-168.9528 50.0272,-156.3998"/>
<polygon fill="#00ff00" stroke="#00ff00" stroke-width=".7714" points="52.7002,-154.1019 44.2213,-147.7489 46.8878,-158.0027 52.7002,-154.1019"/>
</g>
<!-- 3397 -->
<g id="node5" class="node">
<title>3397</title>
<ellipse fill="#ffffff" stroke="#000000" cx="132.2498" cy="-132.8909" rx="24.0833" ry="24.0833"/>
<text text-anchor="middle" x="132.2498" y="-130.1909" font-family="Times,serif" font-size="9.00" fill="#000000">3397</text>
</g>
<!-- B&#45;&gt;3397 -->
<g id="edge5" class="edge">
<title>B&#45;&gt;3397</title>
<path fill="none" stroke="#00ff00" stroke-width=".3677" d="M86.8356,-192.7517C93.0372,-184.5774 102.6624,-171.8903 111.4583,-160.2963"/>
<polygon fill="#00ff00" stroke="#00ff00" stroke-width=".3677" points="114.3999,-162.2097 117.6557,-152.1274 108.8232,-157.9788 114.3999,-162.2097"/>
</g>
<!-- 60&#45;&gt;A XOR B -->
<g id="edge2" class="edge">
<title>60&#45;&gt;A XOR B</title>
<path fill="none" stroke="#ff0000" stroke-width=".4585" d="M38.3617,-115.6447C40.6229,-106.1608 43.5449,-93.9051 46.4119,-81.8804"/>
<polygon fill="#ff0000" stroke="#ff0000" stroke-width=".4585" points="49.8768,-82.439 48.7915,-71.8999 43.0677,-80.8155 49.8768,-82.439"/>
</g>
<!-- 3397&#45;&gt;A XOR B -->
<g id="edge6" class="edge">
<title>3397&#45;&gt;A XOR B</title>
<path fill="none" stroke="#00ff00" stroke-width=".258" d="M117.4322,-113.8323C108.4392,-102.2654 96.6586,-87.113 85.9066,-73.2835"/>
<polygon fill="#00ff00" stroke="#00ff00" stroke-width=".258" points="88.6247,-71.0773 79.7236,-65.3309 83.0984,-75.3739 88.6247,-71.0773"/>
</g>
</g>
</svg>
