<?xml version="1.0" encoding="UTF-8" standalone="no"?>
<!DOCTYPE svg PUBLIC "-//W3C//DTD SVG 1.1//EN"
 "http://www.w3.org/Graphics/SVG/1.1/DTD/svg11.dtd">
<!-- Generated by graphviz version 2.40.1 (20161225.0304)
 -->
<!-- Title: %3 Pages: 1 -->
<svg width="356pt" height="821pt"
 viewBox="0.00 0.00 356.22 820.64" xmlns="http://www.w3.org/2000/svg" xmlns:xlink="http://www.w3.org/1999/xlink">
<g id="graph0" class="graph" transform="scale(1 1) rotate(0) translate(4 816.6416)">
<title>%3</title>
<polygon fill="#ffffff" stroke="transparent" points="-4,4 -4,-816.6416 352.2236,-816.6416 352.2236,4 -4,4"/>
<!-- input -->
<g id="node1" class="node">
<title>input</title>
<polygon fill="#d3d3d3" stroke="#000000" points="195.0045,-812.6416 160.9955,-812.6416 160.9955,-795.6416 195.0045,-795.6416 195.0045,-812.6416"/>
<text text-anchor="middle" x="178" y="-801.4416" font-family="Times,serif" font-size="9.00" fill="#000000">input</text>
</g>
<!-- 20994 -->
<g id="node6" class="node">
<title>20994</title>
<ellipse fill="#ffffff" stroke="#000000" cx="151" cy="-732.418" rx="27.4491" ry="27.4491"/>
<text text-anchor="middle" x="151" y="-729.718" font-family="Times,serif" font-size="9.00" fill="#000000">20994</text>
</g>
<!-- input&#45;&gt;20994 -->
<g id="edge20" class="edge">
<title>input&#45;&gt;20994</title>
<path fill="none" stroke="#00ff00" stroke-width=".6614" d="M174.7967,-795.6323C172.1444,-788.5866 168.1865,-778.0729 164.2563,-767.6323"/>
<polygon fill="#00ff00" stroke="#00ff00" stroke-width=".6614" points="167.4915,-766.292 160.6928,-758.1662 160.9404,-768.7582 167.4915,-766.292"/>
</g>
<!-- 4414 -->
<g id="node16" class="node">
<title>4414</title>
<ellipse fill="#ffffff" stroke="#000000" cx="206" cy="-645.1528" rx="24.0833" ry="24.0833"/>
<text text-anchor="middle" x="206" y="-642.4528" font-family="Times,serif" font-size="9.00" fill="#000000">4414</text>
</g>
<!-- input&#45;&gt;4414 -->
<g id="edge19" class="edge">
<title>input&#45;&gt;4414</title>
<path fill="none" stroke="#00ff00" stroke-width=".3953" stroke-dasharray="1,5" d="M179.8144,-795.6278C181.6986,-786.6841 184.6888,-772.1997 187,-759.6416 191.9652,-732.663 197.0231,-701.9981 200.6708,-679.1985"/>
<polygon fill="#00ff00" stroke="#00ff00" stroke-width=".3953" points="204.128,-679.7437 202.2421,-669.318 197.2149,-678.6442 204.128,-679.7437"/>
</g>
<!-- record -->
<g id="node2" class="node">
<title>record</title>
<polygon fill="#d3d3d3" stroke="#000000" points="160.4834,-566.0333 121.5166,-566.0333 121.5166,-549.0333 160.4834,-549.0333 160.4834,-566.0333"/>
<text text-anchor="middle" x="141" y="-554.8333" font-family="Times,serif" font-size="9.00" fill="#000000">record</text>
</g>
<!-- 486 -->
<g id="node8" class="node">
<title>486</title>
<ellipse fill="#ffffff" stroke="#000000" cx="195" cy="-473.0958" rx="20.7202" ry="20.7202"/>
<text text-anchor="middle" x="195" y="-470.3958" font-family="Times,serif" font-size="9.00" fill="#000000">486</text>
</g>
<!-- record&#45;&gt;486 -->
<g id="edge1" class="edge">
<title>record&#45;&gt;486</title>
<path fill="none" stroke="#ff0000" stroke-width=".2984" d="M146.5756,-548.815C154.0104,-537.1894 167.4943,-516.1052 178.3488,-499.1325"/>
<polygon fill="#ff0000" stroke="#ff0000" stroke-width=".2984" points="181.3002,-501.0137 183.7394,-490.7035 175.4031,-497.2423 181.3002,-501.0137"/>
</g>
<!-- play -->
<g id="node3" class="node">
<title>play</title>
<polygon fill="#d3d3d3" stroke="#000000" points="244.9991,-812.6416 213.0009,-812.6416 213.0009,-795.6416 244.9991,-795.6416 244.9991,-812.6416"/>
<text text-anchor="middle" x="229" y="-801.4416" font-family="Times,serif" font-size="9.00" fill="#000000">play</text>
</g>
<!-- output -->
<g id="node4" class="node">
<title>output</title>
<ellipse fill="#add8e6" stroke="#000000" cx="206" cy="-557.5333" rx="27.6559" ry="27.6559"/>
<text text-anchor="middle" x="206" y="-554.8333" font-family="Times,serif" font-size="9.00" fill="#000000">output</text>
</g>
<!-- output&#45;&gt;486 -->
<g id="edge13" class="edge">
<title>output&#45;&gt;486</title>
<path fill="none" stroke="#ff0000" stroke-width=".5418" d="M202.3982,-529.8853C201.3113,-521.542 200.1116,-512.3334 199.0004,-503.8035"/>
<polygon fill="#ff0000" stroke="#ff0000" stroke-width=".5418" points="202.4649,-503.3034 197.7023,-493.8394 195.5236,-504.2077 202.4649,-503.3034"/>
</g>
<!-- 17697 -->
<g id="node5" class="node">
<title>17697</title>
<ellipse fill="#ffffff" stroke="#000000" cx="321" cy="-298.5653" rx="27.4491" ry="27.4491"/>
<text text-anchor="middle" x="321" y="-295.8653" font-family="Times,serif" font-size="9.00" fill="#000000">17697</text>
</g>
<!-- 18765 -->
<g id="node12" class="node">
<title>18765</title>
<ellipse fill="#ffffff" stroke="#000000" cx="321" cy="-208.1181" rx="27.4491" ry="27.4491"/>
<text text-anchor="middle" x="321" y="-205.4181" font-family="Times,serif" font-size="9.00" fill="#000000">18765</text>
</g>
<!-- 17697&#45;&gt;18765 -->
<g id="edge16" class="edge">
<title>17697&#45;&gt;18765</title>
<path fill="none" stroke="#ff0000" stroke-width=".1884" stroke-dasharray="1,5" d="M321,-270.9367C321,-262.959 321,-254.1158 321,-245.644"/>
<polygon fill="#ff0000" stroke="#ff0000" stroke-width=".1884" points="324.5001,-245.5774 321,-235.5775 317.5001,-245.5775 324.5001,-245.5774"/>
</g>
<!-- 17697&#45;&gt;4414 -->
<g id="edge15" class="edge">
<title>17697&#45;&gt;4414</title>
<path fill="none" stroke="#00ff00" stroke-width=".2601" d="M325.7533,-325.4116C329.1998,-349.398 332.3971,-385.4081 327,-416.2361 313.2383,-494.8425 308.7839,-517.7473 266,-585.1111 257.013,-599.2612 244.1665,-612.6908 232.6646,-623.2465"/>
<polygon fill="#00ff00" stroke="#00ff00" stroke-width=".2601" points="230.1348,-620.8121 224.9805,-630.0686 234.7823,-626.0467 230.1348,-620.8121"/>
</g>
<!-- 12440 -->
<g id="node15" class="node">
<title>12440</title>
<ellipse fill="#ffffff" stroke="#000000" cx="132" cy="-27.2236" rx="27.4491" ry="27.4491"/>
<text text-anchor="middle" x="132" y="-24.5236" font-family="Times,serif" font-size="9.00" fill="#000000">12440</text>
</g>
<!-- 20994&#45;&gt;12440 -->
<g id="edge25" class="edge">
<title>20994&#45;&gt;12440</title>
<path fill="none" stroke="#ff0000" stroke-width=".1613" d="M127.0736,-719.3361C84.4957,-694.1029 0,-634.3505 0,-557.5333 0,-557.5333 0,-557.5333 0,-208.1181 0,-139.8059 62.1859,-80.0484 101.1924,-49.2845"/>
<polygon fill="#ff0000" stroke="#ff0000" stroke-width=".1613" points="103.8159,-51.6822 109.608,-42.8108 99.5478,-46.1339 103.8159,-51.6822"/>
</g>
<!-- 20994&#45;&gt;4414 -->
<g id="edge21" class="edge">
<title>20994&#45;&gt;4414</title>
<path fill="none" stroke="#ff0000" stroke-width=".4833" d="M165.739,-709.0325C172.4679,-698.3562 180.5064,-685.6019 187.625,-674.3073"/>
<polygon fill="#ff0000" stroke="#ff0000" stroke-width=".4833" points="190.7231,-675.9559 193.0941,-665.6298 184.8011,-672.2235 190.7231,-675.9559"/>
</g>
<!-- 5509 -->
<g id="node7" class="node">
<title>5509</title>
<ellipse fill="#ffffff" stroke="#000000" cx="294" cy="-389.0125" rx="24.0833" ry="24.0833"/>
<text text-anchor="middle" x="294" y="-386.3125" font-family="Times,serif" font-size="9.00" fill="#000000">5509</text>
</g>
<!-- 5509&#45;&gt;17697 -->
<g id="edge14" class="edge">
<title>5509&#45;&gt;17697</title>
<path fill="none" stroke="#ff0000" stroke-width=".1011" d="M300.9532,-365.7201C303.7713,-356.2798 307.0915,-345.1572 310.2105,-334.709"/>
<polygon fill="#ff0000" stroke="#ff0000" stroke-width=".1011" points="313.6095,-335.5586 313.1162,-324.9752 306.9019,-333.5562 313.6095,-335.5586"/>
</g>
<!-- 5509&#45;&gt;4414 -->
<g id="edge4" class="edge">
<title>5509&#45;&gt;4414</title>
<path fill="none" stroke="#ff0000" stroke-width=".3961" stroke-dasharray="1,5" d="M290.1419,-413.0026C283.5545,-450.7284 268.3365,-525.7408 243,-585.1111 238.3638,-595.975 231.9676,-607.1772 225.7963,-616.9201"/>
<polygon fill="#ff0000" stroke="#ff0000" stroke-width=".3961" points="222.7913,-615.1205 220.2489,-625.4057 228.6504,-618.9508 222.7913,-615.1205"/>
</g>
<!-- 486&#45;&gt;5509 -->
<g id="edge3" class="edge">
<title>486&#45;&gt;5509</title>
<path fill="none" stroke="#00ff00" stroke-width=".2735" d="M210.9061,-459.5863C226.1685,-446.6235 249.4987,-426.8086 267.557,-411.4712"/>
<polygon fill="#00ff00" stroke="#00ff00" stroke-width=".2735" points="270.0789,-413.9213 275.4351,-404.7801 265.5475,-408.586 270.0789,-413.9213"/>
</g>
<!-- 13259 -->
<g id="node9" class="node">
<title>13259</title>
<ellipse fill="#ffffff" stroke="#000000" cx="112" cy="-298.5653" rx="27.4491" ry="27.4491"/>
<text text-anchor="middle" x="112" y="-295.8653" font-family="Times,serif" font-size="9.00" fill="#000000">13259</text>
</g>
<!-- 486&#45;&gt;13259 -->
<g id="edge9" class="edge">
<title>486&#45;&gt;13259</title>
<path fill="none" stroke="#ff0000" stroke-width=".2355" d="M185.9595,-454.0857C172.1134,-424.9704 145.4508,-368.9048 128.2068,-332.6445"/>
<polygon fill="#ff0000" stroke="#ff0000" stroke-width=".2355" points="131.2809,-330.9591 123.8254,-323.4315 124.9594,-333.9654 131.2809,-330.9591"/>
</g>
<!-- 25227 -->
<g id="node10" class="node">
<title>25227</title>
<ellipse fill="#ffffff" stroke="#000000" cx="93" cy="-389.0125" rx="27.4491" ry="27.4491"/>
<text text-anchor="middle" x="93" y="-386.3125" font-family="Times,serif" font-size="9.00" fill="#000000">25227</text>
</g>
<!-- 486&#45;&gt;25227 -->
<g id="edge22" class="edge">
<title>486&#45;&gt;25227</title>
<path fill="none" stroke="#ff0000" stroke-width=".4423" d="M178.6119,-459.5863C163.473,-447.1066 140.6299,-428.276 122.3464,-413.2041"/>
<polygon fill="#ff0000" stroke="#ff0000" stroke-width=".4423" points="124.2533,-410.2401 114.3107,-406.5799 119.8007,-415.6415 124.2533,-410.2401"/>
</g>
<!-- 7349 -->
<g id="node14" class="node">
<title>7349</title>
<ellipse fill="#ffffff" stroke="#000000" cx="188" cy="-208.1181" rx="24.0833" ry="24.0833"/>
<text text-anchor="middle" x="188" y="-205.4181" font-family="Times,serif" font-size="9.00" fill="#000000">7349</text>
</g>
<!-- 486&#45;&gt;7349 -->
<g id="edge5" class="edge">
<title>486&#45;&gt;7349</title>
<path fill="none" stroke="#ff0000" stroke-width=".3077" stroke-dasharray="1,5" d="M190.6077,-452.3034C185.8427,-406.8005 182.6812,-298.0182 184.1964,-242.2926"/>
<polygon fill="#ff0000" stroke="#ff0000" stroke-width=".3077" points="187.6973,-242.3266 184.5485,-232.2105 180.7015,-242.0822 187.6973,-242.3266"/>
</g>
<!-- 13259&#45;&gt;7349 -->
<g id="edge10" class="edge">
<title>13259&#45;&gt;7349</title>
<path fill="none" stroke="#00ff00" stroke-width=".7677" stroke-dasharray="1,5" d="M129.627,-277.5875C140.4771,-264.6749 154.4734,-248.0179 166.0408,-234.2516"/>
<polygon fill="#00ff00" stroke="#00ff00" stroke-width=".7677" points="168.7751,-236.4381 172.5287,-226.5304 163.4159,-231.9349 168.7751,-236.4381"/>
</g>
<!-- 25227&#45;&gt;13259 -->
<g id="edge23" class="edge">
<title>25227&#45;&gt;13259</title>
<path fill="none" stroke="#00ff00" stroke-width=".178" d="M98.5979,-362.3645C100.3794,-353.8838 102.3825,-344.3483 104.2863,-335.2854"/>
<polygon fill="#00ff00" stroke="#00ff00" stroke-width=".178" points="107.7459,-335.8413 106.3765,-325.3353 100.8954,-334.4022 107.7459,-335.8413"/>
</g>
<!-- 14349 -->
<g id="node11" class="node">
<title>14349</title>
<ellipse fill="#ffffff" stroke="#000000" cx="132" cy="-117.6708" rx="27.4491" ry="27.4491"/>
<text text-anchor="middle" x="132" y="-114.9708" font-family="Times,serif" font-size="9.00" fill="#000000">14349</text>
</g>
<!-- 14349&#45;&gt;12440 -->
<g id="edge12" class="edge">
<title>14349&#45;&gt;12440</title>
<path fill="none" stroke="#ff0000" stroke-width=".5333" d="M132,-90.0422C132,-82.0645 132,-73.2213 132,-64.7495"/>
<polygon fill="#ff0000" stroke="#ff0000" stroke-width=".5333" points="135.5001,-64.683 132,-54.683 128.5001,-64.6831 135.5001,-64.683"/>
</g>
<!-- 19922 -->
<g id="node13" class="node">
<title>19922</title>
<ellipse fill="#ffffff" stroke="#000000" cx="242" cy="-117.6708" rx="27.4491" ry="27.4491"/>
<text text-anchor="middle" x="242" y="-114.9708" font-family="Times,serif" font-size="9.00" fill="#000000">19922</text>
</g>
<!-- 19922&#45;&gt;486 -->
<g id="edge18" class="edge">
<title>19922&#45;&gt;486</title>
<path fill="none" stroke="#00ff00" stroke-width=".2303" stroke-dasharray="1,5" d="M242.0385,-145.2128C241.5795,-198.3091 237.9464,-318.2449 216,-416.2361 213.8946,-425.6369 210.6095,-435.5854 207.2576,-444.4878"/>
<polygon fill="#00ff00" stroke="#00ff00" stroke-width=".2303" points="203.9155,-443.4225 203.5043,-454.0093 210.4278,-445.9896 203.9155,-443.4225"/>
</g>
<!-- 7349&#45;&gt;486 -->
<g id="edge7" class="edge">
<title>7349&#45;&gt;486</title>
<path fill="none" stroke="#ff0000" stroke-width=".7168" stroke-dasharray="1,5" d="M192.6867,-231.8225C197.3761,-279.8211 200.4038,-388.4854 198.7117,-442.0541"/>
<polygon fill="#ff0000" stroke="#ff0000" stroke-width=".7168" points="195.2042,-442.1691 198.2937,-452.3034 202.1984,-442.4543 195.2042,-442.1691"/>
</g>
<!-- 7349&#45;&gt;14349 -->
<g id="edge11" class="edge">
<title>7349&#45;&gt;14349</title>
<path fill="none" stroke="#00ff00" stroke-width=".159" d="M175.2927,-187.5942C168.3854,-176.4379 159.687,-162.3888 151.9022,-149.8155"/>
<polygon fill="#00ff00" stroke="#00ff00" stroke-width=".159" points="154.6739,-147.6433 146.4339,-140.9834 148.7223,-151.3282 154.6739,-147.6433"/>
</g>
<!-- 7349&#45;&gt;19922 -->
<g id="edge17" class="edge">
<title>7349&#45;&gt;19922</title>
<path fill="none" stroke="#00ff00" stroke-width=".6056" d="M200.5244,-187.1403C207.1432,-176.0541 215.4098,-162.208 222.8173,-149.8009"/>
<polygon fill="#00ff00" stroke="#00ff00" stroke-width=".6056" points="225.9023,-151.4612 228.0234,-141.0809 219.892,-147.8728 225.9023,-151.4612"/>
</g>
<!-- 7349&#45;&gt;12440 -->
<g id="edge8" class="edge">
<title>7349&#45;&gt;12440</title>
<path fill="none" stroke="#00ff00" stroke-width=".3875" stroke-dasharray="1,5" d="M186.3759,-184.0589C184.1751,-159.8303 179.1502,-121.6712 168,-90.4472 164.0973,-79.5184 158.3591,-68.2908 152.6054,-58.3866"/>
<polygon fill="#00ff00" stroke="#00ff00" stroke-width=".3875" points="155.5327,-56.4631 147.3694,-49.7094 149.5393,-60.0796 155.5327,-56.4631"/>
</g>
<!-- 4414&#45;&gt;output -->
<g id="edge2" class="edge">
<title>4414&#45;&gt;output</title>
<path fill="none" stroke="#ff0000" stroke-width=".4583" d="M206,-620.7458C206,-612.898 206,-604.0091 206,-595.4286"/>
<polygon fill="#ff0000" stroke="#ff0000" stroke-width=".4583" points="209.5001,-595.2058 206,-585.2059 202.5001,-595.2059 209.5001,-595.2058"/>
</g>
<!-- 4414&#45;&gt;13259 -->
<g id="edge24" class="edge">
<title>4414&#45;&gt;13259</title>
<path fill="none" stroke="#00ff00" stroke-width=".2011" d="M183.7211,-636.0483C162.6584,-626.3644 131.5898,-609.1206 113,-585.1111 64.5896,-522.5873 69.6056,-494.2995 57,-416.2361 53.1424,-392.3468 48.5213,-384.4537 57,-361.7889 62.4555,-347.2057 72.9621,-333.766 83.343,-323.0624"/>
<polygon fill="#00ff00" stroke="#00ff00" stroke-width=".2011" points="86.0965,-325.2656 90.8057,-315.7748 81.2058,-320.2574 86.0965,-325.2656"/>
</g>
<!-- 4414&#45;&gt;4414 -->
<g id="edge6" class="edge">
<title>4414&#45;&gt;4414</title>
<path fill="none" stroke="#00ff00" stroke-width=".4492" d="M225.0242,-660.14C236.8179,-663.754 248.0416,-658.7582 248.0416,-645.1528 248.0416,-635.5864 242.4928,-630.2766 235.0985,-629.2232"/>
<polygon fill="#00ff00" stroke="#00ff00" stroke-width=".4492" points="234.6547,-625.7494 225.0242,-630.1655 235.3067,-632.719 234.6547,-625.7494"/>
</g>
</g>
</svg>
