<?xml version="1.0" encoding="UTF-8" standalone="no"?>
<!DOCTYPE svg PUBLIC "-//W3C//DTD SVG 1.1//EN"
 "http://www.w3.org/Graphics/SVG/1.1/DTD/svg11.dtd">
<!-- Generated by graphviz version 2.40.1 (20161225.0304)
 -->
<!-- Title: %3 Pages: 1 -->
<svg width="283pt" height="281pt"
 viewBox="0.00 0.00 283.23 281.48" xmlns="http://www.w3.org/2000/svg" xmlns:xlink="http://www.w3.org/1999/xlink">
<g id="graph0" class="graph" transform="scale(1 1) rotate(0) translate(4 277.4821)">
<title>%3</title>
<polygon fill="#ffffff" stroke="transparent" points="-4,4 -4,-277.4821 279.227,-277.4821 279.227,4 -4,4"/>
<!-- x -->
<g id="node1" class="node">
<title>x</title>
<polygon fill="#d3d3d3" stroke="#000000" points="41.0476,-273.4821 21.0357,-273.4821 21.0357,-256.4821 41.0476,-256.4821 41.0476,-273.4821"/>
<text text-anchor="middle" x="31.0416" y="-262.2821" font-family="Times,serif" font-size="9.00" fill="#000000">x</text>
</g>
<!-- dx -->
<g id="node2" class="node">
<title>dx</title>
<polygon fill="#d3d3d3" stroke="#000000" points="129.5416,-204.9404 104.5416,-204.9404 104.5416,-187.9404 129.5416,-187.9404 129.5416,-204.9404"/>
<text text-anchor="middle" x="117.0416" y="-193.7404" font-family="Times,serif" font-size="9.00" fill="#000000">dx</text>
</g>
<!-- control -->
<g id="node5" class="node">
<title>control</title>
<ellipse fill="#add8e6" stroke="#000000" cx="170.0416" cy="-107.0591" rx="29.1804" ry="29.1804"/>
<text text-anchor="middle" x="170.0416" y="-104.3591" font-family="Times,serif" font-size="9.00" fill="#000000">control</text>
</g>
<!-- dx&#45;&gt;control -->
<g id="edge10" class="edge">
<title>dx&#45;&gt;control</title>
<path fill="none" stroke="#00ff00" stroke-width=".2029" d="M122.1235,-187.8702C128.5218,-177.0797 139.8957,-157.8983 149.957,-140.9307"/>
<polygon fill="#00ff00" stroke="#00ff00" stroke-width=".2029" points="152.9755,-142.7023 155.0654,-132.3156 146.9544,-139.132 152.9755,-142.7023"/>
</g>
<!-- 713 -->
<g id="node7" class="node">
<title>713</title>
<ellipse fill="#ffffff" stroke="#000000" cx="64.0416" cy="-107.0591" rx="20.7202" ry="20.7202"/>
<text text-anchor="middle" x="64.0416" y="-104.3591" font-family="Times,serif" font-size="9.00" fill="#000000">713</text>
</g>
<!-- dx&#45;&gt;713 -->
<g id="edge5" class="edge">
<title>dx&#45;&gt;713</title>
<path fill="none" stroke="#00ff00" stroke-width=".1925" d="M111.9598,-187.8702C104.6898,-175.6098 90.9964,-152.5167 80.1036,-134.1466"/>
<polygon fill="#00ff00" stroke="#00ff00" stroke-width=".1925" points="82.9778,-132.1315 74.8668,-125.3151 76.9568,-135.7018 82.9778,-132.1315"/>
</g>
<!-- 243 -->
<g id="node9" class="node">
<title>243</title>
<ellipse fill="#ffffff" stroke="#000000" cx="175.0416" cy="-20.8597" rx="20.7202" ry="20.7202"/>
<text text-anchor="middle" x="175.0416" y="-18.1597" font-family="Times,serif" font-size="9.00" fill="#000000">243</text>
</g>
<!-- dx&#45;&gt;243 -->
<g id="edge3" class="edge">
<title>dx&#45;&gt;243</title>
<path fill="none" stroke="#ff0000" stroke-width=".5825" d="M116.6411,-187.711C116.0296,-167.5261 116.2977,-116.3957 132.0416,-77.7193 137.0724,-65.3607 145.4924,-53.3268 153.5546,-43.5362"/>
<polygon fill="#ff0000" stroke="#ff0000" stroke-width=".5825" points="156.2767,-45.7391 160.1605,-35.8817 150.9772,-41.1656 156.2767,-45.7391"/>
</g>
<!-- theta -->
<g id="node3" class="node">
<title>theta</title>
<polygon fill="#d3d3d3" stroke="#000000" points="93.0355,-273.4821 59.0478,-273.4821 59.0478,-256.4821 93.0355,-256.4821 93.0355,-273.4821"/>
<text text-anchor="middle" x="76.0416" y="-262.2821" font-family="Times,serif" font-size="9.00" fill="#000000">theta</text>
</g>
<!-- theta&#45;&gt;control -->
<g id="edge1" class="edge">
<title>theta&#45;&gt;control</title>
<path fill="none" stroke="#00ff00" stroke-width=".8376" d="M92.9784,-256.9312C107.0473,-249.4009 126.5539,-236.8619 138.0416,-220.4821 153.3923,-198.5944 161.4092,-169.5016 165.5798,-146.2608"/>
<polygon fill="#00ff00" stroke="#00ff00" stroke-width=".8376" points="169.0376,-146.8023 167.1899,-136.3699 162.1286,-145.6776 169.0376,-146.8023"/>
</g>
<!-- 1827 -->
<g id="node6" class="node">
<title>1827</title>
<ellipse fill="#ffffff" stroke="#000000" cx="24.0416" cy="-196.4404" rx="24.0833" ry="24.0833"/>
<text text-anchor="middle" x="24.0416" y="-193.7404" font-family="Times,serif" font-size="9.00" fill="#000000">1827</text>
</g>
<!-- theta&#45;&gt;1827 -->
<g id="edge11" class="edge">
<title>theta&#45;&gt;1827</title>
<path fill="none" stroke="#00ff00" stroke-width=".1489" d="M69.4558,-256.3012C63.2542,-248.1269 53.629,-235.4398 44.8331,-223.8458"/>
<polygon fill="#00ff00" stroke="#00ff00" stroke-width=".1489" points="47.4682,-221.5283 38.6357,-215.677 41.8914,-225.7592 47.4682,-221.5283"/>
</g>
<!-- theta&#45;&gt;713 -->
<g id="edge7" class="edge">
<title>theta&#45;&gt;713</title>
<path fill="none" stroke="#ff0000" stroke-width=".3137" stroke-dasharray="1,5" d="M75.3621,-256.039C73.6698,-233.7688 69.2032,-174.9864 66.4131,-138.2675"/>
<polygon fill="#ff0000" stroke="#ff0000" stroke-width=".3137" points="69.8878,-137.8011 65.6401,-128.095 62.9079,-138.3315 69.8878,-137.8011"/>
</g>
<!-- dtheta -->
<g id="node4" class="node">
<title>dtheta</title>
<polygon fill="#d3d3d3" stroke="#000000" points="257.0319,-204.9404 219.0514,-204.9404 219.0514,-187.9404 257.0319,-187.9404 257.0319,-204.9404"/>
<text text-anchor="middle" x="238.0416" y="-193.7404" font-family="Times,serif" font-size="9.00" fill="#000000">dtheta</text>
</g>
<!-- dtheta&#45;&gt;control -->
<g id="edge2" class="edge">
<title>dtheta&#45;&gt;control</title>
<path fill="none" stroke="#00ff00" stroke-width=".3488" d="M231.5215,-187.8702C223.0085,-176.6804 207.6304,-156.4669 194.3846,-139.0562"/>
<polygon fill="#00ff00" stroke="#00ff00" stroke-width=".3488" points="196.9332,-136.6256 188.0928,-130.7861 191.3621,-140.8639 196.9332,-136.6256"/>
</g>
<!-- 970 -->
<g id="node8" class="node">
<title>970</title>
<ellipse fill="#ffffff" stroke="#000000" cx="238.0416" cy="-107.0591" rx="20.7202" ry="20.7202"/>
<text text-anchor="middle" x="238.0416" y="-104.3591" font-family="Times,serif" font-size="9.00" fill="#000000">970</text>
</g>
<!-- dtheta&#45;&gt;970 -->
<g id="edge8" class="edge">
<title>dtheta&#45;&gt;970</title>
<path fill="none" stroke="#ff0000" stroke-width=".201" d="M238.0416,-187.8702C238.0416,-176.5807 238.0416,-156.106 238.0416,-138.5916"/>
<polygon fill="#ff0000" stroke="#ff0000" stroke-width=".201" points="241.5417,-138.1775 238.0416,-128.1775 234.5417,-138.1775 241.5417,-138.1775"/>
</g>
<!-- dtheta&#45;&gt;243 -->
<g id="edge4" class="edge">
<title>dtheta&#45;&gt;243</title>
<path fill="none" stroke="#00ff00" stroke-width=".3777" stroke-dasharray="1,5" d="M244.2865,-187.8216C258.2234,-167.4397 289.0439,-115.1766 268.0416,-77.7193 254.638,-53.8142 226.6374,-38.7592 204.8444,-30.1914"/>
<polygon fill="#00ff00" stroke="#00ff00" stroke-width=".3777" points="205.9365,-26.864 195.3429,-26.7029 203.5238,-33.4351 205.9365,-26.864"/>
</g>
<!-- 1827&#45;&gt;713 -->
<g id="edge12" class="edge">
<title>1827&#45;&gt;713</title>
<path fill="none" stroke="#ff0000" stroke-width=".4334" d="M33.9293,-174.3462C39.2019,-162.5643 45.747,-147.9391 51.387,-135.3363"/>
<polygon fill="#ff0000" stroke="#ff0000" stroke-width=".4334" points="54.5973,-136.731 55.4875,-126.1736 48.2079,-133.8716 54.5973,-136.731"/>
</g>
<!-- 713&#45;&gt;243 -->
<g id="edge6" class="edge">
<title>713&#45;&gt;243</title>
<path fill="none" stroke="#ff0000" stroke-width=".4801" stroke-dasharray="1,5" d="M79.9182,-93.4331C85.8584,-88.4193 92.7024,-82.7414 99.0416,-77.7193 115.6694,-64.5463 134.7926,-50.2434 149.6968,-39.2781"/>
<polygon fill="#ff0000" stroke="#ff0000" stroke-width=".4801" points="151.937,-41.9757 157.9338,-33.2414 147.7991,-36.3296 151.937,-41.9757"/>
</g>
<!-- 970&#45;&gt;243 -->
<g id="edge9" class="edge">
<title>970&#45;&gt;243</title>
<path fill="none" stroke="#00ff00" stroke-width=".1094" d="M225.5949,-90.0288C216.4484,-77.5143 203.869,-60.3025 193.5469,-46.1794"/>
<polygon fill="#00ff00" stroke="#00ff00" stroke-width=".1094" points="196.189,-43.8628 187.4625,-37.8545 190.5375,-47.9933 196.189,-43.8628"/>
</g>
</g>
</svg>
