<?xml version="1.0" encoding="utf-8" standalone="no"?>
<!DOCTYPE svg PUBLIC "-//W3C//DTD SVG 1.1//EN"
  "http://www.w3.org/Graphics/SVG/1.1/DTD/svg11.dtd">
<!-- Created with matplotlib (https://matplotlib.org/) -->
<svg height="345.6pt" version="1.1" viewBox="0 0 460.8 345.6" width="460.8pt" xmlns="http://www.w3.org/2000/svg" xmlns:xlink="http://www.w3.org/1999/xlink">
 <defs>
  <style type="text/css">
*{stroke-linecap:butt;stroke-linejoin:round;}
  </style>
 </defs>
 <g id="figure_1">
  <g id="patch_1">
   <path d="M 0 345.6 
L 460.8 345.6 
L 460.8 0 
L 0 0 
z
" style="fill:#ffffff;"/>
  </g>
  <g id="axes_1">
   <g id="patch_2">
    <path d="M 57.6 307.584 
L 414.72 307.584 
L 414.72 41.472 
L 57.6 41.472 
z
" style="fill:#ffffff;"/>
   </g>
   <g id="PolyCollection_1">
    <path clip-path="url(#p715e0e392b)" d="M 73.832727 240.731717 
L 73.832727 307.584 
L 81.751131 307.584 
L 89.669534 307.584 
L 97.587938 307.584 
L 105.506341 307.584 
L 113.424745 307.584 
L 121.343149 307.584 
L 129.261552 307.584 
L 137.179956 307.584 
L 145.098359 307.584 
L 153.016763 307.584 
L 160.935166 307.584 
L 168.85357 307.584 
L 176.771973 307.584 
L 184.690377 307.584 
L 192.60878 307.584 
L 200.527184 307.584 
L 208.445588 307.584 
L 216.363991 307.584 
L 224.282395 307.584 
L 232.200798 307.584 
L 240.119202 307.584 
L 248.037605 307.584 
L 255.956009 307.584 
L 263.874412 307.584 
L 271.792816 307.584 
L 279.71122 307.584 
L 287.629623 307.584 
L 295.548027 307.584 
L 303.46643 307.584 
L 311.384834 307.584 
L 319.303237 307.584 
L 327.221641 307.584 
L 335.140044 307.584 
L 343.058448 307.584 
L 350.976851 307.584 
L 358.895255 307.584 
L 366.813659 307.584 
L 374.732062 307.584 
L 382.650466 307.584 
L 390.568869 307.584 
L 398.487273 307.584 
L 398.487273 293.614866 
L 398.487273 293.614866 
L 390.568869 275.654551 
L 382.650466 275.654551 
L 374.732062 262.683213 
L 366.813659 252.70526 
L 358.895255 270.665575 
L 350.976851 291.619276 
L 343.058448 296.608252 
L 335.140044 289.623685 
L 327.221641 270.665575 
L 319.303237 267.672189 
L 311.384834 267.672189 
L 303.46643 277.650142 
L 295.548027 287.628094 
L 287.629623 286.630299 
L 279.71122 286.630299 
L 271.792816 286.630299 
L 263.874412 282.639118 
L 255.956009 216.78463 
L 248.037605 273.658961 
L 240.119202 301.597228 
L 232.200798 270.665575 
L 224.282395 256.696441 
L 216.363991 300.599433 
L 208.445588 296.608252 
L 200.527184 278.647937 
L 192.60878 268.669984 
L 184.690377 299.601638 
L 176.771973 268.669984 
L 168.85357 292.617071 
L 160.935166 300.599433 
L 153.016763 287.628094 
L 145.098359 252.70526 
L 137.179956 282.639118 
L 129.261552 292.617071 
L 121.343149 291.619276 
L 113.424745 280.643528 
L 105.506341 284.634709 
L 97.587938 283.636913 
L 89.669534 283.636913 
L 81.751131 286.630299 
L 73.832727 240.731717 
z
" style="fill:#1f77b4;"/>
   </g>
   <g id="PolyCollection_2">
    <path clip-path="url(#p715e0e392b)" d="M 73.832727 222.771402 
L 73.832727 240.731717 
L 81.751131 286.630299 
L 89.669534 283.636913 
L 97.587938 283.636913 
L 105.506341 284.634709 
L 113.424745 280.643528 
L 121.343149 291.619276 
L 129.261552 292.617071 
L 137.179956 282.639118 
L 145.098359 252.70526 
L 153.016763 287.628094 
L 160.935166 300.599433 
L 168.85357 292.617071 
L 176.771973 268.669984 
L 184.690377 299.601638 
L 192.60878 268.669984 
L 200.527184 278.647937 
L 208.445588 296.608252 
L 216.363991 300.599433 
L 224.282395 256.696441 
L 232.200798 270.665575 
L 240.119202 301.597228 
L 248.037605 273.658961 
L 255.956009 216.78463 
L 263.874412 282.639118 
L 271.792816 286.630299 
L 279.71122 286.630299 
L 287.629623 286.630299 
L 295.548027 287.628094 
L 303.46643 277.650142 
L 311.384834 267.672189 
L 319.303237 267.672189 
L 327.221641 270.665575 
L 335.140044 289.623685 
L 343.058448 296.608252 
L 350.976851 291.619276 
L 358.895255 270.665575 
L 366.813659 252.70526 
L 374.732062 262.683213 
L 382.650466 275.654551 
L 390.568869 275.654551 
L 398.487273 293.614866 
L 398.487273 293.614866 
L 398.487273 293.614866 
L 390.568869 275.654551 
L 382.650466 275.654551 
L 374.732062 262.683213 
L 366.813659 252.70526 
L 358.895255 270.665575 
L 350.976851 291.619276 
L 343.058448 296.608252 
L 335.140044 289.623685 
L 327.221641 270.665575 
L 319.303237 267.672189 
L 311.384834 267.672189 
L 303.46643 277.650142 
L 295.548027 287.628094 
L 287.629623 286.630299 
L 279.71122 286.630299 
L 271.792816 241.729512 
L 263.874412 251.707465 
L 255.956009 199.82211 
L 248.037605 257.694236 
L 240.119202 283.636913 
L 232.200798 254.70085 
L 224.282395 239.733921 
L 216.363991 270.665575 
L 208.445588 271.66337 
L 200.527184 261.685417 
L 192.60878 252.70526 
L 184.690377 286.630299 
L 176.771973 254.70085 
L 168.85357 258.692031 
L 160.935166 265.676598 
L 153.016763 233.74715 
L 145.098359 213.791244 
L 137.179956 250.709669 
L 129.261552 253.703055 
L 121.343149 234.744945 
L 113.424745 245.720693 
L 105.506341 259.689827 
L 97.587938 254.70085 
L 89.669534 262.683213 
L 81.751131 241.729512 
L 73.832727 222.771402 
z
" style="fill:#ff7f0e;"/>
   </g>
   <g id="PolyCollection_3">
    <path clip-path="url(#p715e0e392b)" d="M 73.832727 180.864 
L 73.832727 222.771402 
L 81.751131 241.729512 
L 89.669534 262.683213 
L 97.587938 254.70085 
L 105.506341 259.689827 
L 113.424745 245.720693 
L 121.343149 234.744945 
L 129.261552 253.703055 
L 137.179956 250.709669 
L 145.098359 213.791244 
L 153.016763 233.74715 
L 160.935166 265.676598 
L 168.85357 258.692031 
L 176.771973 254.70085 
L 184.690377 286.630299 
L 192.60878 252.70526 
L 200.527184 261.685417 
L 208.445588 271.66337 
L 216.363991 270.665575 
L 224.282395 239.733921 
L 232.200798 254.70085 
L 240.119202 283.636913 
L 248.037605 257.694236 
L 255.956009 199.82211 
L 263.874412 251.707465 
L 271.792816 241.729512 
L 279.71122 286.630299 
L 287.629623 286.630299 
L 295.548027 287.628094 
L 303.46643 277.650142 
L 311.384834 267.672189 
L 319.303237 267.672189 
L 327.221641 270.665575 
L 335.140044 289.623685 
L 343.058448 296.608252 
L 350.976851 291.619276 
L 358.895255 270.665575 
L 366.813659 252.70526 
L 374.732062 262.683213 
L 382.650466 275.654551 
L 390.568869 275.654551 
L 398.487273 293.614866 
L 398.487273 293.614866 
L 398.487273 293.614866 
L 390.568869 275.654551 
L 382.650466 275.654551 
L 374.732062 262.683213 
L 366.813659 252.70526 
L 358.895255 270.665575 
L 350.976851 291.619276 
L 343.058448 296.608252 
L 335.140044 289.623685 
L 327.221641 270.665575 
L 319.303237 267.672189 
L 311.384834 267.672189 
L 303.46643 277.650142 
L 295.548027 287.628094 
L 287.629623 286.630299 
L 279.71122 286.630299 
L 271.792816 241.729512 
L 263.874412 248.714079 
L 255.956009 178.868409 
L 248.037605 239.733921 
L 240.119202 276.652346 
L 232.200798 245.720693 
L 224.282395 229.755969 
L 216.363991 261.685417 
L 208.445588 241.729512 
L 200.527184 230.753764 
L 192.60878 224.766992 
L 184.690377 254.70085 
L 176.771973 230.753764 
L 168.85357 246.718488 
L 160.935166 259.689827 
L 153.016763 214.789039 
L 145.098359 207.804472 
L 137.179956 199.82211 
L 129.261552 217.782425 
L 121.343149 215.786835 
L 113.424745 216.78463 
L 105.506341 223.769197 
L 97.587938 216.78463 
L 89.669534 231.751559 
L 81.751131 228.758173 
L 73.832727 180.864 
z
" style="fill:#2ca02c;"/>
   </g>
   <g id="PolyCollection_4">
    <path clip-path="url(#p715e0e392b)" d="M 73.832727 163.90148 
L 73.832727 180.864 
L 81.751131 228.758173 
L 89.669534 231.751559 
L 97.587938 216.78463 
L 105.506341 223.769197 
L 113.424745 216.78463 
L 121.343149 215.786835 
L 129.261552 217.782425 
L 137.179956 199.82211 
L 145.098359 207.804472 
L 153.016763 214.789039 
L 160.935166 259.689827 
L 168.85357 246.718488 
L 176.771973 230.753764 
L 184.690377 254.70085 
L 192.60878 224.766992 
L 200.527184 230.753764 
L 208.445588 241.729512 
L 216.363991 261.685417 
L 224.282395 229.755969 
L 232.200798 245.720693 
L 240.119202 276.652346 
L 248.037605 239.733921 
L 255.956009 178.868409 
L 263.874412 248.714079 
L 271.792816 241.729512 
L 279.71122 286.630299 
L 287.629623 286.630299 
L 295.548027 287.628094 
L 303.46643 277.650142 
L 311.384834 267.672189 
L 319.303237 267.672189 
L 327.221641 270.665575 
L 335.140044 289.623685 
L 343.058448 296.608252 
L 350.976851 291.619276 
L 358.895255 270.665575 
L 366.813659 252.70526 
L 374.732062 262.683213 
L 382.650466 275.654551 
L 390.568869 275.654551 
L 398.487273 293.614866 
L 398.487273 192.837543 
L 398.487273 192.837543 
L 390.568869 193.835339 
L 382.650466 204.811087 
L 374.732062 228.758173 
L 366.813659 237.738331 
L 358.895255 261.685417 
L 350.976851 278.647937 
L 343.058448 253.703055 
L 335.140044 237.738331 
L 327.221641 249.711874 
L 319.303237 252.70526 
L 311.384834 249.711874 
L 303.46643 252.70526 
L 295.548027 251.707465 
L 287.629623 239.733921 
L 279.71122 270.665575 
L 271.792816 236.740535 
L 263.874412 228.758173 
L 255.956009 175.875024 
L 248.037605 228.758173 
L 240.119202 263.681008 
L 232.200798 219.778016 
L 224.282395 218.78022 
L 216.363991 248.714079 
L 208.445588 220.775811 
L 200.527184 225.764787 
L 192.60878 218.78022 
L 184.690377 222.771402 
L 176.771973 183.857386 
L 168.85357 200.819906 
L 160.935166 199.82211 
L 153.016763 201.817701 
L 145.098359 187.848567 
L 137.179956 187.848567 
L 129.261552 181.861795 
L 121.343149 197.82652 
L 113.424745 205.808882 
L 105.506341 199.82211 
L 97.587938 196.828724 
L 89.669534 210.797858 
L 81.751131 192.837543 
L 73.832727 163.90148 
z
" style="fill:#d62728;"/>
   </g>
   <g id="PolyCollection_5">
    <path clip-path="url(#p715e0e392b)" d="M 73.832727 161.90589 
L 73.832727 163.90148 
L 81.751131 192.837543 
L 89.669534 210.797858 
L 97.587938 196.828724 
L 105.506341 199.82211 
L 113.424745 205.808882 
L 121.343149 197.82652 
L 129.261552 181.861795 
L 137.179956 187.848567 
L 145.098359 187.848567 
L 153.016763 201.817701 
L 160.935166 199.82211 
L 168.85357 200.819906 
L 176.771973 183.857386 
L 184.690377 222.771402 
L 192.60878 218.78022 
L 200.527184 225.764787 
L 208.445588 220.775811 
L 216.363991 248.714079 
L 224.282395 218.78022 
L 232.200798 219.778016 
L 240.119202 263.681008 
L 248.037605 228.758173 
L 255.956009 175.875024 
L 263.874412 228.758173 
L 271.792816 236.740535 
L 279.71122 270.665575 
L 287.629623 239.733921 
L 295.548027 251.707465 
L 303.46643 252.70526 
L 311.384834 249.711874 
L 319.303237 252.70526 
L 327.221641 249.711874 
L 335.140044 237.738331 
L 343.058448 253.703055 
L 350.976851 278.647937 
L 358.895255 261.685417 
L 366.813659 237.738331 
L 374.732062 228.758173 
L 382.650466 204.811087 
L 390.568869 193.835339 
L 398.487273 192.837543 
L 398.487273 192.837543 
L 398.487273 192.837543 
L 390.568869 193.835339 
L 382.650466 201.817701 
L 374.732062 226.762583 
L 366.813659 235.74274 
L 358.895255 260.687622 
L 350.976851 276.652346 
L 343.058448 251.707465 
L 335.140044 235.74274 
L 327.221641 246.718488 
L 319.303237 250.709669 
L 311.384834 246.718488 
L 303.46643 250.709669 
L 295.548027 248.714079 
L 287.629623 237.738331 
L 279.71122 267.672189 
L 271.792816 234.744945 
L 263.874412 226.762583 
L 255.956009 172.881638 
L 248.037605 226.762583 
L 240.119202 261.685417 
L 232.200798 216.78463 
L 224.282395 216.78463 
L 216.363991 245.720693 
L 208.445588 218.78022 
L 200.527184 222.771402 
L 192.60878 214.789039 
L 184.690377 219.778016 
L 176.771973 181.861795 
L 168.85357 198.824315 
L 160.935166 196.828724 
L 153.016763 199.82211 
L 145.098359 185.852976 
L 137.179956 184.855181 
L 129.261552 179.866205 
L 121.343149 194.833134 
L 113.424745 201.817701 
L 105.506341 196.828724 
L 97.587938 194.833134 
L 89.669534 206.806677 
L 81.751131 189.844157 
L 73.832727 161.90589 
z
" style="fill:#9467bd;"/>
   </g>
   <g id="PolyCollection_6">
    <path clip-path="url(#p715e0e392b)" d="M 73.832727 130.974236 
L 73.832727 161.90589 
L 81.751131 189.844157 
L 89.669534 206.806677 
L 97.587938 194.833134 
L 105.506341 196.828724 
L 113.424745 201.817701 
L 121.343149 194.833134 
L 129.261552 179.866205 
L 137.179956 184.855181 
L 145.098359 185.852976 
L 153.016763 199.82211 
L 160.935166 196.828724 
L 168.85357 198.824315 
L 176.771973 181.861795 
L 184.690377 219.778016 
L 192.60878 214.789039 
L 200.527184 222.771402 
L 208.445588 218.78022 
L 216.363991 245.720693 
L 224.282395 216.78463 
L 232.200798 216.78463 
L 240.119202 261.685417 
L 248.037605 226.762583 
L 255.956009 172.881638 
L 263.874412 226.762583 
L 271.792816 234.744945 
L 279.71122 267.672189 
L 287.629623 237.738331 
L 295.548027 248.714079 
L 303.46643 250.709669 
L 311.384834 246.718488 
L 319.303237 250.709669 
L 327.221641 246.718488 
L 335.140044 235.74274 
L 343.058448 251.707465 
L 350.976851 276.652346 
L 358.895255 260.687622 
L 366.813659 235.74274 
L 374.732062 226.762583 
L 382.650466 201.817701 
L 390.568869 193.835339 
L 398.487273 192.837543 
L 398.487273 174.877228 
L 398.487273 174.877228 
L 390.568869 182.859591 
L 382.650466 187.848567 
L 374.732062 213.791244 
L 366.813659 219.778016 
L 358.895255 245.720693 
L 350.976851 270.665575 
L 343.058448 234.744945 
L 335.140044 210.797858 
L 327.221641 236.740535 
L 319.303237 240.731717 
L 311.384834 227.760378 
L 303.46643 232.749354 
L 295.548027 230.753764 
L 287.629623 223.769197 
L 279.71122 258.692031 
L 271.792816 225.764787 
L 263.874412 217.782425 
L 255.956009 168.890457 
L 248.037605 213.791244 
L 240.119202 238.736126 
L 232.200798 207.804472 
L 224.282395 196.828724 
L 216.363991 233.74715 
L 208.445588 201.817701 
L 200.527184 209.800063 
L 192.60878 196.828724 
L 184.690377 196.828724 
L 176.771973 167.892661 
L 168.85357 189.844157 
L 160.935166 180.864 
L 153.016763 159.910299 
L 145.098359 164.899276 
L 137.179956 165.897071 
L 129.261552 172.881638 
L 121.343149 151.927937 
L 113.424745 171.883843 
L 105.506341 170.886047 
L 97.587938 164.899276 
L 89.669534 173.879433 
L 81.751131 162.903685 
L 73.832727 130.974236 
z
" style="fill:#8c564b;"/>
   </g>
   <g id="PolyCollection_7">
    <path clip-path="url(#p715e0e392b)" d="M 73.832727 120.996283 
L 73.832727 130.974236 
L 81.751131 162.903685 
L 89.669534 173.879433 
L 97.587938 164.899276 
L 105.506341 170.886047 
L 113.424745 171.883843 
L 121.343149 151.927937 
L 129.261552 172.881638 
L 137.179956 165.897071 
L 145.098359 164.899276 
L 153.016763 159.910299 
L 160.935166 180.864 
L 168.85357 189.844157 
L 176.771973 167.892661 
L 184.690377 196.828724 
L 192.60878 196.828724 
L 200.527184 209.800063 
L 208.445588 201.817701 
L 216.363991 233.74715 
L 224.282395 196.828724 
L 232.200798 207.804472 
L 240.119202 238.736126 
L 248.037605 213.791244 
L 255.956009 168.890457 
L 263.874412 217.782425 
L 271.792816 225.764787 
L 279.71122 258.692031 
L 287.629623 223.769197 
L 295.548027 230.753764 
L 303.46643 232.749354 
L 311.384834 227.760378 
L 319.303237 240.731717 
L 327.221641 236.740535 
L 335.140044 210.797858 
L 343.058448 234.744945 
L 350.976851 270.665575 
L 358.895255 245.720693 
L 366.813659 219.778016 
L 374.732062 213.791244 
L 382.650466 187.848567 
L 390.568869 182.859591 
L 398.487273 174.877228 
L 398.487273 169.888252 
L 398.487273 169.888252 
L 390.568869 152.925732 
L 382.650466 159.910299 
L 374.732062 204.811087 
L 366.813659 199.82211 
L 358.895255 207.804472 
L 350.976851 245.720693 
L 343.058448 200.819906 
L 335.140044 185.852976 
L 327.221641 213.791244 
L 319.303237 208.802268 
L 311.384834 211.795654 
L 303.46643 200.819906 
L 295.548027 205.808882 
L 287.629623 191.839748 
L 279.71122 184.855181 
L 271.792816 191.839748 
L 263.874412 177.870614 
L 255.956009 159.910299 
L 248.037605 206.806677 
L 240.119202 214.789039 
L 232.200798 192.837543 
L 224.282395 176.872819 
L 216.363991 220.775811 
L 208.445588 191.839748 
L 200.527184 198.824315 
L 192.60878 187.848567 
L 184.690377 181.861795 
L 176.771973 157.914709 
L 168.85357 181.861795 
L 160.935166 176.872819 
L 153.016763 154.921323 
L 145.098359 159.910299 
L 137.179956 162.903685 
L 129.261552 168.890457 
L 121.343149 149.932346 
L 113.424745 170.886047 
L 105.506341 154.921323 
L 97.587938 158.912504 
L 89.669534 166.894866 
L 81.751131 155.919118 
L 73.832727 120.996283 
z
" style="fill:#e377c2;"/>
   </g>
   <g id="PolyCollection_8">
    <path clip-path="url(#p715e0e392b)" d="M 73.832727 106.029354 
L 73.832727 120.996283 
L 81.751131 155.919118 
L 89.669534 166.894866 
L 97.587938 158.912504 
L 105.506341 154.921323 
L 113.424745 170.886047 
L 121.343149 149.932346 
L 129.261552 168.890457 
L 137.179956 162.903685 
L 145.098359 159.910299 
L 153.016763 154.921323 
L 160.935166 176.872819 
L 168.85357 181.861795 
L 176.771973 157.914709 
L 184.690377 181.861795 
L 192.60878 187.848567 
L 200.527184 198.824315 
L 208.445588 191.839748 
L 216.363991 220.775811 
L 224.282395 176.872819 
L 232.200798 192.837543 
L 240.119202 214.789039 
L 248.037605 206.806677 
L 255.956009 159.910299 
L 263.874412 177.870614 
L 271.792816 191.839748 
L 279.71122 184.855181 
L 287.629623 191.839748 
L 295.548027 205.808882 
L 303.46643 200.819906 
L 311.384834 211.795654 
L 319.303237 208.802268 
L 327.221641 213.791244 
L 335.140044 185.852976 
L 343.058448 200.819906 
L 350.976851 245.720693 
L 358.895255 207.804472 
L 366.813659 199.82211 
L 374.732062 204.811087 
L 382.650466 159.910299 
L 390.568869 152.925732 
L 398.487273 169.888252 
L 398.487273 167.892661 
L 398.487273 167.892661 
L 390.568869 151.927937 
L 382.650466 124.987465 
L 374.732062 176.872819 
L 366.813659 170.886047 
L 358.895255 196.828724 
L 350.976851 240.731717 
L 343.058448 197.82652 
L 335.140044 181.861795 
L 327.221641 210.797858 
L 319.303237 205.808882 
L 311.384834 208.802268 
L 303.46643 198.824315 
L 295.548027 202.815496 
L 287.629623 189.844157 
L 279.71122 181.861795 
L 271.792816 189.844157 
L 263.874412 174.877228 
L 255.956009 157.914709 
L 248.037605 203.813291 
L 240.119202 212.793449 
L 232.200798 189.844157 
L 224.282395 174.877228 
L 216.363991 217.782425 
L 208.445588 187.848567 
L 200.527184 194.833134 
L 192.60878 184.855181 
L 184.690377 179.866205 
L 176.771973 154.921323 
L 168.85357 180.864 
L 160.935166 173.879433 
L 153.016763 150.930142 
L 145.098359 156.916913 
L 137.179956 158.912504 
L 129.261552 164.899276 
L 121.343149 144.94337 
L 113.424745 166.894866 
L 105.506341 151.927937 
L 97.587938 152.925732 
L 89.669534 162.903685 
L 81.751131 154.921323 
L 73.832727 106.029354 
z
" style="fill:#7f7f7f;"/>
   </g>
   <g id="PolyCollection_9">
    <path clip-path="url(#p715e0e392b)" d="M 73.832727 84.077858 
L 73.832727 106.029354 
L 81.751131 154.921323 
L 89.669534 162.903685 
L 97.587938 152.925732 
L 105.506341 151.927937 
L 113.424745 166.894866 
L 121.343149 144.94337 
L 129.261552 164.899276 
L 137.179956 158.912504 
L 145.098359 156.916913 
L 153.016763 150.930142 
L 160.935166 173.879433 
L 168.85357 180.864 
L 176.771973 154.921323 
L 184.690377 179.866205 
L 192.60878 184.855181 
L 200.527184 194.833134 
L 208.445588 187.848567 
L 216.363991 217.782425 
L 224.282395 174.877228 
L 232.200798 189.844157 
L 240.119202 212.793449 
L 248.037605 203.813291 
L 255.956009 157.914709 
L 263.874412 174.877228 
L 271.792816 189.844157 
L 279.71122 181.861795 
L 287.629623 189.844157 
L 295.548027 202.815496 
L 303.46643 198.824315 
L 311.384834 208.802268 
L 319.303237 205.808882 
L 327.221641 210.797858 
L 335.140044 181.861795 
L 343.058448 197.82652 
L 350.976851 240.731717 
L 358.895255 196.828724 
L 366.813659 170.886047 
L 374.732062 176.872819 
L 382.650466 124.987465 
L 390.568869 151.927937 
L 398.487273 167.892661 
L 398.487273 150.930142 
L 398.487273 150.930142 
L 390.568869 135.963213 
L 382.650466 119.000693 
L 374.732062 159.910299 
L 366.813659 157.914709 
L 358.895255 176.872819 
L 350.976851 207.804472 
L 343.058448 169.888252 
L 335.140044 130.974236 
L 327.221641 188.846362 
L 319.303237 188.846362 
L 311.384834 186.850772 
L 303.46643 180.864 
L 295.548027 184.855181 
L 287.629623 178.868409 
L 279.71122 154.921323 
L 271.792816 178.868409 
L 263.874412 163.90148 
L 255.956009 143.945575 
L 248.037605 194.833134 
L 240.119202 209.800063 
L 232.200798 185.852976 
L 224.282395 159.910299 
L 216.363991 204.811087 
L 208.445588 170.886047 
L 200.527184 178.868409 
L 192.60878 140.952189 
L 184.690377 148.934551 
L 176.771973 141.949984 
L 168.85357 164.899276 
L 160.935166 163.90148 
L 153.016763 122.991874 
L 145.098359 138.956598 
L 137.179956 144.94337 
L 129.261552 145.941165 
L 121.343149 115.009512 
L 113.424745 119.000693 
L 105.506341 119.000693 
L 97.587938 122.991874 
L 89.669534 131.972031 
L 81.751131 107.02715 
L 73.832727 84.077858 
z
" style="fill:#bcbd22;"/>
   </g>
   <g id="PolyCollection_10">
    <path clip-path="url(#p715e0e392b)" d="M 73.832727 75.097701 
L 73.832727 84.077858 
L 81.751131 107.02715 
L 89.669534 131.972031 
L 97.587938 122.991874 
L 105.506341 119.000693 
L 113.424745 119.000693 
L 121.343149 115.009512 
L 129.261552 145.941165 
L 137.179956 144.94337 
L 145.098359 138.956598 
L 153.016763 122.991874 
L 160.935166 163.90148 
L 168.85357 164.899276 
L 176.771973 141.949984 
L 184.690377 148.934551 
L 192.60878 140.952189 
L 200.527184 178.868409 
L 208.445588 170.886047 
L 216.363991 204.811087 
L 224.282395 159.910299 
L 232.200798 185.852976 
L 240.119202 209.800063 
L 248.037605 194.833134 
L 255.956009 143.945575 
L 263.874412 163.90148 
L 271.792816 178.868409 
L 279.71122 154.921323 
L 287.629623 178.868409 
L 295.548027 184.855181 
L 303.46643 180.864 
L 311.384834 186.850772 
L 319.303237 188.846362 
L 327.221641 188.846362 
L 335.140044 130.974236 
L 343.058448 169.888252 
L 350.976851 207.804472 
L 358.895255 176.872819 
L 366.813659 157.914709 
L 374.732062 159.910299 
L 382.650466 119.000693 
L 390.568869 135.963213 
L 398.487273 150.930142 
L 398.487273 150.930142 
L 398.487273 150.930142 
L 390.568869 135.963213 
L 382.650466 119.000693 
L 374.732062 159.910299 
L 366.813659 157.914709 
L 358.895255 176.872819 
L 350.976851 207.804472 
L 343.058448 169.888252 
L 335.140044 130.974236 
L 327.221641 188.846362 
L 319.303237 188.846362 
L 311.384834 186.850772 
L 303.46643 180.864 
L 295.548027 184.855181 
L 287.629623 178.868409 
L 279.71122 154.921323 
L 271.792816 178.868409 
L 263.874412 163.90148 
L 255.956009 143.945575 
L 248.037605 194.833134 
L 240.119202 209.800063 
L 232.200798 182.859591 
L 224.282395 157.914709 
L 216.363991 201.817701 
L 208.445588 168.890457 
L 200.527184 175.875024 
L 192.60878 138.956598 
L 184.690377 145.941165 
L 176.771973 139.954394 
L 168.85357 162.903685 
L 160.935166 159.910299 
L 153.016763 119.000693 
L 145.098359 135.963213 
L 137.179956 142.94778 
L 129.261552 143.945575 
L 121.343149 112.016126 
L 113.424745 117.005102 
L 105.506341 115.009512 
L 97.587938 119.000693 
L 89.669534 125.98526 
L 81.751131 103.035969 
L 73.832727 75.097701 
z
" style="fill:#17becf;"/>
   </g>
   <g id="PolyCollection_11">
    <path clip-path="url(#p715e0e392b)" d="M 73.832727 74.099906 
L 73.832727 75.097701 
L 81.751131 103.035969 
L 89.669534 125.98526 
L 97.587938 119.000693 
L 105.506341 115.009512 
L 113.424745 117.005102 
L 121.343149 112.016126 
L 129.261552 143.945575 
L 137.179956 142.94778 
L 145.098359 135.963213 
L 153.016763 119.000693 
L 160.935166 159.910299 
L 168.85357 162.903685 
L 176.771973 139.954394 
L 184.690377 145.941165 
L 192.60878 138.956598 
L 200.527184 175.875024 
L 208.445588 168.890457 
L 216.363991 201.817701 
L 224.282395 157.914709 
L 232.200798 182.859591 
L 240.119202 209.800063 
L 248.037605 194.833134 
L 255.956009 143.945575 
L 263.874412 163.90148 
L 271.792816 178.868409 
L 279.71122 154.921323 
L 287.629623 178.868409 
L 295.548027 184.855181 
L 303.46643 180.864 
L 311.384834 186.850772 
L 319.303237 188.846362 
L 327.221641 188.846362 
L 335.140044 130.974236 
L 343.058448 169.888252 
L 350.976851 207.804472 
L 358.895255 176.872819 
L 366.813659 157.914709 
L 374.732062 159.910299 
L 382.650466 119.000693 
L 390.568869 135.963213 
L 398.487273 150.930142 
L 398.487273 143.945575 
L 398.487273 143.945575 
L 390.568869 130.974236 
L 382.650466 108.024945 
L 374.732062 147.936756 
L 366.813659 147.936756 
L 358.895255 164.899276 
L 350.976851 192.837543 
L 343.058448 159.910299 
L 335.140044 125.98526 
L 327.221641 172.881638 
L 319.303237 174.877228 
L 311.384834 174.877228 
L 303.46643 167.892661 
L 295.548027 165.897071 
L 287.629623 162.903685 
L 279.71122 134.965417 
L 271.792816 166.894866 
L 263.874412 155.919118 
L 255.956009 136.961008 
L 248.037605 183.857386 
L 240.119202 198.824315 
L 232.200798 171.883843 
L 224.282395 150.930142 
L 216.363991 194.833134 
L 208.445588 162.903685 
L 200.527184 167.892661 
L 192.60878 131.972031 
L 184.690377 137.958803 
L 176.771973 132.969827 
L 168.85357 157.914709 
L 160.935166 155.919118 
L 153.016763 113.013921 
L 145.098359 131.972031 
L 137.179956 138.956598 
L 129.261552 137.958803 
L 121.343149 107.02715 
L 113.424745 112.016126 
L 105.506341 112.016126 
L 97.587938 115.009512 
L 89.669534 119.998488 
L 81.751131 101.040378 
L 73.832727 74.099906 
z
" style="fill:#1f77b4;"/>
   </g>
   <g id="PolyCollection_12">
    <path clip-path="url(#p715e0e392b)" d="M 73.832727 73.10211 
L 73.832727 74.099906 
L 81.751131 101.040378 
L 89.669534 119.998488 
L 97.587938 115.009512 
L 105.506341 112.016126 
L 113.424745 112.016126 
L 121.343149 107.02715 
L 129.261552 137.958803 
L 137.179956 138.956598 
L 145.098359 131.972031 
L 153.016763 113.013921 
L 160.935166 155.919118 
L 168.85357 157.914709 
L 176.771973 132.969827 
L 184.690377 137.958803 
L 192.60878 131.972031 
L 200.527184 167.892661 
L 208.445588 162.903685 
L 216.363991 194.833134 
L 224.282395 150.930142 
L 232.200798 171.883843 
L 240.119202 198.824315 
L 248.037605 183.857386 
L 255.956009 136.961008 
L 263.874412 155.919118 
L 271.792816 166.894866 
L 279.71122 134.965417 
L 287.629623 162.903685 
L 295.548027 165.897071 
L 303.46643 167.892661 
L 311.384834 174.877228 
L 319.303237 174.877228 
L 327.221641 172.881638 
L 335.140044 125.98526 
L 343.058448 159.910299 
L 350.976851 192.837543 
L 358.895255 164.899276 
L 366.813659 147.936756 
L 374.732062 147.936756 
L 382.650466 108.024945 
L 390.568869 130.974236 
L 398.487273 143.945575 
L 398.487273 143.945575 
L 398.487273 143.945575 
L 390.568869 130.974236 
L 382.650466 108.024945 
L 374.732062 147.936756 
L 366.813659 144.94337 
L 358.895255 162.903685 
L 350.976851 191.839748 
L 343.058448 157.914709 
L 335.140044 122.991874 
L 327.221641 168.890457 
L 319.303237 169.888252 
L 311.384834 171.883843 
L 303.46643 163.90148 
L 295.548027 160.908094 
L 287.629623 158.912504 
L 279.71122 131.972031 
L 271.792816 164.899276 
L 263.874412 152.925732 
L 255.956009 134.965417 
L 248.037605 181.861795 
L 240.119202 196.828724 
L 232.200798 169.888252 
L 224.282395 148.934551 
L 216.363991 192.837543 
L 208.445588 159.910299 
L 200.527184 165.897071 
L 192.60878 129.976441 
L 184.690377 134.965417 
L 176.771973 130.974236 
L 168.85357 154.921323 
L 160.935166 154.921323 
L 153.016763 109.02274 
L 145.098359 129.976441 
L 137.179956 136.961008 
L 129.261552 134.965417 
L 121.343149 103.035969 
L 113.424745 106.029354 
L 105.506341 107.02715 
L 97.587938 111.018331 
L 89.669534 116.007307 
L 81.751131 98.046992 
L 73.832727 73.10211 
z
" style="fill:#ff7f0e;"/>
   </g>
   <g id="PolyCollection_13">
    <path clip-path="url(#p715e0e392b)" d="M 73.832727 71.10652 
L 73.832727 73.10211 
L 81.751131 98.046992 
L 89.669534 116.007307 
L 97.587938 111.018331 
L 105.506341 107.02715 
L 113.424745 106.029354 
L 121.343149 103.035969 
L 129.261552 134.965417 
L 137.179956 136.961008 
L 145.098359 129.976441 
L 153.016763 109.02274 
L 160.935166 154.921323 
L 168.85357 154.921323 
L 176.771973 130.974236 
L 184.690377 134.965417 
L 192.60878 129.976441 
L 200.527184 165.897071 
L 208.445588 159.910299 
L 216.363991 192.837543 
L 224.282395 148.934551 
L 232.200798 169.888252 
L 240.119202 196.828724 
L 248.037605 181.861795 
L 255.956009 134.965417 
L 263.874412 152.925732 
L 271.792816 164.899276 
L 279.71122 131.972031 
L 287.629623 158.912504 
L 295.548027 160.908094 
L 303.46643 163.90148 
L 311.384834 171.883843 
L 319.303237 169.888252 
L 327.221641 168.890457 
L 335.140044 122.991874 
L 343.058448 157.914709 
L 350.976851 191.839748 
L 358.895255 162.903685 
L 366.813659 144.94337 
L 374.732062 147.936756 
L 382.650466 108.024945 
L 390.568869 130.974236 
L 398.487273 143.945575 
L 398.487273 143.945575 
L 398.487273 143.945575 
L 390.568869 130.974236 
L 382.650466 108.024945 
L 374.732062 147.936756 
L 366.813659 144.94337 
L 358.895255 162.903685 
L 350.976851 191.839748 
L 343.058448 157.914709 
L 335.140044 122.991874 
L 327.221641 168.890457 
L 319.303237 169.888252 
L 311.384834 171.883843 
L 303.46643 163.90148 
L 295.548027 160.908094 
L 287.629623 158.912504 
L 279.71122 131.972031 
L 271.792816 164.899276 
L 263.874412 149.932346 
L 255.956009 132.969827 
L 248.037605 178.868409 
L 240.119202 194.833134 
L 232.200798 167.892661 
L 224.282395 146.938961 
L 216.363991 189.844157 
L 208.445588 156.916913 
L 200.527184 161.90589 
L 192.60878 127.98085 
L 184.690377 132.969827 
L 176.771973 128.978646 
L 168.85357 151.927937 
L 160.935166 152.925732 
L 153.016763 107.02715 
L 145.098359 126.983055 
L 137.179956 134.965417 
L 129.261552 131.972031 
L 121.343149 99.044787 
L 113.424745 100.042583 
L 105.506341 102.038173 
L 97.587938 107.02715 
L 89.669534 110.020535 
L 81.751131 96.051402 
L 73.832727 71.10652 
z
" style="fill:#2ca02c;"/>
   </g>
   <g id="PolyCollection_14">
    <path clip-path="url(#p715e0e392b)" d="M 73.832727 70.108724 
L 73.832727 71.10652 
L 81.751131 96.051402 
L 89.669534 110.020535 
L 97.587938 107.02715 
L 105.506341 102.038173 
L 113.424745 100.042583 
L 121.343149 99.044787 
L 129.261552 131.972031 
L 137.179956 134.965417 
L 145.098359 126.983055 
L 153.016763 107.02715 
L 160.935166 152.925732 
L 168.85357 151.927937 
L 176.771973 128.978646 
L 184.690377 132.969827 
L 192.60878 127.98085 
L 200.527184 161.90589 
L 208.445588 156.916913 
L 216.363991 189.844157 
L 224.282395 146.938961 
L 232.200798 167.892661 
L 240.119202 194.833134 
L 248.037605 178.868409 
L 255.956009 132.969827 
L 263.874412 149.932346 
L 271.792816 164.899276 
L 279.71122 131.972031 
L 287.629623 158.912504 
L 295.548027 160.908094 
L 303.46643 163.90148 
L 311.384834 171.883843 
L 319.303237 169.888252 
L 327.221641 168.890457 
L 335.140044 122.991874 
L 343.058448 157.914709 
L 350.976851 191.839748 
L 358.895255 162.903685 
L 366.813659 144.94337 
L 374.732062 147.936756 
L 382.650466 108.024945 
L 390.568869 130.974236 
L 398.487273 143.945575 
L 398.487273 143.945575 
L 398.487273 143.945575 
L 390.568869 130.974236 
L 382.650466 108.024945 
L 374.732062 147.936756 
L 366.813659 144.94337 
L 358.895255 162.903685 
L 350.976851 191.839748 
L 343.058448 157.914709 
L 335.140044 122.991874 
L 327.221641 168.890457 
L 319.303237 164.899276 
L 311.384834 168.890457 
L 303.46643 161.90589 
L 295.548027 157.914709 
L 287.629623 156.916913 
L 279.71122 128.978646 
L 271.792816 162.903685 
L 263.874412 147.936756 
L 255.956009 130.974236 
L 248.037605 176.872819 
L 240.119202 191.839748 
L 232.200798 165.897071 
L 224.282395 143.945575 
L 216.363991 187.848567 
L 208.445588 153.923528 
L 200.527184 159.910299 
L 192.60878 124.987465 
L 184.690377 130.974236 
L 176.771973 122.991874 
L 168.85357 148.934551 
L 160.935166 147.936756 
L 153.016763 104.033764 
L 145.098359 122.991874 
L 137.179956 131.972031 
L 129.261552 127.98085 
L 121.343149 96.051402 
L 113.424745 96.051402 
L 105.506341 98.046992 
L 97.587938 102.038173 
L 89.669534 104.033764 
L 81.751131 92.06022 
L 73.832727 70.108724 
z
" style="fill:#d62728;"/>
   </g>
   <g id="PolyCollection_15">
    <path clip-path="url(#p715e0e392b)" d="M 73.832727 69.110929 
L 73.832727 70.108724 
L 81.751131 92.06022 
L 89.669534 104.033764 
L 97.587938 102.038173 
L 105.506341 98.046992 
L 113.424745 96.051402 
L 121.343149 96.051402 
L 129.261552 127.98085 
L 137.179956 131.972031 
L 145.098359 122.991874 
L 153.016763 104.033764 
L 160.935166 147.936756 
L 168.85357 148.934551 
L 176.771973 122.991874 
L 184.690377 130.974236 
L 192.60878 124.987465 
L 200.527184 159.910299 
L 208.445588 153.923528 
L 216.363991 187.848567 
L 224.282395 143.945575 
L 232.200798 165.897071 
L 240.119202 191.839748 
L 248.037605 176.872819 
L 255.956009 130.974236 
L 263.874412 147.936756 
L 271.792816 162.903685 
L 279.71122 128.978646 
L 287.629623 156.916913 
L 295.548027 157.914709 
L 303.46643 161.90589 
L 311.384834 168.890457 
L 319.303237 164.899276 
L 327.221641 168.890457 
L 335.140044 122.991874 
L 343.058448 157.914709 
L 350.976851 191.839748 
L 358.895255 162.903685 
L 366.813659 144.94337 
L 374.732062 147.936756 
L 382.650466 108.024945 
L 390.568869 130.974236 
L 398.487273 143.945575 
L 398.487273 143.945575 
L 398.487273 143.945575 
L 390.568869 130.974236 
L 382.650466 108.024945 
L 374.732062 147.936756 
L 366.813659 144.94337 
L 358.895255 162.903685 
L 350.976851 191.839748 
L 343.058448 157.914709 
L 335.140044 122.991874 
L 327.221641 168.890457 
L 319.303237 164.899276 
L 311.384834 168.890457 
L 303.46643 161.90589 
L 295.548027 157.914709 
L 287.629623 156.916913 
L 279.71122 128.978646 
L 271.792816 162.903685 
L 263.874412 147.936756 
L 255.956009 130.974236 
L 248.037605 176.872819 
L 240.119202 189.844157 
L 232.200798 164.899276 
L 224.282395 140.952189 
L 216.363991 185.852976 
L 208.445588 150.930142 
L 200.527184 155.919118 
L 192.60878 121.994079 
L 184.690377 128.978646 
L 176.771973 121.994079 
L 168.85357 145.941165 
L 160.935166 143.945575 
L 153.016763 101.040378 
L 145.098359 119.000693 
L 137.179956 128.978646 
L 129.261552 123.989669 
L 121.343149 91.062425 
L 113.424745 90.06463 
L 105.506341 91.062425 
L 97.587938 96.051402 
L 89.669534 97.049197 
L 81.751131 86.073449 
L 73.832727 69.110929 
z
" style="fill:#9467bd;"/>
   </g>
   <g id="PolyCollection_16">
    <path clip-path="url(#p715e0e392b)" d="M 73.832727 68.113134 
L 73.832727 69.110929 
L 81.751131 86.073449 
L 89.669534 97.049197 
L 97.587938 96.051402 
L 105.506341 91.062425 
L 113.424745 90.06463 
L 121.343149 91.062425 
L 129.261552 123.989669 
L 137.179956 128.978646 
L 145.098359 119.000693 
L 153.016763 101.040378 
L 160.935166 143.945575 
L 168.85357 145.941165 
L 176.771973 121.994079 
L 184.690377 128.978646 
L 192.60878 121.994079 
L 200.527184 155.919118 
L 208.445588 150.930142 
L 216.363991 185.852976 
L 224.282395 140.952189 
L 232.200798 164.899276 
L 240.119202 189.844157 
L 248.037605 176.872819 
L 255.956009 130.974236 
L 263.874412 147.936756 
L 271.792816 162.903685 
L 279.71122 128.978646 
L 287.629623 156.916913 
L 295.548027 157.914709 
L 303.46643 161.90589 
L 311.384834 168.890457 
L 319.303237 164.899276 
L 327.221641 168.890457 
L 335.140044 122.991874 
L 343.058448 157.914709 
L 350.976851 191.839748 
L 358.895255 162.903685 
L 366.813659 144.94337 
L 374.732062 147.936756 
L 382.650466 108.024945 
L 390.568869 130.974236 
L 398.487273 143.945575 
L 398.487273 97.049197 
L 398.487273 97.049197 
L 390.568869 101.040378 
L 382.650466 97.049197 
L 374.732062 112.016126 
L 366.813659 125.98526 
L 358.895255 126.983055 
L 350.976851 164.899276 
L 343.058448 135.963213 
L 335.140044 105.031559 
L 327.221641 146.938961 
L 319.303237 135.963213 
L 311.384834 143.945575 
L 303.46643 131.972031 
L 295.548027 131.972031 
L 287.629623 127.98085 
L 279.71122 113.013921 
L 271.792816 118.002898 
L 263.874412 101.040378 
L 255.956009 116.007307 
L 248.037605 145.941165 
L 240.119202 153.923528 
L 232.200798 122.991874 
L 224.282395 120.996283 
L 216.363991 122.991874 
L 208.445588 147.936756 
L 200.527184 151.927937 
L 192.60878 119.000693 
L 184.690377 126.983055 
L 176.771973 119.998488 
L 168.85357 142.94778 
L 160.935166 138.956598 
L 153.016763 97.049197 
L 145.098359 116.007307 
L 137.179956 126.983055 
L 129.261552 120.996283 
L 121.343149 88.069039 
L 113.424745 86.073449 
L 105.506341 85.075654 
L 97.587938 90.06463 
L 89.669534 92.06022 
L 81.751131 83.080063 
L 73.832727 68.113134 
z
" style="fill:#8c564b;"/>
   </g>
   <g id="PolyCollection_17">
    <path clip-path="url(#p715e0e392b)" d="M 73.832727 65.119748 
L 73.832727 68.113134 
L 81.751131 83.080063 
L 89.669534 92.06022 
L 97.587938 90.06463 
L 105.506341 85.075654 
L 113.424745 86.073449 
L 121.343149 88.069039 
L 129.261552 120.996283 
L 137.179956 126.983055 
L 145.098359 116.007307 
L 153.016763 97.049197 
L 160.935166 138.956598 
L 168.85357 142.94778 
L 176.771973 119.998488 
L 184.690377 126.983055 
L 192.60878 119.000693 
L 200.527184 151.927937 
L 208.445588 147.936756 
L 216.363991 122.991874 
L 224.282395 120.996283 
L 232.200798 122.991874 
L 240.119202 153.923528 
L 248.037605 145.941165 
L 255.956009 116.007307 
L 263.874412 101.040378 
L 271.792816 118.002898 
L 279.71122 113.013921 
L 287.629623 127.98085 
L 295.548027 131.972031 
L 303.46643 131.972031 
L 311.384834 143.945575 
L 319.303237 135.963213 
L 327.221641 146.938961 
L 335.140044 105.031559 
L 343.058448 135.963213 
L 350.976851 164.899276 
L 358.895255 126.983055 
L 366.813659 125.98526 
L 374.732062 112.016126 
L 382.650466 97.049197 
L 390.568869 101.040378 
L 398.487273 97.049197 
L 398.487273 97.049197 
L 398.487273 97.049197 
L 390.568869 101.040378 
L 382.650466 97.049197 
L 374.732062 112.016126 
L 366.813659 125.98526 
L 358.895255 126.983055 
L 350.976851 164.899276 
L 343.058448 135.963213 
L 335.140044 105.031559 
L 327.221641 146.938961 
L 319.303237 101.040378 
L 311.384834 99.044787 
L 303.46643 115.009512 
L 295.548027 114.011717 
L 287.629623 113.013921 
L 279.71122 100.042583 
L 271.792816 101.040378 
L 263.874412 100.042583 
L 255.956009 88.069039 
L 248.037605 112.016126 
L 240.119202 116.007307 
L 232.200798 95.053606 
L 224.282395 107.02715 
L 216.363991 111.018331 
L 208.445588 109.02274 
L 200.527184 113.013921 
L 192.60878 104.033764 
L 184.690377 112.016126 
L 176.771973 103.035969 
L 168.85357 123.989669 
L 160.935166 122.991874 
L 153.016763 86.073449 
L 145.098359 108.024945 
L 137.179956 119.000693 
L 129.261552 117.005102 
L 121.343149 85.075654 
L 113.424745 83.080063 
L 105.506341 83.080063 
L 97.587938 89.066835 
L 89.669534 88.069039 
L 81.751131 80.086677 
L 73.832727 65.119748 
z
" style="fill:#e377c2;"/>
   </g>
   <g id="PolyCollection_18">
    <path clip-path="url(#p715e0e392b)" d="M 73.832727 64.121953 
L 73.832727 65.119748 
L 81.751131 80.086677 
L 89.669534 88.069039 
L 97.587938 89.066835 
L 105.506341 83.080063 
L 113.424745 83.080063 
L 121.343149 85.075654 
L 129.261552 117.005102 
L 137.179956 119.000693 
L 145.098359 108.024945 
L 153.016763 86.073449 
L 160.935166 122.991874 
L 168.85357 123.989669 
L 176.771973 103.035969 
L 184.690377 112.016126 
L 192.60878 104.033764 
L 200.527184 113.013921 
L 208.445588 109.02274 
L 216.363991 111.018331 
L 224.282395 107.02715 
L 232.200798 95.053606 
L 240.119202 116.007307 
L 248.037605 112.016126 
L 255.956009 88.069039 
L 263.874412 100.042583 
L 271.792816 101.040378 
L 279.71122 100.042583 
L 287.629623 113.013921 
L 295.548027 114.011717 
L 303.46643 115.009512 
L 311.384834 99.044787 
L 319.303237 101.040378 
L 327.221641 146.938961 
L 335.140044 105.031559 
L 343.058448 135.963213 
L 350.976851 164.899276 
L 358.895255 126.983055 
L 366.813659 125.98526 
L 374.732062 112.016126 
L 382.650466 97.049197 
L 390.568869 101.040378 
L 398.487273 97.049197 
L 398.487273 95.053606 
L 398.487273 95.053606 
L 390.568869 99.044787 
L 382.650466 95.053606 
L 374.732062 111.018331 
L 366.813659 117.005102 
L 358.895255 117.005102 
L 350.976851 150.930142 
L 343.058448 131.972031 
L 335.140044 100.042583 
L 327.221641 140.952189 
L 319.303237 96.051402 
L 311.384834 95.053606 
L 303.46643 110.020535 
L 295.548027 110.020535 
L 287.629623 108.024945 
L 279.71122 96.051402 
L 271.792816 96.051402 
L 263.874412 96.051402 
L 255.956009 85.075654 
L 248.037605 108.024945 
L 240.119202 110.020535 
L 232.200798 91.062425 
L 224.282395 104.033764 
L 216.363991 106.029354 
L 208.445588 103.035969 
L 200.527184 110.020535 
L 192.60878 100.042583 
L 184.690377 107.02715 
L 176.771973 99.044787 
L 168.85357 119.000693 
L 160.935166 118.002898 
L 153.016763 82.082268 
L 145.098359 105.031559 
L 137.179956 115.009512 
L 129.261552 111.018331 
L 121.343149 79.088882 
L 113.424745 78.091087 
L 105.506341 76.095496 
L 97.587938 82.082268 
L 89.669534 81.084472 
L 81.751131 73.10211 
L 73.832727 64.121953 
z
" style="fill:#7f7f7f;"/>
   </g>
   <g id="PolyCollection_19">
    <path clip-path="url(#p715e0e392b)" d="M 73.832727 63.124157 
L 73.832727 64.121953 
L 81.751131 73.10211 
L 89.669534 81.084472 
L 97.587938 82.082268 
L 105.506341 76.095496 
L 113.424745 78.091087 
L 121.343149 79.088882 
L 129.261552 111.018331 
L 137.179956 115.009512 
L 145.098359 105.031559 
L 153.016763 82.082268 
L 160.935166 118.002898 
L 168.85357 119.000693 
L 176.771973 99.044787 
L 184.690377 107.02715 
L 192.60878 100.042583 
L 200.527184 110.020535 
L 208.445588 103.035969 
L 216.363991 106.029354 
L 224.282395 104.033764 
L 232.200798 91.062425 
L 240.119202 110.020535 
L 248.037605 108.024945 
L 255.956009 85.075654 
L 263.874412 96.051402 
L 271.792816 96.051402 
L 279.71122 96.051402 
L 287.629623 108.024945 
L 295.548027 110.020535 
L 303.46643 110.020535 
L 311.384834 95.053606 
L 319.303237 96.051402 
L 327.221641 140.952189 
L 335.140044 100.042583 
L 343.058448 131.972031 
L 350.976851 150.930142 
L 358.895255 117.005102 
L 366.813659 117.005102 
L 374.732062 111.018331 
L 382.650466 95.053606 
L 390.568869 99.044787 
L 398.487273 95.053606 
L 398.487273 85.075654 
L 398.487273 85.075654 
L 390.568869 92.06022 
L 382.650466 68.113134 
L 374.732062 107.02715 
L 366.813659 115.009512 
L 358.895255 114.011717 
L 350.976851 148.934551 
L 343.058448 129.976441 
L 335.140044 97.049197 
L 327.221641 136.961008 
L 319.303237 93.058016 
L 311.384834 93.058016 
L 303.46643 108.024945 
L 295.548027 107.02715 
L 287.629623 104.033764 
L 279.71122 93.058016 
L 271.792816 94.055811 
L 263.874412 94.055811 
L 255.956009 83.080063 
L 248.037605 105.031559 
L 240.119202 108.024945 
L 232.200798 88.069039 
L 224.282395 102.038173 
L 216.363991 104.033764 
L 208.445588 100.042583 
L 200.527184 108.024945 
L 192.60878 98.046992 
L 184.690377 104.033764 
L 176.771973 97.049197 
L 168.85357 116.007307 
L 160.935166 116.007307 
L 153.016763 80.086677 
L 145.098359 102.038173 
L 137.179956 111.018331 
L 129.261552 108.024945 
L 121.343149 77.093291 
L 113.424745 76.095496 
L 105.506341 73.10211 
L 97.587938 77.093291 
L 89.669534 76.095496 
L 81.751131 69.110929 
L 73.832727 63.124157 
z
" style="fill:#bcbd22;"/>
   </g>
   <g id="PolyCollection_20">
    <path clip-path="url(#p715e0e392b)" d="M 73.832727 62.126362 
L 73.832727 63.124157 
L 81.751131 69.110929 
L 89.669534 76.095496 
L 97.587938 77.093291 
L 105.506341 73.10211 
L 113.424745 76.095496 
L 121.343149 77.093291 
L 129.261552 108.024945 
L 137.179956 111.018331 
L 145.098359 102.038173 
L 153.016763 80.086677 
L 160.935166 116.007307 
L 168.85357 116.007307 
L 176.771973 97.049197 
L 184.690377 104.033764 
L 192.60878 98.046992 
L 200.527184 108.024945 
L 208.445588 100.042583 
L 216.363991 104.033764 
L 224.282395 102.038173 
L 232.200798 88.069039 
L 240.119202 108.024945 
L 248.037605 105.031559 
L 255.956009 83.080063 
L 263.874412 94.055811 
L 271.792816 94.055811 
L 279.71122 93.058016 
L 287.629623 104.033764 
L 295.548027 107.02715 
L 303.46643 108.024945 
L 311.384834 93.058016 
L 319.303237 93.058016 
L 327.221641 136.961008 
L 335.140044 97.049197 
L 343.058448 129.976441 
L 350.976851 148.934551 
L 358.895255 114.011717 
L 366.813659 115.009512 
L 374.732062 107.02715 
L 382.650466 68.113134 
L 390.568869 92.06022 
L 398.487273 85.075654 
L 398.487273 73.10211 
L 398.487273 73.10211 
L 390.568869 80.086677 
L 382.650466 61.128567 
L 374.732062 90.06463 
L 366.813659 89.066835 
L 358.895255 100.042583 
L 350.976851 117.005102 
L 343.058448 113.013921 
L 335.140044 76.095496 
L 327.221641 114.011717 
L 319.303237 90.06463 
L 311.384834 86.073449 
L 303.46643 95.053606 
L 295.548027 99.044787 
L 287.629623 97.049197 
L 279.71122 75.097701 
L 271.792816 84.077858 
L 263.874412 91.062425 
L 255.956009 72.104315 
L 248.037605 74.099906 
L 240.119202 82.082268 
L 232.200798 76.095496 
L 224.282395 93.058016 
L 216.363991 80.086677 
L 208.445588 90.06463 
L 200.527184 90.06463 
L 192.60878 89.066835 
L 184.690377 89.066835 
L 176.771973 80.086677 
L 168.85357 93.058016 
L 160.935166 85.075654 
L 153.016763 68.113134 
L 145.098359 78.091087 
L 137.179956 80.086677 
L 129.261552 78.091087 
L 121.343149 74.099906 
L 113.424745 72.104315 
L 105.506341 69.110929 
L 97.587938 72.104315 
L 89.669534 71.10652 
L 81.751131 67.115339 
L 73.832727 62.126362 
z
" style="fill:#17becf;"/>
   </g>
   <g id="PolyCollection_21">
    <path clip-path="url(#p715e0e392b)" d="M 73.832727 61.128567 
L 73.832727 62.126362 
L 81.751131 67.115339 
L 89.669534 71.10652 
L 97.587938 72.104315 
L 105.506341 69.110929 
L 113.424745 72.104315 
L 121.343149 74.099906 
L 129.261552 78.091087 
L 137.179956 80.086677 
L 145.098359 78.091087 
L 153.016763 68.113134 
L 160.935166 85.075654 
L 168.85357 93.058016 
L 176.771973 80.086677 
L 184.690377 89.066835 
L 192.60878 89.066835 
L 200.527184 90.06463 
L 208.445588 90.06463 
L 216.363991 80.086677 
L 224.282395 93.058016 
L 232.200798 76.095496 
L 240.119202 82.082268 
L 248.037605 74.099906 
L 255.956009 72.104315 
L 263.874412 91.062425 
L 271.792816 84.077858 
L 279.71122 75.097701 
L 287.629623 97.049197 
L 295.548027 99.044787 
L 303.46643 95.053606 
L 311.384834 86.073449 
L 319.303237 90.06463 
L 327.221641 114.011717 
L 335.140044 76.095496 
L 343.058448 113.013921 
L 350.976851 117.005102 
L 358.895255 100.042583 
L 366.813659 89.066835 
L 374.732062 90.06463 
L 382.650466 61.128567 
L 390.568869 80.086677 
L 398.487273 73.10211 
L 398.487273 73.10211 
L 398.487273 73.10211 
L 390.568869 80.086677 
L 382.650466 61.128567 
L 374.732062 90.06463 
L 366.813659 89.066835 
L 358.895255 100.042583 
L 350.976851 117.005102 
L 343.058448 113.013921 
L 335.140044 76.095496 
L 327.221641 114.011717 
L 319.303237 87.071244 
L 311.384834 84.077858 
L 303.46643 93.058016 
L 295.548027 96.051402 
L 287.629623 93.058016 
L 279.71122 72.104315 
L 271.792816 80.086677 
L 263.874412 88.069039 
L 255.956009 70.108724 
L 248.037605 72.104315 
L 240.119202 80.086677 
L 232.200798 74.099906 
L 224.282395 91.062425 
L 216.363991 78.091087 
L 208.445588 87.071244 
L 200.527184 86.073449 
L 192.60878 86.073449 
L 184.690377 85.075654 
L 176.771973 77.093291 
L 168.85357 89.066835 
L 160.935166 82.082268 
L 153.016763 65.119748 
L 145.098359 75.097701 
L 137.179956 78.091087 
L 129.261552 76.095496 
L 121.343149 71.10652 
L 113.424745 67.115339 
L 105.506341 64.121953 
L 97.587938 66.117543 
L 89.669534 66.117543 
L 81.751131 60.130772 
L 73.832727 61.128567 
z
" style="fill:#1f77b4;"/>
   </g>
   <g id="PolyCollection_22">
    <path clip-path="url(#p715e0e392b)" d="M 73.832727 59.132976 
L 73.832727 61.128567 
L 81.751131 60.130772 
L 89.669534 66.117543 
L 97.587938 66.117543 
L 105.506341 64.121953 
L 113.424745 67.115339 
L 121.343149 71.10652 
L 129.261552 76.095496 
L 137.179956 78.091087 
L 145.098359 75.097701 
L 153.016763 65.119748 
L 160.935166 82.082268 
L 168.85357 89.066835 
L 176.771973 77.093291 
L 184.690377 85.075654 
L 192.60878 86.073449 
L 200.527184 86.073449 
L 208.445588 87.071244 
L 216.363991 78.091087 
L 224.282395 91.062425 
L 232.200798 74.099906 
L 240.119202 80.086677 
L 248.037605 72.104315 
L 255.956009 70.108724 
L 263.874412 88.069039 
L 271.792816 80.086677 
L 279.71122 72.104315 
L 287.629623 93.058016 
L 295.548027 96.051402 
L 303.46643 93.058016 
L 311.384834 84.077858 
L 319.303237 87.071244 
L 327.221641 114.011717 
L 335.140044 76.095496 
L 343.058448 113.013921 
L 350.976851 117.005102 
L 358.895255 100.042583 
L 366.813659 89.066835 
L 374.732062 90.06463 
L 382.650466 61.128567 
L 390.568869 80.086677 
L 398.487273 73.10211 
L 398.487273 58.135181 
L 398.487273 58.135181 
L 390.568869 58.135181 
L 382.650466 56.139591 
L 374.732062 59.132976 
L 366.813659 56.139591 
L 358.895255 58.135181 
L 350.976851 59.132976 
L 343.058448 60.130772 
L 335.140044 58.135181 
L 327.221641 59.132976 
L 319.303237 55.141795 
L 311.384834 57.137386 
L 303.46643 58.135181 
L 295.548027 57.137386 
L 287.629623 59.132976 
L 279.71122 60.130772 
L 271.792816 58.135181 
L 263.874412 56.139591 
L 255.956009 58.135181 
L 248.037605 58.135181 
L 240.119202 60.130772 
L 232.200798 57.137386 
L 224.282395 58.135181 
L 216.363991 59.132976 
L 208.445588 63.124157 
L 200.527184 58.135181 
L 192.60878 57.137386 
L 184.690377 60.130772 
L 176.771973 62.126362 
L 168.85357 57.137386 
L 160.935166 57.137386 
L 153.016763 57.137386 
L 145.098359 59.132976 
L 137.179956 60.130772 
L 129.261552 60.130772 
L 121.343149 59.132976 
L 113.424745 59.132976 
L 105.506341 58.135181 
L 97.587938 64.121953 
L 89.669534 64.121953 
L 81.751131 59.132976 
L 73.832727 59.132976 
z
" style="fill:#ff7f0e;"/>
   </g>
   <g id="PolyCollection_23">
    <path clip-path="url(#p715e0e392b)" d="M 73.832727 58.135181 
L 73.832727 59.132976 
L 81.751131 59.132976 
L 89.669534 64.121953 
L 97.587938 64.121953 
L 105.506341 58.135181 
L 113.424745 59.132976 
L 121.343149 59.132976 
L 129.261552 60.130772 
L 137.179956 60.130772 
L 145.098359 59.132976 
L 153.016763 57.137386 
L 160.935166 57.137386 
L 168.85357 57.137386 
L 176.771973 62.126362 
L 184.690377 60.130772 
L 192.60878 57.137386 
L 200.527184 58.135181 
L 208.445588 63.124157 
L 216.363991 59.132976 
L 224.282395 58.135181 
L 232.200798 57.137386 
L 240.119202 60.130772 
L 248.037605 58.135181 
L 255.956009 58.135181 
L 263.874412 56.139591 
L 271.792816 58.135181 
L 279.71122 60.130772 
L 287.629623 59.132976 
L 295.548027 57.137386 
L 303.46643 58.135181 
L 311.384834 57.137386 
L 319.303237 55.141795 
L 327.221641 59.132976 
L 335.140044 58.135181 
L 343.058448 60.130772 
L 350.976851 59.132976 
L 358.895255 58.135181 
L 366.813659 56.139591 
L 374.732062 59.132976 
L 382.650466 56.139591 
L 390.568869 58.135181 
L 398.487273 58.135181 
L 398.487273 58.135181 
L 398.487273 58.135181 
L 390.568869 58.135181 
L 382.650466 56.139591 
L 374.732062 59.132976 
L 366.813659 56.139591 
L 358.895255 58.135181 
L 350.976851 59.132976 
L 343.058448 60.130772 
L 335.140044 58.135181 
L 327.221641 59.132976 
L 319.303237 55.141795 
L 311.384834 57.137386 
L 303.46643 58.135181 
L 295.548027 57.137386 
L 287.629623 59.132976 
L 279.71122 60.130772 
L 271.792816 58.135181 
L 263.874412 56.139591 
L 255.956009 55.141795 
L 248.037605 56.139591 
L 240.119202 57.137386 
L 232.200798 55.141795 
L 224.282395 56.139591 
L 216.363991 58.135181 
L 208.445588 60.130772 
L 200.527184 56.139591 
L 192.60878 54.144 
L 184.690377 56.139591 
L 176.771973 59.132976 
L 168.85357 55.141795 
L 160.935166 55.141795 
L 153.016763 55.141795 
L 145.098359 57.137386 
L 137.179956 58.135181 
L 129.261552 58.135181 
L 121.343149 57.137386 
L 113.424745 56.139591 
L 105.506341 55.141795 
L 97.587938 60.130772 
L 89.669534 60.130772 
L 81.751131 57.137386 
L 73.832727 58.135181 
z
" style="fill:#2ca02c;"/>
   </g>
   <g id="matplotlib.axis_1">
    <g id="xtick_1">
     <g id="line2d_1">
      <defs>
       <path d="M 0 0 
L 0 3.5 
" id="m53341b5c60" style="stroke:#000000;stroke-width:0.8;"/>
      </defs>
      <g>
       <use style="stroke:#000000;stroke-width:0.8;" x="73.832727" xlink:href="#m53341b5c60" y="307.584"/>
      </g>
     </g>
     <g id="text_1">
      <!-- 0 -->
      <defs>
       <path d="M 31.78125 66.40625 
Q 24.171875 66.40625 20.328125 58.90625 
Q 16.5 51.421875 16.5 36.375 
Q 16.5 21.390625 20.328125 13.890625 
Q 24.171875 6.390625 31.78125 6.390625 
Q 39.453125 6.390625 43.28125 13.890625 
Q 47.125 21.390625 47.125 36.375 
Q 47.125 51.421875 43.28125 58.90625 
Q 39.453125 66.40625 31.78125 66.40625 
z
M 31.78125 74.21875 
Q 44.046875 74.21875 50.515625 64.515625 
Q 56.984375 54.828125 56.984375 36.375 
Q 56.984375 17.96875 50.515625 8.265625 
Q 44.046875 -1.421875 31.78125 -1.421875 
Q 19.53125 -1.421875 13.0625 8.265625 
Q 6.59375 17.96875 6.59375 36.375 
Q 6.59375 54.828125 13.0625 64.515625 
Q 19.53125 74.21875 31.78125 74.21875 
z
" id="DejaVuSans-48"/>
      </defs>
      <g transform="translate(70.651477 322.182437)scale(0.1 -0.1)">
       <use xlink:href="#DejaVuSans-48"/>
      </g>
     </g>
    </g>
    <g id="xtick_2">
     <g id="line2d_2">
      <g>
       <use style="stroke:#000000;stroke-width:0.8;" x="153.016763" xlink:href="#m53341b5c60" y="307.584"/>
      </g>
     </g>
     <g id="text_2">
      <!-- 10 -->
      <defs>
       <path d="M 12.40625 8.296875 
L 28.515625 8.296875 
L 28.515625 63.921875 
L 10.984375 60.40625 
L 10.984375 69.390625 
L 28.421875 72.90625 
L 38.28125 72.90625 
L 38.28125 8.296875 
L 54.390625 8.296875 
L 54.390625 0 
L 12.40625 0 
z
" id="DejaVuSans-49"/>
      </defs>
      <g transform="translate(146.654263 322.182437)scale(0.1 -0.1)">
       <use xlink:href="#DejaVuSans-49"/>
       <use x="63.623047" xlink:href="#DejaVuSans-48"/>
      </g>
     </g>
    </g>
    <g id="xtick_3">
     <g id="line2d_3">
      <g>
       <use style="stroke:#000000;stroke-width:0.8;" x="232.200798" xlink:href="#m53341b5c60" y="307.584"/>
      </g>
     </g>
     <g id="text_3">
      <!-- 20 -->
      <defs>
       <path d="M 19.1875 8.296875 
L 53.609375 8.296875 
L 53.609375 0 
L 7.328125 0 
L 7.328125 8.296875 
Q 12.9375 14.109375 22.625 23.890625 
Q 32.328125 33.6875 34.8125 36.53125 
Q 39.546875 41.84375 41.421875 45.53125 
Q 43.3125 49.21875 43.3125 52.78125 
Q 43.3125 58.59375 39.234375 62.25 
Q 35.15625 65.921875 28.609375 65.921875 
Q 23.96875 65.921875 18.8125 64.3125 
Q 13.671875 62.703125 7.8125 59.421875 
L 7.8125 69.390625 
Q 13.765625 71.78125 18.9375 73 
Q 24.125 74.21875 28.421875 74.21875 
Q 39.75 74.21875 46.484375 68.546875 
Q 53.21875 62.890625 53.21875 53.421875 
Q 53.21875 48.921875 51.53125 44.890625 
Q 49.859375 40.875 45.40625 35.40625 
Q 44.1875 33.984375 37.640625 27.21875 
Q 31.109375 20.453125 19.1875 8.296875 
z
" id="DejaVuSans-50"/>
      </defs>
      <g transform="translate(225.838298 322.182437)scale(0.1 -0.1)">
       <use xlink:href="#DejaVuSans-50"/>
       <use x="63.623047" xlink:href="#DejaVuSans-48"/>
      </g>
     </g>
    </g>
    <g id="xtick_4">
     <g id="line2d_4">
      <g>
       <use style="stroke:#000000;stroke-width:0.8;" x="311.384834" xlink:href="#m53341b5c60" y="307.584"/>
      </g>
     </g>
     <g id="text_4">
      <!-- 30 -->
      <defs>
       <path d="M 40.578125 39.3125 
Q 47.65625 37.796875 51.625 33 
Q 55.609375 28.21875 55.609375 21.1875 
Q 55.609375 10.40625 48.1875 4.484375 
Q 40.765625 -1.421875 27.09375 -1.421875 
Q 22.515625 -1.421875 17.65625 -0.515625 
Q 12.796875 0.390625 7.625 2.203125 
L 7.625 11.71875 
Q 11.71875 9.328125 16.59375 8.109375 
Q 21.484375 6.890625 26.8125 6.890625 
Q 36.078125 6.890625 40.9375 10.546875 
Q 45.796875 14.203125 45.796875 21.1875 
Q 45.796875 27.640625 41.28125 31.265625 
Q 36.765625 34.90625 28.71875 34.90625 
L 20.21875 34.90625 
L 20.21875 43.015625 
L 29.109375 43.015625 
Q 36.375 43.015625 40.234375 45.921875 
Q 44.09375 48.828125 44.09375 54.296875 
Q 44.09375 59.90625 40.109375 62.90625 
Q 36.140625 65.921875 28.71875 65.921875 
Q 24.65625 65.921875 20.015625 65.03125 
Q 15.375 64.15625 9.8125 62.3125 
L 9.8125 71.09375 
Q 15.4375 72.65625 20.34375 73.4375 
Q 25.25 74.21875 29.59375 74.21875 
Q 40.828125 74.21875 47.359375 69.109375 
Q 53.90625 64.015625 53.90625 55.328125 
Q 53.90625 49.265625 50.4375 45.09375 
Q 46.96875 40.921875 40.578125 39.3125 
z
" id="DejaVuSans-51"/>
      </defs>
      <g transform="translate(305.022334 322.182437)scale(0.1 -0.1)">
       <use xlink:href="#DejaVuSans-51"/>
       <use x="63.623047" xlink:href="#DejaVuSans-48"/>
      </g>
     </g>
    </g>
    <g id="xtick_5">
     <g id="line2d_5">
      <g>
       <use style="stroke:#000000;stroke-width:0.8;" x="390.568869" xlink:href="#m53341b5c60" y="307.584"/>
      </g>
     </g>
     <g id="text_5">
      <!-- 40 -->
      <defs>
       <path d="M 37.796875 64.3125 
L 12.890625 25.390625 
L 37.796875 25.390625 
z
M 35.203125 72.90625 
L 47.609375 72.90625 
L 47.609375 25.390625 
L 58.015625 25.390625 
L 58.015625 17.1875 
L 47.609375 17.1875 
L 47.609375 0 
L 37.796875 0 
L 37.796875 17.1875 
L 4.890625 17.1875 
L 4.890625 26.703125 
z
" id="DejaVuSans-52"/>
      </defs>
      <g transform="translate(384.206369 322.182437)scale(0.1 -0.1)">
       <use xlink:href="#DejaVuSans-52"/>
       <use x="63.623047" xlink:href="#DejaVuSans-48"/>
      </g>
     </g>
    </g>
    <g id="text_6">
     <!-- Generations -->
     <defs>
      <path d="M 59.515625 10.40625 
L 59.515625 29.984375 
L 43.40625 29.984375 
L 43.40625 38.09375 
L 69.28125 38.09375 
L 69.28125 6.78125 
Q 63.578125 2.734375 56.6875 0.65625 
Q 49.8125 -1.421875 42 -1.421875 
Q 24.90625 -1.421875 15.25 8.5625 
Q 5.609375 18.5625 5.609375 36.375 
Q 5.609375 54.25 15.25 64.234375 
Q 24.90625 74.21875 42 74.21875 
Q 49.125 74.21875 55.546875 72.453125 
Q 61.96875 70.703125 67.390625 67.28125 
L 67.390625 56.78125 
Q 61.921875 61.421875 55.765625 63.765625 
Q 49.609375 66.109375 42.828125 66.109375 
Q 29.4375 66.109375 22.71875 58.640625 
Q 16.015625 51.171875 16.015625 36.375 
Q 16.015625 21.625 22.71875 14.15625 
Q 29.4375 6.6875 42.828125 6.6875 
Q 48.046875 6.6875 52.140625 7.59375 
Q 56.25 8.5 59.515625 10.40625 
z
" id="DejaVuSans-71"/>
      <path d="M 56.203125 29.59375 
L 56.203125 25.203125 
L 14.890625 25.203125 
Q 15.484375 15.921875 20.484375 11.0625 
Q 25.484375 6.203125 34.421875 6.203125 
Q 39.59375 6.203125 44.453125 7.46875 
Q 49.3125 8.734375 54.109375 11.28125 
L 54.109375 2.78125 
Q 49.265625 0.734375 44.1875 -0.34375 
Q 39.109375 -1.421875 33.890625 -1.421875 
Q 20.796875 -1.421875 13.15625 6.1875 
Q 5.515625 13.8125 5.515625 26.8125 
Q 5.515625 40.234375 12.765625 48.109375 
Q 20.015625 56 32.328125 56 
Q 43.359375 56 49.78125 48.890625 
Q 56.203125 41.796875 56.203125 29.59375 
z
M 47.21875 32.234375 
Q 47.125 39.59375 43.09375 43.984375 
Q 39.0625 48.390625 32.421875 48.390625 
Q 24.90625 48.390625 20.390625 44.140625 
Q 15.875 39.890625 15.1875 32.171875 
z
" id="DejaVuSans-101"/>
      <path d="M 54.890625 33.015625 
L 54.890625 0 
L 45.90625 0 
L 45.90625 32.71875 
Q 45.90625 40.484375 42.875 44.328125 
Q 39.84375 48.1875 33.796875 48.1875 
Q 26.515625 48.1875 22.3125 43.546875 
Q 18.109375 38.921875 18.109375 30.90625 
L 18.109375 0 
L 9.078125 0 
L 9.078125 54.6875 
L 18.109375 54.6875 
L 18.109375 46.1875 
Q 21.34375 51.125 25.703125 53.5625 
Q 30.078125 56 35.796875 56 
Q 45.21875 56 50.046875 50.171875 
Q 54.890625 44.34375 54.890625 33.015625 
z
" id="DejaVuSans-110"/>
      <path d="M 41.109375 46.296875 
Q 39.59375 47.171875 37.8125 47.578125 
Q 36.03125 48 33.890625 48 
Q 26.265625 48 22.1875 43.046875 
Q 18.109375 38.09375 18.109375 28.8125 
L 18.109375 0 
L 9.078125 0 
L 9.078125 54.6875 
L 18.109375 54.6875 
L 18.109375 46.1875 
Q 20.953125 51.171875 25.484375 53.578125 
Q 30.03125 56 36.53125 56 
Q 37.453125 56 38.578125 55.875 
Q 39.703125 55.765625 41.0625 55.515625 
z
" id="DejaVuSans-114"/>
      <path d="M 34.28125 27.484375 
Q 23.390625 27.484375 19.1875 25 
Q 14.984375 22.515625 14.984375 16.5 
Q 14.984375 11.71875 18.140625 8.90625 
Q 21.296875 6.109375 26.703125 6.109375 
Q 34.1875 6.109375 38.703125 11.40625 
Q 43.21875 16.703125 43.21875 25.484375 
L 43.21875 27.484375 
z
M 52.203125 31.203125 
L 52.203125 0 
L 43.21875 0 
L 43.21875 8.296875 
Q 40.140625 3.328125 35.546875 0.953125 
Q 30.953125 -1.421875 24.3125 -1.421875 
Q 15.921875 -1.421875 10.953125 3.296875 
Q 6 8.015625 6 15.921875 
Q 6 25.140625 12.171875 29.828125 
Q 18.359375 34.515625 30.609375 34.515625 
L 43.21875 34.515625 
L 43.21875 35.40625 
Q 43.21875 41.609375 39.140625 45 
Q 35.0625 48.390625 27.6875 48.390625 
Q 23 48.390625 18.546875 47.265625 
Q 14.109375 46.140625 10.015625 43.890625 
L 10.015625 52.203125 
Q 14.9375 54.109375 19.578125 55.046875 
Q 24.21875 56 28.609375 56 
Q 40.484375 56 46.34375 49.84375 
Q 52.203125 43.703125 52.203125 31.203125 
z
" id="DejaVuSans-97"/>
      <path d="M 18.3125 70.21875 
L 18.3125 54.6875 
L 36.8125 54.6875 
L 36.8125 47.703125 
L 18.3125 47.703125 
L 18.3125 18.015625 
Q 18.3125 11.328125 20.140625 9.421875 
Q 21.96875 7.515625 27.59375 7.515625 
L 36.8125 7.515625 
L 36.8125 0 
L 27.59375 0 
Q 17.1875 0 13.234375 3.875 
Q 9.28125 7.765625 9.28125 18.015625 
L 9.28125 47.703125 
L 2.6875 47.703125 
L 2.6875 54.6875 
L 9.28125 54.6875 
L 9.28125 70.21875 
z
" id="DejaVuSans-116"/>
      <path d="M 9.421875 54.6875 
L 18.40625 54.6875 
L 18.40625 0 
L 9.421875 0 
z
M 9.421875 75.984375 
L 18.40625 75.984375 
L 18.40625 64.59375 
L 9.421875 64.59375 
z
" id="DejaVuSans-105"/>
      <path d="M 30.609375 48.390625 
Q 23.390625 48.390625 19.1875 42.75 
Q 14.984375 37.109375 14.984375 27.296875 
Q 14.984375 17.484375 19.15625 11.84375 
Q 23.34375 6.203125 30.609375 6.203125 
Q 37.796875 6.203125 41.984375 11.859375 
Q 46.1875 17.53125 46.1875 27.296875 
Q 46.1875 37.015625 41.984375 42.703125 
Q 37.796875 48.390625 30.609375 48.390625 
z
M 30.609375 56 
Q 42.328125 56 49.015625 48.375 
Q 55.71875 40.765625 55.71875 27.296875 
Q 55.71875 13.875 49.015625 6.21875 
Q 42.328125 -1.421875 30.609375 -1.421875 
Q 18.84375 -1.421875 12.171875 6.21875 
Q 5.515625 13.875 5.515625 27.296875 
Q 5.515625 40.765625 12.171875 48.375 
Q 18.84375 56 30.609375 56 
z
" id="DejaVuSans-111"/>
      <path d="M 44.28125 53.078125 
L 44.28125 44.578125 
Q 40.484375 46.53125 36.375 47.5 
Q 32.28125 48.484375 27.875 48.484375 
Q 21.1875 48.484375 17.84375 46.4375 
Q 14.5 44.390625 14.5 40.28125 
Q 14.5 37.15625 16.890625 35.375 
Q 19.28125 33.59375 26.515625 31.984375 
L 29.59375 31.296875 
Q 39.15625 29.25 43.1875 25.515625 
Q 47.21875 21.78125 47.21875 15.09375 
Q 47.21875 7.46875 41.1875 3.015625 
Q 35.15625 -1.421875 24.609375 -1.421875 
Q 20.21875 -1.421875 15.453125 -0.5625 
Q 10.6875 0.296875 5.421875 2 
L 5.421875 11.28125 
Q 10.40625 8.6875 15.234375 7.390625 
Q 20.0625 6.109375 24.8125 6.109375 
Q 31.15625 6.109375 34.5625 8.28125 
Q 37.984375 10.453125 37.984375 14.40625 
Q 37.984375 18.0625 35.515625 20.015625 
Q 33.0625 21.96875 24.703125 23.78125 
L 21.578125 24.515625 
Q 13.234375 26.265625 9.515625 29.90625 
Q 5.8125 33.546875 5.8125 39.890625 
Q 5.8125 47.609375 11.28125 51.796875 
Q 16.75 56 26.8125 56 
Q 31.78125 56 36.171875 55.265625 
Q 40.578125 54.546875 44.28125 53.078125 
z
" id="DejaVuSans-115"/>
     </defs>
     <g transform="translate(205.662344 335.860562)scale(0.1 -0.1)">
      <use xlink:href="#DejaVuSans-71"/>
      <use x="77.490234" xlink:href="#DejaVuSans-101"/>
      <use x="139.013672" xlink:href="#DejaVuSans-110"/>
      <use x="202.392578" xlink:href="#DejaVuSans-101"/>
      <use x="263.916016" xlink:href="#DejaVuSans-114"/>
      <use x="305.029297" xlink:href="#DejaVuSans-97"/>
      <use x="366.308594" xlink:href="#DejaVuSans-116"/>
      <use x="405.517578" xlink:href="#DejaVuSans-105"/>
      <use x="433.300781" xlink:href="#DejaVuSans-111"/>
      <use x="494.482422" xlink:href="#DejaVuSans-110"/>
      <use x="557.861328" xlink:href="#DejaVuSans-115"/>
     </g>
    </g>
   </g>
   <g id="matplotlib.axis_2">
    <g id="ytick_1">
     <g id="line2d_6">
      <defs>
       <path d="M 0 0 
L -3.5 0 
" id="m451cd9aa23" style="stroke:#000000;stroke-width:0.8;"/>
      </defs>
      <g>
       <use style="stroke:#000000;stroke-width:0.8;" x="57.6" xlink:href="#m451cd9aa23" y="307.584"/>
      </g>
     </g>
     <g id="text_7">
      <!-- 0 -->
      <g transform="translate(44.2375 311.383219)scale(0.1 -0.1)">
       <use xlink:href="#DejaVuSans-48"/>
      </g>
     </g>
    </g>
    <g id="ytick_2">
     <g id="line2d_7">
      <g>
       <use style="stroke:#000000;stroke-width:0.8;" x="57.6" xlink:href="#m451cd9aa23" y="257.694236"/>
      </g>
     </g>
     <g id="text_8">
      <!-- 50 -->
      <defs>
       <path d="M 10.796875 72.90625 
L 49.515625 72.90625 
L 49.515625 64.59375 
L 19.828125 64.59375 
L 19.828125 46.734375 
Q 21.96875 47.46875 24.109375 47.828125 
Q 26.265625 48.1875 28.421875 48.1875 
Q 40.625 48.1875 47.75 41.5 
Q 54.890625 34.8125 54.890625 23.390625 
Q 54.890625 11.625 47.5625 5.09375 
Q 40.234375 -1.421875 26.90625 -1.421875 
Q 22.3125 -1.421875 17.546875 -0.640625 
Q 12.796875 0.140625 7.71875 1.703125 
L 7.71875 11.625 
Q 12.109375 9.234375 16.796875 8.0625 
Q 21.484375 6.890625 26.703125 6.890625 
Q 35.15625 6.890625 40.078125 11.328125 
Q 45.015625 15.765625 45.015625 23.390625 
Q 45.015625 31 40.078125 35.4375 
Q 35.15625 39.890625 26.703125 39.890625 
Q 22.75 39.890625 18.8125 39.015625 
Q 14.890625 38.140625 10.796875 36.28125 
z
" id="DejaVuSans-53"/>
      </defs>
      <g transform="translate(37.875 261.493455)scale(0.1 -0.1)">
       <use xlink:href="#DejaVuSans-53"/>
       <use x="63.623047" xlink:href="#DejaVuSans-48"/>
      </g>
     </g>
    </g>
    <g id="ytick_3">
     <g id="line2d_8">
      <g>
       <use style="stroke:#000000;stroke-width:0.8;" x="57.6" xlink:href="#m451cd9aa23" y="207.804472"/>
      </g>
     </g>
     <g id="text_9">
      <!-- 100 -->
      <g transform="translate(31.5125 211.603691)scale(0.1 -0.1)">
       <use xlink:href="#DejaVuSans-49"/>
       <use x="63.623047" xlink:href="#DejaVuSans-48"/>
       <use x="127.246094" xlink:href="#DejaVuSans-48"/>
      </g>
     </g>
    </g>
    <g id="ytick_4">
     <g id="line2d_9">
      <g>
       <use style="stroke:#000000;stroke-width:0.8;" x="57.6" xlink:href="#m451cd9aa23" y="157.914709"/>
      </g>
     </g>
     <g id="text_10">
      <!-- 150 -->
      <g transform="translate(31.5125 161.713927)scale(0.1 -0.1)">
       <use xlink:href="#DejaVuSans-49"/>
       <use x="63.623047" xlink:href="#DejaVuSans-53"/>
       <use x="127.246094" xlink:href="#DejaVuSans-48"/>
      </g>
     </g>
    </g>
    <g id="ytick_5">
     <g id="line2d_10">
      <g>
       <use style="stroke:#000000;stroke-width:0.8;" x="57.6" xlink:href="#m451cd9aa23" y="108.024945"/>
      </g>
     </g>
     <g id="text_11">
      <!-- 200 -->
      <g transform="translate(31.5125 111.824164)scale(0.1 -0.1)">
       <use xlink:href="#DejaVuSans-50"/>
       <use x="63.623047" xlink:href="#DejaVuSans-48"/>
       <use x="127.246094" xlink:href="#DejaVuSans-48"/>
      </g>
     </g>
    </g>
    <g id="ytick_6">
     <g id="line2d_11">
      <g>
       <use style="stroke:#000000;stroke-width:0.8;" x="57.6" xlink:href="#m451cd9aa23" y="58.135181"/>
      </g>
     </g>
     <g id="text_12">
      <!-- 250 -->
      <g transform="translate(31.5125 61.9344)scale(0.1 -0.1)">
       <use xlink:href="#DejaVuSans-50"/>
       <use x="63.623047" xlink:href="#DejaVuSans-53"/>
       <use x="127.246094" xlink:href="#DejaVuSans-48"/>
      </g>
     </g>
    </g>
    <g id="text_13">
     <!-- Size per Species -->
     <defs>
      <path d="M 53.515625 70.515625 
L 53.515625 60.890625 
Q 47.90625 63.578125 42.921875 64.890625 
Q 37.9375 66.21875 33.296875 66.21875 
Q 25.25 66.21875 20.875 63.09375 
Q 16.5 59.96875 16.5 54.203125 
Q 16.5 49.359375 19.40625 46.890625 
Q 22.3125 44.4375 30.421875 42.921875 
L 36.375 41.703125 
Q 47.40625 39.59375 52.65625 34.296875 
Q 57.90625 29 57.90625 20.125 
Q 57.90625 9.515625 50.796875 4.046875 
Q 43.703125 -1.421875 29.984375 -1.421875 
Q 24.8125 -1.421875 18.96875 -0.25 
Q 13.140625 0.921875 6.890625 3.21875 
L 6.890625 13.375 
Q 12.890625 10.015625 18.65625 8.296875 
Q 24.421875 6.59375 29.984375 6.59375 
Q 38.421875 6.59375 43.015625 9.90625 
Q 47.609375 13.234375 47.609375 19.390625 
Q 47.609375 24.75 44.3125 27.78125 
Q 41.015625 30.8125 33.5 32.328125 
L 27.484375 33.5 
Q 16.453125 35.6875 11.515625 40.375 
Q 6.59375 45.0625 6.59375 53.421875 
Q 6.59375 63.09375 13.40625 68.65625 
Q 20.21875 74.21875 32.171875 74.21875 
Q 37.3125 74.21875 42.625 73.28125 
Q 47.953125 72.359375 53.515625 70.515625 
z
" id="DejaVuSans-83"/>
      <path d="M 5.515625 54.6875 
L 48.1875 54.6875 
L 48.1875 46.484375 
L 14.40625 7.171875 
L 48.1875 7.171875 
L 48.1875 0 
L 4.296875 0 
L 4.296875 8.203125 
L 38.09375 47.515625 
L 5.515625 47.515625 
z
" id="DejaVuSans-122"/>
      <path id="DejaVuSans-32"/>
      <path d="M 18.109375 8.203125 
L 18.109375 -20.796875 
L 9.078125 -20.796875 
L 9.078125 54.6875 
L 18.109375 54.6875 
L 18.109375 46.390625 
Q 20.953125 51.265625 25.265625 53.625 
Q 29.59375 56 35.59375 56 
Q 45.5625 56 51.78125 48.09375 
Q 58.015625 40.1875 58.015625 27.296875 
Q 58.015625 14.40625 51.78125 6.484375 
Q 45.5625 -1.421875 35.59375 -1.421875 
Q 29.59375 -1.421875 25.265625 0.953125 
Q 20.953125 3.328125 18.109375 8.203125 
z
M 48.6875 27.296875 
Q 48.6875 37.203125 44.609375 42.84375 
Q 40.53125 48.484375 33.40625 48.484375 
Q 26.265625 48.484375 22.1875 42.84375 
Q 18.109375 37.203125 18.109375 27.296875 
Q 18.109375 17.390625 22.1875 11.75 
Q 26.265625 6.109375 33.40625 6.109375 
Q 40.53125 6.109375 44.609375 11.75 
Q 48.6875 17.390625 48.6875 27.296875 
z
" id="DejaVuSans-112"/>
      <path d="M 48.78125 52.59375 
L 48.78125 44.1875 
Q 44.96875 46.296875 41.140625 47.34375 
Q 37.3125 48.390625 33.40625 48.390625 
Q 24.65625 48.390625 19.8125 42.84375 
Q 14.984375 37.3125 14.984375 27.296875 
Q 14.984375 17.28125 19.8125 11.734375 
Q 24.65625 6.203125 33.40625 6.203125 
Q 37.3125 6.203125 41.140625 7.25 
Q 44.96875 8.296875 48.78125 10.40625 
L 48.78125 2.09375 
Q 45.015625 0.34375 40.984375 -0.53125 
Q 36.96875 -1.421875 32.421875 -1.421875 
Q 20.0625 -1.421875 12.78125 6.34375 
Q 5.515625 14.109375 5.515625 27.296875 
Q 5.515625 40.671875 12.859375 48.328125 
Q 20.21875 56 33.015625 56 
Q 37.15625 56 41.109375 55.140625 
Q 45.0625 54.296875 48.78125 52.59375 
z
" id="DejaVuSans-99"/>
     </defs>
     <g transform="translate(25.432812 215.520969)rotate(-90)scale(0.1 -0.1)">
      <use xlink:href="#DejaVuSans-83"/>
      <use x="63.476562" xlink:href="#DejaVuSans-105"/>
      <use x="91.259766" xlink:href="#DejaVuSans-122"/>
      <use x="143.75" xlink:href="#DejaVuSans-101"/>
      <use x="205.273438" xlink:href="#DejaVuSans-32"/>
      <use x="237.060547" xlink:href="#DejaVuSans-112"/>
      <use x="300.537109" xlink:href="#DejaVuSans-101"/>
      <use x="362.060547" xlink:href="#DejaVuSans-114"/>
      <use x="403.173828" xlink:href="#DejaVuSans-32"/>
      <use x="434.960938" xlink:href="#DejaVuSans-83"/>
      <use x="498.4375" xlink:href="#DejaVuSans-112"/>
      <use x="561.914062" xlink:href="#DejaVuSans-101"/>
      <use x="623.4375" xlink:href="#DejaVuSans-99"/>
      <use x="678.417969" xlink:href="#DejaVuSans-105"/>
      <use x="706.201172" xlink:href="#DejaVuSans-101"/>
      <use x="767.724609" xlink:href="#DejaVuSans-115"/>
     </g>
    </g>
   </g>
   <g id="patch_3">
    <path d="M 57.6 307.584 
L 57.6 41.472 
" style="fill:none;stroke:#000000;stroke-linecap:square;stroke-linejoin:miter;stroke-width:0.8;"/>
   </g>
   <g id="patch_4">
    <path d="M 414.72 307.584 
L 414.72 41.472 
" style="fill:none;stroke:#000000;stroke-linecap:square;stroke-linejoin:miter;stroke-width:0.8;"/>
   </g>
   <g id="patch_5">
    <path d="M 57.6 307.584 
L 414.72 307.584 
" style="fill:none;stroke:#000000;stroke-linecap:square;stroke-linejoin:miter;stroke-width:0.8;"/>
   </g>
   <g id="patch_6">
    <path d="M 57.6 41.472 
L 414.72 41.472 
" style="fill:none;stroke:#000000;stroke-linecap:square;stroke-linejoin:miter;stroke-width:0.8;"/>
   </g>
   <g id="text_14">
    <!-- Speciation -->
    <g transform="translate(204.714375 35.472)scale(0.12 -0.12)">
     <use xlink:href="#DejaVuSans-83"/>
     <use x="63.476562" xlink:href="#DejaVuSans-112"/>
     <use x="126.953125" xlink:href="#DejaVuSans-101"/>
     <use x="188.476562" xlink:href="#DejaVuSans-99"/>
     <use x="243.457031" xlink:href="#DejaVuSans-105"/>
     <use x="271.240234" xlink:href="#DejaVuSans-97"/>
     <use x="332.519531" xlink:href="#DejaVuSans-116"/>
     <use x="371.728516" xlink:href="#DejaVuSans-105"/>
     <use x="399.511719" xlink:href="#DejaVuSans-111"/>
     <use x="460.693359" xlink:href="#DejaVuSans-110"/>
    </g>
   </g>
  </g>
 </g>
 <defs>
  <clipPath id="p715e0e392b">
   <rect height="266.112" width="357.12" x="57.6" y="41.472"/>
  </clipPath>
 </defs>
</svg>
